G04 #@! TF.GenerationSoftware,KiCad,Pcbnew,(5.1.10)-1*
G04 #@! TF.CreationDate,2021-09-26T13:37:53-07:00*
G04 #@! TF.ProjectId,m9042-clone,6d393034-322d-4636-9c6f-6e652e6b6963,1*
G04 #@! TF.SameCoordinates,Original*
G04 #@! TF.FileFunction,Copper,L2,Bot*
G04 #@! TF.FilePolarity,Positive*
%FSLAX46Y46*%
G04 Gerber Fmt 4.6, Leading zero omitted, Abs format (unit mm)*
G04 Created by KiCad (PCBNEW (5.1.10)-1) date 2021-09-26 13:37:53*
%MOMM*%
%LPD*%
G01*
G04 APERTURE LIST*
G04 #@! TA.AperFunction,ComponentPad*
%ADD10C,1.240000*%
G04 #@! TD*
G04 #@! TA.AperFunction,ComponentPad*
%ADD11R,1.240000X1.240000*%
G04 #@! TD*
G04 #@! TA.AperFunction,ConnectorPad*
%ADD12R,2.032000X13.208000*%
G04 #@! TD*
G04 #@! TA.AperFunction,ViaPad*
%ADD13C,0.800000*%
G04 #@! TD*
G04 #@! TA.AperFunction,ViaPad*
%ADD14C,1.200000*%
G04 #@! TD*
G04 #@! TA.AperFunction,Conductor*
%ADD15C,1.000000*%
G04 #@! TD*
G04 #@! TA.AperFunction,Conductor*
%ADD16C,0.500000*%
G04 #@! TD*
G04 #@! TA.AperFunction,Conductor*
%ADD17C,0.762000*%
G04 #@! TD*
G04 #@! TA.AperFunction,Conductor*
%ADD18C,0.100000*%
G04 #@! TD*
G04 APERTURE END LIST*
D10*
X360680000Y-255016000D03*
X358140000Y-255016000D03*
X360680000Y-252476000D03*
X358140000Y-252476000D03*
X360680000Y-249936000D03*
X358140000Y-249936000D03*
X360680000Y-247396000D03*
X358140000Y-247396000D03*
X360680000Y-244856000D03*
X358140000Y-244856000D03*
X360680000Y-242316000D03*
X358140000Y-242316000D03*
X360680000Y-239776000D03*
X358140000Y-239776000D03*
X360680000Y-237236000D03*
X358140000Y-237236000D03*
X360680000Y-234696000D03*
X358140000Y-234696000D03*
X360680000Y-232156000D03*
X358140000Y-232156000D03*
X360680000Y-229616000D03*
X358140000Y-229616000D03*
X360680000Y-227076000D03*
X358140000Y-227076000D03*
X360680000Y-224536000D03*
X358140000Y-224536000D03*
X360680000Y-221996000D03*
X358140000Y-221996000D03*
X360680000Y-219456000D03*
X358140000Y-219456000D03*
X360680000Y-216916000D03*
X358140000Y-216916000D03*
X360680000Y-214376000D03*
X358140000Y-214376000D03*
X360680000Y-211836000D03*
X358140000Y-211836000D03*
X360680000Y-209296000D03*
X358140000Y-209296000D03*
X360680000Y-206756000D03*
D11*
X358140000Y-206756000D03*
X320040000Y-206756000D03*
D10*
X322580000Y-206756000D03*
X320040000Y-209296000D03*
X322580000Y-209296000D03*
X320040000Y-211836000D03*
X322580000Y-211836000D03*
X320040000Y-214376000D03*
X322580000Y-214376000D03*
X320040000Y-216916000D03*
X322580000Y-216916000D03*
X320040000Y-219456000D03*
X322580000Y-219456000D03*
X320040000Y-221996000D03*
X322580000Y-221996000D03*
X320040000Y-224536000D03*
X322580000Y-224536000D03*
X320040000Y-227076000D03*
X322580000Y-227076000D03*
X320040000Y-229616000D03*
X322580000Y-229616000D03*
X320040000Y-232156000D03*
X322580000Y-232156000D03*
X320040000Y-234696000D03*
X322580000Y-234696000D03*
X320040000Y-237236000D03*
X322580000Y-237236000D03*
X320040000Y-239776000D03*
X322580000Y-239776000D03*
X320040000Y-242316000D03*
X322580000Y-242316000D03*
X320040000Y-244856000D03*
X322580000Y-244856000D03*
X320040000Y-247396000D03*
X322580000Y-247396000D03*
X320040000Y-249936000D03*
X322580000Y-249936000D03*
X320040000Y-252476000D03*
X322580000Y-252476000D03*
X320040000Y-255016000D03*
X322580000Y-255016000D03*
X284480000Y-255016000D03*
X281940000Y-255016000D03*
X284480000Y-252476000D03*
X281940000Y-252476000D03*
X284480000Y-249936000D03*
X281940000Y-249936000D03*
X284480000Y-247396000D03*
X281940000Y-247396000D03*
X284480000Y-244856000D03*
X281940000Y-244856000D03*
X284480000Y-242316000D03*
X281940000Y-242316000D03*
X284480000Y-239776000D03*
X281940000Y-239776000D03*
X284480000Y-237236000D03*
X281940000Y-237236000D03*
X284480000Y-234696000D03*
X281940000Y-234696000D03*
X284480000Y-232156000D03*
X281940000Y-232156000D03*
X284480000Y-229616000D03*
X281940000Y-229616000D03*
X284480000Y-227076000D03*
X281940000Y-227076000D03*
X284480000Y-224536000D03*
X281940000Y-224536000D03*
X284480000Y-221996000D03*
X281940000Y-221996000D03*
X284480000Y-219456000D03*
X281940000Y-219456000D03*
X284480000Y-216916000D03*
X281940000Y-216916000D03*
X284480000Y-214376000D03*
X281940000Y-214376000D03*
X284480000Y-211836000D03*
X281940000Y-211836000D03*
X284480000Y-209296000D03*
X281940000Y-209296000D03*
X284480000Y-206756000D03*
D11*
X281940000Y-206756000D03*
D12*
X332536800Y-297180000D03*
X329361800Y-297180000D03*
X326186800Y-297180000D03*
X323011800Y-297180000D03*
X319836800Y-297180000D03*
X316661800Y-297180000D03*
X313486800Y-297180000D03*
X310311800Y-297180000D03*
X307136800Y-297180000D03*
X303961800Y-297180000D03*
X300786800Y-297180000D03*
X297611800Y-297180000D03*
X294436800Y-297180000D03*
X291261800Y-297180000D03*
X288086800Y-297180000D03*
X284911800Y-297180000D03*
X281736800Y-297180000D03*
X278561800Y-297180000D03*
X348411800Y-297180000D03*
X351586800Y-297180000D03*
X354761800Y-297180000D03*
X357936800Y-297180000D03*
X361111800Y-297180000D03*
X364286800Y-297180000D03*
X367461800Y-297180000D03*
X370636800Y-297180000D03*
X373811800Y-297180000D03*
X376986800Y-297180000D03*
X380161800Y-297180000D03*
X383336800Y-297180000D03*
X386511800Y-297180000D03*
X389686800Y-297180000D03*
X392861800Y-297180000D03*
X396036800Y-297180000D03*
X399211800Y-297180000D03*
X402386800Y-297180000D03*
D13*
X329438000Y-206756000D03*
X327850500Y-208026000D03*
D14*
X329361798Y-286969200D03*
X348411800Y-286969200D03*
X326186798Y-286969200D03*
X396036800Y-287020000D03*
X404139400Y-287020000D03*
X276885400Y-284454600D03*
X283337000Y-271297400D03*
X320421000Y-268097000D03*
X349986600Y-265607800D03*
X365277400Y-276682200D03*
X312724800Y-248488200D03*
X304241200Y-220827600D03*
X337210400Y-215823800D03*
X279273000Y-204520800D03*
X326364600Y-204647800D03*
X401193000Y-204647800D03*
X401269200Y-237413800D03*
X364058200Y-204698600D03*
D13*
X332613000Y-233426000D03*
X331025500Y-230886000D03*
X311899300Y-251206000D03*
X308724300Y-246126000D03*
X305549300Y-241046000D03*
X302374300Y-235966000D03*
X299199300Y-230886000D03*
X296024300Y-225806000D03*
X292849300Y-220726000D03*
X289674300Y-215646000D03*
X315087004Y-266674600D03*
X280162000Y-289052004D03*
X342138000Y-243586000D03*
X343725500Y-248666000D03*
X345313000Y-253746000D03*
X351790000Y-210566000D03*
X353377500Y-225806000D03*
X367461800Y-210566000D03*
X369049300Y-213106000D03*
X372224300Y-218186000D03*
X375399300Y-223266000D03*
X378574300Y-228346000D03*
X381749300Y-233426000D03*
X384924300Y-238506000D03*
X388099300Y-243586000D03*
X391274300Y-248666000D03*
X316611000Y-264109200D03*
X318262000Y-269138400D03*
X288086800Y-289052000D03*
X288086800Y-213106000D03*
X291261800Y-289052000D03*
X291261800Y-218186000D03*
X294436800Y-289052000D03*
X294436800Y-223266000D03*
X297611800Y-289052000D03*
X297611800Y-228346000D03*
X300786800Y-289052000D03*
X300786800Y-233426000D03*
X303961800Y-289052000D03*
X303961800Y-238506000D03*
X307136800Y-289052000D03*
X307136800Y-243586000D03*
X310311800Y-289052000D03*
X310311800Y-248666000D03*
X313486800Y-289052000D03*
X313486800Y-253746000D03*
X316661800Y-289052000D03*
X327774300Y-289052000D03*
X334200500Y-238506000D03*
X330949300Y-289052000D03*
X335788000Y-235966000D03*
X332536800Y-289052000D03*
X337375500Y-241046000D03*
X354965000Y-265176000D03*
X354965000Y-228346000D03*
X356552500Y-267716000D03*
X356552500Y-220726000D03*
X394449300Y-289052000D03*
X394449300Y-253746000D03*
X392861800Y-289052000D03*
X392861800Y-251206000D03*
X389686800Y-289052000D03*
X389686800Y-246126000D03*
X386511800Y-289052000D03*
X386511800Y-241046000D03*
X383336800Y-289052000D03*
X383336800Y-235966000D03*
X380161800Y-289052000D03*
X380161800Y-230886000D03*
X376986800Y-289052000D03*
X376986800Y-225806000D03*
X373811800Y-289052000D03*
X373811800Y-220726000D03*
X370636800Y-289052000D03*
X370636800Y-215646000D03*
X351586800Y-289052000D03*
X340550500Y-251206000D03*
X349999300Y-289052000D03*
X338963000Y-246126000D03*
D15*
X326186800Y-291338000D02*
X326186800Y-286969202D01*
X326186800Y-286969202D02*
X326186798Y-286969200D01*
X329361800Y-286969202D02*
X329361798Y-286969200D01*
X329361800Y-291338000D02*
X329361800Y-286969202D01*
X348411800Y-291338000D02*
X348411800Y-286969200D01*
X396036800Y-291338000D02*
X396036800Y-287020000D01*
X399211800Y-287045400D02*
X399237200Y-287020000D01*
X399211800Y-291338000D02*
X399211800Y-287045400D01*
X278561800Y-287121600D02*
X278561800Y-291338000D01*
D16*
X323011800Y-274929600D02*
X323011800Y-291338000D01*
X332613000Y-265328400D02*
X323011800Y-274929600D01*
X332613000Y-233426000D02*
X332613000Y-265328400D01*
X319836800Y-275920200D02*
X319836800Y-291338000D01*
X331025500Y-264731500D02*
X319836800Y-275920200D01*
X331025500Y-230886000D02*
X331025500Y-264731500D01*
X315087000Y-289763200D02*
X316661800Y-291338000D01*
X315087000Y-276479000D02*
X315087000Y-289763200D01*
X327850500Y-263715500D02*
X315087000Y-276479000D01*
X327850500Y-208026000D02*
X327850500Y-263715500D01*
X311899300Y-289750500D02*
X313486800Y-291338000D01*
X311899300Y-251206000D02*
X311899300Y-289750500D01*
X308724300Y-289750500D02*
X310311800Y-291338000D01*
X308724300Y-246126000D02*
X308724300Y-289750500D01*
X305549300Y-289750500D02*
X307136800Y-291338000D01*
X305549300Y-241046000D02*
X305549300Y-289750500D01*
X302374300Y-289750500D02*
X303961800Y-291338000D01*
X302374300Y-235966000D02*
X302374300Y-289750500D01*
X299199300Y-289750500D02*
X300786800Y-291338000D01*
X299199300Y-230886000D02*
X299199300Y-289750500D01*
X296024300Y-289750500D02*
X297611800Y-291338000D01*
X296024300Y-225806000D02*
X296024300Y-289750500D01*
X292849300Y-289750500D02*
X294436800Y-291338000D01*
X292849300Y-220726000D02*
X292849300Y-289750500D01*
X289674300Y-289750500D02*
X291261800Y-291338000D01*
X289674300Y-215646000D02*
X289674300Y-289750500D01*
X286486600Y-289737800D02*
X288086800Y-291338000D01*
X286486600Y-269875000D02*
X286486600Y-289737800D01*
X280111200Y-263499600D02*
X286486600Y-269875000D01*
X280111200Y-213664800D02*
X280111200Y-263499600D01*
X281940000Y-211836000D02*
X280111200Y-213664800D01*
X284911800Y-270624300D02*
X284911800Y-291338000D01*
X278485600Y-264198100D02*
X284911800Y-270624300D01*
X278485600Y-212750400D02*
X278485600Y-264198100D01*
X281940000Y-209296000D02*
X278485600Y-212750400D01*
X315087004Y-219328996D02*
X315087004Y-266674600D01*
X320040000Y-214376000D02*
X315087004Y-219328996D01*
X281736800Y-291338000D02*
X280162000Y-289763200D01*
X280162000Y-289763200D02*
X280162000Y-289052004D01*
X353187000Y-289737800D02*
X351586800Y-291338000D01*
X353187000Y-275844000D02*
X353187000Y-289737800D01*
X342138000Y-264795000D02*
X353187000Y-275844000D01*
X342138000Y-243586000D02*
X342138000Y-264795000D01*
X354761800Y-275336000D02*
X354761800Y-291338000D01*
X343725500Y-264299700D02*
X354761800Y-275336000D01*
X343725500Y-248666000D02*
X343725500Y-264299700D01*
X357936800Y-276479000D02*
X357936800Y-291338000D01*
X345313000Y-263855200D02*
X357936800Y-276479000D01*
X345313000Y-253746000D02*
X345313000Y-263855200D01*
X351790000Y-210566000D02*
X351790000Y-268376400D01*
X361111800Y-277698200D02*
X361111800Y-291338000D01*
X351790000Y-268376400D02*
X361111800Y-277698200D01*
X353377500Y-225806000D02*
X353377500Y-267830300D01*
X364286800Y-278739600D02*
X364286800Y-291338000D01*
X353377500Y-267830300D02*
X364286800Y-278739600D01*
X367487200Y-291693600D02*
X367563400Y-291617400D01*
X367461800Y-210566000D02*
X367461800Y-291338000D01*
X370636800Y-291338000D02*
X370636804Y-291337996D01*
X370636800Y-290639500D02*
X370636800Y-290982400D01*
X369049300Y-289052000D02*
X370636800Y-290639500D01*
X369049300Y-289052000D02*
X369049300Y-213106000D01*
X372224300Y-289750500D02*
X373811800Y-291338000D01*
X372224300Y-218186000D02*
X372224300Y-289750500D01*
X376821700Y-291757100D02*
X376910600Y-291846000D01*
X376961400Y-291312600D02*
X376986800Y-291338000D01*
X375399300Y-289750500D02*
X376986800Y-291338000D01*
X375399300Y-223266000D02*
X375399300Y-289750500D01*
X378574300Y-289750500D02*
X380161800Y-291338000D01*
X378574300Y-228346000D02*
X378574300Y-289750500D01*
X381749300Y-289750500D02*
X383336800Y-291338000D01*
X381749300Y-233426000D02*
X381749300Y-289750500D01*
X384924300Y-289750500D02*
X386511800Y-291338000D01*
X384924300Y-238506000D02*
X384924300Y-289750500D01*
X388099300Y-289750500D02*
X389686800Y-291338000D01*
X388099300Y-243586000D02*
X388099300Y-289750500D01*
X391274300Y-289750500D02*
X392861800Y-291338000D01*
X391274300Y-248666000D02*
X391274300Y-289750500D01*
X316611000Y-220345000D02*
X316611000Y-264109200D01*
X320040000Y-216916000D02*
X316611000Y-220345000D01*
X318262000Y-221234000D02*
X318262000Y-269138400D01*
X320040000Y-219456000D02*
X318262000Y-221234000D01*
X288086800Y-289052000D02*
X288086800Y-213106000D01*
X291261800Y-289052000D02*
X291261800Y-218186000D01*
X294436800Y-223266000D02*
X294436800Y-289052000D01*
X297611800Y-289052000D02*
X297611800Y-228346000D01*
X300786800Y-233426000D02*
X300786800Y-289052000D01*
X303961800Y-289052000D02*
X303961800Y-238506000D01*
X307136800Y-243586000D02*
X307136800Y-289052000D01*
X310311800Y-289052000D02*
X310311800Y-248666000D01*
X313486800Y-289052000D02*
X313486800Y-253746000D01*
X316661800Y-276885400D02*
X316661800Y-289052000D01*
X329438000Y-264109200D02*
X316661800Y-276885400D01*
X329438000Y-206756000D02*
X329438000Y-264109200D01*
X334200500Y-238506000D02*
X334200500Y-266280900D01*
X327774300Y-272707100D02*
X334200500Y-266280900D01*
X327774300Y-289052000D02*
X327774300Y-272707100D01*
X335788000Y-235966000D02*
X335788000Y-267030200D01*
X330949300Y-271868900D02*
X330949300Y-289052000D01*
X335788000Y-267030200D02*
X330949300Y-271868900D01*
X332536800Y-272567400D02*
X332536800Y-289052000D01*
X337375500Y-267728700D02*
X332536800Y-272567400D01*
X337375500Y-241046000D02*
X337375500Y-267728700D01*
X354965000Y-228346000D02*
X354965000Y-265176000D01*
X356552500Y-220726000D02*
X356552500Y-267716000D01*
X394449300Y-253746000D02*
X394449300Y-289052000D01*
X392861800Y-289052000D02*
X392861800Y-251206000D01*
X389686800Y-289052000D02*
X389686800Y-246126000D01*
X386511800Y-289052000D02*
X386511800Y-241046000D01*
X383336800Y-289052000D02*
X383336800Y-235966000D01*
X380161800Y-230886000D02*
X380161800Y-289052000D01*
X376986800Y-289052000D02*
X376986800Y-225806000D01*
X373811800Y-220726000D02*
X373811800Y-289052000D01*
X370636800Y-215646000D02*
X370636800Y-289052000D01*
X340550500Y-265341100D02*
X351586800Y-276377400D01*
X351586800Y-276377400D02*
X351586800Y-289052000D01*
X340550500Y-251206000D02*
X340550500Y-265341100D01*
X338963000Y-246126000D02*
X338963000Y-265226800D01*
X349999300Y-276263100D02*
X338963000Y-265226800D01*
X349999300Y-289052000D02*
X349999300Y-276263100D01*
D17*
X404749000Y-287502074D02*
X395588300Y-287489446D01*
X395588300Y-254361504D01*
X395591597Y-254356570D01*
X395688765Y-254121987D01*
X395738300Y-253872955D01*
X395738300Y-253619045D01*
X395688765Y-253370013D01*
X395591597Y-253135430D01*
X395450532Y-252924310D01*
X395270990Y-252744768D01*
X395059870Y-252603703D01*
X394825287Y-252506535D01*
X394576255Y-252457000D01*
X394322345Y-252457000D01*
X394073313Y-252506535D01*
X394000800Y-252536571D01*
X394000800Y-251821504D01*
X394004097Y-251816570D01*
X394101265Y-251581987D01*
X394150800Y-251332955D01*
X394150800Y-251079045D01*
X394101265Y-250830013D01*
X394004097Y-250595430D01*
X393863032Y-250384310D01*
X393683490Y-250204768D01*
X393472370Y-250063703D01*
X393237787Y-249966535D01*
X392988755Y-249917000D01*
X392734845Y-249917000D01*
X392485813Y-249966535D01*
X392413300Y-249996571D01*
X392413300Y-249281504D01*
X392416597Y-249276570D01*
X392513765Y-249041987D01*
X392563300Y-248792955D01*
X392563300Y-248539045D01*
X392513765Y-248290013D01*
X392416597Y-248055430D01*
X392275532Y-247844310D01*
X392095990Y-247664768D01*
X391884870Y-247523703D01*
X391650287Y-247426535D01*
X391401255Y-247377000D01*
X391147345Y-247377000D01*
X390898313Y-247426535D01*
X390825800Y-247456571D01*
X390825800Y-246741504D01*
X390829097Y-246736570D01*
X390926265Y-246501987D01*
X390975800Y-246252955D01*
X390975800Y-245999045D01*
X390926265Y-245750013D01*
X390829097Y-245515430D01*
X390688032Y-245304310D01*
X390508490Y-245124768D01*
X390297370Y-244983703D01*
X390062787Y-244886535D01*
X389813755Y-244837000D01*
X389559845Y-244837000D01*
X389310813Y-244886535D01*
X389238300Y-244916571D01*
X389238300Y-244201504D01*
X389241597Y-244196570D01*
X389338765Y-243961987D01*
X389388300Y-243712955D01*
X389388300Y-243459045D01*
X389338765Y-243210013D01*
X389241597Y-242975430D01*
X389100532Y-242764310D01*
X388920990Y-242584768D01*
X388709870Y-242443703D01*
X388475287Y-242346535D01*
X388226255Y-242297000D01*
X387972345Y-242297000D01*
X387723313Y-242346535D01*
X387650800Y-242376571D01*
X387650800Y-241661504D01*
X387654097Y-241656570D01*
X387751265Y-241421987D01*
X387800800Y-241172955D01*
X387800800Y-240919045D01*
X387751265Y-240670013D01*
X387654097Y-240435430D01*
X387513032Y-240224310D01*
X387333490Y-240044768D01*
X387122370Y-239903703D01*
X386887787Y-239806535D01*
X386638755Y-239757000D01*
X386384845Y-239757000D01*
X386135813Y-239806535D01*
X386063300Y-239836571D01*
X386063300Y-239121504D01*
X386066597Y-239116570D01*
X386163765Y-238881987D01*
X386213300Y-238632955D01*
X386213300Y-238379045D01*
X386163765Y-238130013D01*
X386066597Y-237895430D01*
X385925532Y-237684310D01*
X385745990Y-237504768D01*
X385534870Y-237363703D01*
X385300287Y-237266535D01*
X385051255Y-237217000D01*
X384797345Y-237217000D01*
X384548313Y-237266535D01*
X384475800Y-237296571D01*
X384475800Y-236581504D01*
X384479097Y-236576570D01*
X384576265Y-236341987D01*
X384625800Y-236092955D01*
X384625800Y-235839045D01*
X384576265Y-235590013D01*
X384479097Y-235355430D01*
X384338032Y-235144310D01*
X384158490Y-234964768D01*
X383947370Y-234823703D01*
X383712787Y-234726535D01*
X383463755Y-234677000D01*
X383209845Y-234677000D01*
X382960813Y-234726535D01*
X382888300Y-234756571D01*
X382888300Y-234041504D01*
X382891597Y-234036570D01*
X382988765Y-233801987D01*
X383038300Y-233552955D01*
X383038300Y-233299045D01*
X382988765Y-233050013D01*
X382891597Y-232815430D01*
X382750532Y-232604310D01*
X382570990Y-232424768D01*
X382359870Y-232283703D01*
X382125287Y-232186535D01*
X381876255Y-232137000D01*
X381622345Y-232137000D01*
X381373313Y-232186535D01*
X381300800Y-232216571D01*
X381300800Y-231501504D01*
X381304097Y-231496570D01*
X381401265Y-231261987D01*
X381450800Y-231012955D01*
X381450800Y-230759045D01*
X381401265Y-230510013D01*
X381304097Y-230275430D01*
X381163032Y-230064310D01*
X380983490Y-229884768D01*
X380772370Y-229743703D01*
X380537787Y-229646535D01*
X380288755Y-229597000D01*
X380034845Y-229597000D01*
X379785813Y-229646535D01*
X379713300Y-229676571D01*
X379713300Y-228961504D01*
X379716597Y-228956570D01*
X379813765Y-228721987D01*
X379863300Y-228472955D01*
X379863300Y-228219045D01*
X379813765Y-227970013D01*
X379716597Y-227735430D01*
X379575532Y-227524310D01*
X379395990Y-227344768D01*
X379184870Y-227203703D01*
X378950287Y-227106535D01*
X378701255Y-227057000D01*
X378447345Y-227057000D01*
X378198313Y-227106535D01*
X378125800Y-227136571D01*
X378125800Y-226421504D01*
X378129097Y-226416570D01*
X378226265Y-226181987D01*
X378275800Y-225932955D01*
X378275800Y-225679045D01*
X378226265Y-225430013D01*
X378129097Y-225195430D01*
X377988032Y-224984310D01*
X377808490Y-224804768D01*
X377597370Y-224663703D01*
X377362787Y-224566535D01*
X377113755Y-224517000D01*
X376859845Y-224517000D01*
X376610813Y-224566535D01*
X376538300Y-224596571D01*
X376538300Y-223881504D01*
X376541597Y-223876570D01*
X376638765Y-223641987D01*
X376688300Y-223392955D01*
X376688300Y-223139045D01*
X376638765Y-222890013D01*
X376541597Y-222655430D01*
X376400532Y-222444310D01*
X376220990Y-222264768D01*
X376009870Y-222123703D01*
X375775287Y-222026535D01*
X375526255Y-221977000D01*
X375272345Y-221977000D01*
X375023313Y-222026535D01*
X374950800Y-222056571D01*
X374950800Y-221341504D01*
X374954097Y-221336570D01*
X375051265Y-221101987D01*
X375100800Y-220852955D01*
X375100800Y-220599045D01*
X375051265Y-220350013D01*
X374954097Y-220115430D01*
X374813032Y-219904310D01*
X374633490Y-219724768D01*
X374422370Y-219583703D01*
X374187787Y-219486535D01*
X373938755Y-219437000D01*
X373684845Y-219437000D01*
X373435813Y-219486535D01*
X373363300Y-219516571D01*
X373363300Y-218801504D01*
X373366597Y-218796570D01*
X373463765Y-218561987D01*
X373513300Y-218312955D01*
X373513300Y-218059045D01*
X373463765Y-217810013D01*
X373366597Y-217575430D01*
X373225532Y-217364310D01*
X373045990Y-217184768D01*
X372834870Y-217043703D01*
X372600287Y-216946535D01*
X372351255Y-216897000D01*
X372097345Y-216897000D01*
X371848313Y-216946535D01*
X371775800Y-216976571D01*
X371775800Y-216261504D01*
X371779097Y-216256570D01*
X371876265Y-216021987D01*
X371925800Y-215772955D01*
X371925800Y-215519045D01*
X371876265Y-215270013D01*
X371779097Y-215035430D01*
X371638032Y-214824310D01*
X371458490Y-214644768D01*
X371247370Y-214503703D01*
X371012787Y-214406535D01*
X370763755Y-214357000D01*
X370509845Y-214357000D01*
X370260813Y-214406535D01*
X370188300Y-214436571D01*
X370188300Y-213721504D01*
X370191597Y-213716570D01*
X370288765Y-213481987D01*
X370338300Y-213232955D01*
X370338300Y-212979045D01*
X370288765Y-212730013D01*
X370191597Y-212495430D01*
X370050532Y-212284310D01*
X369870990Y-212104768D01*
X369659870Y-211963703D01*
X369425287Y-211866535D01*
X369176255Y-211817000D01*
X368922345Y-211817000D01*
X368673313Y-211866535D01*
X368600800Y-211896571D01*
X368600800Y-211181504D01*
X368604097Y-211176570D01*
X368701265Y-210941987D01*
X368750800Y-210692955D01*
X368750800Y-210439045D01*
X368701265Y-210190013D01*
X368604097Y-209955430D01*
X368463032Y-209744310D01*
X368283490Y-209564768D01*
X368072370Y-209423703D01*
X367837787Y-209326535D01*
X367588755Y-209277000D01*
X367334845Y-209277000D01*
X367085813Y-209326535D01*
X366851230Y-209423703D01*
X366640110Y-209564768D01*
X366460568Y-209744310D01*
X366319503Y-209955430D01*
X366222335Y-210190013D01*
X366172800Y-210439045D01*
X366172800Y-210692955D01*
X366222335Y-210941987D01*
X366319503Y-211176570D01*
X366322800Y-211181504D01*
X366322801Y-277774400D01*
X364932389Y-277774400D01*
X356068863Y-268910875D01*
X356176513Y-268955465D01*
X356425545Y-269005000D01*
X356679455Y-269005000D01*
X356928487Y-268955465D01*
X357163070Y-268858297D01*
X357374190Y-268717232D01*
X357553732Y-268537690D01*
X357694797Y-268326570D01*
X357791965Y-268091987D01*
X357841500Y-267842955D01*
X357841500Y-267589045D01*
X357791965Y-267340013D01*
X357694797Y-267105430D01*
X357691500Y-267100496D01*
X357691500Y-260635970D01*
X357706000Y-260635970D01*
X357706000Y-261076030D01*
X357791852Y-261507634D01*
X357960255Y-261914196D01*
X358204739Y-262280092D01*
X358515908Y-262591261D01*
X358881804Y-262835745D01*
X359288366Y-263004148D01*
X359719970Y-263090000D01*
X360160030Y-263090000D01*
X360591634Y-263004148D01*
X360998196Y-262835745D01*
X361364092Y-262591261D01*
X361675261Y-262280092D01*
X361919745Y-261914196D01*
X362088148Y-261507634D01*
X362174000Y-261076030D01*
X362174000Y-260635970D01*
X362088148Y-260204366D01*
X361919745Y-259797804D01*
X361675261Y-259431908D01*
X361364092Y-259120739D01*
X360998196Y-258876255D01*
X360591634Y-258707852D01*
X360160030Y-258622000D01*
X359719970Y-258622000D01*
X359288366Y-258707852D01*
X358881804Y-258876255D01*
X358515908Y-259120739D01*
X358204739Y-259431908D01*
X357960255Y-259797804D01*
X357791852Y-260204366D01*
X357706000Y-260635970D01*
X357691500Y-260635970D01*
X357691500Y-256463555D01*
X357699841Y-256467010D01*
X357991377Y-256525000D01*
X358288623Y-256525000D01*
X358580159Y-256467010D01*
X358854779Y-256353258D01*
X359101931Y-256188117D01*
X359312117Y-255977931D01*
X359477258Y-255730779D01*
X359591010Y-255456159D01*
X359649000Y-255164623D01*
X359649000Y-254867377D01*
X359591010Y-254575841D01*
X359477258Y-254301221D01*
X359312117Y-254054069D01*
X359101931Y-253843883D01*
X358955438Y-253746000D01*
X359101931Y-253648117D01*
X359312117Y-253437931D01*
X359477258Y-253190779D01*
X359591010Y-252916159D01*
X359649000Y-252624623D01*
X359649000Y-252327377D01*
X359591010Y-252035841D01*
X359477258Y-251761221D01*
X359312117Y-251514069D01*
X359101931Y-251303883D01*
X358955438Y-251206000D01*
X359101931Y-251108117D01*
X359312117Y-250897931D01*
X359477258Y-250650779D01*
X359591010Y-250376159D01*
X359649000Y-250084623D01*
X359649000Y-249787377D01*
X359591010Y-249495841D01*
X359477258Y-249221221D01*
X359312117Y-248974069D01*
X359101931Y-248763883D01*
X358955438Y-248666000D01*
X359101931Y-248568117D01*
X359312117Y-248357931D01*
X359477258Y-248110779D01*
X359591010Y-247836159D01*
X359649000Y-247544623D01*
X359649000Y-247247377D01*
X359591010Y-246955841D01*
X359477258Y-246681221D01*
X359312117Y-246434069D01*
X359101931Y-246223883D01*
X358955438Y-246126000D01*
X359101931Y-246028117D01*
X359312117Y-245817931D01*
X359477258Y-245570779D01*
X359591010Y-245296159D01*
X359649000Y-245004623D01*
X359649000Y-244707377D01*
X359591010Y-244415841D01*
X359477258Y-244141221D01*
X359312117Y-243894069D01*
X359101931Y-243683883D01*
X358955438Y-243586000D01*
X359101931Y-243488117D01*
X359312117Y-243277931D01*
X359477258Y-243030779D01*
X359591010Y-242756159D01*
X359649000Y-242464623D01*
X359649000Y-242167377D01*
X359591010Y-241875841D01*
X359477258Y-241601221D01*
X359312117Y-241354069D01*
X359101931Y-241143883D01*
X358955438Y-241046000D01*
X359101931Y-240948117D01*
X359312117Y-240737931D01*
X359477258Y-240490779D01*
X359591010Y-240216159D01*
X359649000Y-239924623D01*
X359649000Y-239627377D01*
X359591010Y-239335841D01*
X359477258Y-239061221D01*
X359312117Y-238814069D01*
X359101931Y-238603883D01*
X358955438Y-238506000D01*
X359101931Y-238408117D01*
X359312117Y-238197931D01*
X359477258Y-237950779D01*
X359591010Y-237676159D01*
X359649000Y-237384623D01*
X359649000Y-237087377D01*
X359591010Y-236795841D01*
X359477258Y-236521221D01*
X359312117Y-236274069D01*
X359101931Y-236063883D01*
X358955438Y-235966000D01*
X359101931Y-235868117D01*
X359312117Y-235657931D01*
X359477258Y-235410779D01*
X359591010Y-235136159D01*
X359649000Y-234844623D01*
X359649000Y-234547377D01*
X359591010Y-234255841D01*
X359477258Y-233981221D01*
X359312117Y-233734069D01*
X359101931Y-233523883D01*
X358955438Y-233426000D01*
X359101931Y-233328117D01*
X359312117Y-233117931D01*
X359477258Y-232870779D01*
X359591010Y-232596159D01*
X359649000Y-232304623D01*
X359649000Y-232007377D01*
X359591010Y-231715841D01*
X359477258Y-231441221D01*
X359312117Y-231194069D01*
X359101931Y-230983883D01*
X358955438Y-230886000D01*
X359101931Y-230788117D01*
X359312117Y-230577931D01*
X359477258Y-230330779D01*
X359591010Y-230056159D01*
X359649000Y-229764623D01*
X359649000Y-229467377D01*
X359591010Y-229175841D01*
X359477258Y-228901221D01*
X359312117Y-228654069D01*
X359101931Y-228443883D01*
X358955438Y-228346000D01*
X359101931Y-228248117D01*
X359312117Y-228037931D01*
X359477258Y-227790779D01*
X359591010Y-227516159D01*
X359649000Y-227224623D01*
X359649000Y-226927377D01*
X359591010Y-226635841D01*
X359477258Y-226361221D01*
X359312117Y-226114069D01*
X359101931Y-225903883D01*
X358955438Y-225806000D01*
X359101931Y-225708117D01*
X359312117Y-225497931D01*
X359477258Y-225250779D01*
X359591010Y-224976159D01*
X359649000Y-224684623D01*
X359649000Y-224387377D01*
X359591010Y-224095841D01*
X359477258Y-223821221D01*
X359312117Y-223574069D01*
X359101931Y-223363883D01*
X358955438Y-223266000D01*
X359101931Y-223168117D01*
X359312117Y-222957931D01*
X359477258Y-222710779D01*
X359591010Y-222436159D01*
X359649000Y-222144623D01*
X359649000Y-221847377D01*
X359591010Y-221555841D01*
X359477258Y-221281221D01*
X359312117Y-221034069D01*
X359101931Y-220823883D01*
X358955438Y-220726000D01*
X359101931Y-220628117D01*
X359312117Y-220417931D01*
X359477258Y-220170779D01*
X359591010Y-219896159D01*
X359649000Y-219604623D01*
X359649000Y-219307377D01*
X359591010Y-219015841D01*
X359477258Y-218741221D01*
X359312117Y-218494069D01*
X359101931Y-218283883D01*
X358955438Y-218186000D01*
X359101931Y-218088117D01*
X359312117Y-217877931D01*
X359477258Y-217630779D01*
X359591010Y-217356159D01*
X359649000Y-217064623D01*
X359649000Y-216767377D01*
X359591010Y-216475841D01*
X359477258Y-216201221D01*
X359312117Y-215954069D01*
X359101931Y-215743883D01*
X358955438Y-215646000D01*
X359101931Y-215548117D01*
X359312117Y-215337931D01*
X359477258Y-215090779D01*
X359591010Y-214816159D01*
X359649000Y-214524623D01*
X359649000Y-214227377D01*
X359591010Y-213935841D01*
X359477258Y-213661221D01*
X359312117Y-213414069D01*
X359101931Y-213203883D01*
X358955438Y-213106000D01*
X359101931Y-213008117D01*
X359312117Y-212797931D01*
X359477258Y-212550779D01*
X359591010Y-212276159D01*
X359649000Y-211984623D01*
X359649000Y-211687377D01*
X359591010Y-211395841D01*
X359477258Y-211121221D01*
X359312117Y-210874069D01*
X359101931Y-210663883D01*
X358854779Y-210498742D01*
X358580159Y-210384990D01*
X358288623Y-210327000D01*
X357991377Y-210327000D01*
X357699841Y-210384990D01*
X357425221Y-210498742D01*
X357178069Y-210663883D01*
X356967883Y-210874069D01*
X356802742Y-211121221D01*
X356688990Y-211395841D01*
X356631000Y-211687377D01*
X356631000Y-211984623D01*
X356688990Y-212276159D01*
X356802742Y-212550779D01*
X356967883Y-212797931D01*
X357178069Y-213008117D01*
X357324562Y-213106000D01*
X357178069Y-213203883D01*
X356967883Y-213414069D01*
X356802742Y-213661221D01*
X356688990Y-213935841D01*
X356631000Y-214227377D01*
X356631000Y-214524623D01*
X356688990Y-214816159D01*
X356802742Y-215090779D01*
X356967883Y-215337931D01*
X357178069Y-215548117D01*
X357324562Y-215646000D01*
X357178069Y-215743883D01*
X356967883Y-215954069D01*
X356802742Y-216201221D01*
X356688990Y-216475841D01*
X356631000Y-216767377D01*
X356631000Y-217064623D01*
X356688990Y-217356159D01*
X356802742Y-217630779D01*
X356967883Y-217877931D01*
X357178069Y-218088117D01*
X357324562Y-218186000D01*
X357178069Y-218283883D01*
X356967883Y-218494069D01*
X356802742Y-218741221D01*
X356688990Y-219015841D01*
X356631000Y-219307377D01*
X356631000Y-219437000D01*
X356425545Y-219437000D01*
X356176513Y-219486535D01*
X355941930Y-219583703D01*
X355730810Y-219724768D01*
X355551268Y-219904310D01*
X355410203Y-220115430D01*
X355313035Y-220350013D01*
X355263500Y-220599045D01*
X355263500Y-220852955D01*
X355313035Y-221101987D01*
X355410203Y-221336570D01*
X355413500Y-221341504D01*
X355413500Y-227136571D01*
X355340987Y-227106535D01*
X355091955Y-227057000D01*
X354838045Y-227057000D01*
X354589013Y-227106535D01*
X354516500Y-227136571D01*
X354516500Y-226421504D01*
X354519797Y-226416570D01*
X354616965Y-226181987D01*
X354666500Y-225932955D01*
X354666500Y-225679045D01*
X354616965Y-225430013D01*
X354519797Y-225195430D01*
X354378732Y-224984310D01*
X354199190Y-224804768D01*
X353988070Y-224663703D01*
X353753487Y-224566535D01*
X353504455Y-224517000D01*
X353250545Y-224517000D01*
X353001513Y-224566535D01*
X352929000Y-224596571D01*
X352929000Y-211181504D01*
X352932297Y-211176570D01*
X353029465Y-210941987D01*
X353079000Y-210692955D01*
X353079000Y-210439045D01*
X353029465Y-210190013D01*
X352932297Y-209955430D01*
X352791232Y-209744310D01*
X352611690Y-209564768D01*
X352400570Y-209423703D01*
X352165987Y-209326535D01*
X351916955Y-209277000D01*
X351663045Y-209277000D01*
X351414013Y-209326535D01*
X351179430Y-209423703D01*
X350968310Y-209564768D01*
X350788768Y-209744310D01*
X350647703Y-209955430D01*
X350550535Y-210190013D01*
X350501000Y-210439045D01*
X350501000Y-210692955D01*
X350550535Y-210941987D01*
X350647703Y-211176570D01*
X350651000Y-211181504D01*
X350651001Y-267582413D01*
X346452000Y-263383412D01*
X346452000Y-254361504D01*
X346455297Y-254356570D01*
X346552465Y-254121987D01*
X346602000Y-253872955D01*
X346602000Y-253619045D01*
X346552465Y-253370013D01*
X346455297Y-253135430D01*
X346314232Y-252924310D01*
X346134690Y-252744768D01*
X345923570Y-252603703D01*
X345688987Y-252506535D01*
X345439955Y-252457000D01*
X345186045Y-252457000D01*
X344937013Y-252506535D01*
X344864500Y-252536571D01*
X344864500Y-249281504D01*
X344867797Y-249276570D01*
X344964965Y-249041987D01*
X345014500Y-248792955D01*
X345014500Y-248539045D01*
X344964965Y-248290013D01*
X344867797Y-248055430D01*
X344726732Y-247844310D01*
X344547190Y-247664768D01*
X344336070Y-247523703D01*
X344101487Y-247426535D01*
X343852455Y-247377000D01*
X343598545Y-247377000D01*
X343349513Y-247426535D01*
X343277000Y-247456571D01*
X343277000Y-244201504D01*
X343280297Y-244196570D01*
X343377465Y-243961987D01*
X343427000Y-243712955D01*
X343427000Y-243459045D01*
X343377465Y-243210013D01*
X343280297Y-242975430D01*
X343139232Y-242764310D01*
X342959690Y-242584768D01*
X342748570Y-242443703D01*
X342513987Y-242346535D01*
X342264955Y-242297000D01*
X342011045Y-242297000D01*
X341762013Y-242346535D01*
X341527430Y-242443703D01*
X341316310Y-242584768D01*
X341136768Y-242764310D01*
X340995703Y-242975430D01*
X340898535Y-243210013D01*
X340849000Y-243459045D01*
X340849000Y-243712955D01*
X340898535Y-243961987D01*
X340995703Y-244196570D01*
X340999000Y-244201504D01*
X340999000Y-249996571D01*
X340926487Y-249966535D01*
X340677455Y-249917000D01*
X340423545Y-249917000D01*
X340174513Y-249966535D01*
X340102000Y-249996571D01*
X340102000Y-246741504D01*
X340105297Y-246736570D01*
X340202465Y-246501987D01*
X340252000Y-246252955D01*
X340252000Y-245999045D01*
X340202465Y-245750013D01*
X340105297Y-245515430D01*
X339964232Y-245304310D01*
X339784690Y-245124768D01*
X339573570Y-244983703D01*
X339338987Y-244886535D01*
X339089955Y-244837000D01*
X338836045Y-244837000D01*
X338587013Y-244886535D01*
X338514500Y-244916571D01*
X338514500Y-241661504D01*
X338517797Y-241656570D01*
X338614965Y-241421987D01*
X338664500Y-241172955D01*
X338664500Y-240919045D01*
X338614965Y-240670013D01*
X338517797Y-240435430D01*
X338376732Y-240224310D01*
X338197190Y-240044768D01*
X337986070Y-239903703D01*
X337751487Y-239806535D01*
X337502455Y-239757000D01*
X337248545Y-239757000D01*
X336999513Y-239806535D01*
X336927000Y-239836571D01*
X336927000Y-236581504D01*
X336930297Y-236576570D01*
X337027465Y-236341987D01*
X337077000Y-236092955D01*
X337077000Y-235839045D01*
X337027465Y-235590013D01*
X336930297Y-235355430D01*
X336789232Y-235144310D01*
X336609690Y-234964768D01*
X336398570Y-234823703D01*
X336163987Y-234726535D01*
X335914955Y-234677000D01*
X335661045Y-234677000D01*
X335412013Y-234726535D01*
X335177430Y-234823703D01*
X334966310Y-234964768D01*
X334786768Y-235144310D01*
X334645703Y-235355430D01*
X334548535Y-235590013D01*
X334499000Y-235839045D01*
X334499000Y-236092955D01*
X334548535Y-236341987D01*
X334645703Y-236576570D01*
X334649000Y-236581504D01*
X334649000Y-237296571D01*
X334576487Y-237266535D01*
X334327455Y-237217000D01*
X334073545Y-237217000D01*
X333824513Y-237266535D01*
X333752000Y-237296571D01*
X333752000Y-234041504D01*
X333755297Y-234036570D01*
X333852465Y-233801987D01*
X333902000Y-233552955D01*
X333902000Y-233299045D01*
X333852465Y-233050013D01*
X333755297Y-232815430D01*
X333614232Y-232604310D01*
X333434690Y-232424768D01*
X333223570Y-232283703D01*
X332988987Y-232186535D01*
X332739955Y-232137000D01*
X332486045Y-232137000D01*
X332237013Y-232186535D01*
X332164500Y-232216571D01*
X332164500Y-231501504D01*
X332167797Y-231496570D01*
X332264965Y-231261987D01*
X332314500Y-231012955D01*
X332314500Y-230759045D01*
X332264965Y-230510013D01*
X332167797Y-230275430D01*
X332026732Y-230064310D01*
X331847190Y-229884768D01*
X331636070Y-229743703D01*
X331401487Y-229646535D01*
X331152455Y-229597000D01*
X330898545Y-229597000D01*
X330649513Y-229646535D01*
X330577000Y-229676571D01*
X330577000Y-207371504D01*
X330580297Y-207366570D01*
X330677465Y-207131987D01*
X330727000Y-206882955D01*
X330727000Y-206629045D01*
X330677465Y-206380013D01*
X330580297Y-206145430D01*
X330573997Y-206136000D01*
X356626699Y-206136000D01*
X356626699Y-207376000D01*
X356643864Y-207550274D01*
X356694697Y-207717851D01*
X356777247Y-207872291D01*
X356888341Y-208007659D01*
X357023709Y-208118753D01*
X357178149Y-208201303D01*
X357345726Y-208252136D01*
X357520000Y-208269301D01*
X358760000Y-208269301D01*
X358934274Y-208252136D01*
X359101851Y-208201303D01*
X359256291Y-208118753D01*
X359391659Y-208007659D01*
X359502753Y-207872291D01*
X359585303Y-207717851D01*
X359636136Y-207550274D01*
X359653301Y-207376000D01*
X359653301Y-206136000D01*
X359636136Y-205961726D01*
X359585303Y-205794149D01*
X359502753Y-205639709D01*
X359391659Y-205504341D01*
X359256291Y-205393247D01*
X359101851Y-205310697D01*
X358934274Y-205259864D01*
X358760000Y-205242699D01*
X357520000Y-205242699D01*
X357345726Y-205259864D01*
X357178149Y-205310697D01*
X357023709Y-205393247D01*
X356888341Y-205504341D01*
X356777247Y-205639709D01*
X356694697Y-205794149D01*
X356643864Y-205961726D01*
X356626699Y-206136000D01*
X330573997Y-206136000D01*
X330439232Y-205934310D01*
X330259690Y-205754768D01*
X330048570Y-205613703D01*
X329813987Y-205516535D01*
X329564955Y-205467000D01*
X329311045Y-205467000D01*
X329062013Y-205516535D01*
X328827430Y-205613703D01*
X328616310Y-205754768D01*
X328436768Y-205934310D01*
X328295703Y-206145430D01*
X328198535Y-206380013D01*
X328149000Y-206629045D01*
X328149000Y-206771122D01*
X327977455Y-206737000D01*
X327723545Y-206737000D01*
X327474513Y-206786535D01*
X327239930Y-206883703D01*
X327028810Y-207024768D01*
X326849268Y-207204310D01*
X326708203Y-207415430D01*
X326611035Y-207650013D01*
X326561500Y-207899045D01*
X326561500Y-208152955D01*
X326611035Y-208401987D01*
X326708203Y-208636570D01*
X326711500Y-208641504D01*
X326711501Y-263243710D01*
X320664411Y-269290800D01*
X319545939Y-269290800D01*
X319551000Y-269265355D01*
X319551000Y-269011445D01*
X319501465Y-268762413D01*
X319404297Y-268527830D01*
X319401000Y-268522896D01*
X319401000Y-260635970D01*
X319606000Y-260635970D01*
X319606000Y-261076030D01*
X319691852Y-261507634D01*
X319860255Y-261914196D01*
X320104739Y-262280092D01*
X320415908Y-262591261D01*
X320781804Y-262835745D01*
X321188366Y-263004148D01*
X321619970Y-263090000D01*
X322060030Y-263090000D01*
X322491634Y-263004148D01*
X322898196Y-262835745D01*
X323264092Y-262591261D01*
X323575261Y-262280092D01*
X323819745Y-261914196D01*
X323988148Y-261507634D01*
X324074000Y-261076030D01*
X324074000Y-260635970D01*
X323988148Y-260204366D01*
X323819745Y-259797804D01*
X323575261Y-259431908D01*
X323264092Y-259120739D01*
X322898196Y-258876255D01*
X322491634Y-258707852D01*
X322060030Y-258622000D01*
X321619970Y-258622000D01*
X321188366Y-258707852D01*
X320781804Y-258876255D01*
X320415908Y-259120739D01*
X320104739Y-259431908D01*
X319860255Y-259797804D01*
X319691852Y-260204366D01*
X319606000Y-260635970D01*
X319401000Y-260635970D01*
X319401000Y-256384647D01*
X319599841Y-256467010D01*
X319891377Y-256525000D01*
X320188623Y-256525000D01*
X320480159Y-256467010D01*
X320754779Y-256353258D01*
X321001931Y-256188117D01*
X321212117Y-255977931D01*
X321377258Y-255730779D01*
X321491010Y-255456159D01*
X321549000Y-255164623D01*
X321549000Y-254867377D01*
X321491010Y-254575841D01*
X321377258Y-254301221D01*
X321212117Y-254054069D01*
X321001931Y-253843883D01*
X320855438Y-253746000D01*
X321001931Y-253648117D01*
X321212117Y-253437931D01*
X321377258Y-253190779D01*
X321491010Y-252916159D01*
X321549000Y-252624623D01*
X321549000Y-252327377D01*
X321491010Y-252035841D01*
X321377258Y-251761221D01*
X321212117Y-251514069D01*
X321001931Y-251303883D01*
X320855438Y-251206000D01*
X321001931Y-251108117D01*
X321212117Y-250897931D01*
X321377258Y-250650779D01*
X321491010Y-250376159D01*
X321549000Y-250084623D01*
X321549000Y-249787377D01*
X321491010Y-249495841D01*
X321377258Y-249221221D01*
X321212117Y-248974069D01*
X321001931Y-248763883D01*
X320855438Y-248666000D01*
X321001931Y-248568117D01*
X321212117Y-248357931D01*
X321377258Y-248110779D01*
X321491010Y-247836159D01*
X321549000Y-247544623D01*
X321549000Y-247247377D01*
X321491010Y-246955841D01*
X321377258Y-246681221D01*
X321212117Y-246434069D01*
X321001931Y-246223883D01*
X320855438Y-246126000D01*
X321001931Y-246028117D01*
X321212117Y-245817931D01*
X321377258Y-245570779D01*
X321491010Y-245296159D01*
X321549000Y-245004623D01*
X321549000Y-244707377D01*
X321491010Y-244415841D01*
X321377258Y-244141221D01*
X321212117Y-243894069D01*
X321001931Y-243683883D01*
X320855438Y-243586000D01*
X321001931Y-243488117D01*
X321212117Y-243277931D01*
X321377258Y-243030779D01*
X321491010Y-242756159D01*
X321549000Y-242464623D01*
X321549000Y-242167377D01*
X321491010Y-241875841D01*
X321377258Y-241601221D01*
X321212117Y-241354069D01*
X321001931Y-241143883D01*
X320855438Y-241046000D01*
X321001931Y-240948117D01*
X321212117Y-240737931D01*
X321377258Y-240490779D01*
X321491010Y-240216159D01*
X321549000Y-239924623D01*
X321549000Y-239627377D01*
X321491010Y-239335841D01*
X321377258Y-239061221D01*
X321212117Y-238814069D01*
X321001931Y-238603883D01*
X320855438Y-238506000D01*
X321001931Y-238408117D01*
X321212117Y-238197931D01*
X321377258Y-237950779D01*
X321491010Y-237676159D01*
X321549000Y-237384623D01*
X321549000Y-237087377D01*
X321491010Y-236795841D01*
X321377258Y-236521221D01*
X321212117Y-236274069D01*
X321001931Y-236063883D01*
X320855438Y-235966000D01*
X321001931Y-235868117D01*
X321212117Y-235657931D01*
X321377258Y-235410779D01*
X321491010Y-235136159D01*
X321549000Y-234844623D01*
X321549000Y-234547377D01*
X321491010Y-234255841D01*
X321377258Y-233981221D01*
X321212117Y-233734069D01*
X321001931Y-233523883D01*
X320855438Y-233426000D01*
X321001931Y-233328117D01*
X321212117Y-233117931D01*
X321377258Y-232870779D01*
X321491010Y-232596159D01*
X321549000Y-232304623D01*
X321549000Y-232007377D01*
X321491010Y-231715841D01*
X321377258Y-231441221D01*
X321212117Y-231194069D01*
X321001931Y-230983883D01*
X320855438Y-230886000D01*
X321001931Y-230788117D01*
X321212117Y-230577931D01*
X321377258Y-230330779D01*
X321491010Y-230056159D01*
X321549000Y-229764623D01*
X321549000Y-229467377D01*
X321491010Y-229175841D01*
X321377258Y-228901221D01*
X321212117Y-228654069D01*
X321001931Y-228443883D01*
X320855438Y-228346000D01*
X321001931Y-228248117D01*
X321212117Y-228037931D01*
X321377258Y-227790779D01*
X321491010Y-227516159D01*
X321549000Y-227224623D01*
X321549000Y-226927377D01*
X321491010Y-226635841D01*
X321377258Y-226361221D01*
X321212117Y-226114069D01*
X321001931Y-225903883D01*
X320754779Y-225738742D01*
X320480159Y-225624990D01*
X320188623Y-225567000D01*
X319891377Y-225567000D01*
X319599841Y-225624990D01*
X319401000Y-225707353D01*
X319401000Y-223364647D01*
X319599841Y-223447010D01*
X319891377Y-223505000D01*
X320188623Y-223505000D01*
X320480159Y-223447010D01*
X320754779Y-223333258D01*
X321001931Y-223168117D01*
X321212117Y-222957931D01*
X321377258Y-222710779D01*
X321491010Y-222436159D01*
X321549000Y-222144623D01*
X321549000Y-221847377D01*
X321491010Y-221555841D01*
X321377258Y-221281221D01*
X321212117Y-221034069D01*
X321001931Y-220823883D01*
X320855438Y-220726000D01*
X321001931Y-220628117D01*
X321212117Y-220417931D01*
X321377258Y-220170779D01*
X321491010Y-219896159D01*
X321549000Y-219604623D01*
X321549000Y-219307377D01*
X321491010Y-219015841D01*
X321377258Y-218741221D01*
X321212117Y-218494069D01*
X321001931Y-218283883D01*
X320855438Y-218186000D01*
X321001931Y-218088117D01*
X321212117Y-217877931D01*
X321377258Y-217630779D01*
X321491010Y-217356159D01*
X321549000Y-217064623D01*
X321549000Y-216767377D01*
X321491010Y-216475841D01*
X321377258Y-216201221D01*
X321212117Y-215954069D01*
X321001931Y-215743883D01*
X320855438Y-215646000D01*
X321001931Y-215548117D01*
X321212117Y-215337931D01*
X321377258Y-215090779D01*
X321491010Y-214816159D01*
X321549000Y-214524623D01*
X321549000Y-214227377D01*
X321491010Y-213935841D01*
X321377258Y-213661221D01*
X321212117Y-213414069D01*
X321001931Y-213203883D01*
X320754779Y-213038742D01*
X320480159Y-212924990D01*
X320188623Y-212867000D01*
X319891377Y-212867000D01*
X319599841Y-212924990D01*
X319325221Y-213038742D01*
X319078069Y-213203883D01*
X318867883Y-213414069D01*
X318702742Y-213661221D01*
X318588990Y-213935841D01*
X318531000Y-214227377D01*
X318531000Y-214274211D01*
X314321178Y-218484034D01*
X314277713Y-218519705D01*
X314242044Y-218563168D01*
X314135378Y-218693140D01*
X314080094Y-218796570D01*
X314029614Y-218891012D01*
X313964484Y-219105714D01*
X313948004Y-219273042D01*
X313948004Y-219273051D01*
X313942494Y-219328996D01*
X313948004Y-219384941D01*
X313948005Y-252541834D01*
X313862787Y-252506535D01*
X313613755Y-252457000D01*
X313359845Y-252457000D01*
X313110813Y-252506535D01*
X313038300Y-252536571D01*
X313038300Y-251821504D01*
X313041597Y-251816570D01*
X313138765Y-251581987D01*
X313188300Y-251332955D01*
X313188300Y-251079045D01*
X313138765Y-250830013D01*
X313041597Y-250595430D01*
X312900532Y-250384310D01*
X312720990Y-250204768D01*
X312509870Y-250063703D01*
X312275287Y-249966535D01*
X312026255Y-249917000D01*
X311772345Y-249917000D01*
X311523313Y-249966535D01*
X311450800Y-249996571D01*
X311450800Y-249281504D01*
X311454097Y-249276570D01*
X311551265Y-249041987D01*
X311600800Y-248792955D01*
X311600800Y-248539045D01*
X311551265Y-248290013D01*
X311454097Y-248055430D01*
X311313032Y-247844310D01*
X311133490Y-247664768D01*
X310922370Y-247523703D01*
X310687787Y-247426535D01*
X310438755Y-247377000D01*
X310184845Y-247377000D01*
X309935813Y-247426535D01*
X309863300Y-247456571D01*
X309863300Y-246741504D01*
X309866597Y-246736570D01*
X309963765Y-246501987D01*
X310013300Y-246252955D01*
X310013300Y-245999045D01*
X309963765Y-245750013D01*
X309866597Y-245515430D01*
X309725532Y-245304310D01*
X309545990Y-245124768D01*
X309334870Y-244983703D01*
X309100287Y-244886535D01*
X308851255Y-244837000D01*
X308597345Y-244837000D01*
X308348313Y-244886535D01*
X308275800Y-244916571D01*
X308275800Y-244201504D01*
X308279097Y-244196570D01*
X308376265Y-243961987D01*
X308425800Y-243712955D01*
X308425800Y-243459045D01*
X308376265Y-243210013D01*
X308279097Y-242975430D01*
X308138032Y-242764310D01*
X307958490Y-242584768D01*
X307747370Y-242443703D01*
X307512787Y-242346535D01*
X307263755Y-242297000D01*
X307009845Y-242297000D01*
X306760813Y-242346535D01*
X306688300Y-242376571D01*
X306688300Y-241661504D01*
X306691597Y-241656570D01*
X306788765Y-241421987D01*
X306838300Y-241172955D01*
X306838300Y-240919045D01*
X306788765Y-240670013D01*
X306691597Y-240435430D01*
X306550532Y-240224310D01*
X306370990Y-240044768D01*
X306159870Y-239903703D01*
X305925287Y-239806535D01*
X305676255Y-239757000D01*
X305422345Y-239757000D01*
X305173313Y-239806535D01*
X305100800Y-239836571D01*
X305100800Y-239121504D01*
X305104097Y-239116570D01*
X305201265Y-238881987D01*
X305250800Y-238632955D01*
X305250800Y-238379045D01*
X305201265Y-238130013D01*
X305104097Y-237895430D01*
X304963032Y-237684310D01*
X304783490Y-237504768D01*
X304572370Y-237363703D01*
X304337787Y-237266535D01*
X304088755Y-237217000D01*
X303834845Y-237217000D01*
X303585813Y-237266535D01*
X303513300Y-237296571D01*
X303513300Y-236581504D01*
X303516597Y-236576570D01*
X303613765Y-236341987D01*
X303663300Y-236092955D01*
X303663300Y-235839045D01*
X303613765Y-235590013D01*
X303516597Y-235355430D01*
X303375532Y-235144310D01*
X303195990Y-234964768D01*
X302984870Y-234823703D01*
X302750287Y-234726535D01*
X302501255Y-234677000D01*
X302247345Y-234677000D01*
X301998313Y-234726535D01*
X301925800Y-234756571D01*
X301925800Y-234041504D01*
X301929097Y-234036570D01*
X302026265Y-233801987D01*
X302075800Y-233552955D01*
X302075800Y-233299045D01*
X302026265Y-233050013D01*
X301929097Y-232815430D01*
X301788032Y-232604310D01*
X301608490Y-232424768D01*
X301397370Y-232283703D01*
X301162787Y-232186535D01*
X300913755Y-232137000D01*
X300659845Y-232137000D01*
X300410813Y-232186535D01*
X300338300Y-232216571D01*
X300338300Y-231501504D01*
X300341597Y-231496570D01*
X300438765Y-231261987D01*
X300488300Y-231012955D01*
X300488300Y-230759045D01*
X300438765Y-230510013D01*
X300341597Y-230275430D01*
X300200532Y-230064310D01*
X300020990Y-229884768D01*
X299809870Y-229743703D01*
X299575287Y-229646535D01*
X299326255Y-229597000D01*
X299072345Y-229597000D01*
X298823313Y-229646535D01*
X298750800Y-229676571D01*
X298750800Y-228961504D01*
X298754097Y-228956570D01*
X298851265Y-228721987D01*
X298900800Y-228472955D01*
X298900800Y-228219045D01*
X298851265Y-227970013D01*
X298754097Y-227735430D01*
X298613032Y-227524310D01*
X298433490Y-227344768D01*
X298222370Y-227203703D01*
X297987787Y-227106535D01*
X297738755Y-227057000D01*
X297484845Y-227057000D01*
X297235813Y-227106535D01*
X297163300Y-227136571D01*
X297163300Y-226421504D01*
X297166597Y-226416570D01*
X297263765Y-226181987D01*
X297313300Y-225932955D01*
X297313300Y-225679045D01*
X297263765Y-225430013D01*
X297166597Y-225195430D01*
X297025532Y-224984310D01*
X296845990Y-224804768D01*
X296634870Y-224663703D01*
X296400287Y-224566535D01*
X296151255Y-224517000D01*
X295897345Y-224517000D01*
X295648313Y-224566535D01*
X295575800Y-224596571D01*
X295575800Y-223881504D01*
X295579097Y-223876570D01*
X295676265Y-223641987D01*
X295725800Y-223392955D01*
X295725800Y-223139045D01*
X295676265Y-222890013D01*
X295579097Y-222655430D01*
X295438032Y-222444310D01*
X295258490Y-222264768D01*
X295047370Y-222123703D01*
X294812787Y-222026535D01*
X294563755Y-221977000D01*
X294309845Y-221977000D01*
X294060813Y-222026535D01*
X293988300Y-222056571D01*
X293988300Y-221341504D01*
X293991597Y-221336570D01*
X294088765Y-221101987D01*
X294138300Y-220852955D01*
X294138300Y-220599045D01*
X294088765Y-220350013D01*
X293991597Y-220115430D01*
X293850532Y-219904310D01*
X293670990Y-219724768D01*
X293459870Y-219583703D01*
X293225287Y-219486535D01*
X292976255Y-219437000D01*
X292722345Y-219437000D01*
X292473313Y-219486535D01*
X292400800Y-219516571D01*
X292400800Y-218801504D01*
X292404097Y-218796570D01*
X292501265Y-218561987D01*
X292550800Y-218312955D01*
X292550800Y-218059045D01*
X292501265Y-217810013D01*
X292404097Y-217575430D01*
X292263032Y-217364310D01*
X292083490Y-217184768D01*
X291872370Y-217043703D01*
X291637787Y-216946535D01*
X291388755Y-216897000D01*
X291134845Y-216897000D01*
X290885813Y-216946535D01*
X290813300Y-216976571D01*
X290813300Y-216261504D01*
X290816597Y-216256570D01*
X290913765Y-216021987D01*
X290963300Y-215772955D01*
X290963300Y-215519045D01*
X290913765Y-215270013D01*
X290816597Y-215035430D01*
X290675532Y-214824310D01*
X290495990Y-214644768D01*
X290284870Y-214503703D01*
X290050287Y-214406535D01*
X289801255Y-214357000D01*
X289547345Y-214357000D01*
X289298313Y-214406535D01*
X289225800Y-214436571D01*
X289225800Y-213721504D01*
X289229097Y-213716570D01*
X289326265Y-213481987D01*
X289375800Y-213232955D01*
X289375800Y-212979045D01*
X289326265Y-212730013D01*
X289229097Y-212495430D01*
X289088032Y-212284310D01*
X288908490Y-212104768D01*
X288697370Y-211963703D01*
X288462787Y-211866535D01*
X288213755Y-211817000D01*
X287959845Y-211817000D01*
X287710813Y-211866535D01*
X287476230Y-211963703D01*
X287265110Y-212104768D01*
X287085568Y-212284310D01*
X286944503Y-212495430D01*
X286847335Y-212730013D01*
X286797800Y-212979045D01*
X286797800Y-213232955D01*
X286847335Y-213481987D01*
X286944503Y-213716570D01*
X286947801Y-213721506D01*
X286947800Y-268725411D01*
X281250200Y-263027812D01*
X281250200Y-260635970D01*
X281506000Y-260635970D01*
X281506000Y-261076030D01*
X281591852Y-261507634D01*
X281760255Y-261914196D01*
X282004739Y-262280092D01*
X282315908Y-262591261D01*
X282681804Y-262835745D01*
X283088366Y-263004148D01*
X283519970Y-263090000D01*
X283960030Y-263090000D01*
X284391634Y-263004148D01*
X284798196Y-262835745D01*
X285164092Y-262591261D01*
X285475261Y-262280092D01*
X285719745Y-261914196D01*
X285888148Y-261507634D01*
X285974000Y-261076030D01*
X285974000Y-260635970D01*
X285888148Y-260204366D01*
X285719745Y-259797804D01*
X285475261Y-259431908D01*
X285164092Y-259120739D01*
X284798196Y-258876255D01*
X284391634Y-258707852D01*
X283960030Y-258622000D01*
X283519970Y-258622000D01*
X283088366Y-258707852D01*
X282681804Y-258876255D01*
X282315908Y-259120739D01*
X282004739Y-259431908D01*
X281760255Y-259797804D01*
X281591852Y-260204366D01*
X281506000Y-260635970D01*
X281250200Y-260635970D01*
X281250200Y-256363605D01*
X281499841Y-256467010D01*
X281791377Y-256525000D01*
X282088623Y-256525000D01*
X282380159Y-256467010D01*
X282654779Y-256353258D01*
X282901931Y-256188117D01*
X283112117Y-255977931D01*
X283277258Y-255730779D01*
X283391010Y-255456159D01*
X283449000Y-255164623D01*
X283449000Y-254867377D01*
X283391010Y-254575841D01*
X283277258Y-254301221D01*
X283112117Y-254054069D01*
X282901931Y-253843883D01*
X282755438Y-253746000D01*
X282901931Y-253648117D01*
X283112117Y-253437931D01*
X283277258Y-253190779D01*
X283391010Y-252916159D01*
X283449000Y-252624623D01*
X283449000Y-252327377D01*
X283391010Y-252035841D01*
X283277258Y-251761221D01*
X283112117Y-251514069D01*
X282901931Y-251303883D01*
X282755438Y-251206000D01*
X282901931Y-251108117D01*
X283112117Y-250897931D01*
X283277258Y-250650779D01*
X283391010Y-250376159D01*
X283449000Y-250084623D01*
X283449000Y-249787377D01*
X283391010Y-249495841D01*
X283277258Y-249221221D01*
X283112117Y-248974069D01*
X282901931Y-248763883D01*
X282755438Y-248666000D01*
X282901931Y-248568117D01*
X283112117Y-248357931D01*
X283277258Y-248110779D01*
X283391010Y-247836159D01*
X283449000Y-247544623D01*
X283449000Y-247247377D01*
X283391010Y-246955841D01*
X283277258Y-246681221D01*
X283112117Y-246434069D01*
X282901931Y-246223883D01*
X282755438Y-246126000D01*
X282901931Y-246028117D01*
X283112117Y-245817931D01*
X283277258Y-245570779D01*
X283391010Y-245296159D01*
X283449000Y-245004623D01*
X283449000Y-244707377D01*
X283391010Y-244415841D01*
X283277258Y-244141221D01*
X283112117Y-243894069D01*
X282901931Y-243683883D01*
X282755438Y-243586000D01*
X282901931Y-243488117D01*
X283112117Y-243277931D01*
X283277258Y-243030779D01*
X283391010Y-242756159D01*
X283449000Y-242464623D01*
X283449000Y-242167377D01*
X283391010Y-241875841D01*
X283277258Y-241601221D01*
X283112117Y-241354069D01*
X282901931Y-241143883D01*
X282755438Y-241046000D01*
X282901931Y-240948117D01*
X283112117Y-240737931D01*
X283277258Y-240490779D01*
X283391010Y-240216159D01*
X283449000Y-239924623D01*
X283449000Y-239627377D01*
X283391010Y-239335841D01*
X283277258Y-239061221D01*
X283112117Y-238814069D01*
X282901931Y-238603883D01*
X282755438Y-238506000D01*
X282901931Y-238408117D01*
X283112117Y-238197931D01*
X283277258Y-237950779D01*
X283391010Y-237676159D01*
X283449000Y-237384623D01*
X283449000Y-237087377D01*
X283391010Y-236795841D01*
X283277258Y-236521221D01*
X283112117Y-236274069D01*
X282901931Y-236063883D01*
X282755438Y-235966000D01*
X282901931Y-235868117D01*
X283112117Y-235657931D01*
X283277258Y-235410779D01*
X283391010Y-235136159D01*
X283449000Y-234844623D01*
X283449000Y-234547377D01*
X283391010Y-234255841D01*
X283277258Y-233981221D01*
X283112117Y-233734069D01*
X282901931Y-233523883D01*
X282755438Y-233426000D01*
X282901931Y-233328117D01*
X283112117Y-233117931D01*
X283277258Y-232870779D01*
X283391010Y-232596159D01*
X283449000Y-232304623D01*
X283449000Y-232007377D01*
X283391010Y-231715841D01*
X283277258Y-231441221D01*
X283112117Y-231194069D01*
X282901931Y-230983883D01*
X282755438Y-230886000D01*
X282901931Y-230788117D01*
X283112117Y-230577931D01*
X283277258Y-230330779D01*
X283391010Y-230056159D01*
X283449000Y-229764623D01*
X283449000Y-229467377D01*
X283391010Y-229175841D01*
X283277258Y-228901221D01*
X283112117Y-228654069D01*
X282901931Y-228443883D01*
X282755438Y-228346000D01*
X282901931Y-228248117D01*
X283112117Y-228037931D01*
X283277258Y-227790779D01*
X283391010Y-227516159D01*
X283449000Y-227224623D01*
X283449000Y-226927377D01*
X283391010Y-226635841D01*
X283277258Y-226361221D01*
X283112117Y-226114069D01*
X282901931Y-225903883D01*
X282755438Y-225806000D01*
X282901931Y-225708117D01*
X283112117Y-225497931D01*
X283277258Y-225250779D01*
X283391010Y-224976159D01*
X283449000Y-224684623D01*
X283449000Y-224387377D01*
X283391010Y-224095841D01*
X283277258Y-223821221D01*
X283112117Y-223574069D01*
X282901931Y-223363883D01*
X282755438Y-223266000D01*
X282901931Y-223168117D01*
X283112117Y-222957931D01*
X283277258Y-222710779D01*
X283391010Y-222436159D01*
X283449000Y-222144623D01*
X283449000Y-221847377D01*
X283391010Y-221555841D01*
X283277258Y-221281221D01*
X283112117Y-221034069D01*
X282901931Y-220823883D01*
X282755438Y-220726000D01*
X282901931Y-220628117D01*
X283112117Y-220417931D01*
X283277258Y-220170779D01*
X283391010Y-219896159D01*
X283449000Y-219604623D01*
X283449000Y-219307377D01*
X283391010Y-219015841D01*
X283277258Y-218741221D01*
X283112117Y-218494069D01*
X282901931Y-218283883D01*
X282755438Y-218186000D01*
X282901931Y-218088117D01*
X283112117Y-217877931D01*
X283277258Y-217630779D01*
X283391010Y-217356159D01*
X283449000Y-217064623D01*
X283449000Y-216767377D01*
X283391010Y-216475841D01*
X283277258Y-216201221D01*
X283112117Y-215954069D01*
X282901931Y-215743883D01*
X282755438Y-215646000D01*
X282901931Y-215548117D01*
X283112117Y-215337931D01*
X283277258Y-215090779D01*
X283391010Y-214816159D01*
X283449000Y-214524623D01*
X283449000Y-214227377D01*
X283391010Y-213935841D01*
X283277258Y-213661221D01*
X283112117Y-213414069D01*
X282901931Y-213203883D01*
X282755438Y-213106000D01*
X282901931Y-213008117D01*
X283112117Y-212797931D01*
X283277258Y-212550779D01*
X283391010Y-212276159D01*
X283449000Y-211984623D01*
X283449000Y-211687377D01*
X283391010Y-211395841D01*
X283277258Y-211121221D01*
X283112117Y-210874069D01*
X282901931Y-210663883D01*
X282755438Y-210566000D01*
X282901931Y-210468117D01*
X283112117Y-210257931D01*
X283277258Y-210010779D01*
X283391010Y-209736159D01*
X283449000Y-209444623D01*
X283449000Y-209147377D01*
X283391010Y-208855841D01*
X283277258Y-208581221D01*
X283112117Y-208334069D01*
X282901931Y-208123883D01*
X282654779Y-207958742D01*
X282380159Y-207844990D01*
X282088623Y-207787000D01*
X281791377Y-207787000D01*
X281499841Y-207844990D01*
X281225221Y-207958742D01*
X280978069Y-208123883D01*
X280767883Y-208334069D01*
X280602742Y-208581221D01*
X280488990Y-208855841D01*
X280431000Y-209147377D01*
X280431000Y-209194211D01*
X277719774Y-211905438D01*
X277676309Y-211941109D01*
X277640640Y-211984572D01*
X277533974Y-212114544D01*
X277512685Y-212154374D01*
X277428210Y-212312416D01*
X277363080Y-212527118D01*
X277346600Y-212694446D01*
X277346600Y-212694455D01*
X277341090Y-212750400D01*
X277346600Y-212806345D01*
X277346601Y-264142145D01*
X277341090Y-264198100D01*
X277363081Y-264421383D01*
X277428211Y-264636085D01*
X277533974Y-264833956D01*
X277640640Y-264963928D01*
X277640644Y-264963932D01*
X277676310Y-265007391D01*
X277719769Y-265043057D01*
X283772800Y-271096089D01*
X283772801Y-287439097D01*
X278066500Y-287450635D01*
X278066500Y-286431785D01*
X278071108Y-286385000D01*
X278052717Y-286198277D01*
X277998252Y-286018731D01*
X277909806Y-285853259D01*
X277790778Y-285708222D01*
X277645741Y-285589194D01*
X277480269Y-285500748D01*
X277300723Y-285446283D01*
X277160785Y-285432500D01*
X277114000Y-285427892D01*
X277067215Y-285432500D01*
X276301200Y-285432500D01*
X276301200Y-206136000D01*
X318526699Y-206136000D01*
X318526699Y-207376000D01*
X318543864Y-207550274D01*
X318594697Y-207717851D01*
X318677247Y-207872291D01*
X318788341Y-208007659D01*
X318923709Y-208118753D01*
X319027644Y-208174308D01*
X318867883Y-208334069D01*
X318702742Y-208581221D01*
X318588990Y-208855841D01*
X318531000Y-209147377D01*
X318531000Y-209444623D01*
X318588990Y-209736159D01*
X318702742Y-210010779D01*
X318867883Y-210257931D01*
X319078069Y-210468117D01*
X319325221Y-210633258D01*
X319599841Y-210747010D01*
X319891377Y-210805000D01*
X320188623Y-210805000D01*
X320480159Y-210747010D01*
X320754779Y-210633258D01*
X321001931Y-210468117D01*
X321212117Y-210257931D01*
X321377258Y-210010779D01*
X321491010Y-209736159D01*
X321549000Y-209444623D01*
X321549000Y-209147377D01*
X321491010Y-208855841D01*
X321377258Y-208581221D01*
X321212117Y-208334069D01*
X321052356Y-208174308D01*
X321156291Y-208118753D01*
X321291659Y-208007659D01*
X321402753Y-207872291D01*
X321485303Y-207717851D01*
X321536136Y-207550274D01*
X321553301Y-207376000D01*
X321553301Y-206136000D01*
X321536136Y-205961726D01*
X321485303Y-205794149D01*
X321402753Y-205639709D01*
X321291659Y-205504341D01*
X321156291Y-205393247D01*
X321001851Y-205310697D01*
X320834274Y-205259864D01*
X320660000Y-205242699D01*
X319420000Y-205242699D01*
X319245726Y-205259864D01*
X319078149Y-205310697D01*
X318923709Y-205393247D01*
X318788341Y-205504341D01*
X318677247Y-205639709D01*
X318594697Y-205794149D01*
X318543864Y-205961726D01*
X318526699Y-206136000D01*
X276301200Y-206136000D01*
X276301200Y-200695970D01*
X281506000Y-200695970D01*
X281506000Y-201136030D01*
X281591852Y-201567634D01*
X281760255Y-201974196D01*
X282004739Y-202340092D01*
X282315908Y-202651261D01*
X282681804Y-202895745D01*
X283088366Y-203064148D01*
X283519970Y-203150000D01*
X283960030Y-203150000D01*
X284391634Y-203064148D01*
X284798196Y-202895745D01*
X285164092Y-202651261D01*
X285475261Y-202340092D01*
X285719745Y-201974196D01*
X285888148Y-201567634D01*
X285974000Y-201136030D01*
X285974000Y-200695970D01*
X319606000Y-200695970D01*
X319606000Y-201136030D01*
X319691852Y-201567634D01*
X319860255Y-201974196D01*
X320104739Y-202340092D01*
X320415908Y-202651261D01*
X320781804Y-202895745D01*
X321188366Y-203064148D01*
X321619970Y-203150000D01*
X322060030Y-203150000D01*
X322491634Y-203064148D01*
X322898196Y-202895745D01*
X323264092Y-202651261D01*
X323575261Y-202340092D01*
X323819745Y-201974196D01*
X323988148Y-201567634D01*
X324074000Y-201136030D01*
X324074000Y-200695970D01*
X357706000Y-200695970D01*
X357706000Y-201136030D01*
X357791852Y-201567634D01*
X357960255Y-201974196D01*
X358204739Y-202340092D01*
X358515908Y-202651261D01*
X358881804Y-202895745D01*
X359288366Y-203064148D01*
X359719970Y-203150000D01*
X360160030Y-203150000D01*
X360591634Y-203064148D01*
X360998196Y-202895745D01*
X361364092Y-202651261D01*
X361675261Y-202340092D01*
X361919745Y-201974196D01*
X362088148Y-201567634D01*
X362174000Y-201136030D01*
X362174000Y-200695970D01*
X362088148Y-200264366D01*
X361919745Y-199857804D01*
X361675261Y-199491908D01*
X361364092Y-199180739D01*
X360998196Y-198936255D01*
X360591634Y-198767852D01*
X360160030Y-198682000D01*
X359719970Y-198682000D01*
X359288366Y-198767852D01*
X358881804Y-198936255D01*
X358515908Y-199180739D01*
X358204739Y-199491908D01*
X357960255Y-199857804D01*
X357791852Y-200264366D01*
X357706000Y-200695970D01*
X324074000Y-200695970D01*
X323988148Y-200264366D01*
X323819745Y-199857804D01*
X323575261Y-199491908D01*
X323264092Y-199180739D01*
X322898196Y-198936255D01*
X322491634Y-198767852D01*
X322060030Y-198682000D01*
X321619970Y-198682000D01*
X321188366Y-198767852D01*
X320781804Y-198936255D01*
X320415908Y-199180739D01*
X320104739Y-199491908D01*
X319860255Y-199857804D01*
X319691852Y-200264366D01*
X319606000Y-200695970D01*
X285974000Y-200695970D01*
X285888148Y-200264366D01*
X285719745Y-199857804D01*
X285475261Y-199491908D01*
X285164092Y-199180739D01*
X284798196Y-198936255D01*
X284391634Y-198767852D01*
X283960030Y-198682000D01*
X283519970Y-198682000D01*
X283088366Y-198767852D01*
X282681804Y-198936255D01*
X282315908Y-199180739D01*
X282004739Y-199491908D01*
X281760255Y-199857804D01*
X281591852Y-200264366D01*
X281506000Y-200695970D01*
X276301200Y-200695970D01*
X276301200Y-192151000D01*
X404749000Y-192151000D01*
X404749000Y-287502074D01*
G04 #@! TA.AperFunction,Conductor*
D18*
G36*
X404749000Y-287502074D02*
G01*
X395588300Y-287489446D01*
X395588300Y-254361504D01*
X395591597Y-254356570D01*
X395688765Y-254121987D01*
X395738300Y-253872955D01*
X395738300Y-253619045D01*
X395688765Y-253370013D01*
X395591597Y-253135430D01*
X395450532Y-252924310D01*
X395270990Y-252744768D01*
X395059870Y-252603703D01*
X394825287Y-252506535D01*
X394576255Y-252457000D01*
X394322345Y-252457000D01*
X394073313Y-252506535D01*
X394000800Y-252536571D01*
X394000800Y-251821504D01*
X394004097Y-251816570D01*
X394101265Y-251581987D01*
X394150800Y-251332955D01*
X394150800Y-251079045D01*
X394101265Y-250830013D01*
X394004097Y-250595430D01*
X393863032Y-250384310D01*
X393683490Y-250204768D01*
X393472370Y-250063703D01*
X393237787Y-249966535D01*
X392988755Y-249917000D01*
X392734845Y-249917000D01*
X392485813Y-249966535D01*
X392413300Y-249996571D01*
X392413300Y-249281504D01*
X392416597Y-249276570D01*
X392513765Y-249041987D01*
X392563300Y-248792955D01*
X392563300Y-248539045D01*
X392513765Y-248290013D01*
X392416597Y-248055430D01*
X392275532Y-247844310D01*
X392095990Y-247664768D01*
X391884870Y-247523703D01*
X391650287Y-247426535D01*
X391401255Y-247377000D01*
X391147345Y-247377000D01*
X390898313Y-247426535D01*
X390825800Y-247456571D01*
X390825800Y-246741504D01*
X390829097Y-246736570D01*
X390926265Y-246501987D01*
X390975800Y-246252955D01*
X390975800Y-245999045D01*
X390926265Y-245750013D01*
X390829097Y-245515430D01*
X390688032Y-245304310D01*
X390508490Y-245124768D01*
X390297370Y-244983703D01*
X390062787Y-244886535D01*
X389813755Y-244837000D01*
X389559845Y-244837000D01*
X389310813Y-244886535D01*
X389238300Y-244916571D01*
X389238300Y-244201504D01*
X389241597Y-244196570D01*
X389338765Y-243961987D01*
X389388300Y-243712955D01*
X389388300Y-243459045D01*
X389338765Y-243210013D01*
X389241597Y-242975430D01*
X389100532Y-242764310D01*
X388920990Y-242584768D01*
X388709870Y-242443703D01*
X388475287Y-242346535D01*
X388226255Y-242297000D01*
X387972345Y-242297000D01*
X387723313Y-242346535D01*
X387650800Y-242376571D01*
X387650800Y-241661504D01*
X387654097Y-241656570D01*
X387751265Y-241421987D01*
X387800800Y-241172955D01*
X387800800Y-240919045D01*
X387751265Y-240670013D01*
X387654097Y-240435430D01*
X387513032Y-240224310D01*
X387333490Y-240044768D01*
X387122370Y-239903703D01*
X386887787Y-239806535D01*
X386638755Y-239757000D01*
X386384845Y-239757000D01*
X386135813Y-239806535D01*
X386063300Y-239836571D01*
X386063300Y-239121504D01*
X386066597Y-239116570D01*
X386163765Y-238881987D01*
X386213300Y-238632955D01*
X386213300Y-238379045D01*
X386163765Y-238130013D01*
X386066597Y-237895430D01*
X385925532Y-237684310D01*
X385745990Y-237504768D01*
X385534870Y-237363703D01*
X385300287Y-237266535D01*
X385051255Y-237217000D01*
X384797345Y-237217000D01*
X384548313Y-237266535D01*
X384475800Y-237296571D01*
X384475800Y-236581504D01*
X384479097Y-236576570D01*
X384576265Y-236341987D01*
X384625800Y-236092955D01*
X384625800Y-235839045D01*
X384576265Y-235590013D01*
X384479097Y-235355430D01*
X384338032Y-235144310D01*
X384158490Y-234964768D01*
X383947370Y-234823703D01*
X383712787Y-234726535D01*
X383463755Y-234677000D01*
X383209845Y-234677000D01*
X382960813Y-234726535D01*
X382888300Y-234756571D01*
X382888300Y-234041504D01*
X382891597Y-234036570D01*
X382988765Y-233801987D01*
X383038300Y-233552955D01*
X383038300Y-233299045D01*
X382988765Y-233050013D01*
X382891597Y-232815430D01*
X382750532Y-232604310D01*
X382570990Y-232424768D01*
X382359870Y-232283703D01*
X382125287Y-232186535D01*
X381876255Y-232137000D01*
X381622345Y-232137000D01*
X381373313Y-232186535D01*
X381300800Y-232216571D01*
X381300800Y-231501504D01*
X381304097Y-231496570D01*
X381401265Y-231261987D01*
X381450800Y-231012955D01*
X381450800Y-230759045D01*
X381401265Y-230510013D01*
X381304097Y-230275430D01*
X381163032Y-230064310D01*
X380983490Y-229884768D01*
X380772370Y-229743703D01*
X380537787Y-229646535D01*
X380288755Y-229597000D01*
X380034845Y-229597000D01*
X379785813Y-229646535D01*
X379713300Y-229676571D01*
X379713300Y-228961504D01*
X379716597Y-228956570D01*
X379813765Y-228721987D01*
X379863300Y-228472955D01*
X379863300Y-228219045D01*
X379813765Y-227970013D01*
X379716597Y-227735430D01*
X379575532Y-227524310D01*
X379395990Y-227344768D01*
X379184870Y-227203703D01*
X378950287Y-227106535D01*
X378701255Y-227057000D01*
X378447345Y-227057000D01*
X378198313Y-227106535D01*
X378125800Y-227136571D01*
X378125800Y-226421504D01*
X378129097Y-226416570D01*
X378226265Y-226181987D01*
X378275800Y-225932955D01*
X378275800Y-225679045D01*
X378226265Y-225430013D01*
X378129097Y-225195430D01*
X377988032Y-224984310D01*
X377808490Y-224804768D01*
X377597370Y-224663703D01*
X377362787Y-224566535D01*
X377113755Y-224517000D01*
X376859845Y-224517000D01*
X376610813Y-224566535D01*
X376538300Y-224596571D01*
X376538300Y-223881504D01*
X376541597Y-223876570D01*
X376638765Y-223641987D01*
X376688300Y-223392955D01*
X376688300Y-223139045D01*
X376638765Y-222890013D01*
X376541597Y-222655430D01*
X376400532Y-222444310D01*
X376220990Y-222264768D01*
X376009870Y-222123703D01*
X375775287Y-222026535D01*
X375526255Y-221977000D01*
X375272345Y-221977000D01*
X375023313Y-222026535D01*
X374950800Y-222056571D01*
X374950800Y-221341504D01*
X374954097Y-221336570D01*
X375051265Y-221101987D01*
X375100800Y-220852955D01*
X375100800Y-220599045D01*
X375051265Y-220350013D01*
X374954097Y-220115430D01*
X374813032Y-219904310D01*
X374633490Y-219724768D01*
X374422370Y-219583703D01*
X374187787Y-219486535D01*
X373938755Y-219437000D01*
X373684845Y-219437000D01*
X373435813Y-219486535D01*
X373363300Y-219516571D01*
X373363300Y-218801504D01*
X373366597Y-218796570D01*
X373463765Y-218561987D01*
X373513300Y-218312955D01*
X373513300Y-218059045D01*
X373463765Y-217810013D01*
X373366597Y-217575430D01*
X373225532Y-217364310D01*
X373045990Y-217184768D01*
X372834870Y-217043703D01*
X372600287Y-216946535D01*
X372351255Y-216897000D01*
X372097345Y-216897000D01*
X371848313Y-216946535D01*
X371775800Y-216976571D01*
X371775800Y-216261504D01*
X371779097Y-216256570D01*
X371876265Y-216021987D01*
X371925800Y-215772955D01*
X371925800Y-215519045D01*
X371876265Y-215270013D01*
X371779097Y-215035430D01*
X371638032Y-214824310D01*
X371458490Y-214644768D01*
X371247370Y-214503703D01*
X371012787Y-214406535D01*
X370763755Y-214357000D01*
X370509845Y-214357000D01*
X370260813Y-214406535D01*
X370188300Y-214436571D01*
X370188300Y-213721504D01*
X370191597Y-213716570D01*
X370288765Y-213481987D01*
X370338300Y-213232955D01*
X370338300Y-212979045D01*
X370288765Y-212730013D01*
X370191597Y-212495430D01*
X370050532Y-212284310D01*
X369870990Y-212104768D01*
X369659870Y-211963703D01*
X369425287Y-211866535D01*
X369176255Y-211817000D01*
X368922345Y-211817000D01*
X368673313Y-211866535D01*
X368600800Y-211896571D01*
X368600800Y-211181504D01*
X368604097Y-211176570D01*
X368701265Y-210941987D01*
X368750800Y-210692955D01*
X368750800Y-210439045D01*
X368701265Y-210190013D01*
X368604097Y-209955430D01*
X368463032Y-209744310D01*
X368283490Y-209564768D01*
X368072370Y-209423703D01*
X367837787Y-209326535D01*
X367588755Y-209277000D01*
X367334845Y-209277000D01*
X367085813Y-209326535D01*
X366851230Y-209423703D01*
X366640110Y-209564768D01*
X366460568Y-209744310D01*
X366319503Y-209955430D01*
X366222335Y-210190013D01*
X366172800Y-210439045D01*
X366172800Y-210692955D01*
X366222335Y-210941987D01*
X366319503Y-211176570D01*
X366322800Y-211181504D01*
X366322801Y-277774400D01*
X364932389Y-277774400D01*
X356068863Y-268910875D01*
X356176513Y-268955465D01*
X356425545Y-269005000D01*
X356679455Y-269005000D01*
X356928487Y-268955465D01*
X357163070Y-268858297D01*
X357374190Y-268717232D01*
X357553732Y-268537690D01*
X357694797Y-268326570D01*
X357791965Y-268091987D01*
X357841500Y-267842955D01*
X357841500Y-267589045D01*
X357791965Y-267340013D01*
X357694797Y-267105430D01*
X357691500Y-267100496D01*
X357691500Y-260635970D01*
X357706000Y-260635970D01*
X357706000Y-261076030D01*
X357791852Y-261507634D01*
X357960255Y-261914196D01*
X358204739Y-262280092D01*
X358515908Y-262591261D01*
X358881804Y-262835745D01*
X359288366Y-263004148D01*
X359719970Y-263090000D01*
X360160030Y-263090000D01*
X360591634Y-263004148D01*
X360998196Y-262835745D01*
X361364092Y-262591261D01*
X361675261Y-262280092D01*
X361919745Y-261914196D01*
X362088148Y-261507634D01*
X362174000Y-261076030D01*
X362174000Y-260635970D01*
X362088148Y-260204366D01*
X361919745Y-259797804D01*
X361675261Y-259431908D01*
X361364092Y-259120739D01*
X360998196Y-258876255D01*
X360591634Y-258707852D01*
X360160030Y-258622000D01*
X359719970Y-258622000D01*
X359288366Y-258707852D01*
X358881804Y-258876255D01*
X358515908Y-259120739D01*
X358204739Y-259431908D01*
X357960255Y-259797804D01*
X357791852Y-260204366D01*
X357706000Y-260635970D01*
X357691500Y-260635970D01*
X357691500Y-256463555D01*
X357699841Y-256467010D01*
X357991377Y-256525000D01*
X358288623Y-256525000D01*
X358580159Y-256467010D01*
X358854779Y-256353258D01*
X359101931Y-256188117D01*
X359312117Y-255977931D01*
X359477258Y-255730779D01*
X359591010Y-255456159D01*
X359649000Y-255164623D01*
X359649000Y-254867377D01*
X359591010Y-254575841D01*
X359477258Y-254301221D01*
X359312117Y-254054069D01*
X359101931Y-253843883D01*
X358955438Y-253746000D01*
X359101931Y-253648117D01*
X359312117Y-253437931D01*
X359477258Y-253190779D01*
X359591010Y-252916159D01*
X359649000Y-252624623D01*
X359649000Y-252327377D01*
X359591010Y-252035841D01*
X359477258Y-251761221D01*
X359312117Y-251514069D01*
X359101931Y-251303883D01*
X358955438Y-251206000D01*
X359101931Y-251108117D01*
X359312117Y-250897931D01*
X359477258Y-250650779D01*
X359591010Y-250376159D01*
X359649000Y-250084623D01*
X359649000Y-249787377D01*
X359591010Y-249495841D01*
X359477258Y-249221221D01*
X359312117Y-248974069D01*
X359101931Y-248763883D01*
X358955438Y-248666000D01*
X359101931Y-248568117D01*
X359312117Y-248357931D01*
X359477258Y-248110779D01*
X359591010Y-247836159D01*
X359649000Y-247544623D01*
X359649000Y-247247377D01*
X359591010Y-246955841D01*
X359477258Y-246681221D01*
X359312117Y-246434069D01*
X359101931Y-246223883D01*
X358955438Y-246126000D01*
X359101931Y-246028117D01*
X359312117Y-245817931D01*
X359477258Y-245570779D01*
X359591010Y-245296159D01*
X359649000Y-245004623D01*
X359649000Y-244707377D01*
X359591010Y-244415841D01*
X359477258Y-244141221D01*
X359312117Y-243894069D01*
X359101931Y-243683883D01*
X358955438Y-243586000D01*
X359101931Y-243488117D01*
X359312117Y-243277931D01*
X359477258Y-243030779D01*
X359591010Y-242756159D01*
X359649000Y-242464623D01*
X359649000Y-242167377D01*
X359591010Y-241875841D01*
X359477258Y-241601221D01*
X359312117Y-241354069D01*
X359101931Y-241143883D01*
X358955438Y-241046000D01*
X359101931Y-240948117D01*
X359312117Y-240737931D01*
X359477258Y-240490779D01*
X359591010Y-240216159D01*
X359649000Y-239924623D01*
X359649000Y-239627377D01*
X359591010Y-239335841D01*
X359477258Y-239061221D01*
X359312117Y-238814069D01*
X359101931Y-238603883D01*
X358955438Y-238506000D01*
X359101931Y-238408117D01*
X359312117Y-238197931D01*
X359477258Y-237950779D01*
X359591010Y-237676159D01*
X359649000Y-237384623D01*
X359649000Y-237087377D01*
X359591010Y-236795841D01*
X359477258Y-236521221D01*
X359312117Y-236274069D01*
X359101931Y-236063883D01*
X358955438Y-235966000D01*
X359101931Y-235868117D01*
X359312117Y-235657931D01*
X359477258Y-235410779D01*
X359591010Y-235136159D01*
X359649000Y-234844623D01*
X359649000Y-234547377D01*
X359591010Y-234255841D01*
X359477258Y-233981221D01*
X359312117Y-233734069D01*
X359101931Y-233523883D01*
X358955438Y-233426000D01*
X359101931Y-233328117D01*
X359312117Y-233117931D01*
X359477258Y-232870779D01*
X359591010Y-232596159D01*
X359649000Y-232304623D01*
X359649000Y-232007377D01*
X359591010Y-231715841D01*
X359477258Y-231441221D01*
X359312117Y-231194069D01*
X359101931Y-230983883D01*
X358955438Y-230886000D01*
X359101931Y-230788117D01*
X359312117Y-230577931D01*
X359477258Y-230330779D01*
X359591010Y-230056159D01*
X359649000Y-229764623D01*
X359649000Y-229467377D01*
X359591010Y-229175841D01*
X359477258Y-228901221D01*
X359312117Y-228654069D01*
X359101931Y-228443883D01*
X358955438Y-228346000D01*
X359101931Y-228248117D01*
X359312117Y-228037931D01*
X359477258Y-227790779D01*
X359591010Y-227516159D01*
X359649000Y-227224623D01*
X359649000Y-226927377D01*
X359591010Y-226635841D01*
X359477258Y-226361221D01*
X359312117Y-226114069D01*
X359101931Y-225903883D01*
X358955438Y-225806000D01*
X359101931Y-225708117D01*
X359312117Y-225497931D01*
X359477258Y-225250779D01*
X359591010Y-224976159D01*
X359649000Y-224684623D01*
X359649000Y-224387377D01*
X359591010Y-224095841D01*
X359477258Y-223821221D01*
X359312117Y-223574069D01*
X359101931Y-223363883D01*
X358955438Y-223266000D01*
X359101931Y-223168117D01*
X359312117Y-222957931D01*
X359477258Y-222710779D01*
X359591010Y-222436159D01*
X359649000Y-222144623D01*
X359649000Y-221847377D01*
X359591010Y-221555841D01*
X359477258Y-221281221D01*
X359312117Y-221034069D01*
X359101931Y-220823883D01*
X358955438Y-220726000D01*
X359101931Y-220628117D01*
X359312117Y-220417931D01*
X359477258Y-220170779D01*
X359591010Y-219896159D01*
X359649000Y-219604623D01*
X359649000Y-219307377D01*
X359591010Y-219015841D01*
X359477258Y-218741221D01*
X359312117Y-218494069D01*
X359101931Y-218283883D01*
X358955438Y-218186000D01*
X359101931Y-218088117D01*
X359312117Y-217877931D01*
X359477258Y-217630779D01*
X359591010Y-217356159D01*
X359649000Y-217064623D01*
X359649000Y-216767377D01*
X359591010Y-216475841D01*
X359477258Y-216201221D01*
X359312117Y-215954069D01*
X359101931Y-215743883D01*
X358955438Y-215646000D01*
X359101931Y-215548117D01*
X359312117Y-215337931D01*
X359477258Y-215090779D01*
X359591010Y-214816159D01*
X359649000Y-214524623D01*
X359649000Y-214227377D01*
X359591010Y-213935841D01*
X359477258Y-213661221D01*
X359312117Y-213414069D01*
X359101931Y-213203883D01*
X358955438Y-213106000D01*
X359101931Y-213008117D01*
X359312117Y-212797931D01*
X359477258Y-212550779D01*
X359591010Y-212276159D01*
X359649000Y-211984623D01*
X359649000Y-211687377D01*
X359591010Y-211395841D01*
X359477258Y-211121221D01*
X359312117Y-210874069D01*
X359101931Y-210663883D01*
X358854779Y-210498742D01*
X358580159Y-210384990D01*
X358288623Y-210327000D01*
X357991377Y-210327000D01*
X357699841Y-210384990D01*
X357425221Y-210498742D01*
X357178069Y-210663883D01*
X356967883Y-210874069D01*
X356802742Y-211121221D01*
X356688990Y-211395841D01*
X356631000Y-211687377D01*
X356631000Y-211984623D01*
X356688990Y-212276159D01*
X356802742Y-212550779D01*
X356967883Y-212797931D01*
X357178069Y-213008117D01*
X357324562Y-213106000D01*
X357178069Y-213203883D01*
X356967883Y-213414069D01*
X356802742Y-213661221D01*
X356688990Y-213935841D01*
X356631000Y-214227377D01*
X356631000Y-214524623D01*
X356688990Y-214816159D01*
X356802742Y-215090779D01*
X356967883Y-215337931D01*
X357178069Y-215548117D01*
X357324562Y-215646000D01*
X357178069Y-215743883D01*
X356967883Y-215954069D01*
X356802742Y-216201221D01*
X356688990Y-216475841D01*
X356631000Y-216767377D01*
X356631000Y-217064623D01*
X356688990Y-217356159D01*
X356802742Y-217630779D01*
X356967883Y-217877931D01*
X357178069Y-218088117D01*
X357324562Y-218186000D01*
X357178069Y-218283883D01*
X356967883Y-218494069D01*
X356802742Y-218741221D01*
X356688990Y-219015841D01*
X356631000Y-219307377D01*
X356631000Y-219437000D01*
X356425545Y-219437000D01*
X356176513Y-219486535D01*
X355941930Y-219583703D01*
X355730810Y-219724768D01*
X355551268Y-219904310D01*
X355410203Y-220115430D01*
X355313035Y-220350013D01*
X355263500Y-220599045D01*
X355263500Y-220852955D01*
X355313035Y-221101987D01*
X355410203Y-221336570D01*
X355413500Y-221341504D01*
X355413500Y-227136571D01*
X355340987Y-227106535D01*
X355091955Y-227057000D01*
X354838045Y-227057000D01*
X354589013Y-227106535D01*
X354516500Y-227136571D01*
X354516500Y-226421504D01*
X354519797Y-226416570D01*
X354616965Y-226181987D01*
X354666500Y-225932955D01*
X354666500Y-225679045D01*
X354616965Y-225430013D01*
X354519797Y-225195430D01*
X354378732Y-224984310D01*
X354199190Y-224804768D01*
X353988070Y-224663703D01*
X353753487Y-224566535D01*
X353504455Y-224517000D01*
X353250545Y-224517000D01*
X353001513Y-224566535D01*
X352929000Y-224596571D01*
X352929000Y-211181504D01*
X352932297Y-211176570D01*
X353029465Y-210941987D01*
X353079000Y-210692955D01*
X353079000Y-210439045D01*
X353029465Y-210190013D01*
X352932297Y-209955430D01*
X352791232Y-209744310D01*
X352611690Y-209564768D01*
X352400570Y-209423703D01*
X352165987Y-209326535D01*
X351916955Y-209277000D01*
X351663045Y-209277000D01*
X351414013Y-209326535D01*
X351179430Y-209423703D01*
X350968310Y-209564768D01*
X350788768Y-209744310D01*
X350647703Y-209955430D01*
X350550535Y-210190013D01*
X350501000Y-210439045D01*
X350501000Y-210692955D01*
X350550535Y-210941987D01*
X350647703Y-211176570D01*
X350651000Y-211181504D01*
X350651001Y-267582413D01*
X346452000Y-263383412D01*
X346452000Y-254361504D01*
X346455297Y-254356570D01*
X346552465Y-254121987D01*
X346602000Y-253872955D01*
X346602000Y-253619045D01*
X346552465Y-253370013D01*
X346455297Y-253135430D01*
X346314232Y-252924310D01*
X346134690Y-252744768D01*
X345923570Y-252603703D01*
X345688987Y-252506535D01*
X345439955Y-252457000D01*
X345186045Y-252457000D01*
X344937013Y-252506535D01*
X344864500Y-252536571D01*
X344864500Y-249281504D01*
X344867797Y-249276570D01*
X344964965Y-249041987D01*
X345014500Y-248792955D01*
X345014500Y-248539045D01*
X344964965Y-248290013D01*
X344867797Y-248055430D01*
X344726732Y-247844310D01*
X344547190Y-247664768D01*
X344336070Y-247523703D01*
X344101487Y-247426535D01*
X343852455Y-247377000D01*
X343598545Y-247377000D01*
X343349513Y-247426535D01*
X343277000Y-247456571D01*
X343277000Y-244201504D01*
X343280297Y-244196570D01*
X343377465Y-243961987D01*
X343427000Y-243712955D01*
X343427000Y-243459045D01*
X343377465Y-243210013D01*
X343280297Y-242975430D01*
X343139232Y-242764310D01*
X342959690Y-242584768D01*
X342748570Y-242443703D01*
X342513987Y-242346535D01*
X342264955Y-242297000D01*
X342011045Y-242297000D01*
X341762013Y-242346535D01*
X341527430Y-242443703D01*
X341316310Y-242584768D01*
X341136768Y-242764310D01*
X340995703Y-242975430D01*
X340898535Y-243210013D01*
X340849000Y-243459045D01*
X340849000Y-243712955D01*
X340898535Y-243961987D01*
X340995703Y-244196570D01*
X340999000Y-244201504D01*
X340999000Y-249996571D01*
X340926487Y-249966535D01*
X340677455Y-249917000D01*
X340423545Y-249917000D01*
X340174513Y-249966535D01*
X340102000Y-249996571D01*
X340102000Y-246741504D01*
X340105297Y-246736570D01*
X340202465Y-246501987D01*
X340252000Y-246252955D01*
X340252000Y-245999045D01*
X340202465Y-245750013D01*
X340105297Y-245515430D01*
X339964232Y-245304310D01*
X339784690Y-245124768D01*
X339573570Y-244983703D01*
X339338987Y-244886535D01*
X339089955Y-244837000D01*
X338836045Y-244837000D01*
X338587013Y-244886535D01*
X338514500Y-244916571D01*
X338514500Y-241661504D01*
X338517797Y-241656570D01*
X338614965Y-241421987D01*
X338664500Y-241172955D01*
X338664500Y-240919045D01*
X338614965Y-240670013D01*
X338517797Y-240435430D01*
X338376732Y-240224310D01*
X338197190Y-240044768D01*
X337986070Y-239903703D01*
X337751487Y-239806535D01*
X337502455Y-239757000D01*
X337248545Y-239757000D01*
X336999513Y-239806535D01*
X336927000Y-239836571D01*
X336927000Y-236581504D01*
X336930297Y-236576570D01*
X337027465Y-236341987D01*
X337077000Y-236092955D01*
X337077000Y-235839045D01*
X337027465Y-235590013D01*
X336930297Y-235355430D01*
X336789232Y-235144310D01*
X336609690Y-234964768D01*
X336398570Y-234823703D01*
X336163987Y-234726535D01*
X335914955Y-234677000D01*
X335661045Y-234677000D01*
X335412013Y-234726535D01*
X335177430Y-234823703D01*
X334966310Y-234964768D01*
X334786768Y-235144310D01*
X334645703Y-235355430D01*
X334548535Y-235590013D01*
X334499000Y-235839045D01*
X334499000Y-236092955D01*
X334548535Y-236341987D01*
X334645703Y-236576570D01*
X334649000Y-236581504D01*
X334649000Y-237296571D01*
X334576487Y-237266535D01*
X334327455Y-237217000D01*
X334073545Y-237217000D01*
X333824513Y-237266535D01*
X333752000Y-237296571D01*
X333752000Y-234041504D01*
X333755297Y-234036570D01*
X333852465Y-233801987D01*
X333902000Y-233552955D01*
X333902000Y-233299045D01*
X333852465Y-233050013D01*
X333755297Y-232815430D01*
X333614232Y-232604310D01*
X333434690Y-232424768D01*
X333223570Y-232283703D01*
X332988987Y-232186535D01*
X332739955Y-232137000D01*
X332486045Y-232137000D01*
X332237013Y-232186535D01*
X332164500Y-232216571D01*
X332164500Y-231501504D01*
X332167797Y-231496570D01*
X332264965Y-231261987D01*
X332314500Y-231012955D01*
X332314500Y-230759045D01*
X332264965Y-230510013D01*
X332167797Y-230275430D01*
X332026732Y-230064310D01*
X331847190Y-229884768D01*
X331636070Y-229743703D01*
X331401487Y-229646535D01*
X331152455Y-229597000D01*
X330898545Y-229597000D01*
X330649513Y-229646535D01*
X330577000Y-229676571D01*
X330577000Y-207371504D01*
X330580297Y-207366570D01*
X330677465Y-207131987D01*
X330727000Y-206882955D01*
X330727000Y-206629045D01*
X330677465Y-206380013D01*
X330580297Y-206145430D01*
X330573997Y-206136000D01*
X356626699Y-206136000D01*
X356626699Y-207376000D01*
X356643864Y-207550274D01*
X356694697Y-207717851D01*
X356777247Y-207872291D01*
X356888341Y-208007659D01*
X357023709Y-208118753D01*
X357178149Y-208201303D01*
X357345726Y-208252136D01*
X357520000Y-208269301D01*
X358760000Y-208269301D01*
X358934274Y-208252136D01*
X359101851Y-208201303D01*
X359256291Y-208118753D01*
X359391659Y-208007659D01*
X359502753Y-207872291D01*
X359585303Y-207717851D01*
X359636136Y-207550274D01*
X359653301Y-207376000D01*
X359653301Y-206136000D01*
X359636136Y-205961726D01*
X359585303Y-205794149D01*
X359502753Y-205639709D01*
X359391659Y-205504341D01*
X359256291Y-205393247D01*
X359101851Y-205310697D01*
X358934274Y-205259864D01*
X358760000Y-205242699D01*
X357520000Y-205242699D01*
X357345726Y-205259864D01*
X357178149Y-205310697D01*
X357023709Y-205393247D01*
X356888341Y-205504341D01*
X356777247Y-205639709D01*
X356694697Y-205794149D01*
X356643864Y-205961726D01*
X356626699Y-206136000D01*
X330573997Y-206136000D01*
X330439232Y-205934310D01*
X330259690Y-205754768D01*
X330048570Y-205613703D01*
X329813987Y-205516535D01*
X329564955Y-205467000D01*
X329311045Y-205467000D01*
X329062013Y-205516535D01*
X328827430Y-205613703D01*
X328616310Y-205754768D01*
X328436768Y-205934310D01*
X328295703Y-206145430D01*
X328198535Y-206380013D01*
X328149000Y-206629045D01*
X328149000Y-206771122D01*
X327977455Y-206737000D01*
X327723545Y-206737000D01*
X327474513Y-206786535D01*
X327239930Y-206883703D01*
X327028810Y-207024768D01*
X326849268Y-207204310D01*
X326708203Y-207415430D01*
X326611035Y-207650013D01*
X326561500Y-207899045D01*
X326561500Y-208152955D01*
X326611035Y-208401987D01*
X326708203Y-208636570D01*
X326711500Y-208641504D01*
X326711501Y-263243710D01*
X320664411Y-269290800D01*
X319545939Y-269290800D01*
X319551000Y-269265355D01*
X319551000Y-269011445D01*
X319501465Y-268762413D01*
X319404297Y-268527830D01*
X319401000Y-268522896D01*
X319401000Y-260635970D01*
X319606000Y-260635970D01*
X319606000Y-261076030D01*
X319691852Y-261507634D01*
X319860255Y-261914196D01*
X320104739Y-262280092D01*
X320415908Y-262591261D01*
X320781804Y-262835745D01*
X321188366Y-263004148D01*
X321619970Y-263090000D01*
X322060030Y-263090000D01*
X322491634Y-263004148D01*
X322898196Y-262835745D01*
X323264092Y-262591261D01*
X323575261Y-262280092D01*
X323819745Y-261914196D01*
X323988148Y-261507634D01*
X324074000Y-261076030D01*
X324074000Y-260635970D01*
X323988148Y-260204366D01*
X323819745Y-259797804D01*
X323575261Y-259431908D01*
X323264092Y-259120739D01*
X322898196Y-258876255D01*
X322491634Y-258707852D01*
X322060030Y-258622000D01*
X321619970Y-258622000D01*
X321188366Y-258707852D01*
X320781804Y-258876255D01*
X320415908Y-259120739D01*
X320104739Y-259431908D01*
X319860255Y-259797804D01*
X319691852Y-260204366D01*
X319606000Y-260635970D01*
X319401000Y-260635970D01*
X319401000Y-256384647D01*
X319599841Y-256467010D01*
X319891377Y-256525000D01*
X320188623Y-256525000D01*
X320480159Y-256467010D01*
X320754779Y-256353258D01*
X321001931Y-256188117D01*
X321212117Y-255977931D01*
X321377258Y-255730779D01*
X321491010Y-255456159D01*
X321549000Y-255164623D01*
X321549000Y-254867377D01*
X321491010Y-254575841D01*
X321377258Y-254301221D01*
X321212117Y-254054069D01*
X321001931Y-253843883D01*
X320855438Y-253746000D01*
X321001931Y-253648117D01*
X321212117Y-253437931D01*
X321377258Y-253190779D01*
X321491010Y-252916159D01*
X321549000Y-252624623D01*
X321549000Y-252327377D01*
X321491010Y-252035841D01*
X321377258Y-251761221D01*
X321212117Y-251514069D01*
X321001931Y-251303883D01*
X320855438Y-251206000D01*
X321001931Y-251108117D01*
X321212117Y-250897931D01*
X321377258Y-250650779D01*
X321491010Y-250376159D01*
X321549000Y-250084623D01*
X321549000Y-249787377D01*
X321491010Y-249495841D01*
X321377258Y-249221221D01*
X321212117Y-248974069D01*
X321001931Y-248763883D01*
X320855438Y-248666000D01*
X321001931Y-248568117D01*
X321212117Y-248357931D01*
X321377258Y-248110779D01*
X321491010Y-247836159D01*
X321549000Y-247544623D01*
X321549000Y-247247377D01*
X321491010Y-246955841D01*
X321377258Y-246681221D01*
X321212117Y-246434069D01*
X321001931Y-246223883D01*
X320855438Y-246126000D01*
X321001931Y-246028117D01*
X321212117Y-245817931D01*
X321377258Y-245570779D01*
X321491010Y-245296159D01*
X321549000Y-245004623D01*
X321549000Y-244707377D01*
X321491010Y-244415841D01*
X321377258Y-244141221D01*
X321212117Y-243894069D01*
X321001931Y-243683883D01*
X320855438Y-243586000D01*
X321001931Y-243488117D01*
X321212117Y-243277931D01*
X321377258Y-243030779D01*
X321491010Y-242756159D01*
X321549000Y-242464623D01*
X321549000Y-242167377D01*
X321491010Y-241875841D01*
X321377258Y-241601221D01*
X321212117Y-241354069D01*
X321001931Y-241143883D01*
X320855438Y-241046000D01*
X321001931Y-240948117D01*
X321212117Y-240737931D01*
X321377258Y-240490779D01*
X321491010Y-240216159D01*
X321549000Y-239924623D01*
X321549000Y-239627377D01*
X321491010Y-239335841D01*
X321377258Y-239061221D01*
X321212117Y-238814069D01*
X321001931Y-238603883D01*
X320855438Y-238506000D01*
X321001931Y-238408117D01*
X321212117Y-238197931D01*
X321377258Y-237950779D01*
X321491010Y-237676159D01*
X321549000Y-237384623D01*
X321549000Y-237087377D01*
X321491010Y-236795841D01*
X321377258Y-236521221D01*
X321212117Y-236274069D01*
X321001931Y-236063883D01*
X320855438Y-235966000D01*
X321001931Y-235868117D01*
X321212117Y-235657931D01*
X321377258Y-235410779D01*
X321491010Y-235136159D01*
X321549000Y-234844623D01*
X321549000Y-234547377D01*
X321491010Y-234255841D01*
X321377258Y-233981221D01*
X321212117Y-233734069D01*
X321001931Y-233523883D01*
X320855438Y-233426000D01*
X321001931Y-233328117D01*
X321212117Y-233117931D01*
X321377258Y-232870779D01*
X321491010Y-232596159D01*
X321549000Y-232304623D01*
X321549000Y-232007377D01*
X321491010Y-231715841D01*
X321377258Y-231441221D01*
X321212117Y-231194069D01*
X321001931Y-230983883D01*
X320855438Y-230886000D01*
X321001931Y-230788117D01*
X321212117Y-230577931D01*
X321377258Y-230330779D01*
X321491010Y-230056159D01*
X321549000Y-229764623D01*
X321549000Y-229467377D01*
X321491010Y-229175841D01*
X321377258Y-228901221D01*
X321212117Y-228654069D01*
X321001931Y-228443883D01*
X320855438Y-228346000D01*
X321001931Y-228248117D01*
X321212117Y-228037931D01*
X321377258Y-227790779D01*
X321491010Y-227516159D01*
X321549000Y-227224623D01*
X321549000Y-226927377D01*
X321491010Y-226635841D01*
X321377258Y-226361221D01*
X321212117Y-226114069D01*
X321001931Y-225903883D01*
X320754779Y-225738742D01*
X320480159Y-225624990D01*
X320188623Y-225567000D01*
X319891377Y-225567000D01*
X319599841Y-225624990D01*
X319401000Y-225707353D01*
X319401000Y-223364647D01*
X319599841Y-223447010D01*
X319891377Y-223505000D01*
X320188623Y-223505000D01*
X320480159Y-223447010D01*
X320754779Y-223333258D01*
X321001931Y-223168117D01*
X321212117Y-222957931D01*
X321377258Y-222710779D01*
X321491010Y-222436159D01*
X321549000Y-222144623D01*
X321549000Y-221847377D01*
X321491010Y-221555841D01*
X321377258Y-221281221D01*
X321212117Y-221034069D01*
X321001931Y-220823883D01*
X320855438Y-220726000D01*
X321001931Y-220628117D01*
X321212117Y-220417931D01*
X321377258Y-220170779D01*
X321491010Y-219896159D01*
X321549000Y-219604623D01*
X321549000Y-219307377D01*
X321491010Y-219015841D01*
X321377258Y-218741221D01*
X321212117Y-218494069D01*
X321001931Y-218283883D01*
X320855438Y-218186000D01*
X321001931Y-218088117D01*
X321212117Y-217877931D01*
X321377258Y-217630779D01*
X321491010Y-217356159D01*
X321549000Y-217064623D01*
X321549000Y-216767377D01*
X321491010Y-216475841D01*
X321377258Y-216201221D01*
X321212117Y-215954069D01*
X321001931Y-215743883D01*
X320855438Y-215646000D01*
X321001931Y-215548117D01*
X321212117Y-215337931D01*
X321377258Y-215090779D01*
X321491010Y-214816159D01*
X321549000Y-214524623D01*
X321549000Y-214227377D01*
X321491010Y-213935841D01*
X321377258Y-213661221D01*
X321212117Y-213414069D01*
X321001931Y-213203883D01*
X320754779Y-213038742D01*
X320480159Y-212924990D01*
X320188623Y-212867000D01*
X319891377Y-212867000D01*
X319599841Y-212924990D01*
X319325221Y-213038742D01*
X319078069Y-213203883D01*
X318867883Y-213414069D01*
X318702742Y-213661221D01*
X318588990Y-213935841D01*
X318531000Y-214227377D01*
X318531000Y-214274211D01*
X314321178Y-218484034D01*
X314277713Y-218519705D01*
X314242044Y-218563168D01*
X314135378Y-218693140D01*
X314080094Y-218796570D01*
X314029614Y-218891012D01*
X313964484Y-219105714D01*
X313948004Y-219273042D01*
X313948004Y-219273051D01*
X313942494Y-219328996D01*
X313948004Y-219384941D01*
X313948005Y-252541834D01*
X313862787Y-252506535D01*
X313613755Y-252457000D01*
X313359845Y-252457000D01*
X313110813Y-252506535D01*
X313038300Y-252536571D01*
X313038300Y-251821504D01*
X313041597Y-251816570D01*
X313138765Y-251581987D01*
X313188300Y-251332955D01*
X313188300Y-251079045D01*
X313138765Y-250830013D01*
X313041597Y-250595430D01*
X312900532Y-250384310D01*
X312720990Y-250204768D01*
X312509870Y-250063703D01*
X312275287Y-249966535D01*
X312026255Y-249917000D01*
X311772345Y-249917000D01*
X311523313Y-249966535D01*
X311450800Y-249996571D01*
X311450800Y-249281504D01*
X311454097Y-249276570D01*
X311551265Y-249041987D01*
X311600800Y-248792955D01*
X311600800Y-248539045D01*
X311551265Y-248290013D01*
X311454097Y-248055430D01*
X311313032Y-247844310D01*
X311133490Y-247664768D01*
X310922370Y-247523703D01*
X310687787Y-247426535D01*
X310438755Y-247377000D01*
X310184845Y-247377000D01*
X309935813Y-247426535D01*
X309863300Y-247456571D01*
X309863300Y-246741504D01*
X309866597Y-246736570D01*
X309963765Y-246501987D01*
X310013300Y-246252955D01*
X310013300Y-245999045D01*
X309963765Y-245750013D01*
X309866597Y-245515430D01*
X309725532Y-245304310D01*
X309545990Y-245124768D01*
X309334870Y-244983703D01*
X309100287Y-244886535D01*
X308851255Y-244837000D01*
X308597345Y-244837000D01*
X308348313Y-244886535D01*
X308275800Y-244916571D01*
X308275800Y-244201504D01*
X308279097Y-244196570D01*
X308376265Y-243961987D01*
X308425800Y-243712955D01*
X308425800Y-243459045D01*
X308376265Y-243210013D01*
X308279097Y-242975430D01*
X308138032Y-242764310D01*
X307958490Y-242584768D01*
X307747370Y-242443703D01*
X307512787Y-242346535D01*
X307263755Y-242297000D01*
X307009845Y-242297000D01*
X306760813Y-242346535D01*
X306688300Y-242376571D01*
X306688300Y-241661504D01*
X306691597Y-241656570D01*
X306788765Y-241421987D01*
X306838300Y-241172955D01*
X306838300Y-240919045D01*
X306788765Y-240670013D01*
X306691597Y-240435430D01*
X306550532Y-240224310D01*
X306370990Y-240044768D01*
X306159870Y-239903703D01*
X305925287Y-239806535D01*
X305676255Y-239757000D01*
X305422345Y-239757000D01*
X305173313Y-239806535D01*
X305100800Y-239836571D01*
X305100800Y-239121504D01*
X305104097Y-239116570D01*
X305201265Y-238881987D01*
X305250800Y-238632955D01*
X305250800Y-238379045D01*
X305201265Y-238130013D01*
X305104097Y-237895430D01*
X304963032Y-237684310D01*
X304783490Y-237504768D01*
X304572370Y-237363703D01*
X304337787Y-237266535D01*
X304088755Y-237217000D01*
X303834845Y-237217000D01*
X303585813Y-237266535D01*
X303513300Y-237296571D01*
X303513300Y-236581504D01*
X303516597Y-236576570D01*
X303613765Y-236341987D01*
X303663300Y-236092955D01*
X303663300Y-235839045D01*
X303613765Y-235590013D01*
X303516597Y-235355430D01*
X303375532Y-235144310D01*
X303195990Y-234964768D01*
X302984870Y-234823703D01*
X302750287Y-234726535D01*
X302501255Y-234677000D01*
X302247345Y-234677000D01*
X301998313Y-234726535D01*
X301925800Y-234756571D01*
X301925800Y-234041504D01*
X301929097Y-234036570D01*
X302026265Y-233801987D01*
X302075800Y-233552955D01*
X302075800Y-233299045D01*
X302026265Y-233050013D01*
X301929097Y-232815430D01*
X301788032Y-232604310D01*
X301608490Y-232424768D01*
X301397370Y-232283703D01*
X301162787Y-232186535D01*
X300913755Y-232137000D01*
X300659845Y-232137000D01*
X300410813Y-232186535D01*
X300338300Y-232216571D01*
X300338300Y-231501504D01*
X300341597Y-231496570D01*
X300438765Y-231261987D01*
X300488300Y-231012955D01*
X300488300Y-230759045D01*
X300438765Y-230510013D01*
X300341597Y-230275430D01*
X300200532Y-230064310D01*
X300020990Y-229884768D01*
X299809870Y-229743703D01*
X299575287Y-229646535D01*
X299326255Y-229597000D01*
X299072345Y-229597000D01*
X298823313Y-229646535D01*
X298750800Y-229676571D01*
X298750800Y-228961504D01*
X298754097Y-228956570D01*
X298851265Y-228721987D01*
X298900800Y-228472955D01*
X298900800Y-228219045D01*
X298851265Y-227970013D01*
X298754097Y-227735430D01*
X298613032Y-227524310D01*
X298433490Y-227344768D01*
X298222370Y-227203703D01*
X297987787Y-227106535D01*
X297738755Y-227057000D01*
X297484845Y-227057000D01*
X297235813Y-227106535D01*
X297163300Y-227136571D01*
X297163300Y-226421504D01*
X297166597Y-226416570D01*
X297263765Y-226181987D01*
X297313300Y-225932955D01*
X297313300Y-225679045D01*
X297263765Y-225430013D01*
X297166597Y-225195430D01*
X297025532Y-224984310D01*
X296845990Y-224804768D01*
X296634870Y-224663703D01*
X296400287Y-224566535D01*
X296151255Y-224517000D01*
X295897345Y-224517000D01*
X295648313Y-224566535D01*
X295575800Y-224596571D01*
X295575800Y-223881504D01*
X295579097Y-223876570D01*
X295676265Y-223641987D01*
X295725800Y-223392955D01*
X295725800Y-223139045D01*
X295676265Y-222890013D01*
X295579097Y-222655430D01*
X295438032Y-222444310D01*
X295258490Y-222264768D01*
X295047370Y-222123703D01*
X294812787Y-222026535D01*
X294563755Y-221977000D01*
X294309845Y-221977000D01*
X294060813Y-222026535D01*
X293988300Y-222056571D01*
X293988300Y-221341504D01*
X293991597Y-221336570D01*
X294088765Y-221101987D01*
X294138300Y-220852955D01*
X294138300Y-220599045D01*
X294088765Y-220350013D01*
X293991597Y-220115430D01*
X293850532Y-219904310D01*
X293670990Y-219724768D01*
X293459870Y-219583703D01*
X293225287Y-219486535D01*
X292976255Y-219437000D01*
X292722345Y-219437000D01*
X292473313Y-219486535D01*
X292400800Y-219516571D01*
X292400800Y-218801504D01*
X292404097Y-218796570D01*
X292501265Y-218561987D01*
X292550800Y-218312955D01*
X292550800Y-218059045D01*
X292501265Y-217810013D01*
X292404097Y-217575430D01*
X292263032Y-217364310D01*
X292083490Y-217184768D01*
X291872370Y-217043703D01*
X291637787Y-216946535D01*
X291388755Y-216897000D01*
X291134845Y-216897000D01*
X290885813Y-216946535D01*
X290813300Y-216976571D01*
X290813300Y-216261504D01*
X290816597Y-216256570D01*
X290913765Y-216021987D01*
X290963300Y-215772955D01*
X290963300Y-215519045D01*
X290913765Y-215270013D01*
X290816597Y-215035430D01*
X290675532Y-214824310D01*
X290495990Y-214644768D01*
X290284870Y-214503703D01*
X290050287Y-214406535D01*
X289801255Y-214357000D01*
X289547345Y-214357000D01*
X289298313Y-214406535D01*
X289225800Y-214436571D01*
X289225800Y-213721504D01*
X289229097Y-213716570D01*
X289326265Y-213481987D01*
X289375800Y-213232955D01*
X289375800Y-212979045D01*
X289326265Y-212730013D01*
X289229097Y-212495430D01*
X289088032Y-212284310D01*
X288908490Y-212104768D01*
X288697370Y-211963703D01*
X288462787Y-211866535D01*
X288213755Y-211817000D01*
X287959845Y-211817000D01*
X287710813Y-211866535D01*
X287476230Y-211963703D01*
X287265110Y-212104768D01*
X287085568Y-212284310D01*
X286944503Y-212495430D01*
X286847335Y-212730013D01*
X286797800Y-212979045D01*
X286797800Y-213232955D01*
X286847335Y-213481987D01*
X286944503Y-213716570D01*
X286947801Y-213721506D01*
X286947800Y-268725411D01*
X281250200Y-263027812D01*
X281250200Y-260635970D01*
X281506000Y-260635970D01*
X281506000Y-261076030D01*
X281591852Y-261507634D01*
X281760255Y-261914196D01*
X282004739Y-262280092D01*
X282315908Y-262591261D01*
X282681804Y-262835745D01*
X283088366Y-263004148D01*
X283519970Y-263090000D01*
X283960030Y-263090000D01*
X284391634Y-263004148D01*
X284798196Y-262835745D01*
X285164092Y-262591261D01*
X285475261Y-262280092D01*
X285719745Y-261914196D01*
X285888148Y-261507634D01*
X285974000Y-261076030D01*
X285974000Y-260635970D01*
X285888148Y-260204366D01*
X285719745Y-259797804D01*
X285475261Y-259431908D01*
X285164092Y-259120739D01*
X284798196Y-258876255D01*
X284391634Y-258707852D01*
X283960030Y-258622000D01*
X283519970Y-258622000D01*
X283088366Y-258707852D01*
X282681804Y-258876255D01*
X282315908Y-259120739D01*
X282004739Y-259431908D01*
X281760255Y-259797804D01*
X281591852Y-260204366D01*
X281506000Y-260635970D01*
X281250200Y-260635970D01*
X281250200Y-256363605D01*
X281499841Y-256467010D01*
X281791377Y-256525000D01*
X282088623Y-256525000D01*
X282380159Y-256467010D01*
X282654779Y-256353258D01*
X282901931Y-256188117D01*
X283112117Y-255977931D01*
X283277258Y-255730779D01*
X283391010Y-255456159D01*
X283449000Y-255164623D01*
X283449000Y-254867377D01*
X283391010Y-254575841D01*
X283277258Y-254301221D01*
X283112117Y-254054069D01*
X282901931Y-253843883D01*
X282755438Y-253746000D01*
X282901931Y-253648117D01*
X283112117Y-253437931D01*
X283277258Y-253190779D01*
X283391010Y-252916159D01*
X283449000Y-252624623D01*
X283449000Y-252327377D01*
X283391010Y-252035841D01*
X283277258Y-251761221D01*
X283112117Y-251514069D01*
X282901931Y-251303883D01*
X282755438Y-251206000D01*
X282901931Y-251108117D01*
X283112117Y-250897931D01*
X283277258Y-250650779D01*
X283391010Y-250376159D01*
X283449000Y-250084623D01*
X283449000Y-249787377D01*
X283391010Y-249495841D01*
X283277258Y-249221221D01*
X283112117Y-248974069D01*
X282901931Y-248763883D01*
X282755438Y-248666000D01*
X282901931Y-248568117D01*
X283112117Y-248357931D01*
X283277258Y-248110779D01*
X283391010Y-247836159D01*
X283449000Y-247544623D01*
X283449000Y-247247377D01*
X283391010Y-246955841D01*
X283277258Y-246681221D01*
X283112117Y-246434069D01*
X282901931Y-246223883D01*
X282755438Y-246126000D01*
X282901931Y-246028117D01*
X283112117Y-245817931D01*
X283277258Y-245570779D01*
X283391010Y-245296159D01*
X283449000Y-245004623D01*
X283449000Y-244707377D01*
X283391010Y-244415841D01*
X283277258Y-244141221D01*
X283112117Y-243894069D01*
X282901931Y-243683883D01*
X282755438Y-243586000D01*
X282901931Y-243488117D01*
X283112117Y-243277931D01*
X283277258Y-243030779D01*
X283391010Y-242756159D01*
X283449000Y-242464623D01*
X283449000Y-242167377D01*
X283391010Y-241875841D01*
X283277258Y-241601221D01*
X283112117Y-241354069D01*
X282901931Y-241143883D01*
X282755438Y-241046000D01*
X282901931Y-240948117D01*
X283112117Y-240737931D01*
X283277258Y-240490779D01*
X283391010Y-240216159D01*
X283449000Y-239924623D01*
X283449000Y-239627377D01*
X283391010Y-239335841D01*
X283277258Y-239061221D01*
X283112117Y-238814069D01*
X282901931Y-238603883D01*
X282755438Y-238506000D01*
X282901931Y-238408117D01*
X283112117Y-238197931D01*
X283277258Y-237950779D01*
X283391010Y-237676159D01*
X283449000Y-237384623D01*
X283449000Y-237087377D01*
X283391010Y-236795841D01*
X283277258Y-236521221D01*
X283112117Y-236274069D01*
X282901931Y-236063883D01*
X282755438Y-235966000D01*
X282901931Y-235868117D01*
X283112117Y-235657931D01*
X283277258Y-235410779D01*
X283391010Y-235136159D01*
X283449000Y-234844623D01*
X283449000Y-234547377D01*
X283391010Y-234255841D01*
X283277258Y-233981221D01*
X283112117Y-233734069D01*
X282901931Y-233523883D01*
X282755438Y-233426000D01*
X282901931Y-233328117D01*
X283112117Y-233117931D01*
X283277258Y-232870779D01*
X283391010Y-232596159D01*
X283449000Y-232304623D01*
X283449000Y-232007377D01*
X283391010Y-231715841D01*
X283277258Y-231441221D01*
X283112117Y-231194069D01*
X282901931Y-230983883D01*
X282755438Y-230886000D01*
X282901931Y-230788117D01*
X283112117Y-230577931D01*
X283277258Y-230330779D01*
X283391010Y-230056159D01*
X283449000Y-229764623D01*
X283449000Y-229467377D01*
X283391010Y-229175841D01*
X283277258Y-228901221D01*
X283112117Y-228654069D01*
X282901931Y-228443883D01*
X282755438Y-228346000D01*
X282901931Y-228248117D01*
X283112117Y-228037931D01*
X283277258Y-227790779D01*
X283391010Y-227516159D01*
X283449000Y-227224623D01*
X283449000Y-226927377D01*
X283391010Y-226635841D01*
X283277258Y-226361221D01*
X283112117Y-226114069D01*
X282901931Y-225903883D01*
X282755438Y-225806000D01*
X282901931Y-225708117D01*
X283112117Y-225497931D01*
X283277258Y-225250779D01*
X283391010Y-224976159D01*
X283449000Y-224684623D01*
X283449000Y-224387377D01*
X283391010Y-224095841D01*
X283277258Y-223821221D01*
X283112117Y-223574069D01*
X282901931Y-223363883D01*
X282755438Y-223266000D01*
X282901931Y-223168117D01*
X283112117Y-222957931D01*
X283277258Y-222710779D01*
X283391010Y-222436159D01*
X283449000Y-222144623D01*
X283449000Y-221847377D01*
X283391010Y-221555841D01*
X283277258Y-221281221D01*
X283112117Y-221034069D01*
X282901931Y-220823883D01*
X282755438Y-220726000D01*
X282901931Y-220628117D01*
X283112117Y-220417931D01*
X283277258Y-220170779D01*
X283391010Y-219896159D01*
X283449000Y-219604623D01*
X283449000Y-219307377D01*
X283391010Y-219015841D01*
X283277258Y-218741221D01*
X283112117Y-218494069D01*
X282901931Y-218283883D01*
X282755438Y-218186000D01*
X282901931Y-218088117D01*
X283112117Y-217877931D01*
X283277258Y-217630779D01*
X283391010Y-217356159D01*
X283449000Y-217064623D01*
X283449000Y-216767377D01*
X283391010Y-216475841D01*
X283277258Y-216201221D01*
X283112117Y-215954069D01*
X282901931Y-215743883D01*
X282755438Y-215646000D01*
X282901931Y-215548117D01*
X283112117Y-215337931D01*
X283277258Y-215090779D01*
X283391010Y-214816159D01*
X283449000Y-214524623D01*
X283449000Y-214227377D01*
X283391010Y-213935841D01*
X283277258Y-213661221D01*
X283112117Y-213414069D01*
X282901931Y-213203883D01*
X282755438Y-213106000D01*
X282901931Y-213008117D01*
X283112117Y-212797931D01*
X283277258Y-212550779D01*
X283391010Y-212276159D01*
X283449000Y-211984623D01*
X283449000Y-211687377D01*
X283391010Y-211395841D01*
X283277258Y-211121221D01*
X283112117Y-210874069D01*
X282901931Y-210663883D01*
X282755438Y-210566000D01*
X282901931Y-210468117D01*
X283112117Y-210257931D01*
X283277258Y-210010779D01*
X283391010Y-209736159D01*
X283449000Y-209444623D01*
X283449000Y-209147377D01*
X283391010Y-208855841D01*
X283277258Y-208581221D01*
X283112117Y-208334069D01*
X282901931Y-208123883D01*
X282654779Y-207958742D01*
X282380159Y-207844990D01*
X282088623Y-207787000D01*
X281791377Y-207787000D01*
X281499841Y-207844990D01*
X281225221Y-207958742D01*
X280978069Y-208123883D01*
X280767883Y-208334069D01*
X280602742Y-208581221D01*
X280488990Y-208855841D01*
X280431000Y-209147377D01*
X280431000Y-209194211D01*
X277719774Y-211905438D01*
X277676309Y-211941109D01*
X277640640Y-211984572D01*
X277533974Y-212114544D01*
X277512685Y-212154374D01*
X277428210Y-212312416D01*
X277363080Y-212527118D01*
X277346600Y-212694446D01*
X277346600Y-212694455D01*
X277341090Y-212750400D01*
X277346600Y-212806345D01*
X277346601Y-264142145D01*
X277341090Y-264198100D01*
X277363081Y-264421383D01*
X277428211Y-264636085D01*
X277533974Y-264833956D01*
X277640640Y-264963928D01*
X277640644Y-264963932D01*
X277676310Y-265007391D01*
X277719769Y-265043057D01*
X283772800Y-271096089D01*
X283772801Y-287439097D01*
X278066500Y-287450635D01*
X278066500Y-286431785D01*
X278071108Y-286385000D01*
X278052717Y-286198277D01*
X277998252Y-286018731D01*
X277909806Y-285853259D01*
X277790778Y-285708222D01*
X277645741Y-285589194D01*
X277480269Y-285500748D01*
X277300723Y-285446283D01*
X277160785Y-285432500D01*
X277114000Y-285427892D01*
X277067215Y-285432500D01*
X276301200Y-285432500D01*
X276301200Y-206136000D01*
X318526699Y-206136000D01*
X318526699Y-207376000D01*
X318543864Y-207550274D01*
X318594697Y-207717851D01*
X318677247Y-207872291D01*
X318788341Y-208007659D01*
X318923709Y-208118753D01*
X319027644Y-208174308D01*
X318867883Y-208334069D01*
X318702742Y-208581221D01*
X318588990Y-208855841D01*
X318531000Y-209147377D01*
X318531000Y-209444623D01*
X318588990Y-209736159D01*
X318702742Y-210010779D01*
X318867883Y-210257931D01*
X319078069Y-210468117D01*
X319325221Y-210633258D01*
X319599841Y-210747010D01*
X319891377Y-210805000D01*
X320188623Y-210805000D01*
X320480159Y-210747010D01*
X320754779Y-210633258D01*
X321001931Y-210468117D01*
X321212117Y-210257931D01*
X321377258Y-210010779D01*
X321491010Y-209736159D01*
X321549000Y-209444623D01*
X321549000Y-209147377D01*
X321491010Y-208855841D01*
X321377258Y-208581221D01*
X321212117Y-208334069D01*
X321052356Y-208174308D01*
X321156291Y-208118753D01*
X321291659Y-208007659D01*
X321402753Y-207872291D01*
X321485303Y-207717851D01*
X321536136Y-207550274D01*
X321553301Y-207376000D01*
X321553301Y-206136000D01*
X321536136Y-205961726D01*
X321485303Y-205794149D01*
X321402753Y-205639709D01*
X321291659Y-205504341D01*
X321156291Y-205393247D01*
X321001851Y-205310697D01*
X320834274Y-205259864D01*
X320660000Y-205242699D01*
X319420000Y-205242699D01*
X319245726Y-205259864D01*
X319078149Y-205310697D01*
X318923709Y-205393247D01*
X318788341Y-205504341D01*
X318677247Y-205639709D01*
X318594697Y-205794149D01*
X318543864Y-205961726D01*
X318526699Y-206136000D01*
X276301200Y-206136000D01*
X276301200Y-200695970D01*
X281506000Y-200695970D01*
X281506000Y-201136030D01*
X281591852Y-201567634D01*
X281760255Y-201974196D01*
X282004739Y-202340092D01*
X282315908Y-202651261D01*
X282681804Y-202895745D01*
X283088366Y-203064148D01*
X283519970Y-203150000D01*
X283960030Y-203150000D01*
X284391634Y-203064148D01*
X284798196Y-202895745D01*
X285164092Y-202651261D01*
X285475261Y-202340092D01*
X285719745Y-201974196D01*
X285888148Y-201567634D01*
X285974000Y-201136030D01*
X285974000Y-200695970D01*
X319606000Y-200695970D01*
X319606000Y-201136030D01*
X319691852Y-201567634D01*
X319860255Y-201974196D01*
X320104739Y-202340092D01*
X320415908Y-202651261D01*
X320781804Y-202895745D01*
X321188366Y-203064148D01*
X321619970Y-203150000D01*
X322060030Y-203150000D01*
X322491634Y-203064148D01*
X322898196Y-202895745D01*
X323264092Y-202651261D01*
X323575261Y-202340092D01*
X323819745Y-201974196D01*
X323988148Y-201567634D01*
X324074000Y-201136030D01*
X324074000Y-200695970D01*
X357706000Y-200695970D01*
X357706000Y-201136030D01*
X357791852Y-201567634D01*
X357960255Y-201974196D01*
X358204739Y-202340092D01*
X358515908Y-202651261D01*
X358881804Y-202895745D01*
X359288366Y-203064148D01*
X359719970Y-203150000D01*
X360160030Y-203150000D01*
X360591634Y-203064148D01*
X360998196Y-202895745D01*
X361364092Y-202651261D01*
X361675261Y-202340092D01*
X361919745Y-201974196D01*
X362088148Y-201567634D01*
X362174000Y-201136030D01*
X362174000Y-200695970D01*
X362088148Y-200264366D01*
X361919745Y-199857804D01*
X361675261Y-199491908D01*
X361364092Y-199180739D01*
X360998196Y-198936255D01*
X360591634Y-198767852D01*
X360160030Y-198682000D01*
X359719970Y-198682000D01*
X359288366Y-198767852D01*
X358881804Y-198936255D01*
X358515908Y-199180739D01*
X358204739Y-199491908D01*
X357960255Y-199857804D01*
X357791852Y-200264366D01*
X357706000Y-200695970D01*
X324074000Y-200695970D01*
X323988148Y-200264366D01*
X323819745Y-199857804D01*
X323575261Y-199491908D01*
X323264092Y-199180739D01*
X322898196Y-198936255D01*
X322491634Y-198767852D01*
X322060030Y-198682000D01*
X321619970Y-198682000D01*
X321188366Y-198767852D01*
X320781804Y-198936255D01*
X320415908Y-199180739D01*
X320104739Y-199491908D01*
X319860255Y-199857804D01*
X319691852Y-200264366D01*
X319606000Y-200695970D01*
X285974000Y-200695970D01*
X285888148Y-200264366D01*
X285719745Y-199857804D01*
X285475261Y-199491908D01*
X285164092Y-199180739D01*
X284798196Y-198936255D01*
X284391634Y-198767852D01*
X283960030Y-198682000D01*
X283519970Y-198682000D01*
X283088366Y-198767852D01*
X282681804Y-198936255D01*
X282315908Y-199180739D01*
X282004739Y-199491908D01*
X281760255Y-199857804D01*
X281591852Y-200264366D01*
X281506000Y-200695970D01*
X276301200Y-200695970D01*
X276301200Y-192151000D01*
X404749000Y-192151000D01*
X404749000Y-287502074D01*
G37*
G04 #@! TD.AperFunction*
M02*
