%FSLAX45Y45*%
G04 Gerber Fmt 4.5, Leading zero omitted, Abs format (unit mm)*
G04 Created by KiCad (PCBNEW (5.1.10)-1) date 2021-09-26 13:38:02*
%MOMM*%
%LPD*%
G01*
G04 APERTURE LIST*
%TA.AperFunction,Profile*%
%ADD10C,0.127000*%
%TD*%
%ADD11C,0.200000*%
%ADD12C,0.300000*%
G04 APERTURE END LIST*
D10*
X27711400Y-28638500D02*
X27711400Y-30480000D01*
X27711400Y-28638500D02*
X27465020Y-28638500D01*
X33401000Y-30480000D02*
X27711400Y-30480000D01*
X34696400Y-28638500D02*
X34696400Y-30480000D01*
X34696400Y-28638500D02*
X34340800Y-28638500D01*
X34340800Y-28892500D02*
X34340800Y-28638500D01*
X34340800Y-28892500D02*
X33401000Y-28892500D01*
X33401000Y-28892500D02*
X33401000Y-30480000D01*
X40386000Y-30480000D02*
X34696400Y-30480000D01*
X40386000Y-28892500D02*
X40386000Y-30480000D01*
X40640000Y-28892500D02*
X40386000Y-28892500D01*
X27465020Y-19050000D02*
X27465020Y-28638500D01*
X40640000Y-19050000D02*
X27465020Y-19050000D01*
X40640000Y-19050000D02*
X40640000Y-28892500D01*
D11*
X28239500Y-19957100D02*
X28508500Y-20226100D01*
X28508500Y-19957100D02*
X28239500Y-20226100D01*
X28239500Y-25951100D02*
X28508500Y-26220100D01*
X28508500Y-25951100D02*
X28239500Y-26220100D01*
X32049500Y-19957100D02*
X32318500Y-20226100D01*
X32318500Y-19957100D02*
X32049500Y-20226100D01*
X32049500Y-25951100D02*
X32318500Y-26220100D01*
X32318500Y-25951100D02*
X32049500Y-26220100D01*
X35859500Y-19957100D02*
X36128500Y-20226100D01*
X36128500Y-19957100D02*
X35859500Y-20226100D01*
X35859500Y-25951100D02*
X36128500Y-26220100D01*
X36128500Y-25951100D02*
X35859500Y-26220100D01*
D12*
X27745098Y-30952064D02*
X27745098Y-30652064D01*
X27816527Y-30652064D01*
X27859384Y-30666350D01*
X27887956Y-30694921D01*
X27902241Y-30723493D01*
X27916527Y-30780636D01*
X27916527Y-30823493D01*
X27902241Y-30880636D01*
X27887956Y-30909207D01*
X27859384Y-30937779D01*
X27816527Y-30952064D01*
X27745098Y-30952064D01*
X28045098Y-30952064D02*
X28045098Y-30752064D01*
X28045098Y-30809207D02*
X28059384Y-30780636D01*
X28073670Y-30766350D01*
X28102241Y-30752064D01*
X28130813Y-30752064D01*
X28230813Y-30952064D02*
X28230813Y-30752064D01*
X28230813Y-30652064D02*
X28216527Y-30666350D01*
X28230813Y-30680636D01*
X28245098Y-30666350D01*
X28230813Y-30652064D01*
X28230813Y-30680636D01*
X28416527Y-30952064D02*
X28387956Y-30937779D01*
X28373670Y-30909207D01*
X28373670Y-30652064D01*
X28573670Y-30952064D02*
X28545098Y-30937779D01*
X28530813Y-30909207D01*
X28530813Y-30652064D01*
X28916527Y-30952064D02*
X28916527Y-30652064D01*
X29016527Y-30866350D01*
X29116527Y-30652064D01*
X29116527Y-30952064D01*
X29387956Y-30952064D02*
X29387956Y-30794921D01*
X29373670Y-30766350D01*
X29345098Y-30752064D01*
X29287956Y-30752064D01*
X29259384Y-30766350D01*
X29387956Y-30937779D02*
X29359384Y-30952064D01*
X29287956Y-30952064D01*
X29259384Y-30937779D01*
X29245098Y-30909207D01*
X29245098Y-30880636D01*
X29259384Y-30852064D01*
X29287956Y-30837779D01*
X29359384Y-30837779D01*
X29387956Y-30823493D01*
X29530813Y-30752064D02*
X29530813Y-31052064D01*
X29530813Y-30766350D02*
X29559384Y-30752064D01*
X29616527Y-30752064D01*
X29645098Y-30766350D01*
X29659384Y-30780636D01*
X29673670Y-30809207D01*
X29673670Y-30894921D01*
X29659384Y-30923493D01*
X29645098Y-30937779D01*
X29616527Y-30952064D01*
X29559384Y-30952064D01*
X29530813Y-30937779D01*
X29802241Y-30923493D02*
X29816527Y-30937779D01*
X29802241Y-30952064D01*
X29787956Y-30937779D01*
X29802241Y-30923493D01*
X29802241Y-30952064D01*
X29802241Y-30766350D02*
X29816527Y-30780636D01*
X29802241Y-30794921D01*
X29787956Y-30780636D01*
X29802241Y-30766350D01*
X29802241Y-30794921D01*
X27189670Y-31311850D02*
X27458670Y-31580850D01*
X27458670Y-31311850D02*
X27189670Y-31580850D01*
X27730813Y-31310636D02*
X27745098Y-31296350D01*
X27773670Y-31282064D01*
X27845098Y-31282064D01*
X27873670Y-31296350D01*
X27887956Y-31310636D01*
X27902241Y-31339207D01*
X27902241Y-31367779D01*
X27887956Y-31410636D01*
X27716527Y-31582064D01*
X27902241Y-31582064D01*
X28030813Y-31553493D02*
X28045098Y-31567779D01*
X28030813Y-31582064D01*
X28016527Y-31567779D01*
X28030813Y-31553493D01*
X28030813Y-31582064D01*
X28302241Y-31282064D02*
X28245098Y-31282064D01*
X28216527Y-31296350D01*
X28202241Y-31310636D01*
X28173670Y-31353493D01*
X28159384Y-31410636D01*
X28159384Y-31524921D01*
X28173670Y-31553493D01*
X28187956Y-31567779D01*
X28216527Y-31582064D01*
X28273670Y-31582064D01*
X28302241Y-31567779D01*
X28316527Y-31553493D01*
X28330813Y-31524921D01*
X28330813Y-31453493D01*
X28316527Y-31424921D01*
X28302241Y-31410636D01*
X28273670Y-31396350D01*
X28216527Y-31396350D01*
X28187956Y-31410636D01*
X28173670Y-31424921D01*
X28159384Y-31453493D01*
X28473670Y-31582064D02*
X28530813Y-31582064D01*
X28559384Y-31567779D01*
X28573670Y-31553493D01*
X28602241Y-31510636D01*
X28616527Y-31453493D01*
X28616527Y-31339207D01*
X28602241Y-31310636D01*
X28587956Y-31296350D01*
X28559384Y-31282064D01*
X28502241Y-31282064D01*
X28473670Y-31296350D01*
X28459384Y-31310636D01*
X28445098Y-31339207D01*
X28445098Y-31410636D01*
X28459384Y-31439207D01*
X28473670Y-31453493D01*
X28502241Y-31467779D01*
X28559384Y-31467779D01*
X28587956Y-31453493D01*
X28602241Y-31439207D01*
X28616527Y-31410636D01*
X28802241Y-31282064D02*
X28830813Y-31282064D01*
X28859384Y-31296350D01*
X28873670Y-31310636D01*
X28887956Y-31339207D01*
X28902241Y-31396350D01*
X28902241Y-31467779D01*
X28887956Y-31524921D01*
X28873670Y-31553493D01*
X28859384Y-31567779D01*
X28830813Y-31582064D01*
X28802241Y-31582064D01*
X28773670Y-31567779D01*
X28759384Y-31553493D01*
X28745098Y-31524921D01*
X28730813Y-31467779D01*
X28730813Y-31396350D01*
X28745098Y-31339207D01*
X28759384Y-31310636D01*
X28773670Y-31296350D01*
X28802241Y-31282064D01*
X29030813Y-31582064D02*
X29030813Y-31382064D01*
X29030813Y-31410636D02*
X29045098Y-31396350D01*
X29073670Y-31382064D01*
X29116527Y-31382064D01*
X29145098Y-31396350D01*
X29159384Y-31424921D01*
X29159384Y-31582064D01*
X29159384Y-31424921D02*
X29173670Y-31396350D01*
X29202241Y-31382064D01*
X29245098Y-31382064D01*
X29273670Y-31396350D01*
X29287956Y-31424921D01*
X29287956Y-31582064D01*
X29430813Y-31582064D02*
X29430813Y-31382064D01*
X29430813Y-31410636D02*
X29445098Y-31396350D01*
X29473670Y-31382064D01*
X29516527Y-31382064D01*
X29545098Y-31396350D01*
X29559384Y-31424921D01*
X29559384Y-31582064D01*
X29559384Y-31424921D02*
X29573670Y-31396350D01*
X29602241Y-31382064D01*
X29645098Y-31382064D01*
X29673670Y-31396350D01*
X29687956Y-31424921D01*
X29687956Y-31582064D01*
X30273670Y-31267779D02*
X30016527Y-31653493D01*
X30659384Y-31282064D02*
X30687956Y-31282064D01*
X30716527Y-31296350D01*
X30730813Y-31310636D01*
X30745098Y-31339207D01*
X30759384Y-31396350D01*
X30759384Y-31467779D01*
X30745098Y-31524921D01*
X30730813Y-31553493D01*
X30716527Y-31567779D01*
X30687956Y-31582064D01*
X30659384Y-31582064D01*
X30630813Y-31567779D01*
X30616527Y-31553493D01*
X30602241Y-31524921D01*
X30587956Y-31467779D01*
X30587956Y-31396350D01*
X30602241Y-31339207D01*
X30616527Y-31310636D01*
X30630813Y-31296350D01*
X30659384Y-31282064D01*
X30887956Y-31553493D02*
X30902241Y-31567779D01*
X30887956Y-31582064D01*
X30873670Y-31567779D01*
X30887956Y-31553493D01*
X30887956Y-31582064D01*
X31187956Y-31582064D02*
X31016527Y-31582064D01*
X31102241Y-31582064D02*
X31102241Y-31282064D01*
X31073670Y-31324921D01*
X31045098Y-31353493D01*
X31016527Y-31367779D01*
X31373670Y-31282064D02*
X31402241Y-31282064D01*
X31430813Y-31296350D01*
X31445098Y-31310636D01*
X31459384Y-31339207D01*
X31473670Y-31396350D01*
X31473670Y-31467779D01*
X31459384Y-31524921D01*
X31445098Y-31553493D01*
X31430813Y-31567779D01*
X31402241Y-31582064D01*
X31373670Y-31582064D01*
X31345098Y-31567779D01*
X31330813Y-31553493D01*
X31316527Y-31524921D01*
X31302241Y-31467779D01*
X31302241Y-31396350D01*
X31316527Y-31339207D01*
X31330813Y-31310636D01*
X31345098Y-31296350D01*
X31373670Y-31282064D01*
X31745098Y-31282064D02*
X31602241Y-31282064D01*
X31587956Y-31424921D01*
X31602241Y-31410636D01*
X31630813Y-31396350D01*
X31702241Y-31396350D01*
X31730813Y-31410636D01*
X31745098Y-31424921D01*
X31759384Y-31453493D01*
X31759384Y-31524921D01*
X31745098Y-31553493D01*
X31730813Y-31567779D01*
X31702241Y-31582064D01*
X31630813Y-31582064D01*
X31602241Y-31567779D01*
X31587956Y-31553493D01*
X31902241Y-31582064D02*
X31959384Y-31582064D01*
X31987956Y-31567779D01*
X32002241Y-31553493D01*
X32030813Y-31510636D01*
X32045098Y-31453493D01*
X32045098Y-31339207D01*
X32030813Y-31310636D01*
X32016527Y-31296350D01*
X31987956Y-31282064D01*
X31930813Y-31282064D01*
X31902241Y-31296350D01*
X31887956Y-31310636D01*
X31873670Y-31339207D01*
X31873670Y-31410636D01*
X31887956Y-31439207D01*
X31902241Y-31453493D01*
X31930813Y-31467779D01*
X31987956Y-31467779D01*
X32016527Y-31453493D01*
X32030813Y-31439207D01*
X32045098Y-31410636D01*
X32159384Y-31282064D02*
X32159384Y-31339207D01*
X32273670Y-31282064D02*
X32273670Y-31339207D01*
X32716527Y-31696350D02*
X32702241Y-31682064D01*
X32673670Y-31639207D01*
X32659384Y-31610636D01*
X32645098Y-31567779D01*
X32630813Y-31496350D01*
X32630813Y-31439207D01*
X32645098Y-31367779D01*
X32659384Y-31324921D01*
X32673670Y-31296350D01*
X32702241Y-31253493D01*
X32716527Y-31239207D01*
X32959384Y-31282064D02*
X32902241Y-31282064D01*
X32873670Y-31296350D01*
X32859384Y-31310636D01*
X32830813Y-31353493D01*
X32816527Y-31410636D01*
X32816527Y-31524921D01*
X32830813Y-31553493D01*
X32845098Y-31567779D01*
X32873670Y-31582064D01*
X32930813Y-31582064D01*
X32959384Y-31567779D01*
X32973670Y-31553493D01*
X32987956Y-31524921D01*
X32987956Y-31453493D01*
X32973670Y-31424921D01*
X32959384Y-31410636D01*
X32930813Y-31396350D01*
X32873670Y-31396350D01*
X32845098Y-31410636D01*
X32830813Y-31424921D01*
X32816527Y-31453493D01*
X33345098Y-31582064D02*
X33345098Y-31282064D01*
X33473670Y-31582064D02*
X33473670Y-31424921D01*
X33459384Y-31396350D01*
X33430813Y-31382064D01*
X33387956Y-31382064D01*
X33359384Y-31396350D01*
X33345098Y-31410636D01*
X33659384Y-31582064D02*
X33630813Y-31567779D01*
X33616527Y-31553493D01*
X33602241Y-31524921D01*
X33602241Y-31439207D01*
X33616527Y-31410636D01*
X33630813Y-31396350D01*
X33659384Y-31382064D01*
X33702241Y-31382064D01*
X33730813Y-31396350D01*
X33745098Y-31410636D01*
X33759384Y-31439207D01*
X33759384Y-31524921D01*
X33745098Y-31553493D01*
X33730813Y-31567779D01*
X33702241Y-31582064D01*
X33659384Y-31582064D01*
X33930813Y-31582064D02*
X33902241Y-31567779D01*
X33887956Y-31539207D01*
X33887956Y-31282064D01*
X34159384Y-31567779D02*
X34130813Y-31582064D01*
X34073670Y-31582064D01*
X34045098Y-31567779D01*
X34030813Y-31539207D01*
X34030813Y-31424921D01*
X34045098Y-31396350D01*
X34073670Y-31382064D01*
X34130813Y-31382064D01*
X34159384Y-31396350D01*
X34173670Y-31424921D01*
X34173670Y-31453493D01*
X34030813Y-31482064D01*
X34287956Y-31567779D02*
X34316527Y-31582064D01*
X34373670Y-31582064D01*
X34402241Y-31567779D01*
X34416527Y-31539207D01*
X34416527Y-31524921D01*
X34402241Y-31496350D01*
X34373670Y-31482064D01*
X34330813Y-31482064D01*
X34302241Y-31467779D01*
X34287956Y-31439207D01*
X34287956Y-31424921D01*
X34302241Y-31396350D01*
X34330813Y-31382064D01*
X34373670Y-31382064D01*
X34402241Y-31396350D01*
X34516527Y-31696350D02*
X34530813Y-31682064D01*
X34559384Y-31639207D01*
X34573670Y-31610636D01*
X34587956Y-31567779D01*
X34602241Y-31496350D01*
X34602241Y-31439207D01*
X34587956Y-31367779D01*
X34573670Y-31324921D01*
X34559384Y-31296350D01*
X34530813Y-31253493D01*
X34516527Y-31239207D01*
X35059384Y-31696350D02*
X35045098Y-31682064D01*
X35016527Y-31639207D01*
X35002241Y-31610636D01*
X34987956Y-31567779D01*
X34973670Y-31496350D01*
X34973670Y-31439207D01*
X34987956Y-31367779D01*
X35002241Y-31324921D01*
X35016527Y-31296350D01*
X35045098Y-31253493D01*
X35059384Y-31239207D01*
X35173670Y-31382064D02*
X35173670Y-31582064D01*
X35173670Y-31410636D02*
X35187956Y-31396350D01*
X35216527Y-31382064D01*
X35259384Y-31382064D01*
X35287956Y-31396350D01*
X35302241Y-31424921D01*
X35302241Y-31582064D01*
X35487956Y-31582064D02*
X35459384Y-31567779D01*
X35445098Y-31553493D01*
X35430813Y-31524921D01*
X35430813Y-31439207D01*
X35445098Y-31410636D01*
X35459384Y-31396350D01*
X35487956Y-31382064D01*
X35530813Y-31382064D01*
X35559384Y-31396350D01*
X35573670Y-31410636D01*
X35587956Y-31439207D01*
X35587956Y-31524921D01*
X35573670Y-31553493D01*
X35559384Y-31567779D01*
X35530813Y-31582064D01*
X35487956Y-31582064D01*
X35673670Y-31382064D02*
X35787956Y-31382064D01*
X35716527Y-31282064D02*
X35716527Y-31539207D01*
X35730813Y-31567779D01*
X35759384Y-31582064D01*
X35787956Y-31582064D01*
X36116527Y-31382064D02*
X36116527Y-31682064D01*
X36116527Y-31396350D02*
X36145098Y-31382064D01*
X36202241Y-31382064D01*
X36230813Y-31396350D01*
X36245098Y-31410636D01*
X36259384Y-31439207D01*
X36259384Y-31524921D01*
X36245098Y-31553493D01*
X36230813Y-31567779D01*
X36202241Y-31582064D01*
X36145098Y-31582064D01*
X36116527Y-31567779D01*
X36430813Y-31582064D02*
X36402241Y-31567779D01*
X36387956Y-31539207D01*
X36387956Y-31282064D01*
X36673670Y-31582064D02*
X36673670Y-31424921D01*
X36659384Y-31396350D01*
X36630813Y-31382064D01*
X36573670Y-31382064D01*
X36545098Y-31396350D01*
X36673670Y-31567779D02*
X36645098Y-31582064D01*
X36573670Y-31582064D01*
X36545098Y-31567779D01*
X36530813Y-31539207D01*
X36530813Y-31510636D01*
X36545098Y-31482064D01*
X36573670Y-31467779D01*
X36645098Y-31467779D01*
X36673670Y-31453493D01*
X36773670Y-31382064D02*
X36887956Y-31382064D01*
X36816527Y-31282064D02*
X36816527Y-31539207D01*
X36830813Y-31567779D01*
X36859384Y-31582064D01*
X36887956Y-31582064D01*
X37102241Y-31567779D02*
X37073670Y-31582064D01*
X37016527Y-31582064D01*
X36987956Y-31567779D01*
X36973670Y-31539207D01*
X36973670Y-31424921D01*
X36987956Y-31396350D01*
X37016527Y-31382064D01*
X37073670Y-31382064D01*
X37102241Y-31396350D01*
X37116527Y-31424921D01*
X37116527Y-31453493D01*
X36973670Y-31482064D01*
X37373670Y-31582064D02*
X37373670Y-31282064D01*
X37373670Y-31567779D02*
X37345098Y-31582064D01*
X37287956Y-31582064D01*
X37259384Y-31567779D01*
X37245098Y-31553493D01*
X37230813Y-31524921D01*
X37230813Y-31439207D01*
X37245098Y-31410636D01*
X37259384Y-31396350D01*
X37287956Y-31382064D01*
X37345098Y-31382064D01*
X37373670Y-31396350D01*
X37487956Y-31696350D02*
X37502241Y-31682064D01*
X37530813Y-31639207D01*
X37545098Y-31610636D01*
X37559384Y-31567779D01*
X37573670Y-31496350D01*
X37573670Y-31439207D01*
X37559384Y-31367779D01*
X37545098Y-31324921D01*
X37530813Y-31296350D01*
X37502241Y-31253493D01*
X37487956Y-31239207D01*
M02*
