G04 #@! TF.GenerationSoftware,KiCad,Pcbnew,(5.1.10)-1*
G04 #@! TF.CreationDate,2021-09-26T13:37:53-07:00*
G04 #@! TF.ProjectId,m9042-clone,6d393034-322d-4636-9c6f-6e652e6b6963,1*
G04 #@! TF.SameCoordinates,Original*
G04 #@! TF.FileFunction,Legend,Bot*
G04 #@! TF.FilePolarity,Positive*
%FSLAX46Y46*%
G04 Gerber Fmt 4.6, Leading zero omitted, Abs format (unit mm)*
G04 Created by KiCad (PCBNEW (5.1.10)-1) date 2021-09-26 13:37:53*
%MOMM*%
%LPD*%
G01*
G04 APERTURE LIST*
%ADD10C,0.203200*%
%ADD11C,0.100000*%
%ADD12C,1.240000*%
%ADD13R,1.240000X1.240000*%
%ADD14C,2.690000*%
%ADD15R,2.032000X13.208000*%
G04 APERTURE END LIST*
D10*
X278471085Y-287231666D02*
X278531561Y-287413095D01*
X278592038Y-287473571D01*
X278712990Y-287534047D01*
X278894419Y-287534047D01*
X279015371Y-287473571D01*
X279075847Y-287413095D01*
X279136323Y-287292142D01*
X279136323Y-286808333D01*
X277866323Y-286808333D01*
X277866323Y-287231666D01*
X277926800Y-287352619D01*
X277987276Y-287413095D01*
X278108228Y-287473571D01*
X278229180Y-287473571D01*
X278350133Y-287413095D01*
X278410609Y-287352619D01*
X278471085Y-287231666D01*
X278471085Y-286808333D01*
X277866323Y-287896904D02*
X279136323Y-288320238D01*
X277866323Y-288743571D01*
X277987276Y-289106428D02*
X277926800Y-289166904D01*
X277866323Y-289287857D01*
X277866323Y-289590238D01*
X277926800Y-289711190D01*
X277987276Y-289771666D01*
X278108228Y-289832142D01*
X278229180Y-289832142D01*
X278410609Y-289771666D01*
X279136323Y-289045952D01*
X279136323Y-289832142D01*
X281646085Y-287110714D02*
X281706561Y-287292142D01*
X281767038Y-287352619D01*
X281887990Y-287413095D01*
X282069419Y-287413095D01*
X282190371Y-287352619D01*
X282250847Y-287292142D01*
X282311323Y-287171190D01*
X282311323Y-286687380D01*
X281041323Y-286687380D01*
X281041323Y-287110714D01*
X281101800Y-287231666D01*
X281162276Y-287292142D01*
X281283228Y-287352619D01*
X281404180Y-287352619D01*
X281525133Y-287292142D01*
X281585609Y-287231666D01*
X281646085Y-287110714D01*
X281646085Y-286687380D01*
X281041323Y-287957380D02*
X282069419Y-287957380D01*
X282190371Y-288017857D01*
X282250847Y-288078333D01*
X282311323Y-288199285D01*
X282311323Y-288441190D01*
X282250847Y-288562142D01*
X282190371Y-288622619D01*
X282069419Y-288683095D01*
X281041323Y-288683095D01*
X281162276Y-289227380D02*
X281101800Y-289287857D01*
X281041323Y-289408809D01*
X281041323Y-289711190D01*
X281101800Y-289832142D01*
X281162276Y-289892619D01*
X281283228Y-289953095D01*
X281404180Y-289953095D01*
X281585609Y-289892619D01*
X282311323Y-289166904D01*
X282311323Y-289953095D01*
X284821085Y-287292142D02*
X284881561Y-287473571D01*
X284942038Y-287534047D01*
X285062990Y-287594523D01*
X285244419Y-287594523D01*
X285365371Y-287534047D01*
X285425847Y-287473571D01*
X285486323Y-287352619D01*
X285486323Y-286868809D01*
X284216323Y-286868809D01*
X284216323Y-287292142D01*
X284276800Y-287413095D01*
X284337276Y-287473571D01*
X284458228Y-287534047D01*
X284579180Y-287534047D01*
X284700133Y-287473571D01*
X284760609Y-287413095D01*
X284821085Y-287292142D01*
X284821085Y-286868809D01*
X284216323Y-287957380D02*
X284216323Y-288683095D01*
X285486323Y-288320238D02*
X284216323Y-288320238D01*
X284337276Y-289045952D02*
X284276800Y-289106428D01*
X284216323Y-289227380D01*
X284216323Y-289529761D01*
X284276800Y-289650714D01*
X284337276Y-289711190D01*
X284458228Y-289771666D01*
X284579180Y-289771666D01*
X284760609Y-289711190D01*
X285486323Y-288985476D01*
X285486323Y-289771666D01*
X287996085Y-287171190D02*
X288056561Y-287352619D01*
X288117038Y-287413095D01*
X288237990Y-287473571D01*
X288419419Y-287473571D01*
X288540371Y-287413095D01*
X288600847Y-287352619D01*
X288661323Y-287231666D01*
X288661323Y-286747857D01*
X287391323Y-286747857D01*
X287391323Y-287171190D01*
X287451800Y-287292142D01*
X287512276Y-287352619D01*
X287633228Y-287413095D01*
X287754180Y-287413095D01*
X287875133Y-287352619D01*
X287935609Y-287292142D01*
X287996085Y-287171190D01*
X287996085Y-286747857D01*
X288600847Y-287957380D02*
X288661323Y-288138809D01*
X288661323Y-288441190D01*
X288600847Y-288562142D01*
X288540371Y-288622619D01*
X288419419Y-288683095D01*
X288298466Y-288683095D01*
X288177514Y-288622619D01*
X288117038Y-288562142D01*
X288056561Y-288441190D01*
X287996085Y-288199285D01*
X287935609Y-288078333D01*
X287875133Y-288017857D01*
X287754180Y-287957380D01*
X287633228Y-287957380D01*
X287512276Y-288017857D01*
X287451800Y-288078333D01*
X287391323Y-288199285D01*
X287391323Y-288501666D01*
X287451800Y-288683095D01*
X287512276Y-289166904D02*
X287451800Y-289227380D01*
X287391323Y-289348333D01*
X287391323Y-289650714D01*
X287451800Y-289771666D01*
X287512276Y-289832142D01*
X287633228Y-289892619D01*
X287754180Y-289892619D01*
X287935609Y-289832142D01*
X288661323Y-289106428D01*
X288661323Y-289892619D01*
X291171085Y-287140952D02*
X291231561Y-287322380D01*
X291292038Y-287382857D01*
X291412990Y-287443333D01*
X291594419Y-287443333D01*
X291715371Y-287382857D01*
X291775847Y-287322380D01*
X291836323Y-287201428D01*
X291836323Y-286717619D01*
X290566323Y-286717619D01*
X290566323Y-287140952D01*
X290626800Y-287261904D01*
X290687276Y-287322380D01*
X290808228Y-287382857D01*
X290929180Y-287382857D01*
X291050133Y-287322380D01*
X291110609Y-287261904D01*
X291171085Y-287140952D01*
X291171085Y-286717619D01*
X291836323Y-288713333D02*
X291231561Y-288290000D01*
X291836323Y-287987619D02*
X290566323Y-287987619D01*
X290566323Y-288471428D01*
X290626800Y-288592380D01*
X290687276Y-288652857D01*
X290808228Y-288713333D01*
X290989657Y-288713333D01*
X291110609Y-288652857D01*
X291171085Y-288592380D01*
X291231561Y-288471428D01*
X291231561Y-287987619D01*
X290687276Y-289197142D02*
X290626800Y-289257619D01*
X290566323Y-289378571D01*
X290566323Y-289680952D01*
X290626800Y-289801904D01*
X290687276Y-289862380D01*
X290808228Y-289922857D01*
X290929180Y-289922857D01*
X291110609Y-289862380D01*
X291836323Y-289136666D01*
X291836323Y-289922857D01*
X294346085Y-287140952D02*
X294406561Y-287322380D01*
X294467038Y-287382857D01*
X294587990Y-287443333D01*
X294769419Y-287443333D01*
X294890371Y-287382857D01*
X294950847Y-287322380D01*
X295011323Y-287201428D01*
X295011323Y-286717619D01*
X293741323Y-286717619D01*
X293741323Y-287140952D01*
X293801800Y-287261904D01*
X293862276Y-287322380D01*
X293983228Y-287382857D01*
X294104180Y-287382857D01*
X294225133Y-287322380D01*
X294285609Y-287261904D01*
X294346085Y-287140952D01*
X294346085Y-286717619D01*
X295011323Y-287987619D02*
X293741323Y-287987619D01*
X293741323Y-288471428D01*
X293801800Y-288592380D01*
X293862276Y-288652857D01*
X293983228Y-288713333D01*
X294164657Y-288713333D01*
X294285609Y-288652857D01*
X294346085Y-288592380D01*
X294406561Y-288471428D01*
X294406561Y-287987619D01*
X293862276Y-289197142D02*
X293801800Y-289257619D01*
X293741323Y-289378571D01*
X293741323Y-289680952D01*
X293801800Y-289801904D01*
X293862276Y-289862380D01*
X293983228Y-289922857D01*
X294104180Y-289922857D01*
X294285609Y-289862380D01*
X295011323Y-289136666D01*
X295011323Y-289922857D01*
X297521085Y-287110714D02*
X297581561Y-287292142D01*
X297642038Y-287352619D01*
X297762990Y-287413095D01*
X297944419Y-287413095D01*
X298065371Y-287352619D01*
X298125847Y-287292142D01*
X298186323Y-287171190D01*
X298186323Y-286687380D01*
X296916323Y-286687380D01*
X296916323Y-287110714D01*
X296976800Y-287231666D01*
X297037276Y-287292142D01*
X297158228Y-287352619D01*
X297279180Y-287352619D01*
X297400133Y-287292142D01*
X297460609Y-287231666D01*
X297521085Y-287110714D01*
X297521085Y-286687380D01*
X298186323Y-287957380D02*
X296916323Y-287957380D01*
X298186323Y-288683095D01*
X296916323Y-288683095D01*
X297037276Y-289227380D02*
X296976800Y-289287857D01*
X296916323Y-289408809D01*
X296916323Y-289711190D01*
X296976800Y-289832142D01*
X297037276Y-289892619D01*
X297158228Y-289953095D01*
X297279180Y-289953095D01*
X297460609Y-289892619D01*
X298186323Y-289166904D01*
X298186323Y-289953095D01*
X300696085Y-287050238D02*
X300756561Y-287231666D01*
X300817038Y-287292142D01*
X300937990Y-287352619D01*
X301119419Y-287352619D01*
X301240371Y-287292142D01*
X301300847Y-287231666D01*
X301361323Y-287110714D01*
X301361323Y-286626904D01*
X300091323Y-286626904D01*
X300091323Y-287050238D01*
X300151800Y-287171190D01*
X300212276Y-287231666D01*
X300333228Y-287292142D01*
X300454180Y-287292142D01*
X300575133Y-287231666D01*
X300635609Y-287171190D01*
X300696085Y-287050238D01*
X300696085Y-286626904D01*
X301361323Y-287896904D02*
X300091323Y-287896904D01*
X300998466Y-288320238D01*
X300091323Y-288743571D01*
X301361323Y-288743571D01*
X300212276Y-289287857D02*
X300151800Y-289348333D01*
X300091323Y-289469285D01*
X300091323Y-289771666D01*
X300151800Y-289892619D01*
X300212276Y-289953095D01*
X300333228Y-290013571D01*
X300454180Y-290013571D01*
X300635609Y-289953095D01*
X301361323Y-289227380D01*
X301361323Y-290013571D01*
X303871085Y-287261904D02*
X303931561Y-287443333D01*
X303992038Y-287503809D01*
X304112990Y-287564285D01*
X304294419Y-287564285D01*
X304415371Y-287503809D01*
X304475847Y-287443333D01*
X304536323Y-287322380D01*
X304536323Y-286838571D01*
X303266323Y-286838571D01*
X303266323Y-287261904D01*
X303326800Y-287382857D01*
X303387276Y-287443333D01*
X303508228Y-287503809D01*
X303629180Y-287503809D01*
X303750133Y-287443333D01*
X303810609Y-287382857D01*
X303871085Y-287261904D01*
X303871085Y-286838571D01*
X304536323Y-288713333D02*
X304536323Y-288108571D01*
X303266323Y-288108571D01*
X303387276Y-289076190D02*
X303326800Y-289136666D01*
X303266323Y-289257619D01*
X303266323Y-289560000D01*
X303326800Y-289680952D01*
X303387276Y-289741428D01*
X303508228Y-289801904D01*
X303629180Y-289801904D01*
X303810609Y-289741428D01*
X304536323Y-289015714D01*
X304536323Y-289801904D01*
X307046085Y-287140952D02*
X307106561Y-287322380D01*
X307167038Y-287382857D01*
X307287990Y-287443333D01*
X307469419Y-287443333D01*
X307590371Y-287382857D01*
X307650847Y-287322380D01*
X307711323Y-287201428D01*
X307711323Y-286717619D01*
X306441323Y-286717619D01*
X306441323Y-287140952D01*
X306501800Y-287261904D01*
X306562276Y-287322380D01*
X306683228Y-287382857D01*
X306804180Y-287382857D01*
X306925133Y-287322380D01*
X306985609Y-287261904D01*
X307046085Y-287140952D01*
X307046085Y-286717619D01*
X307711323Y-287987619D02*
X306441323Y-287987619D01*
X307711323Y-288713333D02*
X306985609Y-288169047D01*
X306441323Y-288713333D02*
X307167038Y-287987619D01*
X306562276Y-289197142D02*
X306501800Y-289257619D01*
X306441323Y-289378571D01*
X306441323Y-289680952D01*
X306501800Y-289801904D01*
X306562276Y-289862380D01*
X306683228Y-289922857D01*
X306804180Y-289922857D01*
X306985609Y-289862380D01*
X307711323Y-289136666D01*
X307711323Y-289922857D01*
X310221085Y-287292142D02*
X310281561Y-287473571D01*
X310342038Y-287534047D01*
X310462990Y-287594523D01*
X310644419Y-287594523D01*
X310765371Y-287534047D01*
X310825847Y-287473571D01*
X310886323Y-287352619D01*
X310886323Y-286868809D01*
X309616323Y-286868809D01*
X309616323Y-287292142D01*
X309676800Y-287413095D01*
X309737276Y-287473571D01*
X309858228Y-287534047D01*
X309979180Y-287534047D01*
X310100133Y-287473571D01*
X310160609Y-287413095D01*
X310221085Y-287292142D01*
X310221085Y-286868809D01*
X309616323Y-288501666D02*
X310523466Y-288501666D01*
X310704895Y-288441190D01*
X310825847Y-288320238D01*
X310886323Y-288138809D01*
X310886323Y-288017857D01*
X309737276Y-289045952D02*
X309676800Y-289106428D01*
X309616323Y-289227380D01*
X309616323Y-289529761D01*
X309676800Y-289650714D01*
X309737276Y-289711190D01*
X309858228Y-289771666D01*
X309979180Y-289771666D01*
X310160609Y-289711190D01*
X310886323Y-288985476D01*
X310886323Y-289771666D01*
X313396085Y-287110714D02*
X313456561Y-287292142D01*
X313517038Y-287352619D01*
X313637990Y-287413095D01*
X313819419Y-287413095D01*
X313940371Y-287352619D01*
X314000847Y-287292142D01*
X314061323Y-287171190D01*
X314061323Y-286687380D01*
X312791323Y-286687380D01*
X312791323Y-287110714D01*
X312851800Y-287231666D01*
X312912276Y-287292142D01*
X313033228Y-287352619D01*
X313154180Y-287352619D01*
X313275133Y-287292142D01*
X313335609Y-287231666D01*
X313396085Y-287110714D01*
X313396085Y-286687380D01*
X314061323Y-287957380D02*
X312791323Y-287957380D01*
X313396085Y-287957380D02*
X313396085Y-288683095D01*
X314061323Y-288683095D02*
X312791323Y-288683095D01*
X312912276Y-289227380D02*
X312851800Y-289287857D01*
X312791323Y-289408809D01*
X312791323Y-289711190D01*
X312851800Y-289832142D01*
X312912276Y-289892619D01*
X313033228Y-289953095D01*
X313154180Y-289953095D01*
X313335609Y-289892619D01*
X314061323Y-289166904D01*
X314061323Y-289953095D01*
X316571085Y-287231666D02*
X316631561Y-287413095D01*
X316692038Y-287473571D01*
X316812990Y-287534047D01*
X316994419Y-287534047D01*
X317115371Y-287473571D01*
X317175847Y-287413095D01*
X317236323Y-287292142D01*
X317236323Y-286808333D01*
X315966323Y-286808333D01*
X315966323Y-287231666D01*
X316026800Y-287352619D01*
X316087276Y-287413095D01*
X316208228Y-287473571D01*
X316329180Y-287473571D01*
X316450133Y-287413095D01*
X316510609Y-287352619D01*
X316571085Y-287231666D01*
X316571085Y-286808333D01*
X316571085Y-288501666D02*
X316571085Y-288078333D01*
X317236323Y-288078333D02*
X315966323Y-288078333D01*
X315966323Y-288683095D01*
X316087276Y-289106428D02*
X316026800Y-289166904D01*
X315966323Y-289287857D01*
X315966323Y-289590238D01*
X316026800Y-289711190D01*
X316087276Y-289771666D01*
X316208228Y-289832142D01*
X316329180Y-289832142D01*
X316510609Y-289771666D01*
X317236323Y-289045952D01*
X317236323Y-289832142D01*
X319746085Y-287201428D02*
X319806561Y-287382857D01*
X319867038Y-287443333D01*
X319987990Y-287503809D01*
X320169419Y-287503809D01*
X320290371Y-287443333D01*
X320350847Y-287382857D01*
X320411323Y-287261904D01*
X320411323Y-286778095D01*
X319141323Y-286778095D01*
X319141323Y-287201428D01*
X319201800Y-287322380D01*
X319262276Y-287382857D01*
X319383228Y-287443333D01*
X319504180Y-287443333D01*
X319625133Y-287382857D01*
X319685609Y-287322380D01*
X319746085Y-287201428D01*
X319746085Y-286778095D01*
X319746085Y-288048095D02*
X319746085Y-288471428D01*
X320411323Y-288652857D02*
X320411323Y-288048095D01*
X319141323Y-288048095D01*
X319141323Y-288652857D01*
X319262276Y-289136666D02*
X319201800Y-289197142D01*
X319141323Y-289318095D01*
X319141323Y-289620476D01*
X319201800Y-289741428D01*
X319262276Y-289801904D01*
X319383228Y-289862380D01*
X319504180Y-289862380D01*
X319685609Y-289801904D01*
X320411323Y-289076190D01*
X320411323Y-289862380D01*
X322921085Y-287140952D02*
X322981561Y-287322380D01*
X323042038Y-287382857D01*
X323162990Y-287443333D01*
X323344419Y-287443333D01*
X323465371Y-287382857D01*
X323525847Y-287322380D01*
X323586323Y-287201428D01*
X323586323Y-286717619D01*
X322316323Y-286717619D01*
X322316323Y-287140952D01*
X322376800Y-287261904D01*
X322437276Y-287322380D01*
X322558228Y-287382857D01*
X322679180Y-287382857D01*
X322800133Y-287322380D01*
X322860609Y-287261904D01*
X322921085Y-287140952D01*
X322921085Y-286717619D01*
X323586323Y-287987619D02*
X322316323Y-287987619D01*
X322316323Y-288290000D01*
X322376800Y-288471428D01*
X322497752Y-288592380D01*
X322618704Y-288652857D01*
X322860609Y-288713333D01*
X323042038Y-288713333D01*
X323283942Y-288652857D01*
X323404895Y-288592380D01*
X323525847Y-288471428D01*
X323586323Y-288290000D01*
X323586323Y-287987619D01*
X322437276Y-289197142D02*
X322376800Y-289257619D01*
X322316323Y-289378571D01*
X322316323Y-289680952D01*
X322376800Y-289801904D01*
X322437276Y-289862380D01*
X322558228Y-289922857D01*
X322679180Y-289922857D01*
X322860609Y-289862380D01*
X323586323Y-289136666D01*
X323586323Y-289922857D01*
X326096085Y-287140952D02*
X326156561Y-287322380D01*
X326217038Y-287382857D01*
X326337990Y-287443333D01*
X326519419Y-287443333D01*
X326640371Y-287382857D01*
X326700847Y-287322380D01*
X326761323Y-287201428D01*
X326761323Y-286717619D01*
X325491323Y-286717619D01*
X325491323Y-287140952D01*
X325551800Y-287261904D01*
X325612276Y-287322380D01*
X325733228Y-287382857D01*
X325854180Y-287382857D01*
X325975133Y-287322380D01*
X326035609Y-287261904D01*
X326096085Y-287140952D01*
X326096085Y-286717619D01*
X326640371Y-288713333D02*
X326700847Y-288652857D01*
X326761323Y-288471428D01*
X326761323Y-288350476D01*
X326700847Y-288169047D01*
X326579895Y-288048095D01*
X326458942Y-287987619D01*
X326217038Y-287927142D01*
X326035609Y-287927142D01*
X325793704Y-287987619D01*
X325672752Y-288048095D01*
X325551800Y-288169047D01*
X325491323Y-288350476D01*
X325491323Y-288471428D01*
X325551800Y-288652857D01*
X325612276Y-288713333D01*
X325612276Y-289197142D02*
X325551800Y-289257619D01*
X325491323Y-289378571D01*
X325491323Y-289680952D01*
X325551800Y-289801904D01*
X325612276Y-289862380D01*
X325733228Y-289922857D01*
X325854180Y-289922857D01*
X326035609Y-289862380D01*
X326761323Y-289136666D01*
X326761323Y-289922857D01*
X329271085Y-287140952D02*
X329331561Y-287322380D01*
X329392038Y-287382857D01*
X329512990Y-287443333D01*
X329694419Y-287443333D01*
X329815371Y-287382857D01*
X329875847Y-287322380D01*
X329936323Y-287201428D01*
X329936323Y-286717619D01*
X328666323Y-286717619D01*
X328666323Y-287140952D01*
X328726800Y-287261904D01*
X328787276Y-287322380D01*
X328908228Y-287382857D01*
X329029180Y-287382857D01*
X329150133Y-287322380D01*
X329210609Y-287261904D01*
X329271085Y-287140952D01*
X329271085Y-286717619D01*
X329271085Y-288410952D02*
X329331561Y-288592380D01*
X329392038Y-288652857D01*
X329512990Y-288713333D01*
X329694419Y-288713333D01*
X329815371Y-288652857D01*
X329875847Y-288592380D01*
X329936323Y-288471428D01*
X329936323Y-287987619D01*
X328666323Y-287987619D01*
X328666323Y-288410952D01*
X328726800Y-288531904D01*
X328787276Y-288592380D01*
X328908228Y-288652857D01*
X329029180Y-288652857D01*
X329150133Y-288592380D01*
X329210609Y-288531904D01*
X329271085Y-288410952D01*
X329271085Y-287987619D01*
X328787276Y-289197142D02*
X328726800Y-289257619D01*
X328666323Y-289378571D01*
X328666323Y-289680952D01*
X328726800Y-289801904D01*
X328787276Y-289862380D01*
X328908228Y-289922857D01*
X329029180Y-289922857D01*
X329210609Y-289862380D01*
X329936323Y-289136666D01*
X329936323Y-289922857D01*
X332446085Y-287231666D02*
X332506561Y-287413095D01*
X332567038Y-287473571D01*
X332687990Y-287534047D01*
X332869419Y-287534047D01*
X332990371Y-287473571D01*
X333050847Y-287413095D01*
X333111323Y-287292142D01*
X333111323Y-286808333D01*
X331841323Y-286808333D01*
X331841323Y-287231666D01*
X331901800Y-287352619D01*
X331962276Y-287413095D01*
X332083228Y-287473571D01*
X332204180Y-287473571D01*
X332325133Y-287413095D01*
X332385609Y-287352619D01*
X332446085Y-287231666D01*
X332446085Y-286808333D01*
X332748466Y-288017857D02*
X332748466Y-288622619D01*
X333111323Y-287896904D02*
X331841323Y-288320238D01*
X333111323Y-288743571D01*
X331962276Y-289106428D02*
X331901800Y-289166904D01*
X331841323Y-289287857D01*
X331841323Y-289590238D01*
X331901800Y-289711190D01*
X331962276Y-289771666D01*
X332083228Y-289832142D01*
X332204180Y-289832142D01*
X332385609Y-289771666D01*
X333111323Y-289045952D01*
X333111323Y-289832142D01*
X402598466Y-286838571D02*
X402598466Y-287443333D01*
X402961323Y-286717619D02*
X401691323Y-287140952D01*
X402961323Y-287564285D01*
X402598466Y-287927142D02*
X402598466Y-288531904D01*
X402961323Y-287806190D02*
X401691323Y-288229523D01*
X402961323Y-288652857D01*
X401812276Y-289015714D02*
X401751800Y-289076190D01*
X401691323Y-289197142D01*
X401691323Y-289499523D01*
X401751800Y-289620476D01*
X401812276Y-289680952D01*
X401933228Y-289741428D01*
X402054180Y-289741428D01*
X402235609Y-289680952D01*
X402961323Y-288955238D01*
X402961323Y-289741428D01*
X399423466Y-286747857D02*
X399423466Y-287352619D01*
X399786323Y-286626904D02*
X398516323Y-287050238D01*
X399786323Y-287473571D01*
X399121085Y-288320238D02*
X399181561Y-288501666D01*
X399242038Y-288562142D01*
X399362990Y-288622619D01*
X399544419Y-288622619D01*
X399665371Y-288562142D01*
X399725847Y-288501666D01*
X399786323Y-288380714D01*
X399786323Y-287896904D01*
X398516323Y-287896904D01*
X398516323Y-288320238D01*
X398576800Y-288441190D01*
X398637276Y-288501666D01*
X398758228Y-288562142D01*
X398879180Y-288562142D01*
X399000133Y-288501666D01*
X399060609Y-288441190D01*
X399121085Y-288320238D01*
X399121085Y-287896904D01*
X398637276Y-289106428D02*
X398576800Y-289166904D01*
X398516323Y-289287857D01*
X398516323Y-289590238D01*
X398576800Y-289711190D01*
X398637276Y-289771666D01*
X398758228Y-289832142D01*
X398879180Y-289832142D01*
X399060609Y-289771666D01*
X399786323Y-289045952D01*
X399786323Y-289832142D01*
X396248466Y-286747857D02*
X396248466Y-287352619D01*
X396611323Y-286626904D02*
X395341323Y-287050238D01*
X396611323Y-287473571D01*
X396490371Y-288622619D02*
X396550847Y-288562142D01*
X396611323Y-288380714D01*
X396611323Y-288259761D01*
X396550847Y-288078333D01*
X396429895Y-287957380D01*
X396308942Y-287896904D01*
X396067038Y-287836428D01*
X395885609Y-287836428D01*
X395643704Y-287896904D01*
X395522752Y-287957380D01*
X395401800Y-288078333D01*
X395341323Y-288259761D01*
X395341323Y-288380714D01*
X395401800Y-288562142D01*
X395462276Y-288622619D01*
X395462276Y-289106428D02*
X395401800Y-289166904D01*
X395341323Y-289287857D01*
X395341323Y-289590238D01*
X395401800Y-289711190D01*
X395462276Y-289771666D01*
X395583228Y-289832142D01*
X395704180Y-289832142D01*
X395885609Y-289771666D01*
X396611323Y-289045952D01*
X396611323Y-289832142D01*
X393073466Y-286747857D02*
X393073466Y-287352619D01*
X393436323Y-286626904D02*
X392166323Y-287050238D01*
X393436323Y-287473571D01*
X393436323Y-287896904D02*
X392166323Y-287896904D01*
X392166323Y-288199285D01*
X392226800Y-288380714D01*
X392347752Y-288501666D01*
X392468704Y-288562142D01*
X392710609Y-288622619D01*
X392892038Y-288622619D01*
X393133942Y-288562142D01*
X393254895Y-288501666D01*
X393375847Y-288380714D01*
X393436323Y-288199285D01*
X393436323Y-287896904D01*
X392287276Y-289106428D02*
X392226800Y-289166904D01*
X392166323Y-289287857D01*
X392166323Y-289590238D01*
X392226800Y-289711190D01*
X392287276Y-289771666D01*
X392408228Y-289832142D01*
X392529180Y-289832142D01*
X392710609Y-289771666D01*
X393436323Y-289045952D01*
X393436323Y-289832142D01*
X389898466Y-286808333D02*
X389898466Y-287413095D01*
X390261323Y-286687380D02*
X388991323Y-287110714D01*
X390261323Y-287534047D01*
X389596085Y-287957380D02*
X389596085Y-288380714D01*
X390261323Y-288562142D02*
X390261323Y-287957380D01*
X388991323Y-287957380D01*
X388991323Y-288562142D01*
X389112276Y-289045952D02*
X389051800Y-289106428D01*
X388991323Y-289227380D01*
X388991323Y-289529761D01*
X389051800Y-289650714D01*
X389112276Y-289711190D01*
X389233228Y-289771666D01*
X389354180Y-289771666D01*
X389535609Y-289711190D01*
X390261323Y-288985476D01*
X390261323Y-289771666D01*
X386723466Y-286838571D02*
X386723466Y-287443333D01*
X387086323Y-286717619D02*
X385816323Y-287140952D01*
X387086323Y-287564285D01*
X386421085Y-288410952D02*
X386421085Y-287987619D01*
X387086323Y-287987619D02*
X385816323Y-287987619D01*
X385816323Y-288592380D01*
X385937276Y-289015714D02*
X385876800Y-289076190D01*
X385816323Y-289197142D01*
X385816323Y-289499523D01*
X385876800Y-289620476D01*
X385937276Y-289680952D01*
X386058228Y-289741428D01*
X386179180Y-289741428D01*
X386360609Y-289680952D01*
X387086323Y-288955238D01*
X387086323Y-289741428D01*
X383548466Y-286717619D02*
X383548466Y-287322380D01*
X383911323Y-286596666D02*
X382641323Y-287020000D01*
X383911323Y-287443333D01*
X383911323Y-287866666D02*
X382641323Y-287866666D01*
X383246085Y-287866666D02*
X383246085Y-288592380D01*
X383911323Y-288592380D02*
X382641323Y-288592380D01*
X382762276Y-289136666D02*
X382701800Y-289197142D01*
X382641323Y-289318095D01*
X382641323Y-289620476D01*
X382701800Y-289741428D01*
X382762276Y-289801904D01*
X382883228Y-289862380D01*
X383004180Y-289862380D01*
X383185609Y-289801904D01*
X383911323Y-289076190D01*
X383911323Y-289862380D01*
X380373466Y-286899047D02*
X380373466Y-287503809D01*
X380736323Y-286778095D02*
X379466323Y-287201428D01*
X380736323Y-287624761D01*
X379466323Y-288410952D02*
X380373466Y-288410952D01*
X380554895Y-288350476D01*
X380675847Y-288229523D01*
X380736323Y-288048095D01*
X380736323Y-287927142D01*
X379587276Y-288955238D02*
X379526800Y-289015714D01*
X379466323Y-289136666D01*
X379466323Y-289439047D01*
X379526800Y-289560000D01*
X379587276Y-289620476D01*
X379708228Y-289680952D01*
X379829180Y-289680952D01*
X380010609Y-289620476D01*
X380736323Y-288894761D01*
X380736323Y-289680952D01*
X377198466Y-286747857D02*
X377198466Y-287352619D01*
X377561323Y-286626904D02*
X376291323Y-287050238D01*
X377561323Y-287473571D01*
X377561323Y-287896904D02*
X376291323Y-287896904D01*
X377561323Y-288622619D02*
X376835609Y-288078333D01*
X376291323Y-288622619D02*
X377017038Y-287896904D01*
X376412276Y-289106428D02*
X376351800Y-289166904D01*
X376291323Y-289287857D01*
X376291323Y-289590238D01*
X376351800Y-289711190D01*
X376412276Y-289771666D01*
X376533228Y-289832142D01*
X376654180Y-289832142D01*
X376835609Y-289771666D01*
X377561323Y-289045952D01*
X377561323Y-289832142D01*
X374023466Y-286868809D02*
X374023466Y-287473571D01*
X374386323Y-286747857D02*
X373116323Y-287171190D01*
X374386323Y-287594523D01*
X374386323Y-288622619D02*
X374386323Y-288017857D01*
X373116323Y-288017857D01*
X373237276Y-288985476D02*
X373176800Y-289045952D01*
X373116323Y-289166904D01*
X373116323Y-289469285D01*
X373176800Y-289590238D01*
X373237276Y-289650714D01*
X373358228Y-289711190D01*
X373479180Y-289711190D01*
X373660609Y-289650714D01*
X374386323Y-288925000D01*
X374386323Y-289711190D01*
X370848466Y-286657142D02*
X370848466Y-287261904D01*
X371211323Y-286536190D02*
X369941323Y-286959523D01*
X371211323Y-287382857D01*
X371211323Y-287806190D02*
X369941323Y-287806190D01*
X370848466Y-288229523D01*
X369941323Y-288652857D01*
X371211323Y-288652857D01*
X370062276Y-289197142D02*
X370001800Y-289257619D01*
X369941323Y-289378571D01*
X369941323Y-289680952D01*
X370001800Y-289801904D01*
X370062276Y-289862380D01*
X370183228Y-289922857D01*
X370304180Y-289922857D01*
X370485609Y-289862380D01*
X371211323Y-289136666D01*
X371211323Y-289922857D01*
X367673466Y-286717619D02*
X367673466Y-287322380D01*
X368036323Y-286596666D02*
X366766323Y-287020000D01*
X368036323Y-287443333D01*
X368036323Y-287866666D02*
X366766323Y-287866666D01*
X368036323Y-288592380D01*
X366766323Y-288592380D01*
X366887276Y-289136666D02*
X366826800Y-289197142D01*
X366766323Y-289318095D01*
X366766323Y-289620476D01*
X366826800Y-289741428D01*
X366887276Y-289801904D01*
X367008228Y-289862380D01*
X367129180Y-289862380D01*
X367310609Y-289801904D01*
X368036323Y-289076190D01*
X368036323Y-289862380D01*
X364498466Y-286747857D02*
X364498466Y-287352619D01*
X364861323Y-286626904D02*
X363591323Y-287050238D01*
X364861323Y-287473571D01*
X364861323Y-287896904D02*
X363591323Y-287896904D01*
X363591323Y-288380714D01*
X363651800Y-288501666D01*
X363712276Y-288562142D01*
X363833228Y-288622619D01*
X364014657Y-288622619D01*
X364135609Y-288562142D01*
X364196085Y-288501666D01*
X364256561Y-288380714D01*
X364256561Y-287896904D01*
X363712276Y-289106428D02*
X363651800Y-289166904D01*
X363591323Y-289287857D01*
X363591323Y-289590238D01*
X363651800Y-289711190D01*
X363712276Y-289771666D01*
X363833228Y-289832142D01*
X363954180Y-289832142D01*
X364135609Y-289771666D01*
X364861323Y-289045952D01*
X364861323Y-289832142D01*
X361323466Y-286747857D02*
X361323466Y-287352619D01*
X361686323Y-286626904D02*
X360416323Y-287050238D01*
X361686323Y-287473571D01*
X361686323Y-288622619D02*
X361081561Y-288199285D01*
X361686323Y-287896904D02*
X360416323Y-287896904D01*
X360416323Y-288380714D01*
X360476800Y-288501666D01*
X360537276Y-288562142D01*
X360658228Y-288622619D01*
X360839657Y-288622619D01*
X360960609Y-288562142D01*
X361021085Y-288501666D01*
X361081561Y-288380714D01*
X361081561Y-287896904D01*
X360537276Y-289106428D02*
X360476800Y-289166904D01*
X360416323Y-289287857D01*
X360416323Y-289590238D01*
X360476800Y-289711190D01*
X360537276Y-289771666D01*
X360658228Y-289832142D01*
X360779180Y-289832142D01*
X360960609Y-289771666D01*
X361686323Y-289045952D01*
X361686323Y-289832142D01*
X358148466Y-286778095D02*
X358148466Y-287382857D01*
X358511323Y-286657142D02*
X357241323Y-287080476D01*
X358511323Y-287503809D01*
X358450847Y-287866666D02*
X358511323Y-288048095D01*
X358511323Y-288350476D01*
X358450847Y-288471428D01*
X358390371Y-288531904D01*
X358269419Y-288592380D01*
X358148466Y-288592380D01*
X358027514Y-288531904D01*
X357967038Y-288471428D01*
X357906561Y-288350476D01*
X357846085Y-288108571D01*
X357785609Y-287987619D01*
X357725133Y-287927142D01*
X357604180Y-287866666D01*
X357483228Y-287866666D01*
X357362276Y-287927142D01*
X357301800Y-287987619D01*
X357241323Y-288108571D01*
X357241323Y-288410952D01*
X357301800Y-288592380D01*
X357362276Y-289076190D02*
X357301800Y-289136666D01*
X357241323Y-289257619D01*
X357241323Y-289560000D01*
X357301800Y-289680952D01*
X357362276Y-289741428D01*
X357483228Y-289801904D01*
X357604180Y-289801904D01*
X357785609Y-289741428D01*
X358511323Y-289015714D01*
X358511323Y-289801904D01*
X354973466Y-286899047D02*
X354973466Y-287503809D01*
X355336323Y-286778095D02*
X354066323Y-287201428D01*
X355336323Y-287624761D01*
X354066323Y-287866666D02*
X354066323Y-288592380D01*
X355336323Y-288229523D02*
X354066323Y-288229523D01*
X354187276Y-288955238D02*
X354126800Y-289015714D01*
X354066323Y-289136666D01*
X354066323Y-289439047D01*
X354126800Y-289560000D01*
X354187276Y-289620476D01*
X354308228Y-289680952D01*
X354429180Y-289680952D01*
X354610609Y-289620476D01*
X355336323Y-288894761D01*
X355336323Y-289680952D01*
X351798466Y-286717619D02*
X351798466Y-287322380D01*
X352161323Y-286596666D02*
X350891323Y-287020000D01*
X352161323Y-287443333D01*
X350891323Y-287866666D02*
X351919419Y-287866666D01*
X352040371Y-287927142D01*
X352100847Y-287987619D01*
X352161323Y-288108571D01*
X352161323Y-288350476D01*
X352100847Y-288471428D01*
X352040371Y-288531904D01*
X351919419Y-288592380D01*
X350891323Y-288592380D01*
X351012276Y-289136666D02*
X350951800Y-289197142D01*
X350891323Y-289318095D01*
X350891323Y-289620476D01*
X350951800Y-289741428D01*
X351012276Y-289801904D01*
X351133228Y-289862380D01*
X351254180Y-289862380D01*
X351435609Y-289801904D01*
X352161323Y-289076190D01*
X352161323Y-289862380D01*
X348623466Y-286838571D02*
X348623466Y-287443333D01*
X348986323Y-286717619D02*
X347716323Y-287140952D01*
X348986323Y-287564285D01*
X347716323Y-287806190D02*
X348986323Y-288229523D01*
X347716323Y-288652857D01*
X347837276Y-289015714D02*
X347776800Y-289076190D01*
X347716323Y-289197142D01*
X347716323Y-289499523D01*
X347776800Y-289620476D01*
X347837276Y-289680952D01*
X347958228Y-289741428D01*
X348079180Y-289741428D01*
X348260609Y-289680952D01*
X348986323Y-288955238D01*
X348986323Y-289741428D01*
%LPC*%
D11*
G36*
X403809200Y-304800000D02*
G01*
X346913200Y-304800000D01*
X346913200Y-290576000D01*
X403809200Y-290576000D01*
X403809200Y-304800000D01*
G37*
G36*
X334010000Y-304800000D02*
G01*
X277114000Y-304800000D01*
X277114000Y-290576000D01*
X334022700Y-290576000D01*
X334010000Y-304800000D01*
G37*
D12*
X360680000Y-255016000D03*
X358140000Y-255016000D03*
X360680000Y-252476000D03*
X358140000Y-252476000D03*
X360680000Y-249936000D03*
X358140000Y-249936000D03*
X360680000Y-247396000D03*
X358140000Y-247396000D03*
X360680000Y-244856000D03*
X358140000Y-244856000D03*
X360680000Y-242316000D03*
X358140000Y-242316000D03*
X360680000Y-239776000D03*
X358140000Y-239776000D03*
X360680000Y-237236000D03*
X358140000Y-237236000D03*
X360680000Y-234696000D03*
X358140000Y-234696000D03*
X360680000Y-232156000D03*
X358140000Y-232156000D03*
X360680000Y-229616000D03*
X358140000Y-229616000D03*
X360680000Y-227076000D03*
X358140000Y-227076000D03*
X360680000Y-224536000D03*
X358140000Y-224536000D03*
X360680000Y-221996000D03*
X358140000Y-221996000D03*
X360680000Y-219456000D03*
X358140000Y-219456000D03*
X360680000Y-216916000D03*
X358140000Y-216916000D03*
X360680000Y-214376000D03*
X358140000Y-214376000D03*
X360680000Y-211836000D03*
X358140000Y-211836000D03*
X360680000Y-209296000D03*
X358140000Y-209296000D03*
X360680000Y-206756000D03*
D13*
X358140000Y-206756000D03*
D14*
X359940000Y-260856000D03*
X359940000Y-200916000D03*
X321840000Y-200916000D03*
X321840000Y-260856000D03*
D13*
X320040000Y-206756000D03*
D12*
X322580000Y-206756000D03*
X320040000Y-209296000D03*
X322580000Y-209296000D03*
X320040000Y-211836000D03*
X322580000Y-211836000D03*
X320040000Y-214376000D03*
X322580000Y-214376000D03*
X320040000Y-216916000D03*
X322580000Y-216916000D03*
X320040000Y-219456000D03*
X322580000Y-219456000D03*
X320040000Y-221996000D03*
X322580000Y-221996000D03*
X320040000Y-224536000D03*
X322580000Y-224536000D03*
X320040000Y-227076000D03*
X322580000Y-227076000D03*
X320040000Y-229616000D03*
X322580000Y-229616000D03*
X320040000Y-232156000D03*
X322580000Y-232156000D03*
X320040000Y-234696000D03*
X322580000Y-234696000D03*
X320040000Y-237236000D03*
X322580000Y-237236000D03*
X320040000Y-239776000D03*
X322580000Y-239776000D03*
X320040000Y-242316000D03*
X322580000Y-242316000D03*
X320040000Y-244856000D03*
X322580000Y-244856000D03*
X320040000Y-247396000D03*
X322580000Y-247396000D03*
X320040000Y-249936000D03*
X322580000Y-249936000D03*
X320040000Y-252476000D03*
X322580000Y-252476000D03*
X320040000Y-255016000D03*
X322580000Y-255016000D03*
X284480000Y-255016000D03*
X281940000Y-255016000D03*
X284480000Y-252476000D03*
X281940000Y-252476000D03*
X284480000Y-249936000D03*
X281940000Y-249936000D03*
X284480000Y-247396000D03*
X281940000Y-247396000D03*
X284480000Y-244856000D03*
X281940000Y-244856000D03*
X284480000Y-242316000D03*
X281940000Y-242316000D03*
X284480000Y-239776000D03*
X281940000Y-239776000D03*
X284480000Y-237236000D03*
X281940000Y-237236000D03*
X284480000Y-234696000D03*
X281940000Y-234696000D03*
X284480000Y-232156000D03*
X281940000Y-232156000D03*
X284480000Y-229616000D03*
X281940000Y-229616000D03*
X284480000Y-227076000D03*
X281940000Y-227076000D03*
X284480000Y-224536000D03*
X281940000Y-224536000D03*
X284480000Y-221996000D03*
X281940000Y-221996000D03*
X284480000Y-219456000D03*
X281940000Y-219456000D03*
X284480000Y-216916000D03*
X281940000Y-216916000D03*
X284480000Y-214376000D03*
X281940000Y-214376000D03*
X284480000Y-211836000D03*
X281940000Y-211836000D03*
X284480000Y-209296000D03*
X281940000Y-209296000D03*
X284480000Y-206756000D03*
D13*
X281940000Y-206756000D03*
D14*
X283740000Y-260856000D03*
X283740000Y-200916000D03*
D15*
X332536800Y-297180000D03*
X329361800Y-297180000D03*
X326186800Y-297180000D03*
X323011800Y-297180000D03*
X319836800Y-297180000D03*
X316661800Y-297180000D03*
X313486800Y-297180000D03*
X310311800Y-297180000D03*
X307136800Y-297180000D03*
X303961800Y-297180000D03*
X300786800Y-297180000D03*
X297611800Y-297180000D03*
X294436800Y-297180000D03*
X291261800Y-297180000D03*
X288086800Y-297180000D03*
X284911800Y-297180000D03*
X281736800Y-297180000D03*
X278561800Y-297180000D03*
X348411800Y-297180000D03*
X351586800Y-297180000D03*
X354761800Y-297180000D03*
X357936800Y-297180000D03*
X361111800Y-297180000D03*
X364286800Y-297180000D03*
X367461800Y-297180000D03*
X370636800Y-297180000D03*
X373811800Y-297180000D03*
X376986800Y-297180000D03*
X380161800Y-297180000D03*
X383336800Y-297180000D03*
X386511800Y-297180000D03*
X389686800Y-297180000D03*
X392861800Y-297180000D03*
X396036800Y-297180000D03*
X399211800Y-297180000D03*
X402386800Y-297180000D03*
M02*
