M48
; DRILL file {KiCad (5.1.10)-1} date 09/26/21 13:38:01
; FORMAT={-:-/ absolute / metric / decimal}
; #@! TF.CreationDate,2021-09-26T13:38:01-07:00
; #@! TF.GenerationSoftware,Kicad,Pcbnew,(5.1.10)-1
; #@! TF.FileFunction,Plated,1,2,PTH
FMAT,2
METRIC
T1C0.400
T2C0.890
%
G90
G05
T1
X276.885Y-284.455
X279.273Y-204.521
X280.162Y-289.052
X283.337Y-271.297
X288.087Y-213.106
X288.087Y-289.052
X289.674Y-215.646
X291.262Y-218.186
X291.262Y-289.052
X292.849Y-220.726
X294.437Y-223.266
X294.437Y-289.052
X296.024Y-225.806
X297.612Y-228.346
X297.612Y-289.052
X299.199Y-230.886
X300.787Y-233.426
X300.787Y-289.052
X302.374Y-235.966
X303.962Y-238.506
X303.962Y-289.052
X304.241Y-220.828
X305.549Y-241.046
X307.137Y-243.586
X307.137Y-289.052
X308.724Y-246.126
X310.312Y-248.666
X310.312Y-289.052
X311.899Y-251.206
X312.725Y-248.488
X313.487Y-253.746
X313.487Y-289.052
X315.087Y-266.675
X316.611Y-264.109
X316.662Y-289.052
X318.262Y-269.138
X320.421Y-268.097
X326.187Y-286.969
X326.365Y-204.648
X327.774Y-289.052
X327.851Y-208.026
X329.362Y-286.969
X329.438Y-206.756
X330.949Y-289.052
X331.025Y-230.886
X332.537Y-289.052
X332.613Y-233.426
X334.2Y-238.506
X335.788Y-235.966
X337.21Y-215.824
X337.375Y-241.046
X338.963Y-246.126
X340.55Y-251.206
X342.138Y-243.586
X343.726Y-248.666
X345.313Y-253.746
X348.412Y-286.969
X349.987Y-265.608
X349.999Y-289.052
X351.587Y-289.052
X351.79Y-210.566
X353.377Y-225.806
X354.965Y-228.346
X354.965Y-265.176
X356.553Y-220.726
X356.553Y-267.716
X364.058Y-204.699
X365.277Y-276.682
X367.462Y-210.566
X369.049Y-213.106
X370.637Y-215.646
X370.637Y-289.052
X372.224Y-218.186
X373.812Y-220.726
X373.812Y-289.052
X375.399Y-223.266
X376.987Y-225.806
X376.987Y-289.052
X378.574Y-228.346
X380.162Y-230.886
X380.162Y-289.052
X381.749Y-233.426
X383.337Y-235.966
X383.337Y-289.052
X384.924Y-238.506
X386.512Y-241.046
X386.512Y-289.052
X388.099Y-243.586
X389.687Y-246.126
X389.687Y-289.052
X391.274Y-248.666
X392.862Y-251.206
X392.862Y-289.052
X394.449Y-253.746
X394.449Y-289.052
X396.037Y-287.02
X401.193Y-204.648
X401.269Y-237.414
X404.139Y-287.02
T2
X281.94Y-206.756
X281.94Y-209.296
X281.94Y-211.836
X281.94Y-214.376
X281.94Y-216.916
X281.94Y-219.456
X281.94Y-221.996
X281.94Y-224.536
X281.94Y-227.076
X281.94Y-229.616
X281.94Y-232.156
X281.94Y-234.696
X281.94Y-237.236
X281.94Y-239.776
X281.94Y-242.316
X281.94Y-244.856
X281.94Y-247.396
X281.94Y-249.936
X281.94Y-252.476
X281.94Y-255.016
X284.48Y-206.756
X284.48Y-209.296
X284.48Y-211.836
X284.48Y-214.376
X284.48Y-216.916
X284.48Y-219.456
X284.48Y-221.996
X284.48Y-224.536
X284.48Y-227.076
X284.48Y-229.616
X284.48Y-232.156
X284.48Y-234.696
X284.48Y-237.236
X284.48Y-239.776
X284.48Y-242.316
X284.48Y-244.856
X284.48Y-247.396
X284.48Y-249.936
X284.48Y-252.476
X284.48Y-255.016
X320.04Y-206.756
X320.04Y-209.296
X320.04Y-211.836
X320.04Y-214.376
X320.04Y-216.916
X320.04Y-219.456
X320.04Y-221.996
X320.04Y-224.536
X320.04Y-227.076
X320.04Y-229.616
X320.04Y-232.156
X320.04Y-234.696
X320.04Y-237.236
X320.04Y-239.776
X320.04Y-242.316
X320.04Y-244.856
X320.04Y-247.396
X320.04Y-249.936
X320.04Y-252.476
X320.04Y-255.016
X322.58Y-206.756
X322.58Y-209.296
X322.58Y-211.836
X322.58Y-214.376
X322.58Y-216.916
X322.58Y-219.456
X322.58Y-221.996
X322.58Y-224.536
X322.58Y-227.076
X322.58Y-229.616
X322.58Y-232.156
X322.58Y-234.696
X322.58Y-237.236
X322.58Y-239.776
X322.58Y-242.316
X322.58Y-244.856
X322.58Y-247.396
X322.58Y-249.936
X322.58Y-252.476
X322.58Y-255.016
X358.14Y-206.756
X358.14Y-209.296
X358.14Y-211.836
X358.14Y-214.376
X358.14Y-216.916
X358.14Y-219.456
X358.14Y-221.996
X358.14Y-224.536
X358.14Y-227.076
X358.14Y-229.616
X358.14Y-232.156
X358.14Y-234.696
X358.14Y-237.236
X358.14Y-239.776
X358.14Y-242.316
X358.14Y-244.856
X358.14Y-247.396
X358.14Y-249.936
X358.14Y-252.476
X358.14Y-255.016
X360.68Y-206.756
X360.68Y-209.296
X360.68Y-211.836
X360.68Y-214.376
X360.68Y-216.916
X360.68Y-219.456
X360.68Y-221.996
X360.68Y-224.536
X360.68Y-227.076
X360.68Y-229.616
X360.68Y-232.156
X360.68Y-234.696
X360.68Y-237.236
X360.68Y-239.776
X360.68Y-242.316
X360.68Y-244.856
X360.68Y-247.396
X360.68Y-249.936
X360.68Y-252.476
X360.68Y-255.016
T0
M30
