G04 #@! TF.GenerationSoftware,KiCad,Pcbnew,(5.1.10)-1*
G04 #@! TF.CreationDate,2021-09-26T13:37:53-07:00*
G04 #@! TF.ProjectId,m9042-clone,6d393034-322d-4636-9c6f-6e652e6b6963,1*
G04 #@! TF.SameCoordinates,Original*
G04 #@! TF.FileFunction,Legend,Top*
G04 #@! TF.FilePolarity,Positive*
%FSLAX46Y46*%
G04 Gerber Fmt 4.6, Leading zero omitted, Abs format (unit mm)*
G04 Created by KiCad (PCBNEW (5.1.10)-1) date 2021-09-26 13:37:53*
%MOMM*%
%LPD*%
G01*
G04 APERTURE LIST*
%ADD10C,0.254000*%
%ADD11C,0.381000*%
%ADD12C,0.508000*%
%ADD13C,0.200000*%
%ADD14C,0.127000*%
%ADD15C,0.150000*%
%ADD16C,0.203200*%
%ADD17C,0.100000*%
%ADD18C,1.240000*%
%ADD19R,1.240000X1.240000*%
%ADD20C,2.690000*%
%ADD21R,2.032000X13.208000*%
G04 APERTURE END LIST*
D10*
X280197680Y-277764723D02*
X280197680Y-276494723D01*
X280741966Y-277764723D02*
X280741966Y-277099485D01*
X280681490Y-276978533D01*
X280560538Y-276918057D01*
X280379109Y-276918057D01*
X280258157Y-276978533D01*
X280197680Y-277039009D01*
X281165300Y-276918057D02*
X281649109Y-276918057D01*
X281346728Y-276494723D02*
X281346728Y-277583295D01*
X281407204Y-277704247D01*
X281528157Y-277764723D01*
X281649109Y-277764723D01*
X281891014Y-276918057D02*
X282374823Y-276918057D01*
X282072442Y-276494723D02*
X282072442Y-277583295D01*
X282132919Y-277704247D01*
X282253871Y-277764723D01*
X282374823Y-277764723D01*
X282798157Y-276918057D02*
X282798157Y-278188057D01*
X282798157Y-276978533D02*
X282919109Y-276918057D01*
X283161014Y-276918057D01*
X283281966Y-276978533D01*
X283342442Y-277039009D01*
X283402919Y-277159961D01*
X283402919Y-277522819D01*
X283342442Y-277643771D01*
X283281966Y-277704247D01*
X283161014Y-277764723D01*
X282919109Y-277764723D01*
X282798157Y-277704247D01*
X283886728Y-277704247D02*
X284007680Y-277764723D01*
X284249585Y-277764723D01*
X284370538Y-277704247D01*
X284431014Y-277583295D01*
X284431014Y-277522819D01*
X284370538Y-277401866D01*
X284249585Y-277341390D01*
X284068157Y-277341390D01*
X283947204Y-277280914D01*
X283886728Y-277159961D01*
X283886728Y-277099485D01*
X283947204Y-276978533D01*
X284068157Y-276918057D01*
X284249585Y-276918057D01*
X284370538Y-276978533D01*
X284975300Y-277643771D02*
X285035776Y-277704247D01*
X284975300Y-277764723D01*
X284914823Y-277704247D01*
X284975300Y-277643771D01*
X284975300Y-277764723D01*
X284975300Y-276978533D02*
X285035776Y-277039009D01*
X284975300Y-277099485D01*
X284914823Y-277039009D01*
X284975300Y-276978533D01*
X284975300Y-277099485D01*
X286487204Y-276434247D02*
X285398633Y-278067104D01*
X287817680Y-276434247D02*
X286729109Y-278067104D01*
X288785300Y-276918057D02*
X288785300Y-277946152D01*
X288724823Y-278067104D01*
X288664347Y-278127580D01*
X288543395Y-278188057D01*
X288361966Y-278188057D01*
X288241014Y-278127580D01*
X288785300Y-277704247D02*
X288664347Y-277764723D01*
X288422442Y-277764723D01*
X288301490Y-277704247D01*
X288241014Y-277643771D01*
X288180538Y-277522819D01*
X288180538Y-277159961D01*
X288241014Y-277039009D01*
X288301490Y-276978533D01*
X288422442Y-276918057D01*
X288664347Y-276918057D01*
X288785300Y-276978533D01*
X289390061Y-277764723D02*
X289390061Y-276918057D01*
X289390061Y-276494723D02*
X289329585Y-276555200D01*
X289390061Y-276615676D01*
X289450538Y-276555200D01*
X289390061Y-276494723D01*
X289390061Y-276615676D01*
X289813395Y-276918057D02*
X290297204Y-276918057D01*
X289994823Y-276494723D02*
X289994823Y-277583295D01*
X290055300Y-277704247D01*
X290176252Y-277764723D01*
X290297204Y-277764723D01*
X290720538Y-277764723D02*
X290720538Y-276494723D01*
X291264823Y-277764723D02*
X291264823Y-277099485D01*
X291204347Y-276978533D01*
X291083395Y-276918057D01*
X290901966Y-276918057D01*
X290781014Y-276978533D01*
X290720538Y-277039009D01*
X292413871Y-276918057D02*
X292413871Y-277764723D01*
X291869585Y-276918057D02*
X291869585Y-277583295D01*
X291930061Y-277704247D01*
X292051014Y-277764723D01*
X292232442Y-277764723D01*
X292353395Y-277704247D01*
X292413871Y-277643771D01*
X293018633Y-277764723D02*
X293018633Y-276494723D01*
X293018633Y-276978533D02*
X293139585Y-276918057D01*
X293381490Y-276918057D01*
X293502442Y-276978533D01*
X293562919Y-277039009D01*
X293623395Y-277159961D01*
X293623395Y-277522819D01*
X293562919Y-277643771D01*
X293502442Y-277704247D01*
X293381490Y-277764723D01*
X293139585Y-277764723D01*
X293018633Y-277704247D01*
X294167680Y-277643771D02*
X294228157Y-277704247D01*
X294167680Y-277764723D01*
X294107204Y-277704247D01*
X294167680Y-277643771D01*
X294167680Y-277764723D01*
X295316728Y-277704247D02*
X295195776Y-277764723D01*
X294953871Y-277764723D01*
X294832919Y-277704247D01*
X294772442Y-277643771D01*
X294711966Y-277522819D01*
X294711966Y-277159961D01*
X294772442Y-277039009D01*
X294832919Y-276978533D01*
X294953871Y-276918057D01*
X295195776Y-276918057D01*
X295316728Y-276978533D01*
X296042442Y-277764723D02*
X295921490Y-277704247D01*
X295861014Y-277643771D01*
X295800538Y-277522819D01*
X295800538Y-277159961D01*
X295861014Y-277039009D01*
X295921490Y-276978533D01*
X296042442Y-276918057D01*
X296223871Y-276918057D01*
X296344823Y-276978533D01*
X296405300Y-277039009D01*
X296465776Y-277159961D01*
X296465776Y-277522819D01*
X296405300Y-277643771D01*
X296344823Y-277704247D01*
X296223871Y-277764723D01*
X296042442Y-277764723D01*
X297010061Y-277764723D02*
X297010061Y-276918057D01*
X297010061Y-277039009D02*
X297070538Y-276978533D01*
X297191490Y-276918057D01*
X297372919Y-276918057D01*
X297493871Y-276978533D01*
X297554347Y-277099485D01*
X297554347Y-277764723D01*
X297554347Y-277099485D02*
X297614823Y-276978533D01*
X297735776Y-276918057D01*
X297917204Y-276918057D01*
X298038157Y-276978533D01*
X298098633Y-277099485D01*
X298098633Y-277764723D01*
X299610538Y-276434247D02*
X298521966Y-278067104D01*
X300033871Y-276918057D02*
X300033871Y-278006628D01*
X299973395Y-278127580D01*
X299852442Y-278188057D01*
X299791966Y-278188057D01*
X300033871Y-276494723D02*
X299973395Y-276555200D01*
X300033871Y-276615676D01*
X300094347Y-276555200D01*
X300033871Y-276494723D01*
X300033871Y-276615676D01*
X301182919Y-277764723D02*
X301182919Y-277099485D01*
X301122442Y-276978533D01*
X301001490Y-276918057D01*
X300759585Y-276918057D01*
X300638633Y-276978533D01*
X301182919Y-277704247D02*
X301061966Y-277764723D01*
X300759585Y-277764723D01*
X300638633Y-277704247D01*
X300578157Y-277583295D01*
X300578157Y-277462342D01*
X300638633Y-277341390D01*
X300759585Y-277280914D01*
X301061966Y-277280914D01*
X301182919Y-277220438D01*
X301666728Y-276918057D02*
X301969109Y-277764723D01*
X302271490Y-276918057D02*
X301969109Y-277764723D01*
X301848157Y-278067104D01*
X301787680Y-278127580D01*
X301666728Y-278188057D01*
X302936728Y-277764723D02*
X302815776Y-277704247D01*
X302755300Y-277583295D01*
X302755300Y-276494723D01*
X303601966Y-277764723D02*
X303481014Y-277704247D01*
X303420538Y-277643771D01*
X303360061Y-277522819D01*
X303360061Y-277159961D01*
X303420538Y-277039009D01*
X303481014Y-276978533D01*
X303601966Y-276918057D01*
X303783395Y-276918057D01*
X303904347Y-276978533D01*
X303964823Y-277039009D01*
X304025300Y-277159961D01*
X304025300Y-277522819D01*
X303964823Y-277643771D01*
X303904347Y-277704247D01*
X303783395Y-277764723D01*
X303601966Y-277764723D01*
X305113871Y-276918057D02*
X305113871Y-277946152D01*
X305053395Y-278067104D01*
X304992919Y-278127580D01*
X304871966Y-278188057D01*
X304690538Y-278188057D01*
X304569585Y-278127580D01*
X305113871Y-277704247D02*
X304992919Y-277764723D01*
X304751014Y-277764723D01*
X304630061Y-277704247D01*
X304569585Y-277643771D01*
X304509109Y-277522819D01*
X304509109Y-277159961D01*
X304569585Y-277039009D01*
X304630061Y-276978533D01*
X304751014Y-276918057D01*
X304992919Y-276918057D01*
X305113871Y-276978533D01*
X306262919Y-276918057D02*
X306262919Y-277764723D01*
X305718633Y-276918057D02*
X305718633Y-277583295D01*
X305779109Y-277704247D01*
X305900061Y-277764723D01*
X306081490Y-277764723D01*
X306202442Y-277704247D01*
X306262919Y-277643771D01*
X307351490Y-277704247D02*
X307230538Y-277764723D01*
X306988633Y-277764723D01*
X306867680Y-277704247D01*
X306807204Y-277583295D01*
X306807204Y-277099485D01*
X306867680Y-276978533D01*
X306988633Y-276918057D01*
X307230538Y-276918057D01*
X307351490Y-276978533D01*
X307411966Y-277099485D01*
X307411966Y-277220438D01*
X306807204Y-277341390D01*
X308863395Y-276434247D02*
X307774823Y-278067104D01*
X309286728Y-277764723D02*
X309286728Y-276918057D01*
X309286728Y-277039009D02*
X309347204Y-276978533D01*
X309468157Y-276918057D01*
X309649585Y-276918057D01*
X309770538Y-276978533D01*
X309831014Y-277099485D01*
X309831014Y-277764723D01*
X309831014Y-277099485D02*
X309891490Y-276978533D01*
X310012442Y-276918057D01*
X310193871Y-276918057D01*
X310314823Y-276978533D01*
X310375300Y-277099485D01*
X310375300Y-277764723D01*
X311040538Y-277764723D02*
X311282442Y-277764723D01*
X311403395Y-277704247D01*
X311463871Y-277643771D01*
X311584823Y-277462342D01*
X311645300Y-277220438D01*
X311645300Y-276736628D01*
X311584823Y-276615676D01*
X311524347Y-276555200D01*
X311403395Y-276494723D01*
X311161490Y-276494723D01*
X311040538Y-276555200D01*
X310980061Y-276615676D01*
X310919585Y-276736628D01*
X310919585Y-277039009D01*
X310980061Y-277159961D01*
X311040538Y-277220438D01*
X311161490Y-277280914D01*
X311403395Y-277280914D01*
X311524347Y-277220438D01*
X311584823Y-277159961D01*
X311645300Y-277039009D01*
X312431490Y-276494723D02*
X312552442Y-276494723D01*
X312673395Y-276555200D01*
X312733871Y-276615676D01*
X312794347Y-276736628D01*
X312854823Y-276978533D01*
X312854823Y-277280914D01*
X312794347Y-277522819D01*
X312733871Y-277643771D01*
X312673395Y-277704247D01*
X312552442Y-277764723D01*
X312431490Y-277764723D01*
X312310538Y-277704247D01*
X312250061Y-277643771D01*
X312189585Y-277522819D01*
X312129109Y-277280914D01*
X312129109Y-276978533D01*
X312189585Y-276736628D01*
X312250061Y-276615676D01*
X312310538Y-276555200D01*
X312431490Y-276494723D01*
X313943395Y-276918057D02*
X313943395Y-277764723D01*
X313641014Y-276434247D02*
X313338633Y-277341390D01*
X314124823Y-277341390D01*
X314548157Y-276615676D02*
X314608633Y-276555200D01*
X314729585Y-276494723D01*
X315031966Y-276494723D01*
X315152919Y-276555200D01*
X315213395Y-276615676D01*
X315273871Y-276736628D01*
X315273871Y-276857580D01*
X315213395Y-277039009D01*
X314487680Y-277764723D01*
X315273871Y-277764723D01*
X315818157Y-277280914D02*
X316785776Y-277280914D01*
X317934823Y-277704247D02*
X317813871Y-277764723D01*
X317571966Y-277764723D01*
X317451014Y-277704247D01*
X317390538Y-277643771D01*
X317330061Y-277522819D01*
X317330061Y-277159961D01*
X317390538Y-277039009D01*
X317451014Y-276978533D01*
X317571966Y-276918057D01*
X317813871Y-276918057D01*
X317934823Y-276978533D01*
X318660538Y-277764723D02*
X318539585Y-277704247D01*
X318479109Y-277583295D01*
X318479109Y-276494723D01*
X319325776Y-277764723D02*
X319204823Y-277704247D01*
X319144347Y-277643771D01*
X319083871Y-277522819D01*
X319083871Y-277159961D01*
X319144347Y-277039009D01*
X319204823Y-276978533D01*
X319325776Y-276918057D01*
X319507204Y-276918057D01*
X319628157Y-276978533D01*
X319688633Y-277039009D01*
X319749109Y-277159961D01*
X319749109Y-277522819D01*
X319688633Y-277643771D01*
X319628157Y-277704247D01*
X319507204Y-277764723D01*
X319325776Y-277764723D01*
X320293395Y-276918057D02*
X320293395Y-277764723D01*
X320293395Y-277039009D02*
X320353871Y-276978533D01*
X320474823Y-276918057D01*
X320656252Y-276918057D01*
X320777204Y-276978533D01*
X320837680Y-277099485D01*
X320837680Y-277764723D01*
X321926252Y-277704247D02*
X321805300Y-277764723D01*
X321563395Y-277764723D01*
X321442442Y-277704247D01*
X321381966Y-277583295D01*
X321381966Y-277099485D01*
X321442442Y-276978533D01*
X321563395Y-276918057D01*
X321805300Y-276918057D01*
X321926252Y-276978533D01*
X321986728Y-277099485D01*
X321986728Y-277220438D01*
X321381966Y-277341390D01*
D11*
X370229492Y-282801785D02*
X369594492Y-281894642D01*
X369140921Y-282801785D02*
X369140921Y-280896785D01*
X369866635Y-280896785D01*
X370048064Y-280987500D01*
X370138778Y-281078214D01*
X370229492Y-281259642D01*
X370229492Y-281531785D01*
X370138778Y-281713214D01*
X370048064Y-281803928D01*
X369866635Y-281894642D01*
X369140921Y-281894642D01*
X371771635Y-282711071D02*
X371590207Y-282801785D01*
X371227350Y-282801785D01*
X371045921Y-282711071D01*
X370955207Y-282529642D01*
X370955207Y-281803928D01*
X371045921Y-281622500D01*
X371227350Y-281531785D01*
X371590207Y-281531785D01*
X371771635Y-281622500D01*
X371862350Y-281803928D01*
X371862350Y-281985357D01*
X370955207Y-282166785D01*
X372497350Y-281531785D02*
X372950921Y-282801785D01*
X373404492Y-281531785D01*
X376579492Y-282801785D02*
X375490921Y-282801785D01*
X376035207Y-282801785D02*
X376035207Y-280896785D01*
X375853778Y-281168928D01*
X375672350Y-281350357D01*
X375490921Y-281441071D01*
X380208064Y-280806071D02*
X378575207Y-283255357D01*
X382203778Y-281078214D02*
X382294492Y-280987500D01*
X382475921Y-280896785D01*
X382929492Y-280896785D01*
X383110921Y-280987500D01*
X383201635Y-281078214D01*
X383292350Y-281259642D01*
X383292350Y-281441071D01*
X383201635Y-281713214D01*
X382113064Y-282801785D01*
X383292350Y-282801785D01*
X384471635Y-280896785D02*
X384653064Y-280896785D01*
X384834492Y-280987500D01*
X384925207Y-281078214D01*
X385015921Y-281259642D01*
X385106635Y-281622500D01*
X385106635Y-282076071D01*
X385015921Y-282438928D01*
X384925207Y-282620357D01*
X384834492Y-282711071D01*
X384653064Y-282801785D01*
X384471635Y-282801785D01*
X384290207Y-282711071D01*
X384199492Y-282620357D01*
X384108778Y-282438928D01*
X384018064Y-282076071D01*
X384018064Y-281622500D01*
X384108778Y-281259642D01*
X384199492Y-281078214D01*
X384290207Y-280987500D01*
X384471635Y-280896785D01*
X385832350Y-281078214D02*
X385923064Y-280987500D01*
X386104492Y-280896785D01*
X386558064Y-280896785D01*
X386739492Y-280987500D01*
X386830207Y-281078214D01*
X386920921Y-281259642D01*
X386920921Y-281441071D01*
X386830207Y-281713214D01*
X385741635Y-282801785D01*
X386920921Y-282801785D01*
X388735207Y-282801785D02*
X387646635Y-282801785D01*
X388190921Y-282801785D02*
X388190921Y-280896785D01*
X388009492Y-281168928D01*
X387828064Y-281350357D01*
X387646635Y-281441071D01*
X389551635Y-282076071D02*
X391003064Y-282076071D01*
X392273064Y-280896785D02*
X392454492Y-280896785D01*
X392635921Y-280987500D01*
X392726635Y-281078214D01*
X392817350Y-281259642D01*
X392908064Y-281622500D01*
X392908064Y-282076071D01*
X392817350Y-282438928D01*
X392726635Y-282620357D01*
X392635921Y-282711071D01*
X392454492Y-282801785D01*
X392273064Y-282801785D01*
X392091635Y-282711071D01*
X392000921Y-282620357D01*
X391910207Y-282438928D01*
X391819492Y-282076071D01*
X391819492Y-281622500D01*
X391910207Y-281259642D01*
X392000921Y-281078214D01*
X392091635Y-280987500D01*
X392273064Y-280896785D01*
X393815207Y-282801785D02*
X394178064Y-282801785D01*
X394359492Y-282711071D01*
X394450207Y-282620357D01*
X394631635Y-282348214D01*
X394722350Y-281985357D01*
X394722350Y-281259642D01*
X394631635Y-281078214D01*
X394540921Y-280987500D01*
X394359492Y-280896785D01*
X393996635Y-280896785D01*
X393815207Y-280987500D01*
X393724492Y-281078214D01*
X393633778Y-281259642D01*
X393633778Y-281713214D01*
X393724492Y-281894642D01*
X393815207Y-281985357D01*
X393996635Y-282076071D01*
X394359492Y-282076071D01*
X394540921Y-281985357D01*
X394631635Y-281894642D01*
X394722350Y-281713214D01*
X395538778Y-282076071D02*
X396990207Y-282076071D01*
X397806635Y-281078214D02*
X397897350Y-280987500D01*
X398078778Y-280896785D01*
X398532350Y-280896785D01*
X398713778Y-280987500D01*
X398804492Y-281078214D01*
X398895207Y-281259642D01*
X398895207Y-281441071D01*
X398804492Y-281713214D01*
X397715921Y-282801785D01*
X398895207Y-282801785D01*
X400528064Y-280896785D02*
X400165207Y-280896785D01*
X399983778Y-280987500D01*
X399893064Y-281078214D01*
X399711635Y-281350357D01*
X399620921Y-281713214D01*
X399620921Y-282438928D01*
X399711635Y-282620357D01*
X399802350Y-282711071D01*
X399983778Y-282801785D01*
X400346635Y-282801785D01*
X400528064Y-282711071D01*
X400618778Y-282620357D01*
X400709492Y-282438928D01*
X400709492Y-281985357D01*
X400618778Y-281803928D01*
X400528064Y-281713214D01*
X400346635Y-281622500D01*
X399983778Y-281622500D01*
X399802350Y-281713214D01*
X399711635Y-281803928D01*
X399620921Y-281985357D01*
D10*
X280923395Y-282723771D02*
X280862919Y-282784247D01*
X280681490Y-282844723D01*
X280560538Y-282844723D01*
X280379109Y-282784247D01*
X280258157Y-282663295D01*
X280197680Y-282542342D01*
X280137204Y-282300438D01*
X280137204Y-282119009D01*
X280197680Y-281877104D01*
X280258157Y-281756152D01*
X280379109Y-281635200D01*
X280560538Y-281574723D01*
X280681490Y-281574723D01*
X280862919Y-281635200D01*
X280923395Y-281695676D01*
X281467680Y-282844723D02*
X281467680Y-281998057D01*
X281467680Y-282239961D02*
X281528157Y-282119009D01*
X281588633Y-282058533D01*
X281709585Y-281998057D01*
X281830538Y-281998057D01*
X282737680Y-282784247D02*
X282616728Y-282844723D01*
X282374823Y-282844723D01*
X282253871Y-282784247D01*
X282193395Y-282663295D01*
X282193395Y-282179485D01*
X282253871Y-282058533D01*
X282374823Y-281998057D01*
X282616728Y-281998057D01*
X282737680Y-282058533D01*
X282798157Y-282179485D01*
X282798157Y-282300438D01*
X282193395Y-282421390D01*
X283886728Y-282844723D02*
X283886728Y-282179485D01*
X283826252Y-282058533D01*
X283705300Y-281998057D01*
X283463395Y-281998057D01*
X283342442Y-282058533D01*
X283886728Y-282784247D02*
X283765776Y-282844723D01*
X283463395Y-282844723D01*
X283342442Y-282784247D01*
X283281966Y-282663295D01*
X283281966Y-282542342D01*
X283342442Y-282421390D01*
X283463395Y-282360914D01*
X283765776Y-282360914D01*
X283886728Y-282300438D01*
X284310061Y-281998057D02*
X284793871Y-281998057D01*
X284491490Y-281574723D02*
X284491490Y-282663295D01*
X284551966Y-282784247D01*
X284672919Y-282844723D01*
X284793871Y-282844723D01*
X285217204Y-282844723D02*
X285217204Y-281998057D01*
X285217204Y-281574723D02*
X285156728Y-281635200D01*
X285217204Y-281695676D01*
X285277680Y-281635200D01*
X285217204Y-281574723D01*
X285217204Y-281695676D01*
X285701014Y-281998057D02*
X286003395Y-282844723D01*
X286305776Y-281998057D01*
X287273395Y-282784247D02*
X287152442Y-282844723D01*
X286910538Y-282844723D01*
X286789585Y-282784247D01*
X286729109Y-282663295D01*
X286729109Y-282179485D01*
X286789585Y-282058533D01*
X286910538Y-281998057D01*
X287152442Y-281998057D01*
X287273395Y-282058533D01*
X287333871Y-282179485D01*
X287333871Y-282300438D01*
X286729109Y-282421390D01*
X289571490Y-282723771D02*
X289511014Y-282784247D01*
X289329585Y-282844723D01*
X289208633Y-282844723D01*
X289027204Y-282784247D01*
X288906252Y-282663295D01*
X288845776Y-282542342D01*
X288785300Y-282300438D01*
X288785300Y-282119009D01*
X288845776Y-281877104D01*
X288906252Y-281756152D01*
X289027204Y-281635200D01*
X289208633Y-281574723D01*
X289329585Y-281574723D01*
X289511014Y-281635200D01*
X289571490Y-281695676D01*
X290297204Y-282844723D02*
X290176252Y-282784247D01*
X290115776Y-282723771D01*
X290055300Y-282602819D01*
X290055300Y-282239961D01*
X290115776Y-282119009D01*
X290176252Y-282058533D01*
X290297204Y-281998057D01*
X290478633Y-281998057D01*
X290599585Y-282058533D01*
X290660061Y-282119009D01*
X290720538Y-282239961D01*
X290720538Y-282602819D01*
X290660061Y-282723771D01*
X290599585Y-282784247D01*
X290478633Y-282844723D01*
X290297204Y-282844723D01*
X291264823Y-282844723D02*
X291264823Y-281998057D01*
X291264823Y-282119009D02*
X291325300Y-282058533D01*
X291446252Y-281998057D01*
X291627680Y-281998057D01*
X291748633Y-282058533D01*
X291809109Y-282179485D01*
X291809109Y-282844723D01*
X291809109Y-282179485D02*
X291869585Y-282058533D01*
X291990538Y-281998057D01*
X292171966Y-281998057D01*
X292292919Y-282058533D01*
X292353395Y-282179485D01*
X292353395Y-282844723D01*
X292958157Y-282844723D02*
X292958157Y-281998057D01*
X292958157Y-282119009D02*
X293018633Y-282058533D01*
X293139585Y-281998057D01*
X293321014Y-281998057D01*
X293441966Y-282058533D01*
X293502442Y-282179485D01*
X293502442Y-282844723D01*
X293502442Y-282179485D02*
X293562919Y-282058533D01*
X293683871Y-281998057D01*
X293865300Y-281998057D01*
X293986252Y-282058533D01*
X294046728Y-282179485D01*
X294046728Y-282844723D01*
X294832919Y-282844723D02*
X294711966Y-282784247D01*
X294651490Y-282723771D01*
X294591014Y-282602819D01*
X294591014Y-282239961D01*
X294651490Y-282119009D01*
X294711966Y-282058533D01*
X294832919Y-281998057D01*
X295014347Y-281998057D01*
X295135300Y-282058533D01*
X295195776Y-282119009D01*
X295256252Y-282239961D01*
X295256252Y-282602819D01*
X295195776Y-282723771D01*
X295135300Y-282784247D01*
X295014347Y-282844723D01*
X294832919Y-282844723D01*
X295800538Y-281998057D02*
X295800538Y-282844723D01*
X295800538Y-282119009D02*
X295861014Y-282058533D01*
X295981966Y-281998057D01*
X296163395Y-281998057D01*
X296284347Y-282058533D01*
X296344823Y-282179485D01*
X296344823Y-282844723D01*
X296889109Y-282784247D02*
X297010061Y-282844723D01*
X297251966Y-282844723D01*
X297372919Y-282784247D01*
X297433395Y-282663295D01*
X297433395Y-282602819D01*
X297372919Y-282481866D01*
X297251966Y-282421390D01*
X297070538Y-282421390D01*
X296949585Y-282360914D01*
X296889109Y-282239961D01*
X296889109Y-282179485D01*
X296949585Y-282058533D01*
X297070538Y-281998057D01*
X297251966Y-281998057D01*
X297372919Y-282058533D01*
X298884823Y-282481866D02*
X299489585Y-282481866D01*
X298763871Y-282844723D02*
X299187204Y-281574723D01*
X299610538Y-282844723D01*
X299852442Y-281998057D02*
X300336252Y-281998057D01*
X300033871Y-281574723D02*
X300033871Y-282663295D01*
X300094347Y-282784247D01*
X300215300Y-282844723D01*
X300336252Y-282844723D01*
X300578157Y-281998057D02*
X301061966Y-281998057D01*
X300759585Y-281574723D02*
X300759585Y-282663295D01*
X300820061Y-282784247D01*
X300941014Y-282844723D01*
X301061966Y-282844723D01*
X301485300Y-282844723D02*
X301485300Y-281998057D01*
X301485300Y-282239961D02*
X301545776Y-282119009D01*
X301606252Y-282058533D01*
X301727204Y-281998057D01*
X301848157Y-281998057D01*
X302271490Y-282844723D02*
X302271490Y-281998057D01*
X302271490Y-281574723D02*
X302211014Y-281635200D01*
X302271490Y-281695676D01*
X302331966Y-281635200D01*
X302271490Y-281574723D01*
X302271490Y-281695676D01*
X302876252Y-282844723D02*
X302876252Y-281574723D01*
X302876252Y-282058533D02*
X302997204Y-281998057D01*
X303239109Y-281998057D01*
X303360061Y-282058533D01*
X303420538Y-282119009D01*
X303481014Y-282239961D01*
X303481014Y-282602819D01*
X303420538Y-282723771D01*
X303360061Y-282784247D01*
X303239109Y-282844723D01*
X302997204Y-282844723D01*
X302876252Y-282784247D01*
X304569585Y-281998057D02*
X304569585Y-282844723D01*
X304025300Y-281998057D02*
X304025300Y-282663295D01*
X304085776Y-282784247D01*
X304206728Y-282844723D01*
X304388157Y-282844723D01*
X304509109Y-282784247D01*
X304569585Y-282723771D01*
X304992919Y-281998057D02*
X305476728Y-281998057D01*
X305174347Y-281574723D02*
X305174347Y-282663295D01*
X305234823Y-282784247D01*
X305355776Y-282844723D01*
X305476728Y-282844723D01*
X305900061Y-282844723D02*
X305900061Y-281998057D01*
X305900061Y-281574723D02*
X305839585Y-281635200D01*
X305900061Y-281695676D01*
X305960538Y-281635200D01*
X305900061Y-281574723D01*
X305900061Y-281695676D01*
X306686252Y-282844723D02*
X306565300Y-282784247D01*
X306504823Y-282723771D01*
X306444347Y-282602819D01*
X306444347Y-282239961D01*
X306504823Y-282119009D01*
X306565300Y-282058533D01*
X306686252Y-281998057D01*
X306867680Y-281998057D01*
X306988633Y-282058533D01*
X307049109Y-282119009D01*
X307109585Y-282239961D01*
X307109585Y-282602819D01*
X307049109Y-282723771D01*
X306988633Y-282784247D01*
X306867680Y-282844723D01*
X306686252Y-282844723D01*
X307653871Y-281998057D02*
X307653871Y-282844723D01*
X307653871Y-282119009D02*
X307714347Y-282058533D01*
X307835300Y-281998057D01*
X308016728Y-281998057D01*
X308137680Y-282058533D01*
X308198157Y-282179485D01*
X308198157Y-282844723D01*
X310314823Y-281998057D02*
X310314823Y-282844723D01*
X310012442Y-281514247D02*
X309710061Y-282421390D01*
X310496252Y-282421390D01*
X310980061Y-282723771D02*
X311040538Y-282784247D01*
X310980061Y-282844723D01*
X310919585Y-282784247D01*
X310980061Y-282723771D01*
X310980061Y-282844723D01*
X311826728Y-281574723D02*
X311947680Y-281574723D01*
X312068633Y-281635200D01*
X312129109Y-281695676D01*
X312189585Y-281816628D01*
X312250061Y-282058533D01*
X312250061Y-282360914D01*
X312189585Y-282602819D01*
X312129109Y-282723771D01*
X312068633Y-282784247D01*
X311947680Y-282844723D01*
X311826728Y-282844723D01*
X311705776Y-282784247D01*
X311645300Y-282723771D01*
X311584823Y-282602819D01*
X311524347Y-282360914D01*
X311524347Y-282058533D01*
X311584823Y-281816628D01*
X311645300Y-281695676D01*
X311705776Y-281635200D01*
X311826728Y-281574723D01*
X313761966Y-282844723D02*
X313761966Y-281574723D01*
X314366728Y-281998057D02*
X314366728Y-282844723D01*
X314366728Y-282119009D02*
X314427204Y-282058533D01*
X314548157Y-281998057D01*
X314729585Y-281998057D01*
X314850538Y-282058533D01*
X314911014Y-282179485D01*
X314911014Y-282844723D01*
X315334347Y-281998057D02*
X315818157Y-281998057D01*
X315515776Y-281574723D02*
X315515776Y-282663295D01*
X315576252Y-282784247D01*
X315697204Y-282844723D01*
X315818157Y-282844723D01*
X316725300Y-282784247D02*
X316604347Y-282844723D01*
X316362442Y-282844723D01*
X316241490Y-282784247D01*
X316181014Y-282663295D01*
X316181014Y-282179485D01*
X316241490Y-282058533D01*
X316362442Y-281998057D01*
X316604347Y-281998057D01*
X316725300Y-282058533D01*
X316785776Y-282179485D01*
X316785776Y-282300438D01*
X316181014Y-282421390D01*
X317330061Y-282844723D02*
X317330061Y-281998057D01*
X317330061Y-282239961D02*
X317390538Y-282119009D01*
X317451014Y-282058533D01*
X317571966Y-281998057D01*
X317692919Y-281998057D01*
X318116252Y-281998057D02*
X318116252Y-282844723D01*
X318116252Y-282119009D02*
X318176728Y-282058533D01*
X318297680Y-281998057D01*
X318479109Y-281998057D01*
X318600061Y-282058533D01*
X318660538Y-282179485D01*
X318660538Y-282844723D01*
X319809585Y-282844723D02*
X319809585Y-282179485D01*
X319749109Y-282058533D01*
X319628157Y-281998057D01*
X319386252Y-281998057D01*
X319265300Y-282058533D01*
X319809585Y-282784247D02*
X319688633Y-282844723D01*
X319386252Y-282844723D01*
X319265300Y-282784247D01*
X319204823Y-282663295D01*
X319204823Y-282542342D01*
X319265300Y-282421390D01*
X319386252Y-282360914D01*
X319688633Y-282360914D01*
X319809585Y-282300438D01*
X320232919Y-281998057D02*
X320716728Y-281998057D01*
X320414347Y-281574723D02*
X320414347Y-282663295D01*
X320474823Y-282784247D01*
X320595776Y-282844723D01*
X320716728Y-282844723D01*
X321140061Y-282844723D02*
X321140061Y-281998057D01*
X321140061Y-281574723D02*
X321079585Y-281635200D01*
X321140061Y-281695676D01*
X321200538Y-281635200D01*
X321140061Y-281574723D01*
X321140061Y-281695676D01*
X321926252Y-282844723D02*
X321805300Y-282784247D01*
X321744823Y-282723771D01*
X321684347Y-282602819D01*
X321684347Y-282239961D01*
X321744823Y-282119009D01*
X321805300Y-282058533D01*
X321926252Y-281998057D01*
X322107680Y-281998057D01*
X322228633Y-282058533D01*
X322289109Y-282119009D01*
X322349585Y-282239961D01*
X322349585Y-282602819D01*
X322289109Y-282723771D01*
X322228633Y-282784247D01*
X322107680Y-282844723D01*
X321926252Y-282844723D01*
X322893871Y-281998057D02*
X322893871Y-282844723D01*
X322893871Y-282119009D02*
X322954347Y-282058533D01*
X323075300Y-281998057D01*
X323256728Y-281998057D01*
X323377680Y-282058533D01*
X323438157Y-282179485D01*
X323438157Y-282844723D01*
X324587204Y-282844723D02*
X324587204Y-282179485D01*
X324526728Y-282058533D01*
X324405776Y-281998057D01*
X324163871Y-281998057D01*
X324042919Y-282058533D01*
X324587204Y-282784247D02*
X324466252Y-282844723D01*
X324163871Y-282844723D01*
X324042919Y-282784247D01*
X323982442Y-282663295D01*
X323982442Y-282542342D01*
X324042919Y-282421390D01*
X324163871Y-282360914D01*
X324466252Y-282360914D01*
X324587204Y-282300438D01*
X325373395Y-282844723D02*
X325252442Y-282784247D01*
X325191966Y-282663295D01*
X325191966Y-281574723D01*
X327429585Y-282844723D02*
X326824823Y-282844723D01*
X326824823Y-281574723D01*
X327852919Y-282844723D02*
X327852919Y-281998057D01*
X327852919Y-281574723D02*
X327792442Y-281635200D01*
X327852919Y-281695676D01*
X327913395Y-281635200D01*
X327852919Y-281574723D01*
X327852919Y-281695676D01*
X329001966Y-282784247D02*
X328881014Y-282844723D01*
X328639109Y-282844723D01*
X328518157Y-282784247D01*
X328457680Y-282723771D01*
X328397204Y-282602819D01*
X328397204Y-282239961D01*
X328457680Y-282119009D01*
X328518157Y-282058533D01*
X328639109Y-281998057D01*
X328881014Y-281998057D01*
X329001966Y-282058533D01*
X330030061Y-282784247D02*
X329909109Y-282844723D01*
X329667204Y-282844723D01*
X329546252Y-282784247D01*
X329485776Y-282663295D01*
X329485776Y-282179485D01*
X329546252Y-282058533D01*
X329667204Y-281998057D01*
X329909109Y-281998057D01*
X330030061Y-282058533D01*
X330090538Y-282179485D01*
X330090538Y-282300438D01*
X329485776Y-282421390D01*
X330634823Y-281998057D02*
X330634823Y-282844723D01*
X330634823Y-282119009D02*
X330695300Y-282058533D01*
X330816252Y-281998057D01*
X330997680Y-281998057D01*
X331118633Y-282058533D01*
X331179109Y-282179485D01*
X331179109Y-282844723D01*
X331723395Y-282784247D02*
X331844347Y-282844723D01*
X332086252Y-282844723D01*
X332207204Y-282784247D01*
X332267680Y-282663295D01*
X332267680Y-282602819D01*
X332207204Y-282481866D01*
X332086252Y-282421390D01*
X331904823Y-282421390D01*
X331783871Y-282360914D01*
X331723395Y-282239961D01*
X331723395Y-282179485D01*
X331783871Y-282058533D01*
X331904823Y-281998057D01*
X332086252Y-281998057D01*
X332207204Y-282058533D01*
X333295776Y-282784247D02*
X333174823Y-282844723D01*
X332932919Y-282844723D01*
X332811966Y-282784247D01*
X332751490Y-282663295D01*
X332751490Y-282179485D01*
X332811966Y-282058533D01*
X332932919Y-281998057D01*
X333174823Y-281998057D01*
X333295776Y-282058533D01*
X333356252Y-282179485D01*
X333356252Y-282300438D01*
X332751490Y-282421390D01*
X333900538Y-282723771D02*
X333961014Y-282784247D01*
X333900538Y-282844723D01*
X333840061Y-282784247D01*
X333900538Y-282723771D01*
X333900538Y-282844723D01*
X280923395Y-280183771D02*
X280862919Y-280244247D01*
X280681490Y-280304723D01*
X280560538Y-280304723D01*
X280379109Y-280244247D01*
X280258157Y-280123295D01*
X280197680Y-280002342D01*
X280137204Y-279760438D01*
X280137204Y-279579009D01*
X280197680Y-279337104D01*
X280258157Y-279216152D01*
X280379109Y-279095200D01*
X280560538Y-279034723D01*
X280681490Y-279034723D01*
X280862919Y-279095200D01*
X280923395Y-279155676D01*
X281649109Y-280304723D02*
X281528157Y-280244247D01*
X281467680Y-280183771D01*
X281407204Y-280062819D01*
X281407204Y-279699961D01*
X281467680Y-279579009D01*
X281528157Y-279518533D01*
X281649109Y-279458057D01*
X281830538Y-279458057D01*
X281951490Y-279518533D01*
X282011966Y-279579009D01*
X282072442Y-279699961D01*
X282072442Y-280062819D01*
X282011966Y-280183771D01*
X281951490Y-280244247D01*
X281830538Y-280304723D01*
X281649109Y-280304723D01*
X282616728Y-279458057D02*
X282616728Y-280728057D01*
X282616728Y-279518533D02*
X282737680Y-279458057D01*
X282979585Y-279458057D01*
X283100538Y-279518533D01*
X283161014Y-279579009D01*
X283221490Y-279699961D01*
X283221490Y-280062819D01*
X283161014Y-280183771D01*
X283100538Y-280244247D01*
X282979585Y-280304723D01*
X282737680Y-280304723D01*
X282616728Y-280244247D01*
X283644823Y-279458057D02*
X283947204Y-280304723D01*
X284249585Y-279458057D02*
X283947204Y-280304723D01*
X283826252Y-280607104D01*
X283765776Y-280667580D01*
X283644823Y-280728057D01*
X284733395Y-280304723D02*
X284733395Y-279458057D01*
X284733395Y-279699961D02*
X284793871Y-279579009D01*
X284854347Y-279518533D01*
X284975300Y-279458057D01*
X285096252Y-279458057D01*
X285519585Y-280304723D02*
X285519585Y-279458057D01*
X285519585Y-279034723D02*
X285459109Y-279095200D01*
X285519585Y-279155676D01*
X285580061Y-279095200D01*
X285519585Y-279034723D01*
X285519585Y-279155676D01*
X286668633Y-279458057D02*
X286668633Y-280486152D01*
X286608157Y-280607104D01*
X286547680Y-280667580D01*
X286426728Y-280728057D01*
X286245300Y-280728057D01*
X286124347Y-280667580D01*
X286668633Y-280244247D02*
X286547680Y-280304723D01*
X286305776Y-280304723D01*
X286184823Y-280244247D01*
X286124347Y-280183771D01*
X286063871Y-280062819D01*
X286063871Y-279699961D01*
X286124347Y-279579009D01*
X286184823Y-279518533D01*
X286305776Y-279458057D01*
X286547680Y-279458057D01*
X286668633Y-279518533D01*
X287273395Y-280304723D02*
X287273395Y-279034723D01*
X287817680Y-280304723D02*
X287817680Y-279639485D01*
X287757204Y-279518533D01*
X287636252Y-279458057D01*
X287454823Y-279458057D01*
X287333871Y-279518533D01*
X287273395Y-279579009D01*
X288241014Y-279458057D02*
X288724823Y-279458057D01*
X288422442Y-279034723D02*
X288422442Y-280123295D01*
X288482919Y-280244247D01*
X288603871Y-280304723D01*
X288724823Y-280304723D01*
X291143871Y-279337104D02*
X291022919Y-279276628D01*
X290781014Y-279276628D01*
X290660061Y-279337104D01*
X290539109Y-279458057D01*
X290478633Y-279579009D01*
X290478633Y-279820914D01*
X290539109Y-279941866D01*
X290660061Y-280062819D01*
X290781014Y-280123295D01*
X291022919Y-280123295D01*
X291143871Y-280062819D01*
X290901966Y-278853295D02*
X290599585Y-278913771D01*
X290297204Y-279095200D01*
X290115776Y-279397580D01*
X290055300Y-279699961D01*
X290115776Y-280002342D01*
X290297204Y-280304723D01*
X290599585Y-280486152D01*
X290901966Y-280546628D01*
X291204347Y-280486152D01*
X291506728Y-280304723D01*
X291688157Y-280002342D01*
X291748633Y-279699961D01*
X291688157Y-279397580D01*
X291506728Y-279095200D01*
X291204347Y-278913771D01*
X290901966Y-278853295D01*
X293200061Y-279155676D02*
X293260538Y-279095200D01*
X293381490Y-279034723D01*
X293683871Y-279034723D01*
X293804823Y-279095200D01*
X293865300Y-279155676D01*
X293925776Y-279276628D01*
X293925776Y-279397580D01*
X293865300Y-279579009D01*
X293139585Y-280304723D01*
X293925776Y-280304723D01*
X294711966Y-279034723D02*
X294832919Y-279034723D01*
X294953871Y-279095200D01*
X295014347Y-279155676D01*
X295074823Y-279276628D01*
X295135300Y-279518533D01*
X295135300Y-279820914D01*
X295074823Y-280062819D01*
X295014347Y-280183771D01*
X294953871Y-280244247D01*
X294832919Y-280304723D01*
X294711966Y-280304723D01*
X294591014Y-280244247D01*
X294530538Y-280183771D01*
X294470061Y-280062819D01*
X294409585Y-279820914D01*
X294409585Y-279518533D01*
X294470061Y-279276628D01*
X294530538Y-279155676D01*
X294591014Y-279095200D01*
X294711966Y-279034723D01*
X295619109Y-279155676D02*
X295679585Y-279095200D01*
X295800538Y-279034723D01*
X296102919Y-279034723D01*
X296223871Y-279095200D01*
X296284347Y-279155676D01*
X296344823Y-279276628D01*
X296344823Y-279397580D01*
X296284347Y-279579009D01*
X295558633Y-280304723D01*
X296344823Y-280304723D01*
X297554347Y-280304723D02*
X296828633Y-280304723D01*
X297191490Y-280304723D02*
X297191490Y-279034723D01*
X297070538Y-279216152D01*
X296949585Y-279337104D01*
X296828633Y-279397580D01*
X299429109Y-279034723D02*
X299429109Y-279941866D01*
X299368633Y-280123295D01*
X299247680Y-280244247D01*
X299066252Y-280304723D01*
X298945300Y-280304723D01*
X300578157Y-280304723D02*
X300578157Y-279639485D01*
X300517680Y-279518533D01*
X300396728Y-279458057D01*
X300154823Y-279458057D01*
X300033871Y-279518533D01*
X300578157Y-280244247D02*
X300457204Y-280304723D01*
X300154823Y-280304723D01*
X300033871Y-280244247D01*
X299973395Y-280123295D01*
X299973395Y-280002342D01*
X300033871Y-279881390D01*
X300154823Y-279820914D01*
X300457204Y-279820914D01*
X300578157Y-279760438D01*
X301061966Y-279458057D02*
X301364347Y-280304723D01*
X301666728Y-279458057D02*
X301364347Y-280304723D01*
X301243395Y-280607104D01*
X301182919Y-280667580D01*
X301061966Y-280728057D01*
X303722919Y-280304723D02*
X303118157Y-280304723D01*
X303118157Y-279034723D01*
X304327680Y-280304723D02*
X304206728Y-280244247D01*
X304146252Y-280183771D01*
X304085776Y-280062819D01*
X304085776Y-279699961D01*
X304146252Y-279579009D01*
X304206728Y-279518533D01*
X304327680Y-279458057D01*
X304509109Y-279458057D01*
X304630061Y-279518533D01*
X304690538Y-279579009D01*
X304751014Y-279699961D01*
X304751014Y-280062819D01*
X304690538Y-280183771D01*
X304630061Y-280244247D01*
X304509109Y-280304723D01*
X304327680Y-280304723D01*
X305839585Y-279458057D02*
X305839585Y-280486152D01*
X305779109Y-280607104D01*
X305718633Y-280667580D01*
X305597680Y-280728057D01*
X305416252Y-280728057D01*
X305295300Y-280667580D01*
X305839585Y-280244247D02*
X305718633Y-280304723D01*
X305476728Y-280304723D01*
X305355776Y-280244247D01*
X305295300Y-280183771D01*
X305234823Y-280062819D01*
X305234823Y-279699961D01*
X305295300Y-279579009D01*
X305355776Y-279518533D01*
X305476728Y-279458057D01*
X305718633Y-279458057D01*
X305839585Y-279518533D01*
X306988633Y-279458057D02*
X306988633Y-280304723D01*
X306444347Y-279458057D02*
X306444347Y-280123295D01*
X306504823Y-280244247D01*
X306625776Y-280304723D01*
X306807204Y-280304723D01*
X306928157Y-280244247D01*
X306988633Y-280183771D01*
X308077204Y-280244247D02*
X307956252Y-280304723D01*
X307714347Y-280304723D01*
X307593395Y-280244247D01*
X307532919Y-280123295D01*
X307532919Y-279639485D01*
X307593395Y-279518533D01*
X307714347Y-279458057D01*
X307956252Y-279458057D01*
X308077204Y-279518533D01*
X308137680Y-279639485D01*
X308137680Y-279760438D01*
X307532919Y-279881390D01*
X308681966Y-280183771D02*
X308742442Y-280244247D01*
X308681966Y-280304723D01*
X308621490Y-280244247D01*
X308681966Y-280183771D01*
X308681966Y-280304723D01*
X311040538Y-279034723D02*
X311766252Y-279034723D01*
X311403395Y-280304723D02*
X311403395Y-279034723D01*
X312189585Y-280304723D02*
X312189585Y-279034723D01*
X312733871Y-280304723D02*
X312733871Y-279639485D01*
X312673395Y-279518533D01*
X312552442Y-279458057D01*
X312371014Y-279458057D01*
X312250061Y-279518533D01*
X312189585Y-279579009D01*
X313338633Y-280304723D02*
X313338633Y-279458057D01*
X313338633Y-279034723D02*
X313278157Y-279095200D01*
X313338633Y-279155676D01*
X313399109Y-279095200D01*
X313338633Y-279034723D01*
X313338633Y-279155676D01*
X313882919Y-280244247D02*
X314003871Y-280304723D01*
X314245776Y-280304723D01*
X314366728Y-280244247D01*
X314427204Y-280123295D01*
X314427204Y-280062819D01*
X314366728Y-279941866D01*
X314245776Y-279881390D01*
X314064347Y-279881390D01*
X313943395Y-279820914D01*
X313882919Y-279699961D01*
X313882919Y-279639485D01*
X313943395Y-279518533D01*
X314064347Y-279458057D01*
X314245776Y-279458057D01*
X314366728Y-279518533D01*
X315818157Y-279458057D02*
X316060061Y-280304723D01*
X316301966Y-279699961D01*
X316543871Y-280304723D01*
X316785776Y-279458057D01*
X317451014Y-280304723D02*
X317330061Y-280244247D01*
X317269585Y-280183771D01*
X317209109Y-280062819D01*
X317209109Y-279699961D01*
X317269585Y-279579009D01*
X317330061Y-279518533D01*
X317451014Y-279458057D01*
X317632442Y-279458057D01*
X317753395Y-279518533D01*
X317813871Y-279579009D01*
X317874347Y-279699961D01*
X317874347Y-280062819D01*
X317813871Y-280183771D01*
X317753395Y-280244247D01*
X317632442Y-280304723D01*
X317451014Y-280304723D01*
X318418633Y-280304723D02*
X318418633Y-279458057D01*
X318418633Y-279699961D02*
X318479109Y-279579009D01*
X318539585Y-279518533D01*
X318660538Y-279458057D01*
X318781490Y-279458057D01*
X319204823Y-280304723D02*
X319204823Y-279034723D01*
X319325776Y-279820914D02*
X319688633Y-280304723D01*
X319688633Y-279458057D02*
X319204823Y-279941866D01*
X321200538Y-280304723D02*
X321200538Y-279458057D01*
X321200538Y-279034723D02*
X321140061Y-279095200D01*
X321200538Y-279155676D01*
X321261014Y-279095200D01*
X321200538Y-279034723D01*
X321200538Y-279155676D01*
X321744823Y-280244247D02*
X321865776Y-280304723D01*
X322107680Y-280304723D01*
X322228633Y-280244247D01*
X322289109Y-280123295D01*
X322289109Y-280062819D01*
X322228633Y-279941866D01*
X322107680Y-279881390D01*
X321926252Y-279881390D01*
X321805300Y-279820914D01*
X321744823Y-279699961D01*
X321744823Y-279639485D01*
X321805300Y-279518533D01*
X321926252Y-279458057D01*
X322107680Y-279458057D01*
X322228633Y-279518533D01*
X323982442Y-280304723D02*
X323861490Y-280244247D01*
X323801014Y-280123295D01*
X323801014Y-279034723D01*
X324466252Y-280304723D02*
X324466252Y-279458057D01*
X324466252Y-279034723D02*
X324405776Y-279095200D01*
X324466252Y-279155676D01*
X324526728Y-279095200D01*
X324466252Y-279034723D01*
X324466252Y-279155676D01*
X325615300Y-280244247D02*
X325494347Y-280304723D01*
X325252442Y-280304723D01*
X325131490Y-280244247D01*
X325071014Y-280183771D01*
X325010538Y-280062819D01*
X325010538Y-279699961D01*
X325071014Y-279579009D01*
X325131490Y-279518533D01*
X325252442Y-279458057D01*
X325494347Y-279458057D01*
X325615300Y-279518533D01*
X326643395Y-280244247D02*
X326522442Y-280304723D01*
X326280538Y-280304723D01*
X326159585Y-280244247D01*
X326099109Y-280123295D01*
X326099109Y-279639485D01*
X326159585Y-279518533D01*
X326280538Y-279458057D01*
X326522442Y-279458057D01*
X326643395Y-279518533D01*
X326703871Y-279639485D01*
X326703871Y-279760438D01*
X326099109Y-279881390D01*
X327248157Y-279458057D02*
X327248157Y-280304723D01*
X327248157Y-279579009D02*
X327308633Y-279518533D01*
X327429585Y-279458057D01*
X327611014Y-279458057D01*
X327731966Y-279518533D01*
X327792442Y-279639485D01*
X327792442Y-280304723D01*
X328336728Y-280244247D02*
X328457680Y-280304723D01*
X328699585Y-280304723D01*
X328820538Y-280244247D01*
X328881014Y-280123295D01*
X328881014Y-280062819D01*
X328820538Y-279941866D01*
X328699585Y-279881390D01*
X328518157Y-279881390D01*
X328397204Y-279820914D01*
X328336728Y-279699961D01*
X328336728Y-279639485D01*
X328397204Y-279518533D01*
X328518157Y-279458057D01*
X328699585Y-279458057D01*
X328820538Y-279518533D01*
X329909109Y-280244247D02*
X329788157Y-280304723D01*
X329546252Y-280304723D01*
X329425300Y-280244247D01*
X329364823Y-280123295D01*
X329364823Y-279639485D01*
X329425300Y-279518533D01*
X329546252Y-279458057D01*
X329788157Y-279458057D01*
X329909109Y-279518533D01*
X329969585Y-279639485D01*
X329969585Y-279760438D01*
X329364823Y-279881390D01*
X331058157Y-280304723D02*
X331058157Y-279034723D01*
X331058157Y-280244247D02*
X330937204Y-280304723D01*
X330695300Y-280304723D01*
X330574347Y-280244247D01*
X330513871Y-280183771D01*
X330453395Y-280062819D01*
X330453395Y-279699961D01*
X330513871Y-279579009D01*
X330574347Y-279518533D01*
X330695300Y-279458057D01*
X330937204Y-279458057D01*
X331058157Y-279518533D01*
X333174823Y-279458057D02*
X333174823Y-280304723D01*
X332630538Y-279458057D02*
X332630538Y-280123295D01*
X332691014Y-280244247D01*
X332811966Y-280304723D01*
X332993395Y-280304723D01*
X333114347Y-280244247D01*
X333174823Y-280183771D01*
X333779585Y-279458057D02*
X333779585Y-280304723D01*
X333779585Y-279579009D02*
X333840061Y-279518533D01*
X333961014Y-279458057D01*
X334142442Y-279458057D01*
X334263395Y-279518533D01*
X334323871Y-279639485D01*
X334323871Y-280304723D01*
X335472919Y-280304723D02*
X335472919Y-279034723D01*
X335472919Y-280244247D02*
X335351966Y-280304723D01*
X335110061Y-280304723D01*
X334989109Y-280244247D01*
X334928633Y-280183771D01*
X334868157Y-280062819D01*
X334868157Y-279699961D01*
X334928633Y-279579009D01*
X334989109Y-279518533D01*
X335110061Y-279458057D01*
X335351966Y-279458057D01*
X335472919Y-279518533D01*
X336561490Y-280244247D02*
X336440538Y-280304723D01*
X336198633Y-280304723D01*
X336077680Y-280244247D01*
X336017204Y-280123295D01*
X336017204Y-279639485D01*
X336077680Y-279518533D01*
X336198633Y-279458057D01*
X336440538Y-279458057D01*
X336561490Y-279518533D01*
X336621966Y-279639485D01*
X336621966Y-279760438D01*
X336017204Y-279881390D01*
X337166252Y-280304723D02*
X337166252Y-279458057D01*
X337166252Y-279699961D02*
X337226728Y-279579009D01*
X337287204Y-279518533D01*
X337408157Y-279458057D01*
X337529109Y-279458057D01*
X338738633Y-279458057D02*
X339222442Y-279458057D01*
X338920061Y-279034723D02*
X338920061Y-280123295D01*
X338980538Y-280244247D01*
X339101490Y-280304723D01*
X339222442Y-280304723D01*
X339645776Y-280304723D02*
X339645776Y-279034723D01*
X340190061Y-280304723D02*
X340190061Y-279639485D01*
X340129585Y-279518533D01*
X340008633Y-279458057D01*
X339827204Y-279458057D01*
X339706252Y-279518533D01*
X339645776Y-279579009D01*
X341278633Y-280244247D02*
X341157680Y-280304723D01*
X340915776Y-280304723D01*
X340794823Y-280244247D01*
X340734347Y-280123295D01*
X340734347Y-279639485D01*
X340794823Y-279518533D01*
X340915776Y-279458057D01*
X341157680Y-279458057D01*
X341278633Y-279518533D01*
X341339109Y-279639485D01*
X341339109Y-279760438D01*
X340734347Y-279881390D01*
D12*
X361801228Y-278583571D02*
X361801228Y-274773571D01*
X363071228Y-277495000D01*
X364341228Y-274773571D01*
X364341228Y-278583571D01*
X366336942Y-278583571D02*
X367062657Y-278583571D01*
X367425514Y-278402142D01*
X367606942Y-278220714D01*
X367969800Y-277676428D01*
X368151228Y-276950714D01*
X368151228Y-275499285D01*
X367969800Y-275136428D01*
X367788371Y-274955000D01*
X367425514Y-274773571D01*
X366699800Y-274773571D01*
X366336942Y-274955000D01*
X366155514Y-275136428D01*
X365974085Y-275499285D01*
X365974085Y-276406428D01*
X366155514Y-276769285D01*
X366336942Y-276950714D01*
X366699800Y-277132142D01*
X367425514Y-277132142D01*
X367788371Y-276950714D01*
X367969800Y-276769285D01*
X368151228Y-276406428D01*
X370509800Y-274773571D02*
X370872657Y-274773571D01*
X371235514Y-274955000D01*
X371416942Y-275136428D01*
X371598371Y-275499285D01*
X371779800Y-276225000D01*
X371779800Y-277132142D01*
X371598371Y-277857857D01*
X371416942Y-278220714D01*
X371235514Y-278402142D01*
X370872657Y-278583571D01*
X370509800Y-278583571D01*
X370146942Y-278402142D01*
X369965514Y-278220714D01*
X369784085Y-277857857D01*
X369602657Y-277132142D01*
X369602657Y-276225000D01*
X369784085Y-275499285D01*
X369965514Y-275136428D01*
X370146942Y-274955000D01*
X370509800Y-274773571D01*
X375045514Y-276043571D02*
X375045514Y-278583571D01*
X374138371Y-274592142D02*
X373231228Y-277313571D01*
X375589800Y-277313571D01*
X376859800Y-275136428D02*
X377041228Y-274955000D01*
X377404085Y-274773571D01*
X378311228Y-274773571D01*
X378674085Y-274955000D01*
X378855514Y-275136428D01*
X379036942Y-275499285D01*
X379036942Y-275862142D01*
X378855514Y-276406428D01*
X376678371Y-278583571D01*
X379036942Y-278583571D01*
X385749800Y-278220714D02*
X385568371Y-278402142D01*
X385024085Y-278583571D01*
X384661228Y-278583571D01*
X384116942Y-278402142D01*
X383754085Y-278039285D01*
X383572657Y-277676428D01*
X383391228Y-276950714D01*
X383391228Y-276406428D01*
X383572657Y-275680714D01*
X383754085Y-275317857D01*
X384116942Y-274955000D01*
X384661228Y-274773571D01*
X385024085Y-274773571D01*
X385568371Y-274955000D01*
X385749800Y-275136428D01*
X389196942Y-278583571D02*
X387382657Y-278583571D01*
X387382657Y-274773571D01*
X391192657Y-274773571D02*
X391918371Y-274773571D01*
X392281228Y-274955000D01*
X392644085Y-275317857D01*
X392825514Y-276043571D01*
X392825514Y-277313571D01*
X392644085Y-278039285D01*
X392281228Y-278402142D01*
X391918371Y-278583571D01*
X391192657Y-278583571D01*
X390829800Y-278402142D01*
X390466942Y-278039285D01*
X390285514Y-277313571D01*
X390285514Y-276043571D01*
X390466942Y-275317857D01*
X390829800Y-274955000D01*
X391192657Y-274773571D01*
X394458371Y-278583571D02*
X394458371Y-274773571D01*
X396635514Y-278583571D01*
X396635514Y-274773571D01*
X398449800Y-276587857D02*
X399719800Y-276587857D01*
X400264085Y-278583571D02*
X398449800Y-278583571D01*
X398449800Y-274773571D01*
X400264085Y-274773571D01*
D13*
X358240000Y-195186000D02*
G75*
G03*
X358240000Y-195186000I-100000J0D01*
G01*
D14*
X357170000Y-265936000D02*
X357170000Y-195836000D01*
X371110000Y-265936000D02*
X371110000Y-195836000D01*
X371110000Y-265936000D02*
X357170000Y-265936000D01*
X357170000Y-195836000D02*
X371110000Y-195836000D01*
X319070000Y-195836000D02*
X333010000Y-195836000D01*
X333010000Y-265936000D02*
X319070000Y-265936000D01*
X333010000Y-265936000D02*
X333010000Y-195836000D01*
X319070000Y-265936000D02*
X319070000Y-195836000D01*
D13*
X320140000Y-195186000D02*
G75*
G03*
X320140000Y-195186000I-100000J0D01*
G01*
X282040000Y-195186000D02*
G75*
G03*
X282040000Y-195186000I-100000J0D01*
G01*
D14*
X280970000Y-265936000D02*
X280970000Y-195836000D01*
X294910000Y-265936000D02*
X294910000Y-195836000D01*
X294910000Y-265936000D02*
X280970000Y-265936000D01*
X280970000Y-195836000D02*
X294910000Y-195836000D01*
D15*
X363296200Y-193201471D02*
X363296200Y-194017900D01*
X363241771Y-194181185D01*
X363132914Y-194290042D01*
X362969628Y-194344471D01*
X362860771Y-194344471D01*
X363786057Y-193310328D02*
X363840485Y-193255900D01*
X363949342Y-193201471D01*
X364221485Y-193201471D01*
X364330342Y-193255900D01*
X364384771Y-193310328D01*
X364439200Y-193419185D01*
X364439200Y-193528042D01*
X364384771Y-193691328D01*
X363731628Y-194344471D01*
X364439200Y-194344471D01*
X325196200Y-193201471D02*
X325196200Y-194017900D01*
X325141771Y-194181185D01*
X325032914Y-194290042D01*
X324869628Y-194344471D01*
X324760771Y-194344471D01*
X325631628Y-193201471D02*
X326339200Y-193201471D01*
X325958200Y-193636900D01*
X326121485Y-193636900D01*
X326230342Y-193691328D01*
X326284771Y-193745757D01*
X326339200Y-193854614D01*
X326339200Y-194126757D01*
X326284771Y-194235614D01*
X326230342Y-194290042D01*
X326121485Y-194344471D01*
X325794914Y-194344471D01*
X325686057Y-194290042D01*
X325631628Y-194235614D01*
X287096200Y-193201471D02*
X287096200Y-194017900D01*
X287041771Y-194181185D01*
X286932914Y-194290042D01*
X286769628Y-194344471D01*
X286660771Y-194344471D01*
X288239200Y-194344471D02*
X287586057Y-194344471D01*
X287912628Y-194344471D02*
X287912628Y-193201471D01*
X287803771Y-193364757D01*
X287694914Y-193473614D01*
X287586057Y-193528042D01*
D16*
X332446085Y-289348333D02*
X332506561Y-289166904D01*
X332567038Y-289106428D01*
X332687990Y-289045952D01*
X332869419Y-289045952D01*
X332990371Y-289106428D01*
X333050847Y-289166904D01*
X333111323Y-289287857D01*
X333111323Y-289771666D01*
X331841323Y-289771666D01*
X331841323Y-289348333D01*
X331901800Y-289227380D01*
X331962276Y-289166904D01*
X332083228Y-289106428D01*
X332204180Y-289106428D01*
X332325133Y-289166904D01*
X332385609Y-289227380D01*
X332446085Y-289348333D01*
X332446085Y-289771666D01*
X332748466Y-288562142D02*
X332748466Y-287957380D01*
X333111323Y-288683095D02*
X331841323Y-288259761D01*
X333111323Y-287836428D01*
X333111323Y-286747857D02*
X333111323Y-287473571D01*
X333111323Y-287110714D02*
X331841323Y-287110714D01*
X332022752Y-287231666D01*
X332143704Y-287352619D01*
X332204180Y-287473571D01*
X329271085Y-289439047D02*
X329331561Y-289257619D01*
X329392038Y-289197142D01*
X329512990Y-289136666D01*
X329694419Y-289136666D01*
X329815371Y-289197142D01*
X329875847Y-289257619D01*
X329936323Y-289378571D01*
X329936323Y-289862380D01*
X328666323Y-289862380D01*
X328666323Y-289439047D01*
X328726800Y-289318095D01*
X328787276Y-289257619D01*
X328908228Y-289197142D01*
X329029180Y-289197142D01*
X329150133Y-289257619D01*
X329210609Y-289318095D01*
X329271085Y-289439047D01*
X329271085Y-289862380D01*
X329271085Y-288169047D02*
X329331561Y-287987619D01*
X329392038Y-287927142D01*
X329512990Y-287866666D01*
X329694419Y-287866666D01*
X329815371Y-287927142D01*
X329875847Y-287987619D01*
X329936323Y-288108571D01*
X329936323Y-288592380D01*
X328666323Y-288592380D01*
X328666323Y-288169047D01*
X328726800Y-288048095D01*
X328787276Y-287987619D01*
X328908228Y-287927142D01*
X329029180Y-287927142D01*
X329150133Y-287987619D01*
X329210609Y-288048095D01*
X329271085Y-288169047D01*
X329271085Y-288592380D01*
X329936323Y-286657142D02*
X329936323Y-287382857D01*
X329936323Y-287020000D02*
X328666323Y-287020000D01*
X328847752Y-287140952D01*
X328968704Y-287261904D01*
X329029180Y-287382857D01*
X326096085Y-289439047D02*
X326156561Y-289257619D01*
X326217038Y-289197142D01*
X326337990Y-289136666D01*
X326519419Y-289136666D01*
X326640371Y-289197142D01*
X326700847Y-289257619D01*
X326761323Y-289378571D01*
X326761323Y-289862380D01*
X325491323Y-289862380D01*
X325491323Y-289439047D01*
X325551800Y-289318095D01*
X325612276Y-289257619D01*
X325733228Y-289197142D01*
X325854180Y-289197142D01*
X325975133Y-289257619D01*
X326035609Y-289318095D01*
X326096085Y-289439047D01*
X326096085Y-289862380D01*
X326640371Y-287866666D02*
X326700847Y-287927142D01*
X326761323Y-288108571D01*
X326761323Y-288229523D01*
X326700847Y-288410952D01*
X326579895Y-288531904D01*
X326458942Y-288592380D01*
X326217038Y-288652857D01*
X326035609Y-288652857D01*
X325793704Y-288592380D01*
X325672752Y-288531904D01*
X325551800Y-288410952D01*
X325491323Y-288229523D01*
X325491323Y-288108571D01*
X325551800Y-287927142D01*
X325612276Y-287866666D01*
X326761323Y-286657142D02*
X326761323Y-287382857D01*
X326761323Y-287020000D02*
X325491323Y-287020000D01*
X325672752Y-287140952D01*
X325793704Y-287261904D01*
X325854180Y-287382857D01*
X322921085Y-289439047D02*
X322981561Y-289257619D01*
X323042038Y-289197142D01*
X323162990Y-289136666D01*
X323344419Y-289136666D01*
X323465371Y-289197142D01*
X323525847Y-289257619D01*
X323586323Y-289378571D01*
X323586323Y-289862380D01*
X322316323Y-289862380D01*
X322316323Y-289439047D01*
X322376800Y-289318095D01*
X322437276Y-289257619D01*
X322558228Y-289197142D01*
X322679180Y-289197142D01*
X322800133Y-289257619D01*
X322860609Y-289318095D01*
X322921085Y-289439047D01*
X322921085Y-289862380D01*
X323586323Y-288592380D02*
X322316323Y-288592380D01*
X322316323Y-288290000D01*
X322376800Y-288108571D01*
X322497752Y-287987619D01*
X322618704Y-287927142D01*
X322860609Y-287866666D01*
X323042038Y-287866666D01*
X323283942Y-287927142D01*
X323404895Y-287987619D01*
X323525847Y-288108571D01*
X323586323Y-288290000D01*
X323586323Y-288592380D01*
X323586323Y-286657142D02*
X323586323Y-287382857D01*
X323586323Y-287020000D02*
X322316323Y-287020000D01*
X322497752Y-287140952D01*
X322618704Y-287261904D01*
X322679180Y-287382857D01*
X319746085Y-289378571D02*
X319806561Y-289197142D01*
X319867038Y-289136666D01*
X319987990Y-289076190D01*
X320169419Y-289076190D01*
X320290371Y-289136666D01*
X320350847Y-289197142D01*
X320411323Y-289318095D01*
X320411323Y-289801904D01*
X319141323Y-289801904D01*
X319141323Y-289378571D01*
X319201800Y-289257619D01*
X319262276Y-289197142D01*
X319383228Y-289136666D01*
X319504180Y-289136666D01*
X319625133Y-289197142D01*
X319685609Y-289257619D01*
X319746085Y-289378571D01*
X319746085Y-289801904D01*
X319746085Y-288531904D02*
X319746085Y-288108571D01*
X320411323Y-287927142D02*
X320411323Y-288531904D01*
X319141323Y-288531904D01*
X319141323Y-287927142D01*
X320411323Y-286717619D02*
X320411323Y-287443333D01*
X320411323Y-287080476D02*
X319141323Y-287080476D01*
X319322752Y-287201428D01*
X319443704Y-287322380D01*
X319504180Y-287443333D01*
X316571085Y-289348333D02*
X316631561Y-289166904D01*
X316692038Y-289106428D01*
X316812990Y-289045952D01*
X316994419Y-289045952D01*
X317115371Y-289106428D01*
X317175847Y-289166904D01*
X317236323Y-289287857D01*
X317236323Y-289771666D01*
X315966323Y-289771666D01*
X315966323Y-289348333D01*
X316026800Y-289227380D01*
X316087276Y-289166904D01*
X316208228Y-289106428D01*
X316329180Y-289106428D01*
X316450133Y-289166904D01*
X316510609Y-289227380D01*
X316571085Y-289348333D01*
X316571085Y-289771666D01*
X316571085Y-288078333D02*
X316571085Y-288501666D01*
X317236323Y-288501666D02*
X315966323Y-288501666D01*
X315966323Y-287896904D01*
X317236323Y-286747857D02*
X317236323Y-287473571D01*
X317236323Y-287110714D02*
X315966323Y-287110714D01*
X316147752Y-287231666D01*
X316268704Y-287352619D01*
X316329180Y-287473571D01*
X313396085Y-289469285D02*
X313456561Y-289287857D01*
X313517038Y-289227380D01*
X313637990Y-289166904D01*
X313819419Y-289166904D01*
X313940371Y-289227380D01*
X314000847Y-289287857D01*
X314061323Y-289408809D01*
X314061323Y-289892619D01*
X312791323Y-289892619D01*
X312791323Y-289469285D01*
X312851800Y-289348333D01*
X312912276Y-289287857D01*
X313033228Y-289227380D01*
X313154180Y-289227380D01*
X313275133Y-289287857D01*
X313335609Y-289348333D01*
X313396085Y-289469285D01*
X313396085Y-289892619D01*
X314061323Y-288622619D02*
X312791323Y-288622619D01*
X313396085Y-288622619D02*
X313396085Y-287896904D01*
X314061323Y-287896904D02*
X312791323Y-287896904D01*
X314061323Y-286626904D02*
X314061323Y-287352619D01*
X314061323Y-286989761D02*
X312791323Y-286989761D01*
X312972752Y-287110714D01*
X313093704Y-287231666D01*
X313154180Y-287352619D01*
X310221085Y-289287857D02*
X310281561Y-289106428D01*
X310342038Y-289045952D01*
X310462990Y-288985476D01*
X310644419Y-288985476D01*
X310765371Y-289045952D01*
X310825847Y-289106428D01*
X310886323Y-289227380D01*
X310886323Y-289711190D01*
X309616323Y-289711190D01*
X309616323Y-289287857D01*
X309676800Y-289166904D01*
X309737276Y-289106428D01*
X309858228Y-289045952D01*
X309979180Y-289045952D01*
X310100133Y-289106428D01*
X310160609Y-289166904D01*
X310221085Y-289287857D01*
X310221085Y-289711190D01*
X309616323Y-288078333D02*
X310523466Y-288078333D01*
X310704895Y-288138809D01*
X310825847Y-288259761D01*
X310886323Y-288441190D01*
X310886323Y-288562142D01*
X310886323Y-286808333D02*
X310886323Y-287534047D01*
X310886323Y-287171190D02*
X309616323Y-287171190D01*
X309797752Y-287292142D01*
X309918704Y-287413095D01*
X309979180Y-287534047D01*
X307046085Y-289439047D02*
X307106561Y-289257619D01*
X307167038Y-289197142D01*
X307287990Y-289136666D01*
X307469419Y-289136666D01*
X307590371Y-289197142D01*
X307650847Y-289257619D01*
X307711323Y-289378571D01*
X307711323Y-289862380D01*
X306441323Y-289862380D01*
X306441323Y-289439047D01*
X306501800Y-289318095D01*
X306562276Y-289257619D01*
X306683228Y-289197142D01*
X306804180Y-289197142D01*
X306925133Y-289257619D01*
X306985609Y-289318095D01*
X307046085Y-289439047D01*
X307046085Y-289862380D01*
X307711323Y-288592380D02*
X306441323Y-288592380D01*
X307711323Y-287866666D02*
X306985609Y-288410952D01*
X306441323Y-287866666D02*
X307167038Y-288592380D01*
X307711323Y-286657142D02*
X307711323Y-287382857D01*
X307711323Y-287020000D02*
X306441323Y-287020000D01*
X306622752Y-287140952D01*
X306743704Y-287261904D01*
X306804180Y-287382857D01*
X303871085Y-289318095D02*
X303931561Y-289136666D01*
X303992038Y-289076190D01*
X304112990Y-289015714D01*
X304294419Y-289015714D01*
X304415371Y-289076190D01*
X304475847Y-289136666D01*
X304536323Y-289257619D01*
X304536323Y-289741428D01*
X303266323Y-289741428D01*
X303266323Y-289318095D01*
X303326800Y-289197142D01*
X303387276Y-289136666D01*
X303508228Y-289076190D01*
X303629180Y-289076190D01*
X303750133Y-289136666D01*
X303810609Y-289197142D01*
X303871085Y-289318095D01*
X303871085Y-289741428D01*
X304536323Y-287866666D02*
X304536323Y-288471428D01*
X303266323Y-288471428D01*
X304536323Y-286778095D02*
X304536323Y-287503809D01*
X304536323Y-287140952D02*
X303266323Y-287140952D01*
X303447752Y-287261904D01*
X303568704Y-287382857D01*
X303629180Y-287503809D01*
X300696085Y-289529761D02*
X300756561Y-289348333D01*
X300817038Y-289287857D01*
X300937990Y-289227380D01*
X301119419Y-289227380D01*
X301240371Y-289287857D01*
X301300847Y-289348333D01*
X301361323Y-289469285D01*
X301361323Y-289953095D01*
X300091323Y-289953095D01*
X300091323Y-289529761D01*
X300151800Y-289408809D01*
X300212276Y-289348333D01*
X300333228Y-289287857D01*
X300454180Y-289287857D01*
X300575133Y-289348333D01*
X300635609Y-289408809D01*
X300696085Y-289529761D01*
X300696085Y-289953095D01*
X301361323Y-288683095D02*
X300091323Y-288683095D01*
X300998466Y-288259761D01*
X300091323Y-287836428D01*
X301361323Y-287836428D01*
X301361323Y-286566428D02*
X301361323Y-287292142D01*
X301361323Y-286929285D02*
X300091323Y-286929285D01*
X300272752Y-287050238D01*
X300393704Y-287171190D01*
X300454180Y-287292142D01*
X297521085Y-289469285D02*
X297581561Y-289287857D01*
X297642038Y-289227380D01*
X297762990Y-289166904D01*
X297944419Y-289166904D01*
X298065371Y-289227380D01*
X298125847Y-289287857D01*
X298186323Y-289408809D01*
X298186323Y-289892619D01*
X296916323Y-289892619D01*
X296916323Y-289469285D01*
X296976800Y-289348333D01*
X297037276Y-289287857D01*
X297158228Y-289227380D01*
X297279180Y-289227380D01*
X297400133Y-289287857D01*
X297460609Y-289348333D01*
X297521085Y-289469285D01*
X297521085Y-289892619D01*
X298186323Y-288622619D02*
X296916323Y-288622619D01*
X298186323Y-287896904D01*
X296916323Y-287896904D01*
X298186323Y-286626904D02*
X298186323Y-287352619D01*
X298186323Y-286989761D02*
X296916323Y-286989761D01*
X297097752Y-287110714D01*
X297218704Y-287231666D01*
X297279180Y-287352619D01*
X294346085Y-289439047D02*
X294406561Y-289257619D01*
X294467038Y-289197142D01*
X294587990Y-289136666D01*
X294769419Y-289136666D01*
X294890371Y-289197142D01*
X294950847Y-289257619D01*
X295011323Y-289378571D01*
X295011323Y-289862380D01*
X293741323Y-289862380D01*
X293741323Y-289439047D01*
X293801800Y-289318095D01*
X293862276Y-289257619D01*
X293983228Y-289197142D01*
X294104180Y-289197142D01*
X294225133Y-289257619D01*
X294285609Y-289318095D01*
X294346085Y-289439047D01*
X294346085Y-289862380D01*
X295011323Y-288592380D02*
X293741323Y-288592380D01*
X293741323Y-288108571D01*
X293801800Y-287987619D01*
X293862276Y-287927142D01*
X293983228Y-287866666D01*
X294164657Y-287866666D01*
X294285609Y-287927142D01*
X294346085Y-287987619D01*
X294406561Y-288108571D01*
X294406561Y-288592380D01*
X295011323Y-286657142D02*
X295011323Y-287382857D01*
X295011323Y-287020000D02*
X293741323Y-287020000D01*
X293922752Y-287140952D01*
X294043704Y-287261904D01*
X294104180Y-287382857D01*
X291171085Y-289439047D02*
X291231561Y-289257619D01*
X291292038Y-289197142D01*
X291412990Y-289136666D01*
X291594419Y-289136666D01*
X291715371Y-289197142D01*
X291775847Y-289257619D01*
X291836323Y-289378571D01*
X291836323Y-289862380D01*
X290566323Y-289862380D01*
X290566323Y-289439047D01*
X290626800Y-289318095D01*
X290687276Y-289257619D01*
X290808228Y-289197142D01*
X290929180Y-289197142D01*
X291050133Y-289257619D01*
X291110609Y-289318095D01*
X291171085Y-289439047D01*
X291171085Y-289862380D01*
X291836323Y-287866666D02*
X291231561Y-288290000D01*
X291836323Y-288592380D02*
X290566323Y-288592380D01*
X290566323Y-288108571D01*
X290626800Y-287987619D01*
X290687276Y-287927142D01*
X290808228Y-287866666D01*
X290989657Y-287866666D01*
X291110609Y-287927142D01*
X291171085Y-287987619D01*
X291231561Y-288108571D01*
X291231561Y-288592380D01*
X291836323Y-286657142D02*
X291836323Y-287382857D01*
X291836323Y-287020000D02*
X290566323Y-287020000D01*
X290747752Y-287140952D01*
X290868704Y-287261904D01*
X290929180Y-287382857D01*
X287996085Y-289408809D02*
X288056561Y-289227380D01*
X288117038Y-289166904D01*
X288237990Y-289106428D01*
X288419419Y-289106428D01*
X288540371Y-289166904D01*
X288600847Y-289227380D01*
X288661323Y-289348333D01*
X288661323Y-289832142D01*
X287391323Y-289832142D01*
X287391323Y-289408809D01*
X287451800Y-289287857D01*
X287512276Y-289227380D01*
X287633228Y-289166904D01*
X287754180Y-289166904D01*
X287875133Y-289227380D01*
X287935609Y-289287857D01*
X287996085Y-289408809D01*
X287996085Y-289832142D01*
X288600847Y-288622619D02*
X288661323Y-288441190D01*
X288661323Y-288138809D01*
X288600847Y-288017857D01*
X288540371Y-287957380D01*
X288419419Y-287896904D01*
X288298466Y-287896904D01*
X288177514Y-287957380D01*
X288117038Y-288017857D01*
X288056561Y-288138809D01*
X287996085Y-288380714D01*
X287935609Y-288501666D01*
X287875133Y-288562142D01*
X287754180Y-288622619D01*
X287633228Y-288622619D01*
X287512276Y-288562142D01*
X287451800Y-288501666D01*
X287391323Y-288380714D01*
X287391323Y-288078333D01*
X287451800Y-287896904D01*
X288661323Y-286687380D02*
X288661323Y-287413095D01*
X288661323Y-287050238D02*
X287391323Y-287050238D01*
X287572752Y-287171190D01*
X287693704Y-287292142D01*
X287754180Y-287413095D01*
X284821085Y-289287857D02*
X284881561Y-289106428D01*
X284942038Y-289045952D01*
X285062990Y-288985476D01*
X285244419Y-288985476D01*
X285365371Y-289045952D01*
X285425847Y-289106428D01*
X285486323Y-289227380D01*
X285486323Y-289711190D01*
X284216323Y-289711190D01*
X284216323Y-289287857D01*
X284276800Y-289166904D01*
X284337276Y-289106428D01*
X284458228Y-289045952D01*
X284579180Y-289045952D01*
X284700133Y-289106428D01*
X284760609Y-289166904D01*
X284821085Y-289287857D01*
X284821085Y-289711190D01*
X284216323Y-288622619D02*
X284216323Y-287896904D01*
X285486323Y-288259761D02*
X284216323Y-288259761D01*
X285486323Y-286808333D02*
X285486323Y-287534047D01*
X285486323Y-287171190D02*
X284216323Y-287171190D01*
X284397752Y-287292142D01*
X284518704Y-287413095D01*
X284579180Y-287534047D01*
X281646085Y-289469285D02*
X281706561Y-289287857D01*
X281767038Y-289227380D01*
X281887990Y-289166904D01*
X282069419Y-289166904D01*
X282190371Y-289227380D01*
X282250847Y-289287857D01*
X282311323Y-289408809D01*
X282311323Y-289892619D01*
X281041323Y-289892619D01*
X281041323Y-289469285D01*
X281101800Y-289348333D01*
X281162276Y-289287857D01*
X281283228Y-289227380D01*
X281404180Y-289227380D01*
X281525133Y-289287857D01*
X281585609Y-289348333D01*
X281646085Y-289469285D01*
X281646085Y-289892619D01*
X281041323Y-288622619D02*
X282069419Y-288622619D01*
X282190371Y-288562142D01*
X282250847Y-288501666D01*
X282311323Y-288380714D01*
X282311323Y-288138809D01*
X282250847Y-288017857D01*
X282190371Y-287957380D01*
X282069419Y-287896904D01*
X281041323Y-287896904D01*
X282311323Y-286626904D02*
X282311323Y-287352619D01*
X282311323Y-286989761D02*
X281041323Y-286989761D01*
X281222752Y-287110714D01*
X281343704Y-287231666D01*
X281404180Y-287352619D01*
X278471085Y-289348333D02*
X278531561Y-289166904D01*
X278592038Y-289106428D01*
X278712990Y-289045952D01*
X278894419Y-289045952D01*
X279015371Y-289106428D01*
X279075847Y-289166904D01*
X279136323Y-289287857D01*
X279136323Y-289771666D01*
X277866323Y-289771666D01*
X277866323Y-289348333D01*
X277926800Y-289227380D01*
X277987276Y-289166904D01*
X278108228Y-289106428D01*
X278229180Y-289106428D01*
X278350133Y-289166904D01*
X278410609Y-289227380D01*
X278471085Y-289348333D01*
X278471085Y-289771666D01*
X277866323Y-288683095D02*
X279136323Y-288259761D01*
X277866323Y-287836428D01*
X279136323Y-286747857D02*
X279136323Y-287473571D01*
X279136323Y-287110714D02*
X277866323Y-287110714D01*
X278047752Y-287231666D01*
X278168704Y-287352619D01*
X278229180Y-287473571D01*
X348623466Y-289741428D02*
X348623466Y-289136666D01*
X348986323Y-289862380D02*
X347716323Y-289439047D01*
X348986323Y-289015714D01*
X347716323Y-288773809D02*
X348986323Y-288350476D01*
X347716323Y-287927142D01*
X348986323Y-286838571D02*
X348986323Y-287564285D01*
X348986323Y-287201428D02*
X347716323Y-287201428D01*
X347897752Y-287322380D01*
X348018704Y-287443333D01*
X348079180Y-287564285D01*
X351798466Y-289862380D02*
X351798466Y-289257619D01*
X352161323Y-289983333D02*
X350891323Y-289560000D01*
X352161323Y-289136666D01*
X350891323Y-288713333D02*
X351919419Y-288713333D01*
X352040371Y-288652857D01*
X352100847Y-288592380D01*
X352161323Y-288471428D01*
X352161323Y-288229523D01*
X352100847Y-288108571D01*
X352040371Y-288048095D01*
X351919419Y-287987619D01*
X350891323Y-287987619D01*
X352161323Y-286717619D02*
X352161323Y-287443333D01*
X352161323Y-287080476D02*
X350891323Y-287080476D01*
X351072752Y-287201428D01*
X351193704Y-287322380D01*
X351254180Y-287443333D01*
X354973466Y-289680952D02*
X354973466Y-289076190D01*
X355336323Y-289801904D02*
X354066323Y-289378571D01*
X355336323Y-288955238D01*
X354066323Y-288713333D02*
X354066323Y-287987619D01*
X355336323Y-288350476D02*
X354066323Y-288350476D01*
X355336323Y-286899047D02*
X355336323Y-287624761D01*
X355336323Y-287261904D02*
X354066323Y-287261904D01*
X354247752Y-287382857D01*
X354368704Y-287503809D01*
X354429180Y-287624761D01*
X358148466Y-289801904D02*
X358148466Y-289197142D01*
X358511323Y-289922857D02*
X357241323Y-289499523D01*
X358511323Y-289076190D01*
X358450847Y-288713333D02*
X358511323Y-288531904D01*
X358511323Y-288229523D01*
X358450847Y-288108571D01*
X358390371Y-288048095D01*
X358269419Y-287987619D01*
X358148466Y-287987619D01*
X358027514Y-288048095D01*
X357967038Y-288108571D01*
X357906561Y-288229523D01*
X357846085Y-288471428D01*
X357785609Y-288592380D01*
X357725133Y-288652857D01*
X357604180Y-288713333D01*
X357483228Y-288713333D01*
X357362276Y-288652857D01*
X357301800Y-288592380D01*
X357241323Y-288471428D01*
X357241323Y-288169047D01*
X357301800Y-287987619D01*
X358511323Y-286778095D02*
X358511323Y-287503809D01*
X358511323Y-287140952D02*
X357241323Y-287140952D01*
X357422752Y-287261904D01*
X357543704Y-287382857D01*
X357604180Y-287503809D01*
X361323466Y-289832142D02*
X361323466Y-289227380D01*
X361686323Y-289953095D02*
X360416323Y-289529761D01*
X361686323Y-289106428D01*
X361686323Y-287957380D02*
X361081561Y-288380714D01*
X361686323Y-288683095D02*
X360416323Y-288683095D01*
X360416323Y-288199285D01*
X360476800Y-288078333D01*
X360537276Y-288017857D01*
X360658228Y-287957380D01*
X360839657Y-287957380D01*
X360960609Y-288017857D01*
X361021085Y-288078333D01*
X361081561Y-288199285D01*
X361081561Y-288683095D01*
X361686323Y-286747857D02*
X361686323Y-287473571D01*
X361686323Y-287110714D02*
X360416323Y-287110714D01*
X360597752Y-287231666D01*
X360718704Y-287352619D01*
X360779180Y-287473571D01*
X364498466Y-289832142D02*
X364498466Y-289227380D01*
X364861323Y-289953095D02*
X363591323Y-289529761D01*
X364861323Y-289106428D01*
X364861323Y-288683095D02*
X363591323Y-288683095D01*
X363591323Y-288199285D01*
X363651800Y-288078333D01*
X363712276Y-288017857D01*
X363833228Y-287957380D01*
X364014657Y-287957380D01*
X364135609Y-288017857D01*
X364196085Y-288078333D01*
X364256561Y-288199285D01*
X364256561Y-288683095D01*
X364861323Y-286747857D02*
X364861323Y-287473571D01*
X364861323Y-287110714D02*
X363591323Y-287110714D01*
X363772752Y-287231666D01*
X363893704Y-287352619D01*
X363954180Y-287473571D01*
X367673466Y-289862380D02*
X367673466Y-289257619D01*
X368036323Y-289983333D02*
X366766323Y-289560000D01*
X368036323Y-289136666D01*
X368036323Y-288713333D02*
X366766323Y-288713333D01*
X368036323Y-287987619D01*
X366766323Y-287987619D01*
X368036323Y-286717619D02*
X368036323Y-287443333D01*
X368036323Y-287080476D02*
X366766323Y-287080476D01*
X366947752Y-287201428D01*
X367068704Y-287322380D01*
X367129180Y-287443333D01*
X370848466Y-289922857D02*
X370848466Y-289318095D01*
X371211323Y-290043809D02*
X369941323Y-289620476D01*
X371211323Y-289197142D01*
X371211323Y-288773809D02*
X369941323Y-288773809D01*
X370848466Y-288350476D01*
X369941323Y-287927142D01*
X371211323Y-287927142D01*
X371211323Y-286657142D02*
X371211323Y-287382857D01*
X371211323Y-287020000D02*
X369941323Y-287020000D01*
X370122752Y-287140952D01*
X370243704Y-287261904D01*
X370304180Y-287382857D01*
X374023466Y-289711190D02*
X374023466Y-289106428D01*
X374386323Y-289832142D02*
X373116323Y-289408809D01*
X374386323Y-288985476D01*
X374386323Y-287957380D02*
X374386323Y-288562142D01*
X373116323Y-288562142D01*
X374386323Y-286868809D02*
X374386323Y-287594523D01*
X374386323Y-287231666D02*
X373116323Y-287231666D01*
X373297752Y-287352619D01*
X373418704Y-287473571D01*
X373479180Y-287594523D01*
X377198466Y-289832142D02*
X377198466Y-289227380D01*
X377561323Y-289953095D02*
X376291323Y-289529761D01*
X377561323Y-289106428D01*
X377561323Y-288683095D02*
X376291323Y-288683095D01*
X377561323Y-287957380D02*
X376835609Y-288501666D01*
X376291323Y-287957380D02*
X377017038Y-288683095D01*
X377561323Y-286747857D02*
X377561323Y-287473571D01*
X377561323Y-287110714D02*
X376291323Y-287110714D01*
X376472752Y-287231666D01*
X376593704Y-287352619D01*
X376654180Y-287473571D01*
X380373466Y-289680952D02*
X380373466Y-289076190D01*
X380736323Y-289801904D02*
X379466323Y-289378571D01*
X380736323Y-288955238D01*
X379466323Y-288169047D02*
X380373466Y-288169047D01*
X380554895Y-288229523D01*
X380675847Y-288350476D01*
X380736323Y-288531904D01*
X380736323Y-288652857D01*
X380736323Y-286899047D02*
X380736323Y-287624761D01*
X380736323Y-287261904D02*
X379466323Y-287261904D01*
X379647752Y-287382857D01*
X379768704Y-287503809D01*
X379829180Y-287624761D01*
X383548466Y-289862380D02*
X383548466Y-289257619D01*
X383911323Y-289983333D02*
X382641323Y-289560000D01*
X383911323Y-289136666D01*
X383911323Y-288713333D02*
X382641323Y-288713333D01*
X383246085Y-288713333D02*
X383246085Y-287987619D01*
X383911323Y-287987619D02*
X382641323Y-287987619D01*
X383911323Y-286717619D02*
X383911323Y-287443333D01*
X383911323Y-287080476D02*
X382641323Y-287080476D01*
X382822752Y-287201428D01*
X382943704Y-287322380D01*
X383004180Y-287443333D01*
X386723466Y-289741428D02*
X386723466Y-289136666D01*
X387086323Y-289862380D02*
X385816323Y-289439047D01*
X387086323Y-289015714D01*
X386421085Y-288169047D02*
X386421085Y-288592380D01*
X387086323Y-288592380D02*
X385816323Y-288592380D01*
X385816323Y-287987619D01*
X387086323Y-286838571D02*
X387086323Y-287564285D01*
X387086323Y-287201428D02*
X385816323Y-287201428D01*
X385997752Y-287322380D01*
X386118704Y-287443333D01*
X386179180Y-287564285D01*
X389898466Y-289771666D02*
X389898466Y-289166904D01*
X390261323Y-289892619D02*
X388991323Y-289469285D01*
X390261323Y-289045952D01*
X389596085Y-288622619D02*
X389596085Y-288199285D01*
X390261323Y-288017857D02*
X390261323Y-288622619D01*
X388991323Y-288622619D01*
X388991323Y-288017857D01*
X390261323Y-286808333D02*
X390261323Y-287534047D01*
X390261323Y-287171190D02*
X388991323Y-287171190D01*
X389172752Y-287292142D01*
X389293704Y-287413095D01*
X389354180Y-287534047D01*
X393073466Y-289832142D02*
X393073466Y-289227380D01*
X393436323Y-289953095D02*
X392166323Y-289529761D01*
X393436323Y-289106428D01*
X393436323Y-288683095D02*
X392166323Y-288683095D01*
X392166323Y-288380714D01*
X392226800Y-288199285D01*
X392347752Y-288078333D01*
X392468704Y-288017857D01*
X392710609Y-287957380D01*
X392892038Y-287957380D01*
X393133942Y-288017857D01*
X393254895Y-288078333D01*
X393375847Y-288199285D01*
X393436323Y-288380714D01*
X393436323Y-288683095D01*
X393436323Y-286747857D02*
X393436323Y-287473571D01*
X393436323Y-287110714D02*
X392166323Y-287110714D01*
X392347752Y-287231666D01*
X392468704Y-287352619D01*
X392529180Y-287473571D01*
X396248466Y-289832142D02*
X396248466Y-289227380D01*
X396611323Y-289953095D02*
X395341323Y-289529761D01*
X396611323Y-289106428D01*
X396490371Y-287957380D02*
X396550847Y-288017857D01*
X396611323Y-288199285D01*
X396611323Y-288320238D01*
X396550847Y-288501666D01*
X396429895Y-288622619D01*
X396308942Y-288683095D01*
X396067038Y-288743571D01*
X395885609Y-288743571D01*
X395643704Y-288683095D01*
X395522752Y-288622619D01*
X395401800Y-288501666D01*
X395341323Y-288320238D01*
X395341323Y-288199285D01*
X395401800Y-288017857D01*
X395462276Y-287957380D01*
X396611323Y-286747857D02*
X396611323Y-287473571D01*
X396611323Y-287110714D02*
X395341323Y-287110714D01*
X395522752Y-287231666D01*
X395643704Y-287352619D01*
X395704180Y-287473571D01*
X399423466Y-289832142D02*
X399423466Y-289227380D01*
X399786323Y-289953095D02*
X398516323Y-289529761D01*
X399786323Y-289106428D01*
X399121085Y-288259761D02*
X399181561Y-288078333D01*
X399242038Y-288017857D01*
X399362990Y-287957380D01*
X399544419Y-287957380D01*
X399665371Y-288017857D01*
X399725847Y-288078333D01*
X399786323Y-288199285D01*
X399786323Y-288683095D01*
X398516323Y-288683095D01*
X398516323Y-288259761D01*
X398576800Y-288138809D01*
X398637276Y-288078333D01*
X398758228Y-288017857D01*
X398879180Y-288017857D01*
X399000133Y-288078333D01*
X399060609Y-288138809D01*
X399121085Y-288259761D01*
X399121085Y-288683095D01*
X399786323Y-286747857D02*
X399786323Y-287473571D01*
X399786323Y-287110714D02*
X398516323Y-287110714D01*
X398697752Y-287231666D01*
X398818704Y-287352619D01*
X398879180Y-287473571D01*
X402598466Y-289741428D02*
X402598466Y-289136666D01*
X402961323Y-289862380D02*
X401691323Y-289439047D01*
X402961323Y-289015714D01*
X402598466Y-288652857D02*
X402598466Y-288048095D01*
X402961323Y-288773809D02*
X401691323Y-288350476D01*
X402961323Y-287927142D01*
X402961323Y-286838571D02*
X402961323Y-287564285D01*
X402961323Y-287201428D02*
X401691323Y-287201428D01*
X401872752Y-287322380D01*
X401993704Y-287443333D01*
X402054180Y-287564285D01*
%LPC*%
D17*
G36*
X333946500Y-304800000D02*
G01*
X277050500Y-304800000D01*
X277050500Y-290576000D01*
X333959200Y-290576000D01*
X333946500Y-304800000D01*
G37*
G36*
X403860000Y-304800000D02*
G01*
X346964000Y-304800000D01*
X346964000Y-290576000D01*
X403860000Y-290576000D01*
X403860000Y-304800000D01*
G37*
D18*
X360680000Y-255016000D03*
X358140000Y-255016000D03*
X360680000Y-252476000D03*
X358140000Y-252476000D03*
X360680000Y-249936000D03*
X358140000Y-249936000D03*
X360680000Y-247396000D03*
X358140000Y-247396000D03*
X360680000Y-244856000D03*
X358140000Y-244856000D03*
X360680000Y-242316000D03*
X358140000Y-242316000D03*
X360680000Y-239776000D03*
X358140000Y-239776000D03*
X360680000Y-237236000D03*
X358140000Y-237236000D03*
X360680000Y-234696000D03*
X358140000Y-234696000D03*
X360680000Y-232156000D03*
X358140000Y-232156000D03*
X360680000Y-229616000D03*
X358140000Y-229616000D03*
X360680000Y-227076000D03*
X358140000Y-227076000D03*
X360680000Y-224536000D03*
X358140000Y-224536000D03*
X360680000Y-221996000D03*
X358140000Y-221996000D03*
X360680000Y-219456000D03*
X358140000Y-219456000D03*
X360680000Y-216916000D03*
X358140000Y-216916000D03*
X360680000Y-214376000D03*
X358140000Y-214376000D03*
X360680000Y-211836000D03*
X358140000Y-211836000D03*
X360680000Y-209296000D03*
X358140000Y-209296000D03*
X360680000Y-206756000D03*
D19*
X358140000Y-206756000D03*
D20*
X359940000Y-260856000D03*
X359940000Y-200916000D03*
X321840000Y-200916000D03*
X321840000Y-260856000D03*
D19*
X320040000Y-206756000D03*
D18*
X322580000Y-206756000D03*
X320040000Y-209296000D03*
X322580000Y-209296000D03*
X320040000Y-211836000D03*
X322580000Y-211836000D03*
X320040000Y-214376000D03*
X322580000Y-214376000D03*
X320040000Y-216916000D03*
X322580000Y-216916000D03*
X320040000Y-219456000D03*
X322580000Y-219456000D03*
X320040000Y-221996000D03*
X322580000Y-221996000D03*
X320040000Y-224536000D03*
X322580000Y-224536000D03*
X320040000Y-227076000D03*
X322580000Y-227076000D03*
X320040000Y-229616000D03*
X322580000Y-229616000D03*
X320040000Y-232156000D03*
X322580000Y-232156000D03*
X320040000Y-234696000D03*
X322580000Y-234696000D03*
X320040000Y-237236000D03*
X322580000Y-237236000D03*
X320040000Y-239776000D03*
X322580000Y-239776000D03*
X320040000Y-242316000D03*
X322580000Y-242316000D03*
X320040000Y-244856000D03*
X322580000Y-244856000D03*
X320040000Y-247396000D03*
X322580000Y-247396000D03*
X320040000Y-249936000D03*
X322580000Y-249936000D03*
X320040000Y-252476000D03*
X322580000Y-252476000D03*
X320040000Y-255016000D03*
X322580000Y-255016000D03*
X284480000Y-255016000D03*
X281940000Y-255016000D03*
X284480000Y-252476000D03*
X281940000Y-252476000D03*
X284480000Y-249936000D03*
X281940000Y-249936000D03*
X284480000Y-247396000D03*
X281940000Y-247396000D03*
X284480000Y-244856000D03*
X281940000Y-244856000D03*
X284480000Y-242316000D03*
X281940000Y-242316000D03*
X284480000Y-239776000D03*
X281940000Y-239776000D03*
X284480000Y-237236000D03*
X281940000Y-237236000D03*
X284480000Y-234696000D03*
X281940000Y-234696000D03*
X284480000Y-232156000D03*
X281940000Y-232156000D03*
X284480000Y-229616000D03*
X281940000Y-229616000D03*
X284480000Y-227076000D03*
X281940000Y-227076000D03*
X284480000Y-224536000D03*
X281940000Y-224536000D03*
X284480000Y-221996000D03*
X281940000Y-221996000D03*
X284480000Y-219456000D03*
X281940000Y-219456000D03*
X284480000Y-216916000D03*
X281940000Y-216916000D03*
X284480000Y-214376000D03*
X281940000Y-214376000D03*
X284480000Y-211836000D03*
X281940000Y-211836000D03*
X284480000Y-209296000D03*
X281940000Y-209296000D03*
X284480000Y-206756000D03*
D19*
X281940000Y-206756000D03*
D20*
X283740000Y-260856000D03*
X283740000Y-200916000D03*
D21*
X278561800Y-297180000D03*
X281736800Y-297180000D03*
X284911800Y-297180000D03*
X288086800Y-297180000D03*
X291261800Y-297180000D03*
X294436800Y-297180000D03*
X297611800Y-297180000D03*
X300786800Y-297180000D03*
X303961800Y-297180000D03*
X307136800Y-297180000D03*
X310311800Y-297180000D03*
X313486800Y-297180000D03*
X316661800Y-297180000D03*
X319836800Y-297180000D03*
X323011800Y-297180000D03*
X326186800Y-297180000D03*
X329361800Y-297180000D03*
X332536800Y-297180000D03*
X402386800Y-297180000D03*
X399211800Y-297180000D03*
X396036800Y-297180000D03*
X392861800Y-297180000D03*
X389686800Y-297180000D03*
X386511800Y-297180000D03*
X383336800Y-297180000D03*
X380161800Y-297180000D03*
X376986800Y-297180000D03*
X373811800Y-297180000D03*
X370636800Y-297180000D03*
X367461800Y-297180000D03*
X364286800Y-297180000D03*
X361111800Y-297180000D03*
X357936800Y-297180000D03*
X354761800Y-297180000D03*
X351586800Y-297180000D03*
X348411800Y-297180000D03*
M02*
