G04 #@! TF.GenerationSoftware,KiCad,Pcbnew,(5.1.10)-1*
G04 #@! TF.CreationDate,2021-09-26T13:37:53-07:00*
G04 #@! TF.ProjectId,m9042-clone,6d393034-322d-4636-9c6f-6e652e6b6963,1*
G04 #@! TF.SameCoordinates,Original*
G04 #@! TF.FileFunction,Soldermask,Top*
G04 #@! TF.FilePolarity,Negative*
%FSLAX46Y46*%
G04 Gerber Fmt 4.6, Leading zero omitted, Abs format (unit mm)*
G04 Created by KiCad (PCBNEW (5.1.10)-1) date 2021-09-26 13:37:53*
%MOMM*%
%LPD*%
G01*
G04 APERTURE LIST*
%ADD10C,0.100000*%
%ADD11C,1.240000*%
%ADD12R,1.240000X1.240000*%
%ADD13C,2.690000*%
%ADD14R,2.032000X13.208000*%
G04 APERTURE END LIST*
D10*
G36*
X333946500Y-304800000D02*
G01*
X277050500Y-304800000D01*
X277050500Y-290576000D01*
X333959200Y-290576000D01*
X333946500Y-304800000D01*
G37*
G36*
X403860000Y-304800000D02*
G01*
X346964000Y-304800000D01*
X346964000Y-290576000D01*
X403860000Y-290576000D01*
X403860000Y-304800000D01*
G37*
D11*
X360680000Y-255016000D03*
X358140000Y-255016000D03*
X360680000Y-252476000D03*
X358140000Y-252476000D03*
X360680000Y-249936000D03*
X358140000Y-249936000D03*
X360680000Y-247396000D03*
X358140000Y-247396000D03*
X360680000Y-244856000D03*
X358140000Y-244856000D03*
X360680000Y-242316000D03*
X358140000Y-242316000D03*
X360680000Y-239776000D03*
X358140000Y-239776000D03*
X360680000Y-237236000D03*
X358140000Y-237236000D03*
X360680000Y-234696000D03*
X358140000Y-234696000D03*
X360680000Y-232156000D03*
X358140000Y-232156000D03*
X360680000Y-229616000D03*
X358140000Y-229616000D03*
X360680000Y-227076000D03*
X358140000Y-227076000D03*
X360680000Y-224536000D03*
X358140000Y-224536000D03*
X360680000Y-221996000D03*
X358140000Y-221996000D03*
X360680000Y-219456000D03*
X358140000Y-219456000D03*
X360680000Y-216916000D03*
X358140000Y-216916000D03*
X360680000Y-214376000D03*
X358140000Y-214376000D03*
X360680000Y-211836000D03*
X358140000Y-211836000D03*
X360680000Y-209296000D03*
X358140000Y-209296000D03*
X360680000Y-206756000D03*
D12*
X358140000Y-206756000D03*
D13*
X359940000Y-260856000D03*
X359940000Y-200916000D03*
X321840000Y-200916000D03*
X321840000Y-260856000D03*
D12*
X320040000Y-206756000D03*
D11*
X322580000Y-206756000D03*
X320040000Y-209296000D03*
X322580000Y-209296000D03*
X320040000Y-211836000D03*
X322580000Y-211836000D03*
X320040000Y-214376000D03*
X322580000Y-214376000D03*
X320040000Y-216916000D03*
X322580000Y-216916000D03*
X320040000Y-219456000D03*
X322580000Y-219456000D03*
X320040000Y-221996000D03*
X322580000Y-221996000D03*
X320040000Y-224536000D03*
X322580000Y-224536000D03*
X320040000Y-227076000D03*
X322580000Y-227076000D03*
X320040000Y-229616000D03*
X322580000Y-229616000D03*
X320040000Y-232156000D03*
X322580000Y-232156000D03*
X320040000Y-234696000D03*
X322580000Y-234696000D03*
X320040000Y-237236000D03*
X322580000Y-237236000D03*
X320040000Y-239776000D03*
X322580000Y-239776000D03*
X320040000Y-242316000D03*
X322580000Y-242316000D03*
X320040000Y-244856000D03*
X322580000Y-244856000D03*
X320040000Y-247396000D03*
X322580000Y-247396000D03*
X320040000Y-249936000D03*
X322580000Y-249936000D03*
X320040000Y-252476000D03*
X322580000Y-252476000D03*
X320040000Y-255016000D03*
X322580000Y-255016000D03*
X284480000Y-255016000D03*
X281940000Y-255016000D03*
X284480000Y-252476000D03*
X281940000Y-252476000D03*
X284480000Y-249936000D03*
X281940000Y-249936000D03*
X284480000Y-247396000D03*
X281940000Y-247396000D03*
X284480000Y-244856000D03*
X281940000Y-244856000D03*
X284480000Y-242316000D03*
X281940000Y-242316000D03*
X284480000Y-239776000D03*
X281940000Y-239776000D03*
X284480000Y-237236000D03*
X281940000Y-237236000D03*
X284480000Y-234696000D03*
X281940000Y-234696000D03*
X284480000Y-232156000D03*
X281940000Y-232156000D03*
X284480000Y-229616000D03*
X281940000Y-229616000D03*
X284480000Y-227076000D03*
X281940000Y-227076000D03*
X284480000Y-224536000D03*
X281940000Y-224536000D03*
X284480000Y-221996000D03*
X281940000Y-221996000D03*
X284480000Y-219456000D03*
X281940000Y-219456000D03*
X284480000Y-216916000D03*
X281940000Y-216916000D03*
X284480000Y-214376000D03*
X281940000Y-214376000D03*
X284480000Y-211836000D03*
X281940000Y-211836000D03*
X284480000Y-209296000D03*
X281940000Y-209296000D03*
X284480000Y-206756000D03*
D12*
X281940000Y-206756000D03*
D13*
X283740000Y-260856000D03*
X283740000Y-200916000D03*
D14*
X278561800Y-297180000D03*
X281736800Y-297180000D03*
X284911800Y-297180000D03*
X288086800Y-297180000D03*
X291261800Y-297180000D03*
X294436800Y-297180000D03*
X297611800Y-297180000D03*
X300786800Y-297180000D03*
X303961800Y-297180000D03*
X307136800Y-297180000D03*
X310311800Y-297180000D03*
X313486800Y-297180000D03*
X316661800Y-297180000D03*
X319836800Y-297180000D03*
X323011800Y-297180000D03*
X326186800Y-297180000D03*
X329361800Y-297180000D03*
X332536800Y-297180000D03*
X402386800Y-297180000D03*
X399211800Y-297180000D03*
X396036800Y-297180000D03*
X392861800Y-297180000D03*
X389686800Y-297180000D03*
X386511800Y-297180000D03*
X383336800Y-297180000D03*
X380161800Y-297180000D03*
X376986800Y-297180000D03*
X373811800Y-297180000D03*
X370636800Y-297180000D03*
X367461800Y-297180000D03*
X364286800Y-297180000D03*
X361111800Y-297180000D03*
X357936800Y-297180000D03*
X354761800Y-297180000D03*
X351586800Y-297180000D03*
X348411800Y-297180000D03*
M02*
