G04 #@! TF.GenerationSoftware,KiCad,Pcbnew,(5.1.10)-1*
G04 #@! TF.CreationDate,2021-09-26T13:37:53-07:00*
G04 #@! TF.ProjectId,m9042-clone,6d393034-322d-4636-9c6f-6e652e6b6963,1*
G04 #@! TF.SameCoordinates,Original*
G04 #@! TF.FileFunction,Copper,L1,Top*
G04 #@! TF.FilePolarity,Positive*
%FSLAX46Y46*%
G04 Gerber Fmt 4.6, Leading zero omitted, Abs format (unit mm)*
G04 Created by KiCad (PCBNEW (5.1.10)-1) date 2021-09-26 13:37:53*
%MOMM*%
%LPD*%
G01*
G04 APERTURE LIST*
G04 #@! TA.AperFunction,ComponentPad*
%ADD10C,1.240000*%
G04 #@! TD*
G04 #@! TA.AperFunction,ComponentPad*
%ADD11R,1.240000X1.240000*%
G04 #@! TD*
G04 #@! TA.AperFunction,ConnectorPad*
%ADD12R,2.032000X13.208000*%
G04 #@! TD*
G04 #@! TA.AperFunction,ViaPad*
%ADD13C,0.800000*%
G04 #@! TD*
G04 #@! TA.AperFunction,ViaPad*
%ADD14C,1.200000*%
G04 #@! TD*
G04 #@! TA.AperFunction,Conductor*
%ADD15C,1.000000*%
G04 #@! TD*
G04 #@! TA.AperFunction,Conductor*
%ADD16C,0.500000*%
G04 #@! TD*
G04 #@! TA.AperFunction,Conductor*
%ADD17C,1.270000*%
G04 #@! TD*
G04 #@! TA.AperFunction,Conductor*
%ADD18C,0.100000*%
G04 #@! TD*
G04 APERTURE END LIST*
D10*
X360680000Y-255016000D03*
X358140000Y-255016000D03*
X360680000Y-252476000D03*
X358140000Y-252476000D03*
X360680000Y-249936000D03*
X358140000Y-249936000D03*
X360680000Y-247396000D03*
X358140000Y-247396000D03*
X360680000Y-244856000D03*
X358140000Y-244856000D03*
X360680000Y-242316000D03*
X358140000Y-242316000D03*
X360680000Y-239776000D03*
X358140000Y-239776000D03*
X360680000Y-237236000D03*
X358140000Y-237236000D03*
X360680000Y-234696000D03*
X358140000Y-234696000D03*
X360680000Y-232156000D03*
X358140000Y-232156000D03*
X360680000Y-229616000D03*
X358140000Y-229616000D03*
X360680000Y-227076000D03*
X358140000Y-227076000D03*
X360680000Y-224536000D03*
X358140000Y-224536000D03*
X360680000Y-221996000D03*
X358140000Y-221996000D03*
X360680000Y-219456000D03*
X358140000Y-219456000D03*
X360680000Y-216916000D03*
X358140000Y-216916000D03*
X360680000Y-214376000D03*
X358140000Y-214376000D03*
X360680000Y-211836000D03*
X358140000Y-211836000D03*
X360680000Y-209296000D03*
X358140000Y-209296000D03*
X360680000Y-206756000D03*
D11*
X358140000Y-206756000D03*
X320040000Y-206756000D03*
D10*
X322580000Y-206756000D03*
X320040000Y-209296000D03*
X322580000Y-209296000D03*
X320040000Y-211836000D03*
X322580000Y-211836000D03*
X320040000Y-214376000D03*
X322580000Y-214376000D03*
X320040000Y-216916000D03*
X322580000Y-216916000D03*
X320040000Y-219456000D03*
X322580000Y-219456000D03*
X320040000Y-221996000D03*
X322580000Y-221996000D03*
X320040000Y-224536000D03*
X322580000Y-224536000D03*
X320040000Y-227076000D03*
X322580000Y-227076000D03*
X320040000Y-229616000D03*
X322580000Y-229616000D03*
X320040000Y-232156000D03*
X322580000Y-232156000D03*
X320040000Y-234696000D03*
X322580000Y-234696000D03*
X320040000Y-237236000D03*
X322580000Y-237236000D03*
X320040000Y-239776000D03*
X322580000Y-239776000D03*
X320040000Y-242316000D03*
X322580000Y-242316000D03*
X320040000Y-244856000D03*
X322580000Y-244856000D03*
X320040000Y-247396000D03*
X322580000Y-247396000D03*
X320040000Y-249936000D03*
X322580000Y-249936000D03*
X320040000Y-252476000D03*
X322580000Y-252476000D03*
X320040000Y-255016000D03*
X322580000Y-255016000D03*
X284480000Y-255016000D03*
X281940000Y-255016000D03*
X284480000Y-252476000D03*
X281940000Y-252476000D03*
X284480000Y-249936000D03*
X281940000Y-249936000D03*
X284480000Y-247396000D03*
X281940000Y-247396000D03*
X284480000Y-244856000D03*
X281940000Y-244856000D03*
X284480000Y-242316000D03*
X281940000Y-242316000D03*
X284480000Y-239776000D03*
X281940000Y-239776000D03*
X284480000Y-237236000D03*
X281940000Y-237236000D03*
X284480000Y-234696000D03*
X281940000Y-234696000D03*
X284480000Y-232156000D03*
X281940000Y-232156000D03*
X284480000Y-229616000D03*
X281940000Y-229616000D03*
X284480000Y-227076000D03*
X281940000Y-227076000D03*
X284480000Y-224536000D03*
X281940000Y-224536000D03*
X284480000Y-221996000D03*
X281940000Y-221996000D03*
X284480000Y-219456000D03*
X281940000Y-219456000D03*
X284480000Y-216916000D03*
X281940000Y-216916000D03*
X284480000Y-214376000D03*
X281940000Y-214376000D03*
X284480000Y-211836000D03*
X281940000Y-211836000D03*
X284480000Y-209296000D03*
X281940000Y-209296000D03*
X284480000Y-206756000D03*
D11*
X281940000Y-206756000D03*
D12*
X278561800Y-297180000D03*
X281736800Y-297180000D03*
X284911800Y-297180000D03*
X288086800Y-297180000D03*
X291261800Y-297180000D03*
X294436800Y-297180000D03*
X297611800Y-297180000D03*
X300786800Y-297180000D03*
X303961800Y-297180000D03*
X307136800Y-297180000D03*
X310311800Y-297180000D03*
X313486800Y-297180000D03*
X316661800Y-297180000D03*
X319836800Y-297180000D03*
X323011800Y-297180000D03*
X326186800Y-297180000D03*
X329361800Y-297180000D03*
X332536800Y-297180000D03*
X402386800Y-297180000D03*
X399211800Y-297180000D03*
X396036800Y-297180000D03*
X392861800Y-297180000D03*
X389686800Y-297180000D03*
X386511800Y-297180000D03*
X383336800Y-297180000D03*
X380161800Y-297180000D03*
X376986800Y-297180000D03*
X373811800Y-297180000D03*
X370636800Y-297180000D03*
X367461800Y-297180000D03*
X364286800Y-297180000D03*
X361111800Y-297180000D03*
X357936800Y-297180000D03*
X354761800Y-297180000D03*
X351586800Y-297180000D03*
X348411800Y-297180000D03*
D13*
X329438000Y-206756000D03*
X327850500Y-208026000D03*
D14*
X329361798Y-286969200D03*
X348411800Y-286969200D03*
X326186798Y-286969200D03*
X396036800Y-287020000D03*
X404139400Y-287020000D03*
X276885400Y-284454600D03*
X283337000Y-271297400D03*
X320421000Y-268097000D03*
X349986600Y-265607800D03*
X365277400Y-276682200D03*
X312724800Y-248488200D03*
X304241200Y-220827600D03*
X337210400Y-215823800D03*
X279273000Y-204520800D03*
X326364600Y-204647800D03*
X401193000Y-204647800D03*
X401269200Y-237413800D03*
X364058200Y-204698600D03*
D13*
X332613000Y-233426000D03*
X331025500Y-230886000D03*
X311899300Y-251206000D03*
X308724300Y-246126000D03*
X305549300Y-241046000D03*
X302374300Y-235966000D03*
X299199300Y-230886000D03*
X296024300Y-225806000D03*
X292849300Y-220726000D03*
X289674300Y-215646000D03*
X315087004Y-266674600D03*
X280162000Y-289052004D03*
X342138000Y-243586000D03*
X343725500Y-248666000D03*
X345313000Y-253746000D03*
X351790000Y-210566000D03*
X353377500Y-225806000D03*
X367461800Y-210566000D03*
X369049300Y-213106000D03*
X372224300Y-218186000D03*
X375399300Y-223266000D03*
X378574300Y-228346000D03*
X381749300Y-233426000D03*
X384924300Y-238506000D03*
X388099300Y-243586000D03*
X391274300Y-248666000D03*
X316611000Y-264109200D03*
X318262000Y-269138400D03*
X288086800Y-289052000D03*
X288086800Y-213106000D03*
X291261800Y-289052000D03*
X291261800Y-218186000D03*
X294436800Y-289052000D03*
X294436800Y-223266000D03*
X297611800Y-289052000D03*
X297611800Y-228346000D03*
X300786800Y-289052000D03*
X300786800Y-233426000D03*
X303961800Y-289052000D03*
X303961800Y-238506000D03*
X307136800Y-289052000D03*
X307136800Y-243586000D03*
X310311800Y-289052000D03*
X310311800Y-248666000D03*
X313486800Y-289052000D03*
X313486800Y-253746000D03*
X316661800Y-289052000D03*
X327774300Y-289052000D03*
X334200500Y-238506000D03*
X330949300Y-289052000D03*
X335788000Y-235966000D03*
X332536800Y-289052000D03*
X337375500Y-241046000D03*
X354965000Y-265176000D03*
X354965000Y-228346000D03*
X356552500Y-267716000D03*
X356552500Y-220726000D03*
X394449300Y-289052000D03*
X394449300Y-253746000D03*
X392861800Y-289052000D03*
X392861800Y-251206000D03*
X389686800Y-289052000D03*
X389686800Y-246126000D03*
X386511800Y-289052000D03*
X386511800Y-241046000D03*
X383336800Y-289052000D03*
X383336800Y-235966000D03*
X380161800Y-289052000D03*
X380161800Y-230886000D03*
X376986800Y-289052000D03*
X376986800Y-225806000D03*
X373811800Y-289052000D03*
X373811800Y-220726000D03*
X370636800Y-289052000D03*
X370636800Y-215646000D03*
X351586800Y-289052000D03*
X340550500Y-251206000D03*
X349999300Y-289052000D03*
X338963000Y-246126000D03*
D15*
X358140000Y-209296000D02*
X360680000Y-209296000D01*
X284911800Y-291338000D02*
X284911800Y-286969200D01*
X319836800Y-291338000D02*
X319836800Y-286867600D01*
X323011800Y-291338000D02*
X323011800Y-286943800D01*
X354761800Y-291338000D02*
X354761800Y-286664400D01*
X357936800Y-291338000D02*
X357936800Y-286664400D01*
X361111800Y-291338000D02*
X361111800Y-286664400D01*
X364286800Y-291338000D02*
X364286800Y-286664400D01*
X367461800Y-291338000D02*
X367461800Y-286664400D01*
D16*
X321310000Y-233426000D02*
X320040000Y-234696000D01*
X332613000Y-233426000D02*
X321310000Y-233426000D01*
X321310000Y-230886000D02*
X320040000Y-232156000D01*
X331025500Y-230886000D02*
X321310000Y-230886000D01*
X321310000Y-208026000D02*
X320040000Y-206756000D01*
X327850500Y-208026000D02*
X321310000Y-208026000D01*
X283210000Y-251206000D02*
X281940000Y-252476000D01*
X311899300Y-251206000D02*
X283210000Y-251206000D01*
X283210000Y-246126000D02*
X281940000Y-247396000D01*
X308724300Y-246126000D02*
X283210000Y-246126000D01*
X283210000Y-241046000D02*
X281940000Y-242316000D01*
X305549300Y-241046000D02*
X283210000Y-241046000D01*
X283210000Y-235966000D02*
X281940000Y-237236000D01*
X302374300Y-235966000D02*
X283210000Y-235966000D01*
X283210000Y-230886000D02*
X281940000Y-232156000D01*
X299199300Y-230886000D02*
X283210000Y-230886000D01*
X283210000Y-225806000D02*
X281940000Y-227076000D01*
X296024300Y-225806000D02*
X283210000Y-225806000D01*
X283210000Y-220726000D02*
X281940000Y-221996000D01*
X292849300Y-220726000D02*
X283210000Y-220726000D01*
X283210000Y-215646000D02*
X281940000Y-216916000D01*
X289674300Y-215646000D02*
X283210000Y-215646000D01*
X282321000Y-266674600D02*
X280162000Y-268833600D01*
X280162000Y-268833600D02*
X280162000Y-289052004D01*
X315087004Y-266674600D02*
X282321000Y-266674600D01*
X321310000Y-243586000D02*
X320040000Y-244856000D01*
X342138000Y-243586000D02*
X321310000Y-243586000D01*
X321310000Y-248666000D02*
X320040000Y-249936000D01*
X343725500Y-248666000D02*
X321310000Y-248666000D01*
X321310000Y-253746000D02*
X320040000Y-255016000D01*
X345313000Y-253746000D02*
X321310000Y-253746000D01*
X321310000Y-210566000D02*
X320040000Y-209296000D01*
X351790000Y-210566000D02*
X321310000Y-210566000D01*
X321310000Y-225806000D02*
X320040000Y-227076000D01*
X353377500Y-225806000D02*
X321310000Y-225806000D01*
X359410000Y-210566000D02*
X358140000Y-211836000D01*
X367461800Y-210566000D02*
X359410000Y-210566000D01*
X359410000Y-213106000D02*
X358140000Y-214376000D01*
X369049300Y-213106000D02*
X359410000Y-213106000D01*
X359410000Y-218186000D02*
X358140000Y-219456000D01*
X372224300Y-218186000D02*
X359410000Y-218186000D01*
X359410000Y-223266000D02*
X358140000Y-224536000D01*
X375399300Y-223266000D02*
X359410000Y-223266000D01*
X359410000Y-228346000D02*
X358140000Y-229616000D01*
X378574300Y-228346000D02*
X359410000Y-228346000D01*
X359410000Y-233426000D02*
X358140000Y-234696000D01*
X381749300Y-233426000D02*
X359410000Y-233426000D01*
X359410000Y-238506000D02*
X358140000Y-239776000D01*
X384924300Y-238506000D02*
X359410000Y-238506000D01*
X359410000Y-243586000D02*
X358140000Y-244856000D01*
X388099300Y-243586000D02*
X359410000Y-243586000D01*
X359410000Y-248666000D02*
X358140000Y-249936000D01*
X391274300Y-248666000D02*
X359410000Y-248666000D01*
X282752800Y-264109200D02*
X316611000Y-264109200D01*
X278561800Y-268300200D02*
X282752800Y-264109200D01*
X278561800Y-291338000D02*
X278561800Y-268300200D01*
X317696315Y-269138400D02*
X318262000Y-269138400D01*
X282575000Y-269138400D02*
X317696315Y-269138400D01*
X281736800Y-269976600D02*
X282575000Y-269138400D01*
X281736800Y-291338000D02*
X281736800Y-269976600D01*
X283210000Y-213106000D02*
X281940000Y-214376000D01*
X288086800Y-213106000D02*
X283210000Y-213106000D01*
X288086800Y-291338000D02*
X288086800Y-289052000D01*
X283210000Y-218186000D02*
X281940000Y-219456000D01*
X291261800Y-218186000D02*
X283210000Y-218186000D01*
X291261800Y-289052000D02*
X291261800Y-291338000D01*
X283210000Y-223266000D02*
X281940000Y-224536000D01*
X294436800Y-223266000D02*
X283210000Y-223266000D01*
X294436800Y-289052000D02*
X294436800Y-291338000D01*
X283210000Y-228346000D02*
X281940000Y-229616000D01*
X297611800Y-228346000D02*
X283210000Y-228346000D01*
X297611800Y-289052000D02*
X297611800Y-291338000D01*
X283210000Y-233426000D02*
X281940000Y-234696000D01*
X300786800Y-233426000D02*
X283210000Y-233426000D01*
X300786800Y-289052000D02*
X300786800Y-291338000D01*
X283210000Y-238506000D02*
X281940000Y-239776000D01*
X303961800Y-238506000D02*
X283210000Y-238506000D01*
X303961800Y-289052000D02*
X303961800Y-291338000D01*
X283210000Y-243586000D02*
X281940000Y-244856000D01*
X307136800Y-243586000D02*
X283210000Y-243586000D01*
X307136800Y-289052000D02*
X307136800Y-291338000D01*
X283210000Y-248666000D02*
X281940000Y-249936000D01*
X310311800Y-248666000D02*
X283210000Y-248666000D01*
X310311800Y-289052000D02*
X310311800Y-291338000D01*
X283210000Y-253746000D02*
X281940000Y-255016000D01*
X313486800Y-253746000D02*
X283210000Y-253746000D01*
X313486800Y-289052000D02*
X313486800Y-291338000D01*
X316661800Y-291338000D02*
X316661800Y-289052000D01*
X358140000Y-206756000D02*
X329438000Y-206756000D01*
X321310000Y-238506000D02*
X320040000Y-239776000D01*
X334200500Y-238506000D02*
X321310000Y-238506000D01*
X327774300Y-289750500D02*
X326186800Y-291338000D01*
X327774300Y-289052000D02*
X327774300Y-289750500D01*
X321310000Y-235966000D02*
X320040000Y-237236000D01*
X335788000Y-235966000D02*
X321310000Y-235966000D01*
X330949300Y-289750500D02*
X329361800Y-291338000D01*
X330949300Y-289052000D02*
X330949300Y-289750500D01*
X321310000Y-241046000D02*
X320040000Y-242316000D01*
X337375500Y-241046000D02*
X321310000Y-241046000D01*
X332536800Y-291338000D02*
X332536800Y-289052000D01*
X321310000Y-228346000D02*
X320040000Y-229616000D01*
X354965000Y-228346000D02*
X321310000Y-228346000D01*
X354965000Y-265176000D02*
X398627600Y-265176000D01*
X402386800Y-268935200D02*
X402386800Y-291338000D01*
X398627600Y-265176000D02*
X402386800Y-268935200D01*
X321310000Y-220726000D02*
X320040000Y-221996000D01*
X356552500Y-220726000D02*
X321310000Y-220726000D01*
X400837400Y-289712400D02*
X399211800Y-291338000D01*
X400837400Y-271424400D02*
X400837400Y-289712400D01*
X397129000Y-267716000D02*
X400837400Y-271424400D01*
X356552500Y-267716000D02*
X397129000Y-267716000D01*
X359410000Y-253746000D02*
X358140000Y-255016000D01*
X394449300Y-289750500D02*
X396036800Y-291338000D01*
X394449300Y-289052000D02*
X394449300Y-289750500D01*
X359410000Y-253746000D02*
X394449300Y-253746000D01*
X359410000Y-251206000D02*
X358140000Y-252476000D01*
X392861800Y-251206000D02*
X359410000Y-251206000D01*
X392861800Y-289052000D02*
X392861800Y-291338000D01*
X359410000Y-246126000D02*
X358140000Y-247396000D01*
X389686800Y-246126000D02*
X359410000Y-246126000D01*
X389686800Y-289052000D02*
X389686800Y-291338000D01*
X359410000Y-241046000D02*
X358140000Y-242316000D01*
X386511800Y-241046000D02*
X359410000Y-241046000D01*
X386511800Y-289052000D02*
X386511800Y-291338000D01*
X359410000Y-235966000D02*
X358140000Y-237236000D01*
X383336800Y-235966000D02*
X359410000Y-235966000D01*
X383336800Y-289052000D02*
X383336800Y-291338000D01*
X359410000Y-230886000D02*
X358140000Y-232156000D01*
X380161800Y-230886000D02*
X359410000Y-230886000D01*
X380161800Y-289052000D02*
X380161800Y-291338000D01*
X359410000Y-225806000D02*
X358140000Y-227076000D01*
X376986800Y-225806000D02*
X359410000Y-225806000D01*
X376986800Y-289052000D02*
X376986800Y-291338000D01*
X359410000Y-220726000D02*
X358140000Y-221996000D01*
X373811800Y-220726000D02*
X359410000Y-220726000D01*
X373811800Y-289052000D02*
X373811800Y-291338000D01*
X359410000Y-215646000D02*
X358140000Y-216916000D01*
X370636800Y-215646000D02*
X359410000Y-215646000D01*
X370636800Y-289052000D02*
X370636800Y-291338000D01*
X351586800Y-291338000D02*
X351586800Y-289052000D01*
X321310000Y-251206000D02*
X320040000Y-252476000D01*
X340550500Y-251206000D02*
X321310000Y-251206000D01*
X321310000Y-246126000D02*
X320040000Y-247396000D01*
X338963000Y-246126000D02*
X321310000Y-246126000D01*
X349999300Y-289750500D02*
X348411800Y-291338000D01*
X349999300Y-289052000D02*
X349999300Y-289750500D01*
D17*
X404495000Y-192430213D02*
X404495000Y-287248366D01*
X403779800Y-287248102D01*
X403779800Y-269003631D01*
X403786540Y-268935200D01*
X403759644Y-268662124D01*
X403679991Y-268399542D01*
X403550641Y-268157546D01*
X403420188Y-267998588D01*
X403420185Y-267998585D01*
X403376565Y-267945434D01*
X403323415Y-267901815D01*
X399660998Y-264239400D01*
X399617366Y-264186234D01*
X399405254Y-264012159D01*
X399163257Y-263882809D01*
X398900676Y-263803156D01*
X398696031Y-263783000D01*
X398627600Y-263776260D01*
X398559169Y-263783000D01*
X355634054Y-263783000D01*
X355415077Y-263692297D01*
X355116972Y-263633000D01*
X354813028Y-263633000D01*
X354514923Y-263692297D01*
X354234115Y-263808611D01*
X353981395Y-263977474D01*
X353766474Y-264192395D01*
X353597611Y-264445115D01*
X353481297Y-264725923D01*
X353422000Y-265024028D01*
X353422000Y-265327972D01*
X353481297Y-265626077D01*
X353597611Y-265906885D01*
X353766474Y-266159605D01*
X353981395Y-266374526D01*
X354234115Y-266543389D01*
X354514923Y-266659703D01*
X354813028Y-266719000D01*
X355116972Y-266719000D01*
X355415077Y-266659703D01*
X355434861Y-266651508D01*
X355353974Y-266732395D01*
X355185111Y-266985115D01*
X355068797Y-267265923D01*
X355009500Y-267564028D01*
X355009500Y-267867972D01*
X355068797Y-268166077D01*
X355185111Y-268446885D01*
X355353974Y-268699605D01*
X355568895Y-268914526D01*
X355821615Y-269083389D01*
X356102423Y-269199703D01*
X356400528Y-269259000D01*
X356704472Y-269259000D01*
X357002577Y-269199703D01*
X357221554Y-269109000D01*
X396552002Y-269109000D01*
X399444400Y-272001400D01*
X399444401Y-287246504D01*
X348170500Y-287227605D01*
X348170500Y-286444263D01*
X348176337Y-286385000D01*
X348153042Y-286148485D01*
X348084053Y-285921059D01*
X347972021Y-285711462D01*
X347821252Y-285527748D01*
X347637538Y-285376979D01*
X347427941Y-285264947D01*
X347200515Y-285195958D01*
X347023263Y-285178500D01*
X346964000Y-285172663D01*
X346904737Y-285178500D01*
X343467263Y-285178500D01*
X343408000Y-285172663D01*
X343348737Y-285178500D01*
X343171485Y-285195958D01*
X342944059Y-285264947D01*
X342734462Y-285376979D01*
X342550748Y-285527748D01*
X342399979Y-285711462D01*
X342287947Y-285921059D01*
X342218958Y-286148485D01*
X342195663Y-286385000D01*
X342201501Y-286444273D01*
X342201500Y-287225405D01*
X283129800Y-287203632D01*
X283129800Y-270553598D01*
X283151998Y-270531400D01*
X317592946Y-270531400D01*
X317811923Y-270622103D01*
X318110028Y-270681400D01*
X318413972Y-270681400D01*
X318712077Y-270622103D01*
X318992885Y-270505789D01*
X319245605Y-270336926D01*
X319460526Y-270122005D01*
X319629389Y-269869285D01*
X319745703Y-269588477D01*
X319805000Y-269290372D01*
X319805000Y-268986428D01*
X319745703Y-268688323D01*
X319629389Y-268407515D01*
X319460526Y-268154795D01*
X319245605Y-267939874D01*
X318992885Y-267771011D01*
X318712077Y-267654697D01*
X318413972Y-267595400D01*
X318110028Y-267595400D01*
X317811923Y-267654697D01*
X317592946Y-267745400D01*
X316198335Y-267745400D01*
X316285530Y-267658205D01*
X316454393Y-267405485D01*
X316570707Y-267124677D01*
X316630004Y-266826572D01*
X316630004Y-266522628D01*
X316570707Y-266224523D01*
X316454393Y-265943715D01*
X316285530Y-265690995D01*
X316194022Y-265599487D01*
X316459028Y-265652200D01*
X316762972Y-265652200D01*
X317061077Y-265592903D01*
X317341885Y-265476589D01*
X317594605Y-265307726D01*
X317809526Y-265092805D01*
X317978389Y-264840085D01*
X318094703Y-264559277D01*
X318154000Y-264261172D01*
X318154000Y-263957228D01*
X318094703Y-263659123D01*
X317978389Y-263378315D01*
X317809526Y-263125595D01*
X317594605Y-262910674D01*
X317341885Y-262741811D01*
X317061077Y-262625497D01*
X316762972Y-262566200D01*
X316459028Y-262566200D01*
X316160923Y-262625497D01*
X315941946Y-262716200D01*
X285398363Y-262716200D01*
X285672556Y-262442007D01*
X285944837Y-262034510D01*
X286132387Y-261581723D01*
X286228000Y-261101047D01*
X286228000Y-260610953D01*
X319352000Y-260610953D01*
X319352000Y-261101047D01*
X319447613Y-261581723D01*
X319635163Y-262034510D01*
X319907444Y-262442007D01*
X320253993Y-262788556D01*
X320661490Y-263060837D01*
X321114277Y-263248387D01*
X321594953Y-263344000D01*
X322085047Y-263344000D01*
X322565723Y-263248387D01*
X323018510Y-263060837D01*
X323426007Y-262788556D01*
X323772556Y-262442007D01*
X324044837Y-262034510D01*
X324232387Y-261581723D01*
X324328000Y-261101047D01*
X324328000Y-260610953D01*
X357452000Y-260610953D01*
X357452000Y-261101047D01*
X357547613Y-261581723D01*
X357735163Y-262034510D01*
X358007444Y-262442007D01*
X358353993Y-262788556D01*
X358761490Y-263060837D01*
X359214277Y-263248387D01*
X359694953Y-263344000D01*
X360185047Y-263344000D01*
X360665723Y-263248387D01*
X361118510Y-263060837D01*
X361526007Y-262788556D01*
X361872556Y-262442007D01*
X362144837Y-262034510D01*
X362332387Y-261581723D01*
X362428000Y-261101047D01*
X362428000Y-260610953D01*
X362332387Y-260130277D01*
X362144837Y-259677490D01*
X361872556Y-259269993D01*
X361526007Y-258923444D01*
X361118510Y-258651163D01*
X360665723Y-258463613D01*
X360185047Y-258368000D01*
X359694953Y-258368000D01*
X359214277Y-258463613D01*
X358761490Y-258651163D01*
X358353993Y-258923444D01*
X358007444Y-259269993D01*
X357735163Y-259677490D01*
X357547613Y-260130277D01*
X357452000Y-260610953D01*
X324328000Y-260610953D01*
X324232387Y-260130277D01*
X324044837Y-259677490D01*
X323772556Y-259269993D01*
X323426007Y-258923444D01*
X323018510Y-258651163D01*
X322565723Y-258463613D01*
X322085047Y-258368000D01*
X321594953Y-258368000D01*
X321114277Y-258463613D01*
X320661490Y-258651163D01*
X320253993Y-258923444D01*
X319907444Y-259269993D01*
X319635163Y-259677490D01*
X319447613Y-260130277D01*
X319352000Y-260610953D01*
X286228000Y-260610953D01*
X286132387Y-260130277D01*
X285944837Y-259677490D01*
X285672556Y-259269993D01*
X285326007Y-258923444D01*
X284918510Y-258651163D01*
X284465723Y-258463613D01*
X283985047Y-258368000D01*
X283494953Y-258368000D01*
X283014277Y-258463613D01*
X282561490Y-258651163D01*
X282153993Y-258923444D01*
X281807444Y-259269993D01*
X281535163Y-259677490D01*
X281347613Y-260130277D01*
X281252000Y-260610953D01*
X281252000Y-261101047D01*
X281347613Y-261581723D01*
X281535163Y-262034510D01*
X281807444Y-262442007D01*
X282153993Y-262788556D01*
X282204885Y-262822561D01*
X281975146Y-262945359D01*
X281763034Y-263119434D01*
X281719406Y-263172595D01*
X277625195Y-267266807D01*
X277572035Y-267310434D01*
X277463304Y-267442924D01*
X277397959Y-267522547D01*
X277268610Y-267764543D01*
X277188956Y-268027125D01*
X277162060Y-268300200D01*
X277168801Y-268368641D01*
X277168800Y-285178060D01*
X277114000Y-285172663D01*
X277054737Y-285178500D01*
X276555200Y-285178500D01*
X276555200Y-209122360D01*
X280177000Y-209122360D01*
X280177000Y-209469640D01*
X280244751Y-209810248D01*
X280377650Y-210131093D01*
X280570589Y-210419847D01*
X280716742Y-210566000D01*
X280570589Y-210712153D01*
X280377650Y-211000907D01*
X280244751Y-211321752D01*
X280177000Y-211662360D01*
X280177000Y-212009640D01*
X280244751Y-212350248D01*
X280377650Y-212671093D01*
X280570589Y-212959847D01*
X280716742Y-213106000D01*
X280570589Y-213252153D01*
X280377650Y-213540907D01*
X280244751Y-213861752D01*
X280177000Y-214202360D01*
X280177000Y-214549640D01*
X280244751Y-214890248D01*
X280377650Y-215211093D01*
X280570589Y-215499847D01*
X280716742Y-215646000D01*
X280570589Y-215792153D01*
X280377650Y-216080907D01*
X280244751Y-216401752D01*
X280177000Y-216742360D01*
X280177000Y-217089640D01*
X280244751Y-217430248D01*
X280377650Y-217751093D01*
X280570589Y-218039847D01*
X280716742Y-218186000D01*
X280570589Y-218332153D01*
X280377650Y-218620907D01*
X280244751Y-218941752D01*
X280177000Y-219282360D01*
X280177000Y-219629640D01*
X280244751Y-219970248D01*
X280377650Y-220291093D01*
X280570589Y-220579847D01*
X280716742Y-220726000D01*
X280570589Y-220872153D01*
X280377650Y-221160907D01*
X280244751Y-221481752D01*
X280177000Y-221822360D01*
X280177000Y-222169640D01*
X280244751Y-222510248D01*
X280377650Y-222831093D01*
X280570589Y-223119847D01*
X280716742Y-223266000D01*
X280570589Y-223412153D01*
X280377650Y-223700907D01*
X280244751Y-224021752D01*
X280177000Y-224362360D01*
X280177000Y-224709640D01*
X280244751Y-225050248D01*
X280377650Y-225371093D01*
X280570589Y-225659847D01*
X280716742Y-225806000D01*
X280570589Y-225952153D01*
X280377650Y-226240907D01*
X280244751Y-226561752D01*
X280177000Y-226902360D01*
X280177000Y-227249640D01*
X280244751Y-227590248D01*
X280377650Y-227911093D01*
X280570589Y-228199847D01*
X280716742Y-228346000D01*
X280570589Y-228492153D01*
X280377650Y-228780907D01*
X280244751Y-229101752D01*
X280177000Y-229442360D01*
X280177000Y-229789640D01*
X280244751Y-230130248D01*
X280377650Y-230451093D01*
X280570589Y-230739847D01*
X280716742Y-230886000D01*
X280570589Y-231032153D01*
X280377650Y-231320907D01*
X280244751Y-231641752D01*
X280177000Y-231982360D01*
X280177000Y-232329640D01*
X280244751Y-232670248D01*
X280377650Y-232991093D01*
X280570589Y-233279847D01*
X280716742Y-233426000D01*
X280570589Y-233572153D01*
X280377650Y-233860907D01*
X280244751Y-234181752D01*
X280177000Y-234522360D01*
X280177000Y-234869640D01*
X280244751Y-235210248D01*
X280377650Y-235531093D01*
X280570589Y-235819847D01*
X280716742Y-235966000D01*
X280570589Y-236112153D01*
X280377650Y-236400907D01*
X280244751Y-236721752D01*
X280177000Y-237062360D01*
X280177000Y-237409640D01*
X280244751Y-237750248D01*
X280377650Y-238071093D01*
X280570589Y-238359847D01*
X280716742Y-238506000D01*
X280570589Y-238652153D01*
X280377650Y-238940907D01*
X280244751Y-239261752D01*
X280177000Y-239602360D01*
X280177000Y-239949640D01*
X280244751Y-240290248D01*
X280377650Y-240611093D01*
X280570589Y-240899847D01*
X280716742Y-241046000D01*
X280570589Y-241192153D01*
X280377650Y-241480907D01*
X280244751Y-241801752D01*
X280177000Y-242142360D01*
X280177000Y-242489640D01*
X280244751Y-242830248D01*
X280377650Y-243151093D01*
X280570589Y-243439847D01*
X280716742Y-243586000D01*
X280570589Y-243732153D01*
X280377650Y-244020907D01*
X280244751Y-244341752D01*
X280177000Y-244682360D01*
X280177000Y-245029640D01*
X280244751Y-245370248D01*
X280377650Y-245691093D01*
X280570589Y-245979847D01*
X280716742Y-246126000D01*
X280570589Y-246272153D01*
X280377650Y-246560907D01*
X280244751Y-246881752D01*
X280177000Y-247222360D01*
X280177000Y-247569640D01*
X280244751Y-247910248D01*
X280377650Y-248231093D01*
X280570589Y-248519847D01*
X280716742Y-248666000D01*
X280570589Y-248812153D01*
X280377650Y-249100907D01*
X280244751Y-249421752D01*
X280177000Y-249762360D01*
X280177000Y-250109640D01*
X280244751Y-250450248D01*
X280377650Y-250771093D01*
X280570589Y-251059847D01*
X280716742Y-251206000D01*
X280570589Y-251352153D01*
X280377650Y-251640907D01*
X280244751Y-251961752D01*
X280177000Y-252302360D01*
X280177000Y-252649640D01*
X280244751Y-252990248D01*
X280377650Y-253311093D01*
X280570589Y-253599847D01*
X280716742Y-253746000D01*
X280570589Y-253892153D01*
X280377650Y-254180907D01*
X280244751Y-254501752D01*
X280177000Y-254842360D01*
X280177000Y-255189640D01*
X280244751Y-255530248D01*
X280377650Y-255851093D01*
X280570589Y-256139847D01*
X280816153Y-256385411D01*
X281104907Y-256578350D01*
X281425752Y-256711249D01*
X281766360Y-256779000D01*
X282113640Y-256779000D01*
X282454248Y-256711249D01*
X282775093Y-256578350D01*
X283063847Y-256385411D01*
X283309411Y-256139847D01*
X283502350Y-255851093D01*
X283635249Y-255530248D01*
X283694717Y-255231282D01*
X283786999Y-255139000D01*
X312817746Y-255139000D01*
X313036723Y-255229703D01*
X313334828Y-255289000D01*
X313638772Y-255289000D01*
X313936877Y-255229703D01*
X314217685Y-255113389D01*
X314470405Y-254944526D01*
X314685326Y-254729605D01*
X314854189Y-254476885D01*
X314970503Y-254196077D01*
X315029800Y-253897972D01*
X315029800Y-253594028D01*
X314970503Y-253295923D01*
X314854189Y-253015115D01*
X314685326Y-252762395D01*
X314470405Y-252547474D01*
X314217685Y-252378611D01*
X313936877Y-252262297D01*
X313638772Y-252203000D01*
X313334828Y-252203000D01*
X313036723Y-252262297D01*
X313016939Y-252270492D01*
X313097826Y-252189605D01*
X313266689Y-251936885D01*
X313383003Y-251656077D01*
X313442300Y-251357972D01*
X313442300Y-251054028D01*
X313383003Y-250755923D01*
X313266689Y-250475115D01*
X313097826Y-250222395D01*
X312882905Y-250007474D01*
X312630185Y-249838611D01*
X312349377Y-249722297D01*
X312051272Y-249663000D01*
X311747328Y-249663000D01*
X311449223Y-249722297D01*
X311429439Y-249730492D01*
X311510326Y-249649605D01*
X311679189Y-249396885D01*
X311795503Y-249116077D01*
X311854800Y-248817972D01*
X311854800Y-248514028D01*
X311795503Y-248215923D01*
X311679189Y-247935115D01*
X311510326Y-247682395D01*
X311295405Y-247467474D01*
X311042685Y-247298611D01*
X310761877Y-247182297D01*
X310463772Y-247123000D01*
X310159828Y-247123000D01*
X309861723Y-247182297D01*
X309841939Y-247190492D01*
X309922826Y-247109605D01*
X310091689Y-246856885D01*
X310208003Y-246576077D01*
X310267300Y-246277972D01*
X310267300Y-245974028D01*
X310208003Y-245675923D01*
X310091689Y-245395115D01*
X309922826Y-245142395D01*
X309707905Y-244927474D01*
X309455185Y-244758611D01*
X309174377Y-244642297D01*
X308876272Y-244583000D01*
X308572328Y-244583000D01*
X308274223Y-244642297D01*
X308254439Y-244650492D01*
X308335326Y-244569605D01*
X308504189Y-244316885D01*
X308620503Y-244036077D01*
X308679800Y-243737972D01*
X308679800Y-243434028D01*
X308620503Y-243135923D01*
X308504189Y-242855115D01*
X308335326Y-242602395D01*
X308120405Y-242387474D01*
X307867685Y-242218611D01*
X307586877Y-242102297D01*
X307288772Y-242043000D01*
X306984828Y-242043000D01*
X306686723Y-242102297D01*
X306666939Y-242110492D01*
X306747826Y-242029605D01*
X306916689Y-241776885D01*
X307033003Y-241496077D01*
X307092300Y-241197972D01*
X307092300Y-240894028D01*
X307033003Y-240595923D01*
X306916689Y-240315115D01*
X306747826Y-240062395D01*
X306532905Y-239847474D01*
X306280185Y-239678611D01*
X305999377Y-239562297D01*
X305701272Y-239503000D01*
X305397328Y-239503000D01*
X305099223Y-239562297D01*
X305079439Y-239570492D01*
X305160326Y-239489605D01*
X305329189Y-239236885D01*
X305445503Y-238956077D01*
X305504800Y-238657972D01*
X305504800Y-238354028D01*
X305445503Y-238055923D01*
X305329189Y-237775115D01*
X305160326Y-237522395D01*
X304945405Y-237307474D01*
X304692685Y-237138611D01*
X304411877Y-237022297D01*
X304113772Y-236963000D01*
X303809828Y-236963000D01*
X303511723Y-237022297D01*
X303491939Y-237030492D01*
X303572826Y-236949605D01*
X303741689Y-236696885D01*
X303858003Y-236416077D01*
X303917300Y-236117972D01*
X303917300Y-235814028D01*
X303858003Y-235515923D01*
X303741689Y-235235115D01*
X303572826Y-234982395D01*
X303357905Y-234767474D01*
X303105185Y-234598611D01*
X302824377Y-234482297D01*
X302526272Y-234423000D01*
X302222328Y-234423000D01*
X301924223Y-234482297D01*
X301904439Y-234490492D01*
X301985326Y-234409605D01*
X302154189Y-234156885D01*
X302270503Y-233876077D01*
X302329800Y-233577972D01*
X302329800Y-233274028D01*
X302270503Y-232975923D01*
X302154189Y-232695115D01*
X301985326Y-232442395D01*
X301770405Y-232227474D01*
X301517685Y-232058611D01*
X301236877Y-231942297D01*
X300938772Y-231883000D01*
X300634828Y-231883000D01*
X300336723Y-231942297D01*
X300316939Y-231950492D01*
X300397826Y-231869605D01*
X300566689Y-231616885D01*
X300683003Y-231336077D01*
X300742300Y-231037972D01*
X300742300Y-230734028D01*
X300683003Y-230435923D01*
X300566689Y-230155115D01*
X300397826Y-229902395D01*
X300182905Y-229687474D01*
X299930185Y-229518611D01*
X299649377Y-229402297D01*
X299351272Y-229343000D01*
X299047328Y-229343000D01*
X298749223Y-229402297D01*
X298729439Y-229410492D01*
X298810326Y-229329605D01*
X298979189Y-229076885D01*
X299095503Y-228796077D01*
X299154800Y-228497972D01*
X299154800Y-228194028D01*
X299095503Y-227895923D01*
X298979189Y-227615115D01*
X298810326Y-227362395D01*
X298595405Y-227147474D01*
X298342685Y-226978611D01*
X298158599Y-226902360D01*
X318277000Y-226902360D01*
X318277000Y-227249640D01*
X318344751Y-227590248D01*
X318477650Y-227911093D01*
X318670589Y-228199847D01*
X318816742Y-228346000D01*
X318670589Y-228492153D01*
X318477650Y-228780907D01*
X318344751Y-229101752D01*
X318277000Y-229442360D01*
X318277000Y-229789640D01*
X318344751Y-230130248D01*
X318477650Y-230451093D01*
X318670589Y-230739847D01*
X318816742Y-230886000D01*
X318670589Y-231032153D01*
X318477650Y-231320907D01*
X318344751Y-231641752D01*
X318277000Y-231982360D01*
X318277000Y-232329640D01*
X318344751Y-232670248D01*
X318477650Y-232991093D01*
X318670589Y-233279847D01*
X318816742Y-233426000D01*
X318670589Y-233572153D01*
X318477650Y-233860907D01*
X318344751Y-234181752D01*
X318277000Y-234522360D01*
X318277000Y-234869640D01*
X318344751Y-235210248D01*
X318477650Y-235531093D01*
X318670589Y-235819847D01*
X318816742Y-235966000D01*
X318670589Y-236112153D01*
X318477650Y-236400907D01*
X318344751Y-236721752D01*
X318277000Y-237062360D01*
X318277000Y-237409640D01*
X318344751Y-237750248D01*
X318477650Y-238071093D01*
X318670589Y-238359847D01*
X318816742Y-238506000D01*
X318670589Y-238652153D01*
X318477650Y-238940907D01*
X318344751Y-239261752D01*
X318277000Y-239602360D01*
X318277000Y-239949640D01*
X318344751Y-240290248D01*
X318477650Y-240611093D01*
X318670589Y-240899847D01*
X318816742Y-241046000D01*
X318670589Y-241192153D01*
X318477650Y-241480907D01*
X318344751Y-241801752D01*
X318277000Y-242142360D01*
X318277000Y-242489640D01*
X318344751Y-242830248D01*
X318477650Y-243151093D01*
X318670589Y-243439847D01*
X318816742Y-243586000D01*
X318670589Y-243732153D01*
X318477650Y-244020907D01*
X318344751Y-244341752D01*
X318277000Y-244682360D01*
X318277000Y-245029640D01*
X318344751Y-245370248D01*
X318477650Y-245691093D01*
X318670589Y-245979847D01*
X318816742Y-246126000D01*
X318670589Y-246272153D01*
X318477650Y-246560907D01*
X318344751Y-246881752D01*
X318277000Y-247222360D01*
X318277000Y-247569640D01*
X318344751Y-247910248D01*
X318477650Y-248231093D01*
X318670589Y-248519847D01*
X318816742Y-248666000D01*
X318670589Y-248812153D01*
X318477650Y-249100907D01*
X318344751Y-249421752D01*
X318277000Y-249762360D01*
X318277000Y-250109640D01*
X318344751Y-250450248D01*
X318477650Y-250771093D01*
X318670589Y-251059847D01*
X318816742Y-251206000D01*
X318670589Y-251352153D01*
X318477650Y-251640907D01*
X318344751Y-251961752D01*
X318277000Y-252302360D01*
X318277000Y-252649640D01*
X318344751Y-252990248D01*
X318477650Y-253311093D01*
X318670589Y-253599847D01*
X318816742Y-253746000D01*
X318670589Y-253892153D01*
X318477650Y-254180907D01*
X318344751Y-254501752D01*
X318277000Y-254842360D01*
X318277000Y-255189640D01*
X318344751Y-255530248D01*
X318477650Y-255851093D01*
X318670589Y-256139847D01*
X318916153Y-256385411D01*
X319204907Y-256578350D01*
X319525752Y-256711249D01*
X319866360Y-256779000D01*
X320213640Y-256779000D01*
X320554248Y-256711249D01*
X320875093Y-256578350D01*
X321163847Y-256385411D01*
X321409411Y-256139847D01*
X321602350Y-255851093D01*
X321735249Y-255530248D01*
X321794717Y-255231282D01*
X321886999Y-255139000D01*
X344643946Y-255139000D01*
X344862923Y-255229703D01*
X345161028Y-255289000D01*
X345464972Y-255289000D01*
X345763077Y-255229703D01*
X346043885Y-255113389D01*
X346296605Y-254944526D01*
X346511526Y-254729605D01*
X346680389Y-254476885D01*
X346796703Y-254196077D01*
X346856000Y-253897972D01*
X346856000Y-253594028D01*
X346796703Y-253295923D01*
X346680389Y-253015115D01*
X346511526Y-252762395D01*
X346296605Y-252547474D01*
X346043885Y-252378611D01*
X345763077Y-252262297D01*
X345464972Y-252203000D01*
X345161028Y-252203000D01*
X344862923Y-252262297D01*
X344643946Y-252353000D01*
X341585631Y-252353000D01*
X341749026Y-252189605D01*
X341917889Y-251936885D01*
X342034203Y-251656077D01*
X342093500Y-251357972D01*
X342093500Y-251054028D01*
X342034203Y-250755923D01*
X341917889Y-250475115D01*
X341749026Y-250222395D01*
X341585631Y-250059000D01*
X343056446Y-250059000D01*
X343275423Y-250149703D01*
X343573528Y-250209000D01*
X343877472Y-250209000D01*
X344175577Y-250149703D01*
X344456385Y-250033389D01*
X344709105Y-249864526D01*
X344924026Y-249649605D01*
X345092889Y-249396885D01*
X345209203Y-249116077D01*
X345268500Y-248817972D01*
X345268500Y-248514028D01*
X345209203Y-248215923D01*
X345092889Y-247935115D01*
X344924026Y-247682395D01*
X344709105Y-247467474D01*
X344456385Y-247298611D01*
X344175577Y-247182297D01*
X343877472Y-247123000D01*
X343573528Y-247123000D01*
X343275423Y-247182297D01*
X343056446Y-247273000D01*
X339998131Y-247273000D01*
X340161526Y-247109605D01*
X340330389Y-246856885D01*
X340446703Y-246576077D01*
X340506000Y-246277972D01*
X340506000Y-245974028D01*
X340446703Y-245675923D01*
X340330389Y-245395115D01*
X340161526Y-245142395D01*
X339998131Y-244979000D01*
X341468946Y-244979000D01*
X341687923Y-245069703D01*
X341986028Y-245129000D01*
X342289972Y-245129000D01*
X342588077Y-245069703D01*
X342868885Y-244953389D01*
X343121605Y-244784526D01*
X343336526Y-244569605D01*
X343505389Y-244316885D01*
X343621703Y-244036077D01*
X343681000Y-243737972D01*
X343681000Y-243434028D01*
X343621703Y-243135923D01*
X343505389Y-242855115D01*
X343336526Y-242602395D01*
X343121605Y-242387474D01*
X342868885Y-242218611D01*
X342588077Y-242102297D01*
X342289972Y-242043000D01*
X341986028Y-242043000D01*
X341687923Y-242102297D01*
X341468946Y-242193000D01*
X338410631Y-242193000D01*
X338574026Y-242029605D01*
X338742889Y-241776885D01*
X338859203Y-241496077D01*
X338918500Y-241197972D01*
X338918500Y-240894028D01*
X338859203Y-240595923D01*
X338742889Y-240315115D01*
X338574026Y-240062395D01*
X338359105Y-239847474D01*
X338106385Y-239678611D01*
X337825577Y-239562297D01*
X337527472Y-239503000D01*
X337223528Y-239503000D01*
X336925423Y-239562297D01*
X336706446Y-239653000D01*
X335235631Y-239653000D01*
X335399026Y-239489605D01*
X335567889Y-239236885D01*
X335684203Y-238956077D01*
X335743500Y-238657972D01*
X335743500Y-238354028D01*
X335684203Y-238055923D01*
X335567889Y-237775115D01*
X335399026Y-237522395D01*
X335318139Y-237441508D01*
X335337923Y-237449703D01*
X335636028Y-237509000D01*
X335939972Y-237509000D01*
X336238077Y-237449703D01*
X336518885Y-237333389D01*
X336771605Y-237164526D01*
X336986526Y-236949605D01*
X337155389Y-236696885D01*
X337271703Y-236416077D01*
X337331000Y-236117972D01*
X337331000Y-235814028D01*
X337271703Y-235515923D01*
X337155389Y-235235115D01*
X336986526Y-234982395D01*
X336771605Y-234767474D01*
X336518885Y-234598611D01*
X336238077Y-234482297D01*
X335939972Y-234423000D01*
X335636028Y-234423000D01*
X335337923Y-234482297D01*
X335118946Y-234573000D01*
X333648131Y-234573000D01*
X333811526Y-234409605D01*
X333980389Y-234156885D01*
X334096703Y-233876077D01*
X334156000Y-233577972D01*
X334156000Y-233274028D01*
X334096703Y-232975923D01*
X333980389Y-232695115D01*
X333811526Y-232442395D01*
X333596605Y-232227474D01*
X333343885Y-232058611D01*
X333063077Y-231942297D01*
X332764972Y-231883000D01*
X332461028Y-231883000D01*
X332162923Y-231942297D01*
X332143139Y-231950492D01*
X332224026Y-231869605D01*
X332392889Y-231616885D01*
X332509203Y-231336077D01*
X332568500Y-231037972D01*
X332568500Y-230734028D01*
X332509203Y-230435923D01*
X332392889Y-230155115D01*
X332224026Y-229902395D01*
X332060631Y-229739000D01*
X354295946Y-229739000D01*
X354514923Y-229829703D01*
X354813028Y-229889000D01*
X355116972Y-229889000D01*
X355415077Y-229829703D01*
X355695885Y-229713389D01*
X355948605Y-229544526D01*
X356163526Y-229329605D01*
X356332389Y-229076885D01*
X356448703Y-228796077D01*
X356508000Y-228497972D01*
X356508000Y-228194028D01*
X356448703Y-227895923D01*
X356332389Y-227615115D01*
X356163526Y-227362395D01*
X355948605Y-227147474D01*
X355695885Y-226978611D01*
X355415077Y-226862297D01*
X355116972Y-226803000D01*
X354813028Y-226803000D01*
X354514923Y-226862297D01*
X354495139Y-226870492D01*
X354576026Y-226789605D01*
X354744889Y-226536885D01*
X354861203Y-226256077D01*
X354920500Y-225957972D01*
X354920500Y-225654028D01*
X354861203Y-225355923D01*
X354744889Y-225075115D01*
X354576026Y-224822395D01*
X354361105Y-224607474D01*
X354108385Y-224438611D01*
X353827577Y-224322297D01*
X353529472Y-224263000D01*
X353225528Y-224263000D01*
X352927423Y-224322297D01*
X352708446Y-224413000D01*
X321378430Y-224413000D01*
X321309999Y-224406260D01*
X321070581Y-224429841D01*
X321036924Y-224433156D01*
X320774343Y-224512809D01*
X320532346Y-224642159D01*
X320320234Y-224816234D01*
X320276606Y-224869395D01*
X319824718Y-225321283D01*
X319525752Y-225380751D01*
X319204907Y-225513650D01*
X318916153Y-225706589D01*
X318670589Y-225952153D01*
X318477650Y-226240907D01*
X318344751Y-226561752D01*
X318277000Y-226902360D01*
X298158599Y-226902360D01*
X298061877Y-226862297D01*
X297763772Y-226803000D01*
X297459828Y-226803000D01*
X297161723Y-226862297D01*
X297141939Y-226870492D01*
X297222826Y-226789605D01*
X297391689Y-226536885D01*
X297508003Y-226256077D01*
X297567300Y-225957972D01*
X297567300Y-225654028D01*
X297508003Y-225355923D01*
X297391689Y-225075115D01*
X297222826Y-224822395D01*
X297007905Y-224607474D01*
X296755185Y-224438611D01*
X296474377Y-224322297D01*
X296176272Y-224263000D01*
X295872328Y-224263000D01*
X295574223Y-224322297D01*
X295554439Y-224330492D01*
X295635326Y-224249605D01*
X295804189Y-223996885D01*
X295920503Y-223716077D01*
X295979800Y-223417972D01*
X295979800Y-223114028D01*
X295920503Y-222815923D01*
X295804189Y-222535115D01*
X295635326Y-222282395D01*
X295420405Y-222067474D01*
X295167685Y-221898611D01*
X294886877Y-221782297D01*
X294588772Y-221723000D01*
X294284828Y-221723000D01*
X293986723Y-221782297D01*
X293966939Y-221790492D01*
X294047826Y-221709605D01*
X294216689Y-221456885D01*
X294333003Y-221176077D01*
X294392300Y-220877972D01*
X294392300Y-220574028D01*
X294333003Y-220275923D01*
X294216689Y-219995115D01*
X294047826Y-219742395D01*
X293832905Y-219527474D01*
X293580185Y-219358611D01*
X293299377Y-219242297D01*
X293001272Y-219183000D01*
X292697328Y-219183000D01*
X292399223Y-219242297D01*
X292379439Y-219250492D01*
X292460326Y-219169605D01*
X292629189Y-218916885D01*
X292745503Y-218636077D01*
X292804800Y-218337972D01*
X292804800Y-218034028D01*
X292745503Y-217735923D01*
X292629189Y-217455115D01*
X292460326Y-217202395D01*
X292245405Y-216987474D01*
X291992685Y-216818611D01*
X291711877Y-216702297D01*
X291413772Y-216643000D01*
X291109828Y-216643000D01*
X290811723Y-216702297D01*
X290791939Y-216710492D01*
X290872826Y-216629605D01*
X291041689Y-216376885D01*
X291158003Y-216096077D01*
X291217300Y-215797972D01*
X291217300Y-215494028D01*
X291158003Y-215195923D01*
X291041689Y-214915115D01*
X290872826Y-214662395D01*
X290657905Y-214447474D01*
X290405185Y-214278611D01*
X290221099Y-214202360D01*
X318277000Y-214202360D01*
X318277000Y-214549640D01*
X318344751Y-214890248D01*
X318477650Y-215211093D01*
X318670589Y-215499847D01*
X318816742Y-215646000D01*
X318670589Y-215792153D01*
X318477650Y-216080907D01*
X318344751Y-216401752D01*
X318277000Y-216742360D01*
X318277000Y-217089640D01*
X318344751Y-217430248D01*
X318477650Y-217751093D01*
X318670589Y-218039847D01*
X318816742Y-218186000D01*
X318670589Y-218332153D01*
X318477650Y-218620907D01*
X318344751Y-218941752D01*
X318277000Y-219282360D01*
X318277000Y-219629640D01*
X318344751Y-219970248D01*
X318477650Y-220291093D01*
X318670589Y-220579847D01*
X318816742Y-220726000D01*
X318670589Y-220872153D01*
X318477650Y-221160907D01*
X318344751Y-221481752D01*
X318277000Y-221822360D01*
X318277000Y-222169640D01*
X318344751Y-222510248D01*
X318477650Y-222831093D01*
X318670589Y-223119847D01*
X318916153Y-223365411D01*
X319204907Y-223558350D01*
X319525752Y-223691249D01*
X319866360Y-223759000D01*
X320213640Y-223759000D01*
X320554248Y-223691249D01*
X320875093Y-223558350D01*
X321163847Y-223365411D01*
X321409411Y-223119847D01*
X321602350Y-222831093D01*
X321735249Y-222510248D01*
X321794717Y-222211282D01*
X321886999Y-222119000D01*
X355883446Y-222119000D01*
X356102423Y-222209703D01*
X356396609Y-222268220D01*
X356444751Y-222510248D01*
X356577650Y-222831093D01*
X356770589Y-223119847D01*
X356916742Y-223266000D01*
X356770589Y-223412153D01*
X356577650Y-223700907D01*
X356444751Y-224021752D01*
X356377000Y-224362360D01*
X356377000Y-224709640D01*
X356444751Y-225050248D01*
X356577650Y-225371093D01*
X356770589Y-225659847D01*
X356916742Y-225806000D01*
X356770589Y-225952153D01*
X356577650Y-226240907D01*
X356444751Y-226561752D01*
X356377000Y-226902360D01*
X356377000Y-227249640D01*
X356444751Y-227590248D01*
X356577650Y-227911093D01*
X356770589Y-228199847D01*
X356916742Y-228346000D01*
X356770589Y-228492153D01*
X356577650Y-228780907D01*
X356444751Y-229101752D01*
X356377000Y-229442360D01*
X356377000Y-229789640D01*
X356444751Y-230130248D01*
X356577650Y-230451093D01*
X356770589Y-230739847D01*
X356916742Y-230886000D01*
X356770589Y-231032153D01*
X356577650Y-231320907D01*
X356444751Y-231641752D01*
X356377000Y-231982360D01*
X356377000Y-232329640D01*
X356444751Y-232670248D01*
X356577650Y-232991093D01*
X356770589Y-233279847D01*
X356916742Y-233426000D01*
X356770589Y-233572153D01*
X356577650Y-233860907D01*
X356444751Y-234181752D01*
X356377000Y-234522360D01*
X356377000Y-234869640D01*
X356444751Y-235210248D01*
X356577650Y-235531093D01*
X356770589Y-235819847D01*
X356916742Y-235966000D01*
X356770589Y-236112153D01*
X356577650Y-236400907D01*
X356444751Y-236721752D01*
X356377000Y-237062360D01*
X356377000Y-237409640D01*
X356444751Y-237750248D01*
X356577650Y-238071093D01*
X356770589Y-238359847D01*
X356916742Y-238506000D01*
X356770589Y-238652153D01*
X356577650Y-238940907D01*
X356444751Y-239261752D01*
X356377000Y-239602360D01*
X356377000Y-239949640D01*
X356444751Y-240290248D01*
X356577650Y-240611093D01*
X356770589Y-240899847D01*
X356916742Y-241046000D01*
X356770589Y-241192153D01*
X356577650Y-241480907D01*
X356444751Y-241801752D01*
X356377000Y-242142360D01*
X356377000Y-242489640D01*
X356444751Y-242830248D01*
X356577650Y-243151093D01*
X356770589Y-243439847D01*
X356916742Y-243586000D01*
X356770589Y-243732153D01*
X356577650Y-244020907D01*
X356444751Y-244341752D01*
X356377000Y-244682360D01*
X356377000Y-245029640D01*
X356444751Y-245370248D01*
X356577650Y-245691093D01*
X356770589Y-245979847D01*
X356916742Y-246126000D01*
X356770589Y-246272153D01*
X356577650Y-246560907D01*
X356444751Y-246881752D01*
X356377000Y-247222360D01*
X356377000Y-247569640D01*
X356444751Y-247910248D01*
X356577650Y-248231093D01*
X356770589Y-248519847D01*
X356916742Y-248666000D01*
X356770589Y-248812153D01*
X356577650Y-249100907D01*
X356444751Y-249421752D01*
X356377000Y-249762360D01*
X356377000Y-250109640D01*
X356444751Y-250450248D01*
X356577650Y-250771093D01*
X356770589Y-251059847D01*
X356916742Y-251206000D01*
X356770589Y-251352153D01*
X356577650Y-251640907D01*
X356444751Y-251961752D01*
X356377000Y-252302360D01*
X356377000Y-252649640D01*
X356444751Y-252990248D01*
X356577650Y-253311093D01*
X356770589Y-253599847D01*
X356916742Y-253746000D01*
X356770589Y-253892153D01*
X356577650Y-254180907D01*
X356444751Y-254501752D01*
X356377000Y-254842360D01*
X356377000Y-255189640D01*
X356444751Y-255530248D01*
X356577650Y-255851093D01*
X356770589Y-256139847D01*
X357016153Y-256385411D01*
X357304907Y-256578350D01*
X357625752Y-256711249D01*
X357966360Y-256779000D01*
X358313640Y-256779000D01*
X358654248Y-256711249D01*
X358975093Y-256578350D01*
X359263847Y-256385411D01*
X359509411Y-256139847D01*
X359702350Y-255851093D01*
X359835249Y-255530248D01*
X359894717Y-255231282D01*
X359986999Y-255139000D01*
X393780246Y-255139000D01*
X393999223Y-255229703D01*
X394297328Y-255289000D01*
X394601272Y-255289000D01*
X394899377Y-255229703D01*
X395180185Y-255113389D01*
X395432905Y-254944526D01*
X395647826Y-254729605D01*
X395816689Y-254476885D01*
X395933003Y-254196077D01*
X395992300Y-253897972D01*
X395992300Y-253594028D01*
X395933003Y-253295923D01*
X395816689Y-253015115D01*
X395647826Y-252762395D01*
X395432905Y-252547474D01*
X395180185Y-252378611D01*
X394899377Y-252262297D01*
X394601272Y-252203000D01*
X394297328Y-252203000D01*
X393999223Y-252262297D01*
X393979439Y-252270492D01*
X394060326Y-252189605D01*
X394229189Y-251936885D01*
X394345503Y-251656077D01*
X394404800Y-251357972D01*
X394404800Y-251054028D01*
X394345503Y-250755923D01*
X394229189Y-250475115D01*
X394060326Y-250222395D01*
X393845405Y-250007474D01*
X393592685Y-249838611D01*
X393311877Y-249722297D01*
X393013772Y-249663000D01*
X392709828Y-249663000D01*
X392411723Y-249722297D01*
X392391939Y-249730492D01*
X392472826Y-249649605D01*
X392641689Y-249396885D01*
X392758003Y-249116077D01*
X392817300Y-248817972D01*
X392817300Y-248514028D01*
X392758003Y-248215923D01*
X392641689Y-247935115D01*
X392472826Y-247682395D01*
X392257905Y-247467474D01*
X392005185Y-247298611D01*
X391724377Y-247182297D01*
X391426272Y-247123000D01*
X391122328Y-247123000D01*
X390824223Y-247182297D01*
X390804439Y-247190492D01*
X390885326Y-247109605D01*
X391054189Y-246856885D01*
X391170503Y-246576077D01*
X391229800Y-246277972D01*
X391229800Y-245974028D01*
X391170503Y-245675923D01*
X391054189Y-245395115D01*
X390885326Y-245142395D01*
X390670405Y-244927474D01*
X390417685Y-244758611D01*
X390136877Y-244642297D01*
X389838772Y-244583000D01*
X389534828Y-244583000D01*
X389236723Y-244642297D01*
X389216939Y-244650492D01*
X389297826Y-244569605D01*
X389466689Y-244316885D01*
X389583003Y-244036077D01*
X389642300Y-243737972D01*
X389642300Y-243434028D01*
X389583003Y-243135923D01*
X389466689Y-242855115D01*
X389297826Y-242602395D01*
X389082905Y-242387474D01*
X388830185Y-242218611D01*
X388549377Y-242102297D01*
X388251272Y-242043000D01*
X387947328Y-242043000D01*
X387649223Y-242102297D01*
X387629439Y-242110492D01*
X387710326Y-242029605D01*
X387879189Y-241776885D01*
X387995503Y-241496077D01*
X388054800Y-241197972D01*
X388054800Y-240894028D01*
X387995503Y-240595923D01*
X387879189Y-240315115D01*
X387710326Y-240062395D01*
X387495405Y-239847474D01*
X387242685Y-239678611D01*
X386961877Y-239562297D01*
X386663772Y-239503000D01*
X386359828Y-239503000D01*
X386061723Y-239562297D01*
X386041939Y-239570492D01*
X386122826Y-239489605D01*
X386291689Y-239236885D01*
X386408003Y-238956077D01*
X386467300Y-238657972D01*
X386467300Y-238354028D01*
X386408003Y-238055923D01*
X386291689Y-237775115D01*
X386122826Y-237522395D01*
X385907905Y-237307474D01*
X385655185Y-237138611D01*
X385374377Y-237022297D01*
X385076272Y-236963000D01*
X384772328Y-236963000D01*
X384474223Y-237022297D01*
X384454439Y-237030492D01*
X384535326Y-236949605D01*
X384704189Y-236696885D01*
X384820503Y-236416077D01*
X384879800Y-236117972D01*
X384879800Y-235814028D01*
X384820503Y-235515923D01*
X384704189Y-235235115D01*
X384535326Y-234982395D01*
X384320405Y-234767474D01*
X384067685Y-234598611D01*
X383786877Y-234482297D01*
X383488772Y-234423000D01*
X383184828Y-234423000D01*
X382886723Y-234482297D01*
X382866939Y-234490492D01*
X382947826Y-234409605D01*
X383116689Y-234156885D01*
X383233003Y-233876077D01*
X383292300Y-233577972D01*
X383292300Y-233274028D01*
X383233003Y-232975923D01*
X383116689Y-232695115D01*
X382947826Y-232442395D01*
X382732905Y-232227474D01*
X382480185Y-232058611D01*
X382199377Y-231942297D01*
X381901272Y-231883000D01*
X381597328Y-231883000D01*
X381299223Y-231942297D01*
X381279439Y-231950492D01*
X381360326Y-231869605D01*
X381529189Y-231616885D01*
X381645503Y-231336077D01*
X381704800Y-231037972D01*
X381704800Y-230734028D01*
X381645503Y-230435923D01*
X381529189Y-230155115D01*
X381360326Y-229902395D01*
X381145405Y-229687474D01*
X380892685Y-229518611D01*
X380611877Y-229402297D01*
X380313772Y-229343000D01*
X380009828Y-229343000D01*
X379711723Y-229402297D01*
X379691939Y-229410492D01*
X379772826Y-229329605D01*
X379941689Y-229076885D01*
X380058003Y-228796077D01*
X380117300Y-228497972D01*
X380117300Y-228194028D01*
X380058003Y-227895923D01*
X379941689Y-227615115D01*
X379772826Y-227362395D01*
X379557905Y-227147474D01*
X379305185Y-226978611D01*
X379024377Y-226862297D01*
X378726272Y-226803000D01*
X378422328Y-226803000D01*
X378124223Y-226862297D01*
X378104439Y-226870492D01*
X378185326Y-226789605D01*
X378354189Y-226536885D01*
X378470503Y-226256077D01*
X378529800Y-225957972D01*
X378529800Y-225654028D01*
X378470503Y-225355923D01*
X378354189Y-225075115D01*
X378185326Y-224822395D01*
X377970405Y-224607474D01*
X377717685Y-224438611D01*
X377436877Y-224322297D01*
X377138772Y-224263000D01*
X376834828Y-224263000D01*
X376536723Y-224322297D01*
X376516939Y-224330492D01*
X376597826Y-224249605D01*
X376766689Y-223996885D01*
X376883003Y-223716077D01*
X376942300Y-223417972D01*
X376942300Y-223114028D01*
X376883003Y-222815923D01*
X376766689Y-222535115D01*
X376597826Y-222282395D01*
X376382905Y-222067474D01*
X376130185Y-221898611D01*
X375849377Y-221782297D01*
X375551272Y-221723000D01*
X375247328Y-221723000D01*
X374949223Y-221782297D01*
X374929439Y-221790492D01*
X375010326Y-221709605D01*
X375179189Y-221456885D01*
X375295503Y-221176077D01*
X375354800Y-220877972D01*
X375354800Y-220574028D01*
X375295503Y-220275923D01*
X375179189Y-219995115D01*
X375010326Y-219742395D01*
X374795405Y-219527474D01*
X374542685Y-219358611D01*
X374261877Y-219242297D01*
X373963772Y-219183000D01*
X373659828Y-219183000D01*
X373361723Y-219242297D01*
X373341939Y-219250492D01*
X373422826Y-219169605D01*
X373591689Y-218916885D01*
X373708003Y-218636077D01*
X373767300Y-218337972D01*
X373767300Y-218034028D01*
X373708003Y-217735923D01*
X373591689Y-217455115D01*
X373422826Y-217202395D01*
X373207905Y-216987474D01*
X372955185Y-216818611D01*
X372674377Y-216702297D01*
X372376272Y-216643000D01*
X372072328Y-216643000D01*
X371774223Y-216702297D01*
X371754439Y-216710492D01*
X371835326Y-216629605D01*
X372004189Y-216376885D01*
X372120503Y-216096077D01*
X372179800Y-215797972D01*
X372179800Y-215494028D01*
X372120503Y-215195923D01*
X372004189Y-214915115D01*
X371835326Y-214662395D01*
X371620405Y-214447474D01*
X371367685Y-214278611D01*
X371086877Y-214162297D01*
X370788772Y-214103000D01*
X370484828Y-214103000D01*
X370186723Y-214162297D01*
X370166939Y-214170492D01*
X370247826Y-214089605D01*
X370416689Y-213836885D01*
X370533003Y-213556077D01*
X370592300Y-213257972D01*
X370592300Y-212954028D01*
X370533003Y-212655923D01*
X370416689Y-212375115D01*
X370247826Y-212122395D01*
X370032905Y-211907474D01*
X369780185Y-211738611D01*
X369499377Y-211622297D01*
X369201272Y-211563000D01*
X368897328Y-211563000D01*
X368599223Y-211622297D01*
X368579439Y-211630492D01*
X368660326Y-211549605D01*
X368829189Y-211296885D01*
X368945503Y-211016077D01*
X369004800Y-210717972D01*
X369004800Y-210414028D01*
X368945503Y-210115923D01*
X368829189Y-209835115D01*
X368660326Y-209582395D01*
X368445405Y-209367474D01*
X368192685Y-209198611D01*
X367911877Y-209082297D01*
X367613772Y-209023000D01*
X367309828Y-209023000D01*
X367011723Y-209082297D01*
X366792746Y-209173000D01*
X359478430Y-209173000D01*
X359409999Y-209166260D01*
X359170581Y-209189841D01*
X359136924Y-209193156D01*
X358874343Y-209272809D01*
X358632346Y-209402159D01*
X358420234Y-209576234D01*
X358376606Y-209629395D01*
X357924718Y-210081283D01*
X357625752Y-210140751D01*
X357304907Y-210273650D01*
X357016153Y-210466589D01*
X356770589Y-210712153D01*
X356577650Y-211000907D01*
X356444751Y-211321752D01*
X356377000Y-211662360D01*
X356377000Y-212009640D01*
X356444751Y-212350248D01*
X356577650Y-212671093D01*
X356770589Y-212959847D01*
X356916742Y-213106000D01*
X356770589Y-213252153D01*
X356577650Y-213540907D01*
X356444751Y-213861752D01*
X356377000Y-214202360D01*
X356377000Y-214549640D01*
X356444751Y-214890248D01*
X356577650Y-215211093D01*
X356770589Y-215499847D01*
X356916742Y-215646000D01*
X356770589Y-215792153D01*
X356577650Y-216080907D01*
X356444751Y-216401752D01*
X356377000Y-216742360D01*
X356377000Y-217089640D01*
X356444751Y-217430248D01*
X356577650Y-217751093D01*
X356770589Y-218039847D01*
X356916742Y-218186000D01*
X356770589Y-218332153D01*
X356577650Y-218620907D01*
X356444751Y-218941752D01*
X356396609Y-219183780D01*
X356102423Y-219242297D01*
X355883446Y-219333000D01*
X321803000Y-219333000D01*
X321803000Y-219282360D01*
X321735249Y-218941752D01*
X321602350Y-218620907D01*
X321409411Y-218332153D01*
X321263258Y-218186000D01*
X321409411Y-218039847D01*
X321602350Y-217751093D01*
X321735249Y-217430248D01*
X321803000Y-217089640D01*
X321803000Y-216742360D01*
X321735249Y-216401752D01*
X321602350Y-216080907D01*
X321409411Y-215792153D01*
X321263258Y-215646000D01*
X321409411Y-215499847D01*
X321602350Y-215211093D01*
X321735249Y-214890248D01*
X321803000Y-214549640D01*
X321803000Y-214202360D01*
X321735249Y-213861752D01*
X321602350Y-213540907D01*
X321409411Y-213252153D01*
X321163847Y-213006589D01*
X320875093Y-212813650D01*
X320554248Y-212680751D01*
X320213640Y-212613000D01*
X319866360Y-212613000D01*
X319525752Y-212680751D01*
X319204907Y-212813650D01*
X318916153Y-213006589D01*
X318670589Y-213252153D01*
X318477650Y-213540907D01*
X318344751Y-213861752D01*
X318277000Y-214202360D01*
X290221099Y-214202360D01*
X290124377Y-214162297D01*
X289826272Y-214103000D01*
X289522328Y-214103000D01*
X289224223Y-214162297D01*
X289204439Y-214170492D01*
X289285326Y-214089605D01*
X289454189Y-213836885D01*
X289570503Y-213556077D01*
X289629800Y-213257972D01*
X289629800Y-212954028D01*
X289570503Y-212655923D01*
X289454189Y-212375115D01*
X289285326Y-212122395D01*
X289070405Y-211907474D01*
X288817685Y-211738611D01*
X288536877Y-211622297D01*
X288238772Y-211563000D01*
X287934828Y-211563000D01*
X287636723Y-211622297D01*
X287417746Y-211713000D01*
X283703000Y-211713000D01*
X283703000Y-211662360D01*
X283635249Y-211321752D01*
X283502350Y-211000907D01*
X283309411Y-210712153D01*
X283163258Y-210566000D01*
X283309411Y-210419847D01*
X283502350Y-210131093D01*
X283635249Y-209810248D01*
X283703000Y-209469640D01*
X283703000Y-209122360D01*
X283635249Y-208781752D01*
X283502350Y-208460907D01*
X283309411Y-208172153D01*
X283063847Y-207926589D01*
X282775093Y-207733650D01*
X282454248Y-207600751D01*
X282113640Y-207533000D01*
X281766360Y-207533000D01*
X281425752Y-207600751D01*
X281104907Y-207733650D01*
X280816153Y-207926589D01*
X280570589Y-208172153D01*
X280377650Y-208460907D01*
X280244751Y-208781752D01*
X280177000Y-209122360D01*
X276555200Y-209122360D01*
X276555200Y-206136000D01*
X318271470Y-206136000D01*
X318271470Y-207376000D01*
X318293539Y-207600067D01*
X318358897Y-207815523D01*
X318465032Y-208014089D01*
X318607867Y-208188133D01*
X318641480Y-208215718D01*
X318477650Y-208460907D01*
X318344751Y-208781752D01*
X318277000Y-209122360D01*
X318277000Y-209469640D01*
X318344751Y-209810248D01*
X318477650Y-210131093D01*
X318670589Y-210419847D01*
X318916153Y-210665411D01*
X319204907Y-210858350D01*
X319525752Y-210991249D01*
X319824718Y-211050717D01*
X320276606Y-211502605D01*
X320320234Y-211555766D01*
X320532346Y-211729841D01*
X320774343Y-211859191D01*
X321018941Y-211933389D01*
X321036924Y-211938844D01*
X321309999Y-211965740D01*
X321378430Y-211959000D01*
X351120946Y-211959000D01*
X351339923Y-212049703D01*
X351638028Y-212109000D01*
X351941972Y-212109000D01*
X352240077Y-212049703D01*
X352520885Y-211933389D01*
X352773605Y-211764526D01*
X352988526Y-211549605D01*
X353157389Y-211296885D01*
X353273703Y-211016077D01*
X353333000Y-210717972D01*
X353333000Y-210414028D01*
X353273703Y-210115923D01*
X353157389Y-209835115D01*
X353136200Y-209803404D01*
X353136200Y-208149000D01*
X356675751Y-208149000D01*
X356707867Y-208188133D01*
X356881911Y-208330968D01*
X357080477Y-208437103D01*
X357295933Y-208502461D01*
X357520000Y-208524530D01*
X358760000Y-208524530D01*
X358984067Y-208502461D01*
X359199523Y-208437103D01*
X359398089Y-208330968D01*
X359572133Y-208188133D01*
X359714968Y-208014089D01*
X359821103Y-207815523D01*
X359886461Y-207600067D01*
X359908530Y-207376000D01*
X359908530Y-206136000D01*
X359886461Y-205911933D01*
X359821103Y-205696477D01*
X359714968Y-205497911D01*
X359572133Y-205323867D01*
X359398089Y-205181032D01*
X359199523Y-205074897D01*
X358984067Y-205009539D01*
X358760000Y-204987470D01*
X357520000Y-204987470D01*
X357295933Y-205009539D01*
X357080477Y-205074897D01*
X356881911Y-205181032D01*
X356707867Y-205323867D01*
X356675751Y-205363000D01*
X330107054Y-205363000D01*
X329888077Y-205272297D01*
X329589972Y-205213000D01*
X329286028Y-205213000D01*
X328987923Y-205272297D01*
X328707115Y-205388611D01*
X328454395Y-205557474D01*
X328239474Y-205772395D01*
X328070611Y-206025115D01*
X327954297Y-206305923D01*
X327919074Y-206483000D01*
X327698528Y-206483000D01*
X327400423Y-206542297D01*
X327181446Y-206633000D01*
X321886999Y-206633000D01*
X321808530Y-206554531D01*
X321808530Y-206136000D01*
X321786461Y-205911933D01*
X321721103Y-205696477D01*
X321614968Y-205497911D01*
X321472133Y-205323867D01*
X321298089Y-205181032D01*
X321099523Y-205074897D01*
X320884067Y-205009539D01*
X320660000Y-204987470D01*
X319420000Y-204987470D01*
X319195933Y-205009539D01*
X318980477Y-205074897D01*
X318781911Y-205181032D01*
X318607867Y-205323867D01*
X318465032Y-205497911D01*
X318358897Y-205696477D01*
X318293539Y-205911933D01*
X318271470Y-206136000D01*
X276555200Y-206136000D01*
X276555200Y-200670953D01*
X281252000Y-200670953D01*
X281252000Y-201161047D01*
X281347613Y-201641723D01*
X281535163Y-202094510D01*
X281807444Y-202502007D01*
X282153993Y-202848556D01*
X282561490Y-203120837D01*
X283014277Y-203308387D01*
X283494953Y-203404000D01*
X283985047Y-203404000D01*
X284465723Y-203308387D01*
X284918510Y-203120837D01*
X285326007Y-202848556D01*
X285672556Y-202502007D01*
X285944837Y-202094510D01*
X286132387Y-201641723D01*
X286228000Y-201161047D01*
X286228000Y-200670953D01*
X319352000Y-200670953D01*
X319352000Y-201161047D01*
X319447613Y-201641723D01*
X319635163Y-202094510D01*
X319907444Y-202502007D01*
X320253993Y-202848556D01*
X320661490Y-203120837D01*
X321114277Y-203308387D01*
X321594953Y-203404000D01*
X322085047Y-203404000D01*
X322565723Y-203308387D01*
X323018510Y-203120837D01*
X323426007Y-202848556D01*
X323772556Y-202502007D01*
X324044837Y-202094510D01*
X324232387Y-201641723D01*
X324328000Y-201161047D01*
X324328000Y-200670953D01*
X357452000Y-200670953D01*
X357452000Y-201161047D01*
X357547613Y-201641723D01*
X357735163Y-202094510D01*
X358007444Y-202502007D01*
X358353993Y-202848556D01*
X358761490Y-203120837D01*
X359214277Y-203308387D01*
X359694953Y-203404000D01*
X360185047Y-203404000D01*
X360665723Y-203308387D01*
X361118510Y-203120837D01*
X361526007Y-202848556D01*
X361872556Y-202502007D01*
X362144837Y-202094510D01*
X362332387Y-201641723D01*
X362428000Y-201161047D01*
X362428000Y-200670953D01*
X362332387Y-200190277D01*
X362144837Y-199737490D01*
X361872556Y-199329993D01*
X361526007Y-198983444D01*
X361118510Y-198711163D01*
X360665723Y-198523613D01*
X360185047Y-198428000D01*
X359694953Y-198428000D01*
X359214277Y-198523613D01*
X358761490Y-198711163D01*
X358353993Y-198983444D01*
X358007444Y-199329993D01*
X357735163Y-199737490D01*
X357547613Y-200190277D01*
X357452000Y-200670953D01*
X324328000Y-200670953D01*
X324232387Y-200190277D01*
X324044837Y-199737490D01*
X323772556Y-199329993D01*
X323426007Y-198983444D01*
X323018510Y-198711163D01*
X322565723Y-198523613D01*
X322085047Y-198428000D01*
X321594953Y-198428000D01*
X321114277Y-198523613D01*
X320661490Y-198711163D01*
X320253993Y-198983444D01*
X319907444Y-199329993D01*
X319635163Y-199737490D01*
X319447613Y-200190277D01*
X319352000Y-200670953D01*
X286228000Y-200670953D01*
X286132387Y-200190277D01*
X285944837Y-199737490D01*
X285672556Y-199329993D01*
X285326007Y-198983444D01*
X284918510Y-198711163D01*
X284465723Y-198523613D01*
X283985047Y-198428000D01*
X283494953Y-198428000D01*
X283014277Y-198523613D01*
X282561490Y-198711163D01*
X282153993Y-198983444D01*
X281807444Y-199329993D01*
X281535163Y-199737490D01*
X281347613Y-200190277D01*
X281252000Y-200670953D01*
X276555200Y-200670953D01*
X276555200Y-192392487D01*
X404495000Y-192430213D01*
G04 #@! TA.AperFunction,Conductor*
D18*
G36*
X404495000Y-192430213D02*
G01*
X404495000Y-287248366D01*
X403779800Y-287248102D01*
X403779800Y-269003631D01*
X403786540Y-268935200D01*
X403759644Y-268662124D01*
X403679991Y-268399542D01*
X403550641Y-268157546D01*
X403420188Y-267998588D01*
X403420185Y-267998585D01*
X403376565Y-267945434D01*
X403323415Y-267901815D01*
X399660998Y-264239400D01*
X399617366Y-264186234D01*
X399405254Y-264012159D01*
X399163257Y-263882809D01*
X398900676Y-263803156D01*
X398696031Y-263783000D01*
X398627600Y-263776260D01*
X398559169Y-263783000D01*
X355634054Y-263783000D01*
X355415077Y-263692297D01*
X355116972Y-263633000D01*
X354813028Y-263633000D01*
X354514923Y-263692297D01*
X354234115Y-263808611D01*
X353981395Y-263977474D01*
X353766474Y-264192395D01*
X353597611Y-264445115D01*
X353481297Y-264725923D01*
X353422000Y-265024028D01*
X353422000Y-265327972D01*
X353481297Y-265626077D01*
X353597611Y-265906885D01*
X353766474Y-266159605D01*
X353981395Y-266374526D01*
X354234115Y-266543389D01*
X354514923Y-266659703D01*
X354813028Y-266719000D01*
X355116972Y-266719000D01*
X355415077Y-266659703D01*
X355434861Y-266651508D01*
X355353974Y-266732395D01*
X355185111Y-266985115D01*
X355068797Y-267265923D01*
X355009500Y-267564028D01*
X355009500Y-267867972D01*
X355068797Y-268166077D01*
X355185111Y-268446885D01*
X355353974Y-268699605D01*
X355568895Y-268914526D01*
X355821615Y-269083389D01*
X356102423Y-269199703D01*
X356400528Y-269259000D01*
X356704472Y-269259000D01*
X357002577Y-269199703D01*
X357221554Y-269109000D01*
X396552002Y-269109000D01*
X399444400Y-272001400D01*
X399444401Y-287246504D01*
X348170500Y-287227605D01*
X348170500Y-286444263D01*
X348176337Y-286385000D01*
X348153042Y-286148485D01*
X348084053Y-285921059D01*
X347972021Y-285711462D01*
X347821252Y-285527748D01*
X347637538Y-285376979D01*
X347427941Y-285264947D01*
X347200515Y-285195958D01*
X347023263Y-285178500D01*
X346964000Y-285172663D01*
X346904737Y-285178500D01*
X343467263Y-285178500D01*
X343408000Y-285172663D01*
X343348737Y-285178500D01*
X343171485Y-285195958D01*
X342944059Y-285264947D01*
X342734462Y-285376979D01*
X342550748Y-285527748D01*
X342399979Y-285711462D01*
X342287947Y-285921059D01*
X342218958Y-286148485D01*
X342195663Y-286385000D01*
X342201501Y-286444273D01*
X342201500Y-287225405D01*
X283129800Y-287203632D01*
X283129800Y-270553598D01*
X283151998Y-270531400D01*
X317592946Y-270531400D01*
X317811923Y-270622103D01*
X318110028Y-270681400D01*
X318413972Y-270681400D01*
X318712077Y-270622103D01*
X318992885Y-270505789D01*
X319245605Y-270336926D01*
X319460526Y-270122005D01*
X319629389Y-269869285D01*
X319745703Y-269588477D01*
X319805000Y-269290372D01*
X319805000Y-268986428D01*
X319745703Y-268688323D01*
X319629389Y-268407515D01*
X319460526Y-268154795D01*
X319245605Y-267939874D01*
X318992885Y-267771011D01*
X318712077Y-267654697D01*
X318413972Y-267595400D01*
X318110028Y-267595400D01*
X317811923Y-267654697D01*
X317592946Y-267745400D01*
X316198335Y-267745400D01*
X316285530Y-267658205D01*
X316454393Y-267405485D01*
X316570707Y-267124677D01*
X316630004Y-266826572D01*
X316630004Y-266522628D01*
X316570707Y-266224523D01*
X316454393Y-265943715D01*
X316285530Y-265690995D01*
X316194022Y-265599487D01*
X316459028Y-265652200D01*
X316762972Y-265652200D01*
X317061077Y-265592903D01*
X317341885Y-265476589D01*
X317594605Y-265307726D01*
X317809526Y-265092805D01*
X317978389Y-264840085D01*
X318094703Y-264559277D01*
X318154000Y-264261172D01*
X318154000Y-263957228D01*
X318094703Y-263659123D01*
X317978389Y-263378315D01*
X317809526Y-263125595D01*
X317594605Y-262910674D01*
X317341885Y-262741811D01*
X317061077Y-262625497D01*
X316762972Y-262566200D01*
X316459028Y-262566200D01*
X316160923Y-262625497D01*
X315941946Y-262716200D01*
X285398363Y-262716200D01*
X285672556Y-262442007D01*
X285944837Y-262034510D01*
X286132387Y-261581723D01*
X286228000Y-261101047D01*
X286228000Y-260610953D01*
X319352000Y-260610953D01*
X319352000Y-261101047D01*
X319447613Y-261581723D01*
X319635163Y-262034510D01*
X319907444Y-262442007D01*
X320253993Y-262788556D01*
X320661490Y-263060837D01*
X321114277Y-263248387D01*
X321594953Y-263344000D01*
X322085047Y-263344000D01*
X322565723Y-263248387D01*
X323018510Y-263060837D01*
X323426007Y-262788556D01*
X323772556Y-262442007D01*
X324044837Y-262034510D01*
X324232387Y-261581723D01*
X324328000Y-261101047D01*
X324328000Y-260610953D01*
X357452000Y-260610953D01*
X357452000Y-261101047D01*
X357547613Y-261581723D01*
X357735163Y-262034510D01*
X358007444Y-262442007D01*
X358353993Y-262788556D01*
X358761490Y-263060837D01*
X359214277Y-263248387D01*
X359694953Y-263344000D01*
X360185047Y-263344000D01*
X360665723Y-263248387D01*
X361118510Y-263060837D01*
X361526007Y-262788556D01*
X361872556Y-262442007D01*
X362144837Y-262034510D01*
X362332387Y-261581723D01*
X362428000Y-261101047D01*
X362428000Y-260610953D01*
X362332387Y-260130277D01*
X362144837Y-259677490D01*
X361872556Y-259269993D01*
X361526007Y-258923444D01*
X361118510Y-258651163D01*
X360665723Y-258463613D01*
X360185047Y-258368000D01*
X359694953Y-258368000D01*
X359214277Y-258463613D01*
X358761490Y-258651163D01*
X358353993Y-258923444D01*
X358007444Y-259269993D01*
X357735163Y-259677490D01*
X357547613Y-260130277D01*
X357452000Y-260610953D01*
X324328000Y-260610953D01*
X324232387Y-260130277D01*
X324044837Y-259677490D01*
X323772556Y-259269993D01*
X323426007Y-258923444D01*
X323018510Y-258651163D01*
X322565723Y-258463613D01*
X322085047Y-258368000D01*
X321594953Y-258368000D01*
X321114277Y-258463613D01*
X320661490Y-258651163D01*
X320253993Y-258923444D01*
X319907444Y-259269993D01*
X319635163Y-259677490D01*
X319447613Y-260130277D01*
X319352000Y-260610953D01*
X286228000Y-260610953D01*
X286132387Y-260130277D01*
X285944837Y-259677490D01*
X285672556Y-259269993D01*
X285326007Y-258923444D01*
X284918510Y-258651163D01*
X284465723Y-258463613D01*
X283985047Y-258368000D01*
X283494953Y-258368000D01*
X283014277Y-258463613D01*
X282561490Y-258651163D01*
X282153993Y-258923444D01*
X281807444Y-259269993D01*
X281535163Y-259677490D01*
X281347613Y-260130277D01*
X281252000Y-260610953D01*
X281252000Y-261101047D01*
X281347613Y-261581723D01*
X281535163Y-262034510D01*
X281807444Y-262442007D01*
X282153993Y-262788556D01*
X282204885Y-262822561D01*
X281975146Y-262945359D01*
X281763034Y-263119434D01*
X281719406Y-263172595D01*
X277625195Y-267266807D01*
X277572035Y-267310434D01*
X277463304Y-267442924D01*
X277397959Y-267522547D01*
X277268610Y-267764543D01*
X277188956Y-268027125D01*
X277162060Y-268300200D01*
X277168801Y-268368641D01*
X277168800Y-285178060D01*
X277114000Y-285172663D01*
X277054737Y-285178500D01*
X276555200Y-285178500D01*
X276555200Y-209122360D01*
X280177000Y-209122360D01*
X280177000Y-209469640D01*
X280244751Y-209810248D01*
X280377650Y-210131093D01*
X280570589Y-210419847D01*
X280716742Y-210566000D01*
X280570589Y-210712153D01*
X280377650Y-211000907D01*
X280244751Y-211321752D01*
X280177000Y-211662360D01*
X280177000Y-212009640D01*
X280244751Y-212350248D01*
X280377650Y-212671093D01*
X280570589Y-212959847D01*
X280716742Y-213106000D01*
X280570589Y-213252153D01*
X280377650Y-213540907D01*
X280244751Y-213861752D01*
X280177000Y-214202360D01*
X280177000Y-214549640D01*
X280244751Y-214890248D01*
X280377650Y-215211093D01*
X280570589Y-215499847D01*
X280716742Y-215646000D01*
X280570589Y-215792153D01*
X280377650Y-216080907D01*
X280244751Y-216401752D01*
X280177000Y-216742360D01*
X280177000Y-217089640D01*
X280244751Y-217430248D01*
X280377650Y-217751093D01*
X280570589Y-218039847D01*
X280716742Y-218186000D01*
X280570589Y-218332153D01*
X280377650Y-218620907D01*
X280244751Y-218941752D01*
X280177000Y-219282360D01*
X280177000Y-219629640D01*
X280244751Y-219970248D01*
X280377650Y-220291093D01*
X280570589Y-220579847D01*
X280716742Y-220726000D01*
X280570589Y-220872153D01*
X280377650Y-221160907D01*
X280244751Y-221481752D01*
X280177000Y-221822360D01*
X280177000Y-222169640D01*
X280244751Y-222510248D01*
X280377650Y-222831093D01*
X280570589Y-223119847D01*
X280716742Y-223266000D01*
X280570589Y-223412153D01*
X280377650Y-223700907D01*
X280244751Y-224021752D01*
X280177000Y-224362360D01*
X280177000Y-224709640D01*
X280244751Y-225050248D01*
X280377650Y-225371093D01*
X280570589Y-225659847D01*
X280716742Y-225806000D01*
X280570589Y-225952153D01*
X280377650Y-226240907D01*
X280244751Y-226561752D01*
X280177000Y-226902360D01*
X280177000Y-227249640D01*
X280244751Y-227590248D01*
X280377650Y-227911093D01*
X280570589Y-228199847D01*
X280716742Y-228346000D01*
X280570589Y-228492153D01*
X280377650Y-228780907D01*
X280244751Y-229101752D01*
X280177000Y-229442360D01*
X280177000Y-229789640D01*
X280244751Y-230130248D01*
X280377650Y-230451093D01*
X280570589Y-230739847D01*
X280716742Y-230886000D01*
X280570589Y-231032153D01*
X280377650Y-231320907D01*
X280244751Y-231641752D01*
X280177000Y-231982360D01*
X280177000Y-232329640D01*
X280244751Y-232670248D01*
X280377650Y-232991093D01*
X280570589Y-233279847D01*
X280716742Y-233426000D01*
X280570589Y-233572153D01*
X280377650Y-233860907D01*
X280244751Y-234181752D01*
X280177000Y-234522360D01*
X280177000Y-234869640D01*
X280244751Y-235210248D01*
X280377650Y-235531093D01*
X280570589Y-235819847D01*
X280716742Y-235966000D01*
X280570589Y-236112153D01*
X280377650Y-236400907D01*
X280244751Y-236721752D01*
X280177000Y-237062360D01*
X280177000Y-237409640D01*
X280244751Y-237750248D01*
X280377650Y-238071093D01*
X280570589Y-238359847D01*
X280716742Y-238506000D01*
X280570589Y-238652153D01*
X280377650Y-238940907D01*
X280244751Y-239261752D01*
X280177000Y-239602360D01*
X280177000Y-239949640D01*
X280244751Y-240290248D01*
X280377650Y-240611093D01*
X280570589Y-240899847D01*
X280716742Y-241046000D01*
X280570589Y-241192153D01*
X280377650Y-241480907D01*
X280244751Y-241801752D01*
X280177000Y-242142360D01*
X280177000Y-242489640D01*
X280244751Y-242830248D01*
X280377650Y-243151093D01*
X280570589Y-243439847D01*
X280716742Y-243586000D01*
X280570589Y-243732153D01*
X280377650Y-244020907D01*
X280244751Y-244341752D01*
X280177000Y-244682360D01*
X280177000Y-245029640D01*
X280244751Y-245370248D01*
X280377650Y-245691093D01*
X280570589Y-245979847D01*
X280716742Y-246126000D01*
X280570589Y-246272153D01*
X280377650Y-246560907D01*
X280244751Y-246881752D01*
X280177000Y-247222360D01*
X280177000Y-247569640D01*
X280244751Y-247910248D01*
X280377650Y-248231093D01*
X280570589Y-248519847D01*
X280716742Y-248666000D01*
X280570589Y-248812153D01*
X280377650Y-249100907D01*
X280244751Y-249421752D01*
X280177000Y-249762360D01*
X280177000Y-250109640D01*
X280244751Y-250450248D01*
X280377650Y-250771093D01*
X280570589Y-251059847D01*
X280716742Y-251206000D01*
X280570589Y-251352153D01*
X280377650Y-251640907D01*
X280244751Y-251961752D01*
X280177000Y-252302360D01*
X280177000Y-252649640D01*
X280244751Y-252990248D01*
X280377650Y-253311093D01*
X280570589Y-253599847D01*
X280716742Y-253746000D01*
X280570589Y-253892153D01*
X280377650Y-254180907D01*
X280244751Y-254501752D01*
X280177000Y-254842360D01*
X280177000Y-255189640D01*
X280244751Y-255530248D01*
X280377650Y-255851093D01*
X280570589Y-256139847D01*
X280816153Y-256385411D01*
X281104907Y-256578350D01*
X281425752Y-256711249D01*
X281766360Y-256779000D01*
X282113640Y-256779000D01*
X282454248Y-256711249D01*
X282775093Y-256578350D01*
X283063847Y-256385411D01*
X283309411Y-256139847D01*
X283502350Y-255851093D01*
X283635249Y-255530248D01*
X283694717Y-255231282D01*
X283786999Y-255139000D01*
X312817746Y-255139000D01*
X313036723Y-255229703D01*
X313334828Y-255289000D01*
X313638772Y-255289000D01*
X313936877Y-255229703D01*
X314217685Y-255113389D01*
X314470405Y-254944526D01*
X314685326Y-254729605D01*
X314854189Y-254476885D01*
X314970503Y-254196077D01*
X315029800Y-253897972D01*
X315029800Y-253594028D01*
X314970503Y-253295923D01*
X314854189Y-253015115D01*
X314685326Y-252762395D01*
X314470405Y-252547474D01*
X314217685Y-252378611D01*
X313936877Y-252262297D01*
X313638772Y-252203000D01*
X313334828Y-252203000D01*
X313036723Y-252262297D01*
X313016939Y-252270492D01*
X313097826Y-252189605D01*
X313266689Y-251936885D01*
X313383003Y-251656077D01*
X313442300Y-251357972D01*
X313442300Y-251054028D01*
X313383003Y-250755923D01*
X313266689Y-250475115D01*
X313097826Y-250222395D01*
X312882905Y-250007474D01*
X312630185Y-249838611D01*
X312349377Y-249722297D01*
X312051272Y-249663000D01*
X311747328Y-249663000D01*
X311449223Y-249722297D01*
X311429439Y-249730492D01*
X311510326Y-249649605D01*
X311679189Y-249396885D01*
X311795503Y-249116077D01*
X311854800Y-248817972D01*
X311854800Y-248514028D01*
X311795503Y-248215923D01*
X311679189Y-247935115D01*
X311510326Y-247682395D01*
X311295405Y-247467474D01*
X311042685Y-247298611D01*
X310761877Y-247182297D01*
X310463772Y-247123000D01*
X310159828Y-247123000D01*
X309861723Y-247182297D01*
X309841939Y-247190492D01*
X309922826Y-247109605D01*
X310091689Y-246856885D01*
X310208003Y-246576077D01*
X310267300Y-246277972D01*
X310267300Y-245974028D01*
X310208003Y-245675923D01*
X310091689Y-245395115D01*
X309922826Y-245142395D01*
X309707905Y-244927474D01*
X309455185Y-244758611D01*
X309174377Y-244642297D01*
X308876272Y-244583000D01*
X308572328Y-244583000D01*
X308274223Y-244642297D01*
X308254439Y-244650492D01*
X308335326Y-244569605D01*
X308504189Y-244316885D01*
X308620503Y-244036077D01*
X308679800Y-243737972D01*
X308679800Y-243434028D01*
X308620503Y-243135923D01*
X308504189Y-242855115D01*
X308335326Y-242602395D01*
X308120405Y-242387474D01*
X307867685Y-242218611D01*
X307586877Y-242102297D01*
X307288772Y-242043000D01*
X306984828Y-242043000D01*
X306686723Y-242102297D01*
X306666939Y-242110492D01*
X306747826Y-242029605D01*
X306916689Y-241776885D01*
X307033003Y-241496077D01*
X307092300Y-241197972D01*
X307092300Y-240894028D01*
X307033003Y-240595923D01*
X306916689Y-240315115D01*
X306747826Y-240062395D01*
X306532905Y-239847474D01*
X306280185Y-239678611D01*
X305999377Y-239562297D01*
X305701272Y-239503000D01*
X305397328Y-239503000D01*
X305099223Y-239562297D01*
X305079439Y-239570492D01*
X305160326Y-239489605D01*
X305329189Y-239236885D01*
X305445503Y-238956077D01*
X305504800Y-238657972D01*
X305504800Y-238354028D01*
X305445503Y-238055923D01*
X305329189Y-237775115D01*
X305160326Y-237522395D01*
X304945405Y-237307474D01*
X304692685Y-237138611D01*
X304411877Y-237022297D01*
X304113772Y-236963000D01*
X303809828Y-236963000D01*
X303511723Y-237022297D01*
X303491939Y-237030492D01*
X303572826Y-236949605D01*
X303741689Y-236696885D01*
X303858003Y-236416077D01*
X303917300Y-236117972D01*
X303917300Y-235814028D01*
X303858003Y-235515923D01*
X303741689Y-235235115D01*
X303572826Y-234982395D01*
X303357905Y-234767474D01*
X303105185Y-234598611D01*
X302824377Y-234482297D01*
X302526272Y-234423000D01*
X302222328Y-234423000D01*
X301924223Y-234482297D01*
X301904439Y-234490492D01*
X301985326Y-234409605D01*
X302154189Y-234156885D01*
X302270503Y-233876077D01*
X302329800Y-233577972D01*
X302329800Y-233274028D01*
X302270503Y-232975923D01*
X302154189Y-232695115D01*
X301985326Y-232442395D01*
X301770405Y-232227474D01*
X301517685Y-232058611D01*
X301236877Y-231942297D01*
X300938772Y-231883000D01*
X300634828Y-231883000D01*
X300336723Y-231942297D01*
X300316939Y-231950492D01*
X300397826Y-231869605D01*
X300566689Y-231616885D01*
X300683003Y-231336077D01*
X300742300Y-231037972D01*
X300742300Y-230734028D01*
X300683003Y-230435923D01*
X300566689Y-230155115D01*
X300397826Y-229902395D01*
X300182905Y-229687474D01*
X299930185Y-229518611D01*
X299649377Y-229402297D01*
X299351272Y-229343000D01*
X299047328Y-229343000D01*
X298749223Y-229402297D01*
X298729439Y-229410492D01*
X298810326Y-229329605D01*
X298979189Y-229076885D01*
X299095503Y-228796077D01*
X299154800Y-228497972D01*
X299154800Y-228194028D01*
X299095503Y-227895923D01*
X298979189Y-227615115D01*
X298810326Y-227362395D01*
X298595405Y-227147474D01*
X298342685Y-226978611D01*
X298158599Y-226902360D01*
X318277000Y-226902360D01*
X318277000Y-227249640D01*
X318344751Y-227590248D01*
X318477650Y-227911093D01*
X318670589Y-228199847D01*
X318816742Y-228346000D01*
X318670589Y-228492153D01*
X318477650Y-228780907D01*
X318344751Y-229101752D01*
X318277000Y-229442360D01*
X318277000Y-229789640D01*
X318344751Y-230130248D01*
X318477650Y-230451093D01*
X318670589Y-230739847D01*
X318816742Y-230886000D01*
X318670589Y-231032153D01*
X318477650Y-231320907D01*
X318344751Y-231641752D01*
X318277000Y-231982360D01*
X318277000Y-232329640D01*
X318344751Y-232670248D01*
X318477650Y-232991093D01*
X318670589Y-233279847D01*
X318816742Y-233426000D01*
X318670589Y-233572153D01*
X318477650Y-233860907D01*
X318344751Y-234181752D01*
X318277000Y-234522360D01*
X318277000Y-234869640D01*
X318344751Y-235210248D01*
X318477650Y-235531093D01*
X318670589Y-235819847D01*
X318816742Y-235966000D01*
X318670589Y-236112153D01*
X318477650Y-236400907D01*
X318344751Y-236721752D01*
X318277000Y-237062360D01*
X318277000Y-237409640D01*
X318344751Y-237750248D01*
X318477650Y-238071093D01*
X318670589Y-238359847D01*
X318816742Y-238506000D01*
X318670589Y-238652153D01*
X318477650Y-238940907D01*
X318344751Y-239261752D01*
X318277000Y-239602360D01*
X318277000Y-239949640D01*
X318344751Y-240290248D01*
X318477650Y-240611093D01*
X318670589Y-240899847D01*
X318816742Y-241046000D01*
X318670589Y-241192153D01*
X318477650Y-241480907D01*
X318344751Y-241801752D01*
X318277000Y-242142360D01*
X318277000Y-242489640D01*
X318344751Y-242830248D01*
X318477650Y-243151093D01*
X318670589Y-243439847D01*
X318816742Y-243586000D01*
X318670589Y-243732153D01*
X318477650Y-244020907D01*
X318344751Y-244341752D01*
X318277000Y-244682360D01*
X318277000Y-245029640D01*
X318344751Y-245370248D01*
X318477650Y-245691093D01*
X318670589Y-245979847D01*
X318816742Y-246126000D01*
X318670589Y-246272153D01*
X318477650Y-246560907D01*
X318344751Y-246881752D01*
X318277000Y-247222360D01*
X318277000Y-247569640D01*
X318344751Y-247910248D01*
X318477650Y-248231093D01*
X318670589Y-248519847D01*
X318816742Y-248666000D01*
X318670589Y-248812153D01*
X318477650Y-249100907D01*
X318344751Y-249421752D01*
X318277000Y-249762360D01*
X318277000Y-250109640D01*
X318344751Y-250450248D01*
X318477650Y-250771093D01*
X318670589Y-251059847D01*
X318816742Y-251206000D01*
X318670589Y-251352153D01*
X318477650Y-251640907D01*
X318344751Y-251961752D01*
X318277000Y-252302360D01*
X318277000Y-252649640D01*
X318344751Y-252990248D01*
X318477650Y-253311093D01*
X318670589Y-253599847D01*
X318816742Y-253746000D01*
X318670589Y-253892153D01*
X318477650Y-254180907D01*
X318344751Y-254501752D01*
X318277000Y-254842360D01*
X318277000Y-255189640D01*
X318344751Y-255530248D01*
X318477650Y-255851093D01*
X318670589Y-256139847D01*
X318916153Y-256385411D01*
X319204907Y-256578350D01*
X319525752Y-256711249D01*
X319866360Y-256779000D01*
X320213640Y-256779000D01*
X320554248Y-256711249D01*
X320875093Y-256578350D01*
X321163847Y-256385411D01*
X321409411Y-256139847D01*
X321602350Y-255851093D01*
X321735249Y-255530248D01*
X321794717Y-255231282D01*
X321886999Y-255139000D01*
X344643946Y-255139000D01*
X344862923Y-255229703D01*
X345161028Y-255289000D01*
X345464972Y-255289000D01*
X345763077Y-255229703D01*
X346043885Y-255113389D01*
X346296605Y-254944526D01*
X346511526Y-254729605D01*
X346680389Y-254476885D01*
X346796703Y-254196077D01*
X346856000Y-253897972D01*
X346856000Y-253594028D01*
X346796703Y-253295923D01*
X346680389Y-253015115D01*
X346511526Y-252762395D01*
X346296605Y-252547474D01*
X346043885Y-252378611D01*
X345763077Y-252262297D01*
X345464972Y-252203000D01*
X345161028Y-252203000D01*
X344862923Y-252262297D01*
X344643946Y-252353000D01*
X341585631Y-252353000D01*
X341749026Y-252189605D01*
X341917889Y-251936885D01*
X342034203Y-251656077D01*
X342093500Y-251357972D01*
X342093500Y-251054028D01*
X342034203Y-250755923D01*
X341917889Y-250475115D01*
X341749026Y-250222395D01*
X341585631Y-250059000D01*
X343056446Y-250059000D01*
X343275423Y-250149703D01*
X343573528Y-250209000D01*
X343877472Y-250209000D01*
X344175577Y-250149703D01*
X344456385Y-250033389D01*
X344709105Y-249864526D01*
X344924026Y-249649605D01*
X345092889Y-249396885D01*
X345209203Y-249116077D01*
X345268500Y-248817972D01*
X345268500Y-248514028D01*
X345209203Y-248215923D01*
X345092889Y-247935115D01*
X344924026Y-247682395D01*
X344709105Y-247467474D01*
X344456385Y-247298611D01*
X344175577Y-247182297D01*
X343877472Y-247123000D01*
X343573528Y-247123000D01*
X343275423Y-247182297D01*
X343056446Y-247273000D01*
X339998131Y-247273000D01*
X340161526Y-247109605D01*
X340330389Y-246856885D01*
X340446703Y-246576077D01*
X340506000Y-246277972D01*
X340506000Y-245974028D01*
X340446703Y-245675923D01*
X340330389Y-245395115D01*
X340161526Y-245142395D01*
X339998131Y-244979000D01*
X341468946Y-244979000D01*
X341687923Y-245069703D01*
X341986028Y-245129000D01*
X342289972Y-245129000D01*
X342588077Y-245069703D01*
X342868885Y-244953389D01*
X343121605Y-244784526D01*
X343336526Y-244569605D01*
X343505389Y-244316885D01*
X343621703Y-244036077D01*
X343681000Y-243737972D01*
X343681000Y-243434028D01*
X343621703Y-243135923D01*
X343505389Y-242855115D01*
X343336526Y-242602395D01*
X343121605Y-242387474D01*
X342868885Y-242218611D01*
X342588077Y-242102297D01*
X342289972Y-242043000D01*
X341986028Y-242043000D01*
X341687923Y-242102297D01*
X341468946Y-242193000D01*
X338410631Y-242193000D01*
X338574026Y-242029605D01*
X338742889Y-241776885D01*
X338859203Y-241496077D01*
X338918500Y-241197972D01*
X338918500Y-240894028D01*
X338859203Y-240595923D01*
X338742889Y-240315115D01*
X338574026Y-240062395D01*
X338359105Y-239847474D01*
X338106385Y-239678611D01*
X337825577Y-239562297D01*
X337527472Y-239503000D01*
X337223528Y-239503000D01*
X336925423Y-239562297D01*
X336706446Y-239653000D01*
X335235631Y-239653000D01*
X335399026Y-239489605D01*
X335567889Y-239236885D01*
X335684203Y-238956077D01*
X335743500Y-238657972D01*
X335743500Y-238354028D01*
X335684203Y-238055923D01*
X335567889Y-237775115D01*
X335399026Y-237522395D01*
X335318139Y-237441508D01*
X335337923Y-237449703D01*
X335636028Y-237509000D01*
X335939972Y-237509000D01*
X336238077Y-237449703D01*
X336518885Y-237333389D01*
X336771605Y-237164526D01*
X336986526Y-236949605D01*
X337155389Y-236696885D01*
X337271703Y-236416077D01*
X337331000Y-236117972D01*
X337331000Y-235814028D01*
X337271703Y-235515923D01*
X337155389Y-235235115D01*
X336986526Y-234982395D01*
X336771605Y-234767474D01*
X336518885Y-234598611D01*
X336238077Y-234482297D01*
X335939972Y-234423000D01*
X335636028Y-234423000D01*
X335337923Y-234482297D01*
X335118946Y-234573000D01*
X333648131Y-234573000D01*
X333811526Y-234409605D01*
X333980389Y-234156885D01*
X334096703Y-233876077D01*
X334156000Y-233577972D01*
X334156000Y-233274028D01*
X334096703Y-232975923D01*
X333980389Y-232695115D01*
X333811526Y-232442395D01*
X333596605Y-232227474D01*
X333343885Y-232058611D01*
X333063077Y-231942297D01*
X332764972Y-231883000D01*
X332461028Y-231883000D01*
X332162923Y-231942297D01*
X332143139Y-231950492D01*
X332224026Y-231869605D01*
X332392889Y-231616885D01*
X332509203Y-231336077D01*
X332568500Y-231037972D01*
X332568500Y-230734028D01*
X332509203Y-230435923D01*
X332392889Y-230155115D01*
X332224026Y-229902395D01*
X332060631Y-229739000D01*
X354295946Y-229739000D01*
X354514923Y-229829703D01*
X354813028Y-229889000D01*
X355116972Y-229889000D01*
X355415077Y-229829703D01*
X355695885Y-229713389D01*
X355948605Y-229544526D01*
X356163526Y-229329605D01*
X356332389Y-229076885D01*
X356448703Y-228796077D01*
X356508000Y-228497972D01*
X356508000Y-228194028D01*
X356448703Y-227895923D01*
X356332389Y-227615115D01*
X356163526Y-227362395D01*
X355948605Y-227147474D01*
X355695885Y-226978611D01*
X355415077Y-226862297D01*
X355116972Y-226803000D01*
X354813028Y-226803000D01*
X354514923Y-226862297D01*
X354495139Y-226870492D01*
X354576026Y-226789605D01*
X354744889Y-226536885D01*
X354861203Y-226256077D01*
X354920500Y-225957972D01*
X354920500Y-225654028D01*
X354861203Y-225355923D01*
X354744889Y-225075115D01*
X354576026Y-224822395D01*
X354361105Y-224607474D01*
X354108385Y-224438611D01*
X353827577Y-224322297D01*
X353529472Y-224263000D01*
X353225528Y-224263000D01*
X352927423Y-224322297D01*
X352708446Y-224413000D01*
X321378430Y-224413000D01*
X321309999Y-224406260D01*
X321070581Y-224429841D01*
X321036924Y-224433156D01*
X320774343Y-224512809D01*
X320532346Y-224642159D01*
X320320234Y-224816234D01*
X320276606Y-224869395D01*
X319824718Y-225321283D01*
X319525752Y-225380751D01*
X319204907Y-225513650D01*
X318916153Y-225706589D01*
X318670589Y-225952153D01*
X318477650Y-226240907D01*
X318344751Y-226561752D01*
X318277000Y-226902360D01*
X298158599Y-226902360D01*
X298061877Y-226862297D01*
X297763772Y-226803000D01*
X297459828Y-226803000D01*
X297161723Y-226862297D01*
X297141939Y-226870492D01*
X297222826Y-226789605D01*
X297391689Y-226536885D01*
X297508003Y-226256077D01*
X297567300Y-225957972D01*
X297567300Y-225654028D01*
X297508003Y-225355923D01*
X297391689Y-225075115D01*
X297222826Y-224822395D01*
X297007905Y-224607474D01*
X296755185Y-224438611D01*
X296474377Y-224322297D01*
X296176272Y-224263000D01*
X295872328Y-224263000D01*
X295574223Y-224322297D01*
X295554439Y-224330492D01*
X295635326Y-224249605D01*
X295804189Y-223996885D01*
X295920503Y-223716077D01*
X295979800Y-223417972D01*
X295979800Y-223114028D01*
X295920503Y-222815923D01*
X295804189Y-222535115D01*
X295635326Y-222282395D01*
X295420405Y-222067474D01*
X295167685Y-221898611D01*
X294886877Y-221782297D01*
X294588772Y-221723000D01*
X294284828Y-221723000D01*
X293986723Y-221782297D01*
X293966939Y-221790492D01*
X294047826Y-221709605D01*
X294216689Y-221456885D01*
X294333003Y-221176077D01*
X294392300Y-220877972D01*
X294392300Y-220574028D01*
X294333003Y-220275923D01*
X294216689Y-219995115D01*
X294047826Y-219742395D01*
X293832905Y-219527474D01*
X293580185Y-219358611D01*
X293299377Y-219242297D01*
X293001272Y-219183000D01*
X292697328Y-219183000D01*
X292399223Y-219242297D01*
X292379439Y-219250492D01*
X292460326Y-219169605D01*
X292629189Y-218916885D01*
X292745503Y-218636077D01*
X292804800Y-218337972D01*
X292804800Y-218034028D01*
X292745503Y-217735923D01*
X292629189Y-217455115D01*
X292460326Y-217202395D01*
X292245405Y-216987474D01*
X291992685Y-216818611D01*
X291711877Y-216702297D01*
X291413772Y-216643000D01*
X291109828Y-216643000D01*
X290811723Y-216702297D01*
X290791939Y-216710492D01*
X290872826Y-216629605D01*
X291041689Y-216376885D01*
X291158003Y-216096077D01*
X291217300Y-215797972D01*
X291217300Y-215494028D01*
X291158003Y-215195923D01*
X291041689Y-214915115D01*
X290872826Y-214662395D01*
X290657905Y-214447474D01*
X290405185Y-214278611D01*
X290221099Y-214202360D01*
X318277000Y-214202360D01*
X318277000Y-214549640D01*
X318344751Y-214890248D01*
X318477650Y-215211093D01*
X318670589Y-215499847D01*
X318816742Y-215646000D01*
X318670589Y-215792153D01*
X318477650Y-216080907D01*
X318344751Y-216401752D01*
X318277000Y-216742360D01*
X318277000Y-217089640D01*
X318344751Y-217430248D01*
X318477650Y-217751093D01*
X318670589Y-218039847D01*
X318816742Y-218186000D01*
X318670589Y-218332153D01*
X318477650Y-218620907D01*
X318344751Y-218941752D01*
X318277000Y-219282360D01*
X318277000Y-219629640D01*
X318344751Y-219970248D01*
X318477650Y-220291093D01*
X318670589Y-220579847D01*
X318816742Y-220726000D01*
X318670589Y-220872153D01*
X318477650Y-221160907D01*
X318344751Y-221481752D01*
X318277000Y-221822360D01*
X318277000Y-222169640D01*
X318344751Y-222510248D01*
X318477650Y-222831093D01*
X318670589Y-223119847D01*
X318916153Y-223365411D01*
X319204907Y-223558350D01*
X319525752Y-223691249D01*
X319866360Y-223759000D01*
X320213640Y-223759000D01*
X320554248Y-223691249D01*
X320875093Y-223558350D01*
X321163847Y-223365411D01*
X321409411Y-223119847D01*
X321602350Y-222831093D01*
X321735249Y-222510248D01*
X321794717Y-222211282D01*
X321886999Y-222119000D01*
X355883446Y-222119000D01*
X356102423Y-222209703D01*
X356396609Y-222268220D01*
X356444751Y-222510248D01*
X356577650Y-222831093D01*
X356770589Y-223119847D01*
X356916742Y-223266000D01*
X356770589Y-223412153D01*
X356577650Y-223700907D01*
X356444751Y-224021752D01*
X356377000Y-224362360D01*
X356377000Y-224709640D01*
X356444751Y-225050248D01*
X356577650Y-225371093D01*
X356770589Y-225659847D01*
X356916742Y-225806000D01*
X356770589Y-225952153D01*
X356577650Y-226240907D01*
X356444751Y-226561752D01*
X356377000Y-226902360D01*
X356377000Y-227249640D01*
X356444751Y-227590248D01*
X356577650Y-227911093D01*
X356770589Y-228199847D01*
X356916742Y-228346000D01*
X356770589Y-228492153D01*
X356577650Y-228780907D01*
X356444751Y-229101752D01*
X356377000Y-229442360D01*
X356377000Y-229789640D01*
X356444751Y-230130248D01*
X356577650Y-230451093D01*
X356770589Y-230739847D01*
X356916742Y-230886000D01*
X356770589Y-231032153D01*
X356577650Y-231320907D01*
X356444751Y-231641752D01*
X356377000Y-231982360D01*
X356377000Y-232329640D01*
X356444751Y-232670248D01*
X356577650Y-232991093D01*
X356770589Y-233279847D01*
X356916742Y-233426000D01*
X356770589Y-233572153D01*
X356577650Y-233860907D01*
X356444751Y-234181752D01*
X356377000Y-234522360D01*
X356377000Y-234869640D01*
X356444751Y-235210248D01*
X356577650Y-235531093D01*
X356770589Y-235819847D01*
X356916742Y-235966000D01*
X356770589Y-236112153D01*
X356577650Y-236400907D01*
X356444751Y-236721752D01*
X356377000Y-237062360D01*
X356377000Y-237409640D01*
X356444751Y-237750248D01*
X356577650Y-238071093D01*
X356770589Y-238359847D01*
X356916742Y-238506000D01*
X356770589Y-238652153D01*
X356577650Y-238940907D01*
X356444751Y-239261752D01*
X356377000Y-239602360D01*
X356377000Y-239949640D01*
X356444751Y-240290248D01*
X356577650Y-240611093D01*
X356770589Y-240899847D01*
X356916742Y-241046000D01*
X356770589Y-241192153D01*
X356577650Y-241480907D01*
X356444751Y-241801752D01*
X356377000Y-242142360D01*
X356377000Y-242489640D01*
X356444751Y-242830248D01*
X356577650Y-243151093D01*
X356770589Y-243439847D01*
X356916742Y-243586000D01*
X356770589Y-243732153D01*
X356577650Y-244020907D01*
X356444751Y-244341752D01*
X356377000Y-244682360D01*
X356377000Y-245029640D01*
X356444751Y-245370248D01*
X356577650Y-245691093D01*
X356770589Y-245979847D01*
X356916742Y-246126000D01*
X356770589Y-246272153D01*
X356577650Y-246560907D01*
X356444751Y-246881752D01*
X356377000Y-247222360D01*
X356377000Y-247569640D01*
X356444751Y-247910248D01*
X356577650Y-248231093D01*
X356770589Y-248519847D01*
X356916742Y-248666000D01*
X356770589Y-248812153D01*
X356577650Y-249100907D01*
X356444751Y-249421752D01*
X356377000Y-249762360D01*
X356377000Y-250109640D01*
X356444751Y-250450248D01*
X356577650Y-250771093D01*
X356770589Y-251059847D01*
X356916742Y-251206000D01*
X356770589Y-251352153D01*
X356577650Y-251640907D01*
X356444751Y-251961752D01*
X356377000Y-252302360D01*
X356377000Y-252649640D01*
X356444751Y-252990248D01*
X356577650Y-253311093D01*
X356770589Y-253599847D01*
X356916742Y-253746000D01*
X356770589Y-253892153D01*
X356577650Y-254180907D01*
X356444751Y-254501752D01*
X356377000Y-254842360D01*
X356377000Y-255189640D01*
X356444751Y-255530248D01*
X356577650Y-255851093D01*
X356770589Y-256139847D01*
X357016153Y-256385411D01*
X357304907Y-256578350D01*
X357625752Y-256711249D01*
X357966360Y-256779000D01*
X358313640Y-256779000D01*
X358654248Y-256711249D01*
X358975093Y-256578350D01*
X359263847Y-256385411D01*
X359509411Y-256139847D01*
X359702350Y-255851093D01*
X359835249Y-255530248D01*
X359894717Y-255231282D01*
X359986999Y-255139000D01*
X393780246Y-255139000D01*
X393999223Y-255229703D01*
X394297328Y-255289000D01*
X394601272Y-255289000D01*
X394899377Y-255229703D01*
X395180185Y-255113389D01*
X395432905Y-254944526D01*
X395647826Y-254729605D01*
X395816689Y-254476885D01*
X395933003Y-254196077D01*
X395992300Y-253897972D01*
X395992300Y-253594028D01*
X395933003Y-253295923D01*
X395816689Y-253015115D01*
X395647826Y-252762395D01*
X395432905Y-252547474D01*
X395180185Y-252378611D01*
X394899377Y-252262297D01*
X394601272Y-252203000D01*
X394297328Y-252203000D01*
X393999223Y-252262297D01*
X393979439Y-252270492D01*
X394060326Y-252189605D01*
X394229189Y-251936885D01*
X394345503Y-251656077D01*
X394404800Y-251357972D01*
X394404800Y-251054028D01*
X394345503Y-250755923D01*
X394229189Y-250475115D01*
X394060326Y-250222395D01*
X393845405Y-250007474D01*
X393592685Y-249838611D01*
X393311877Y-249722297D01*
X393013772Y-249663000D01*
X392709828Y-249663000D01*
X392411723Y-249722297D01*
X392391939Y-249730492D01*
X392472826Y-249649605D01*
X392641689Y-249396885D01*
X392758003Y-249116077D01*
X392817300Y-248817972D01*
X392817300Y-248514028D01*
X392758003Y-248215923D01*
X392641689Y-247935115D01*
X392472826Y-247682395D01*
X392257905Y-247467474D01*
X392005185Y-247298611D01*
X391724377Y-247182297D01*
X391426272Y-247123000D01*
X391122328Y-247123000D01*
X390824223Y-247182297D01*
X390804439Y-247190492D01*
X390885326Y-247109605D01*
X391054189Y-246856885D01*
X391170503Y-246576077D01*
X391229800Y-246277972D01*
X391229800Y-245974028D01*
X391170503Y-245675923D01*
X391054189Y-245395115D01*
X390885326Y-245142395D01*
X390670405Y-244927474D01*
X390417685Y-244758611D01*
X390136877Y-244642297D01*
X389838772Y-244583000D01*
X389534828Y-244583000D01*
X389236723Y-244642297D01*
X389216939Y-244650492D01*
X389297826Y-244569605D01*
X389466689Y-244316885D01*
X389583003Y-244036077D01*
X389642300Y-243737972D01*
X389642300Y-243434028D01*
X389583003Y-243135923D01*
X389466689Y-242855115D01*
X389297826Y-242602395D01*
X389082905Y-242387474D01*
X388830185Y-242218611D01*
X388549377Y-242102297D01*
X388251272Y-242043000D01*
X387947328Y-242043000D01*
X387649223Y-242102297D01*
X387629439Y-242110492D01*
X387710326Y-242029605D01*
X387879189Y-241776885D01*
X387995503Y-241496077D01*
X388054800Y-241197972D01*
X388054800Y-240894028D01*
X387995503Y-240595923D01*
X387879189Y-240315115D01*
X387710326Y-240062395D01*
X387495405Y-239847474D01*
X387242685Y-239678611D01*
X386961877Y-239562297D01*
X386663772Y-239503000D01*
X386359828Y-239503000D01*
X386061723Y-239562297D01*
X386041939Y-239570492D01*
X386122826Y-239489605D01*
X386291689Y-239236885D01*
X386408003Y-238956077D01*
X386467300Y-238657972D01*
X386467300Y-238354028D01*
X386408003Y-238055923D01*
X386291689Y-237775115D01*
X386122826Y-237522395D01*
X385907905Y-237307474D01*
X385655185Y-237138611D01*
X385374377Y-237022297D01*
X385076272Y-236963000D01*
X384772328Y-236963000D01*
X384474223Y-237022297D01*
X384454439Y-237030492D01*
X384535326Y-236949605D01*
X384704189Y-236696885D01*
X384820503Y-236416077D01*
X384879800Y-236117972D01*
X384879800Y-235814028D01*
X384820503Y-235515923D01*
X384704189Y-235235115D01*
X384535326Y-234982395D01*
X384320405Y-234767474D01*
X384067685Y-234598611D01*
X383786877Y-234482297D01*
X383488772Y-234423000D01*
X383184828Y-234423000D01*
X382886723Y-234482297D01*
X382866939Y-234490492D01*
X382947826Y-234409605D01*
X383116689Y-234156885D01*
X383233003Y-233876077D01*
X383292300Y-233577972D01*
X383292300Y-233274028D01*
X383233003Y-232975923D01*
X383116689Y-232695115D01*
X382947826Y-232442395D01*
X382732905Y-232227474D01*
X382480185Y-232058611D01*
X382199377Y-231942297D01*
X381901272Y-231883000D01*
X381597328Y-231883000D01*
X381299223Y-231942297D01*
X381279439Y-231950492D01*
X381360326Y-231869605D01*
X381529189Y-231616885D01*
X381645503Y-231336077D01*
X381704800Y-231037972D01*
X381704800Y-230734028D01*
X381645503Y-230435923D01*
X381529189Y-230155115D01*
X381360326Y-229902395D01*
X381145405Y-229687474D01*
X380892685Y-229518611D01*
X380611877Y-229402297D01*
X380313772Y-229343000D01*
X380009828Y-229343000D01*
X379711723Y-229402297D01*
X379691939Y-229410492D01*
X379772826Y-229329605D01*
X379941689Y-229076885D01*
X380058003Y-228796077D01*
X380117300Y-228497972D01*
X380117300Y-228194028D01*
X380058003Y-227895923D01*
X379941689Y-227615115D01*
X379772826Y-227362395D01*
X379557905Y-227147474D01*
X379305185Y-226978611D01*
X379024377Y-226862297D01*
X378726272Y-226803000D01*
X378422328Y-226803000D01*
X378124223Y-226862297D01*
X378104439Y-226870492D01*
X378185326Y-226789605D01*
X378354189Y-226536885D01*
X378470503Y-226256077D01*
X378529800Y-225957972D01*
X378529800Y-225654028D01*
X378470503Y-225355923D01*
X378354189Y-225075115D01*
X378185326Y-224822395D01*
X377970405Y-224607474D01*
X377717685Y-224438611D01*
X377436877Y-224322297D01*
X377138772Y-224263000D01*
X376834828Y-224263000D01*
X376536723Y-224322297D01*
X376516939Y-224330492D01*
X376597826Y-224249605D01*
X376766689Y-223996885D01*
X376883003Y-223716077D01*
X376942300Y-223417972D01*
X376942300Y-223114028D01*
X376883003Y-222815923D01*
X376766689Y-222535115D01*
X376597826Y-222282395D01*
X376382905Y-222067474D01*
X376130185Y-221898611D01*
X375849377Y-221782297D01*
X375551272Y-221723000D01*
X375247328Y-221723000D01*
X374949223Y-221782297D01*
X374929439Y-221790492D01*
X375010326Y-221709605D01*
X375179189Y-221456885D01*
X375295503Y-221176077D01*
X375354800Y-220877972D01*
X375354800Y-220574028D01*
X375295503Y-220275923D01*
X375179189Y-219995115D01*
X375010326Y-219742395D01*
X374795405Y-219527474D01*
X374542685Y-219358611D01*
X374261877Y-219242297D01*
X373963772Y-219183000D01*
X373659828Y-219183000D01*
X373361723Y-219242297D01*
X373341939Y-219250492D01*
X373422826Y-219169605D01*
X373591689Y-218916885D01*
X373708003Y-218636077D01*
X373767300Y-218337972D01*
X373767300Y-218034028D01*
X373708003Y-217735923D01*
X373591689Y-217455115D01*
X373422826Y-217202395D01*
X373207905Y-216987474D01*
X372955185Y-216818611D01*
X372674377Y-216702297D01*
X372376272Y-216643000D01*
X372072328Y-216643000D01*
X371774223Y-216702297D01*
X371754439Y-216710492D01*
X371835326Y-216629605D01*
X372004189Y-216376885D01*
X372120503Y-216096077D01*
X372179800Y-215797972D01*
X372179800Y-215494028D01*
X372120503Y-215195923D01*
X372004189Y-214915115D01*
X371835326Y-214662395D01*
X371620405Y-214447474D01*
X371367685Y-214278611D01*
X371086877Y-214162297D01*
X370788772Y-214103000D01*
X370484828Y-214103000D01*
X370186723Y-214162297D01*
X370166939Y-214170492D01*
X370247826Y-214089605D01*
X370416689Y-213836885D01*
X370533003Y-213556077D01*
X370592300Y-213257972D01*
X370592300Y-212954028D01*
X370533003Y-212655923D01*
X370416689Y-212375115D01*
X370247826Y-212122395D01*
X370032905Y-211907474D01*
X369780185Y-211738611D01*
X369499377Y-211622297D01*
X369201272Y-211563000D01*
X368897328Y-211563000D01*
X368599223Y-211622297D01*
X368579439Y-211630492D01*
X368660326Y-211549605D01*
X368829189Y-211296885D01*
X368945503Y-211016077D01*
X369004800Y-210717972D01*
X369004800Y-210414028D01*
X368945503Y-210115923D01*
X368829189Y-209835115D01*
X368660326Y-209582395D01*
X368445405Y-209367474D01*
X368192685Y-209198611D01*
X367911877Y-209082297D01*
X367613772Y-209023000D01*
X367309828Y-209023000D01*
X367011723Y-209082297D01*
X366792746Y-209173000D01*
X359478430Y-209173000D01*
X359409999Y-209166260D01*
X359170581Y-209189841D01*
X359136924Y-209193156D01*
X358874343Y-209272809D01*
X358632346Y-209402159D01*
X358420234Y-209576234D01*
X358376606Y-209629395D01*
X357924718Y-210081283D01*
X357625752Y-210140751D01*
X357304907Y-210273650D01*
X357016153Y-210466589D01*
X356770589Y-210712153D01*
X356577650Y-211000907D01*
X356444751Y-211321752D01*
X356377000Y-211662360D01*
X356377000Y-212009640D01*
X356444751Y-212350248D01*
X356577650Y-212671093D01*
X356770589Y-212959847D01*
X356916742Y-213106000D01*
X356770589Y-213252153D01*
X356577650Y-213540907D01*
X356444751Y-213861752D01*
X356377000Y-214202360D01*
X356377000Y-214549640D01*
X356444751Y-214890248D01*
X356577650Y-215211093D01*
X356770589Y-215499847D01*
X356916742Y-215646000D01*
X356770589Y-215792153D01*
X356577650Y-216080907D01*
X356444751Y-216401752D01*
X356377000Y-216742360D01*
X356377000Y-217089640D01*
X356444751Y-217430248D01*
X356577650Y-217751093D01*
X356770589Y-218039847D01*
X356916742Y-218186000D01*
X356770589Y-218332153D01*
X356577650Y-218620907D01*
X356444751Y-218941752D01*
X356396609Y-219183780D01*
X356102423Y-219242297D01*
X355883446Y-219333000D01*
X321803000Y-219333000D01*
X321803000Y-219282360D01*
X321735249Y-218941752D01*
X321602350Y-218620907D01*
X321409411Y-218332153D01*
X321263258Y-218186000D01*
X321409411Y-218039847D01*
X321602350Y-217751093D01*
X321735249Y-217430248D01*
X321803000Y-217089640D01*
X321803000Y-216742360D01*
X321735249Y-216401752D01*
X321602350Y-216080907D01*
X321409411Y-215792153D01*
X321263258Y-215646000D01*
X321409411Y-215499847D01*
X321602350Y-215211093D01*
X321735249Y-214890248D01*
X321803000Y-214549640D01*
X321803000Y-214202360D01*
X321735249Y-213861752D01*
X321602350Y-213540907D01*
X321409411Y-213252153D01*
X321163847Y-213006589D01*
X320875093Y-212813650D01*
X320554248Y-212680751D01*
X320213640Y-212613000D01*
X319866360Y-212613000D01*
X319525752Y-212680751D01*
X319204907Y-212813650D01*
X318916153Y-213006589D01*
X318670589Y-213252153D01*
X318477650Y-213540907D01*
X318344751Y-213861752D01*
X318277000Y-214202360D01*
X290221099Y-214202360D01*
X290124377Y-214162297D01*
X289826272Y-214103000D01*
X289522328Y-214103000D01*
X289224223Y-214162297D01*
X289204439Y-214170492D01*
X289285326Y-214089605D01*
X289454189Y-213836885D01*
X289570503Y-213556077D01*
X289629800Y-213257972D01*
X289629800Y-212954028D01*
X289570503Y-212655923D01*
X289454189Y-212375115D01*
X289285326Y-212122395D01*
X289070405Y-211907474D01*
X288817685Y-211738611D01*
X288536877Y-211622297D01*
X288238772Y-211563000D01*
X287934828Y-211563000D01*
X287636723Y-211622297D01*
X287417746Y-211713000D01*
X283703000Y-211713000D01*
X283703000Y-211662360D01*
X283635249Y-211321752D01*
X283502350Y-211000907D01*
X283309411Y-210712153D01*
X283163258Y-210566000D01*
X283309411Y-210419847D01*
X283502350Y-210131093D01*
X283635249Y-209810248D01*
X283703000Y-209469640D01*
X283703000Y-209122360D01*
X283635249Y-208781752D01*
X283502350Y-208460907D01*
X283309411Y-208172153D01*
X283063847Y-207926589D01*
X282775093Y-207733650D01*
X282454248Y-207600751D01*
X282113640Y-207533000D01*
X281766360Y-207533000D01*
X281425752Y-207600751D01*
X281104907Y-207733650D01*
X280816153Y-207926589D01*
X280570589Y-208172153D01*
X280377650Y-208460907D01*
X280244751Y-208781752D01*
X280177000Y-209122360D01*
X276555200Y-209122360D01*
X276555200Y-206136000D01*
X318271470Y-206136000D01*
X318271470Y-207376000D01*
X318293539Y-207600067D01*
X318358897Y-207815523D01*
X318465032Y-208014089D01*
X318607867Y-208188133D01*
X318641480Y-208215718D01*
X318477650Y-208460907D01*
X318344751Y-208781752D01*
X318277000Y-209122360D01*
X318277000Y-209469640D01*
X318344751Y-209810248D01*
X318477650Y-210131093D01*
X318670589Y-210419847D01*
X318916153Y-210665411D01*
X319204907Y-210858350D01*
X319525752Y-210991249D01*
X319824718Y-211050717D01*
X320276606Y-211502605D01*
X320320234Y-211555766D01*
X320532346Y-211729841D01*
X320774343Y-211859191D01*
X321018941Y-211933389D01*
X321036924Y-211938844D01*
X321309999Y-211965740D01*
X321378430Y-211959000D01*
X351120946Y-211959000D01*
X351339923Y-212049703D01*
X351638028Y-212109000D01*
X351941972Y-212109000D01*
X352240077Y-212049703D01*
X352520885Y-211933389D01*
X352773605Y-211764526D01*
X352988526Y-211549605D01*
X353157389Y-211296885D01*
X353273703Y-211016077D01*
X353333000Y-210717972D01*
X353333000Y-210414028D01*
X353273703Y-210115923D01*
X353157389Y-209835115D01*
X353136200Y-209803404D01*
X353136200Y-208149000D01*
X356675751Y-208149000D01*
X356707867Y-208188133D01*
X356881911Y-208330968D01*
X357080477Y-208437103D01*
X357295933Y-208502461D01*
X357520000Y-208524530D01*
X358760000Y-208524530D01*
X358984067Y-208502461D01*
X359199523Y-208437103D01*
X359398089Y-208330968D01*
X359572133Y-208188133D01*
X359714968Y-208014089D01*
X359821103Y-207815523D01*
X359886461Y-207600067D01*
X359908530Y-207376000D01*
X359908530Y-206136000D01*
X359886461Y-205911933D01*
X359821103Y-205696477D01*
X359714968Y-205497911D01*
X359572133Y-205323867D01*
X359398089Y-205181032D01*
X359199523Y-205074897D01*
X358984067Y-205009539D01*
X358760000Y-204987470D01*
X357520000Y-204987470D01*
X357295933Y-205009539D01*
X357080477Y-205074897D01*
X356881911Y-205181032D01*
X356707867Y-205323867D01*
X356675751Y-205363000D01*
X330107054Y-205363000D01*
X329888077Y-205272297D01*
X329589972Y-205213000D01*
X329286028Y-205213000D01*
X328987923Y-205272297D01*
X328707115Y-205388611D01*
X328454395Y-205557474D01*
X328239474Y-205772395D01*
X328070611Y-206025115D01*
X327954297Y-206305923D01*
X327919074Y-206483000D01*
X327698528Y-206483000D01*
X327400423Y-206542297D01*
X327181446Y-206633000D01*
X321886999Y-206633000D01*
X321808530Y-206554531D01*
X321808530Y-206136000D01*
X321786461Y-205911933D01*
X321721103Y-205696477D01*
X321614968Y-205497911D01*
X321472133Y-205323867D01*
X321298089Y-205181032D01*
X321099523Y-205074897D01*
X320884067Y-205009539D01*
X320660000Y-204987470D01*
X319420000Y-204987470D01*
X319195933Y-205009539D01*
X318980477Y-205074897D01*
X318781911Y-205181032D01*
X318607867Y-205323867D01*
X318465032Y-205497911D01*
X318358897Y-205696477D01*
X318293539Y-205911933D01*
X318271470Y-206136000D01*
X276555200Y-206136000D01*
X276555200Y-200670953D01*
X281252000Y-200670953D01*
X281252000Y-201161047D01*
X281347613Y-201641723D01*
X281535163Y-202094510D01*
X281807444Y-202502007D01*
X282153993Y-202848556D01*
X282561490Y-203120837D01*
X283014277Y-203308387D01*
X283494953Y-203404000D01*
X283985047Y-203404000D01*
X284465723Y-203308387D01*
X284918510Y-203120837D01*
X285326007Y-202848556D01*
X285672556Y-202502007D01*
X285944837Y-202094510D01*
X286132387Y-201641723D01*
X286228000Y-201161047D01*
X286228000Y-200670953D01*
X319352000Y-200670953D01*
X319352000Y-201161047D01*
X319447613Y-201641723D01*
X319635163Y-202094510D01*
X319907444Y-202502007D01*
X320253993Y-202848556D01*
X320661490Y-203120837D01*
X321114277Y-203308387D01*
X321594953Y-203404000D01*
X322085047Y-203404000D01*
X322565723Y-203308387D01*
X323018510Y-203120837D01*
X323426007Y-202848556D01*
X323772556Y-202502007D01*
X324044837Y-202094510D01*
X324232387Y-201641723D01*
X324328000Y-201161047D01*
X324328000Y-200670953D01*
X357452000Y-200670953D01*
X357452000Y-201161047D01*
X357547613Y-201641723D01*
X357735163Y-202094510D01*
X358007444Y-202502007D01*
X358353993Y-202848556D01*
X358761490Y-203120837D01*
X359214277Y-203308387D01*
X359694953Y-203404000D01*
X360185047Y-203404000D01*
X360665723Y-203308387D01*
X361118510Y-203120837D01*
X361526007Y-202848556D01*
X361872556Y-202502007D01*
X362144837Y-202094510D01*
X362332387Y-201641723D01*
X362428000Y-201161047D01*
X362428000Y-200670953D01*
X362332387Y-200190277D01*
X362144837Y-199737490D01*
X361872556Y-199329993D01*
X361526007Y-198983444D01*
X361118510Y-198711163D01*
X360665723Y-198523613D01*
X360185047Y-198428000D01*
X359694953Y-198428000D01*
X359214277Y-198523613D01*
X358761490Y-198711163D01*
X358353993Y-198983444D01*
X358007444Y-199329993D01*
X357735163Y-199737490D01*
X357547613Y-200190277D01*
X357452000Y-200670953D01*
X324328000Y-200670953D01*
X324232387Y-200190277D01*
X324044837Y-199737490D01*
X323772556Y-199329993D01*
X323426007Y-198983444D01*
X323018510Y-198711163D01*
X322565723Y-198523613D01*
X322085047Y-198428000D01*
X321594953Y-198428000D01*
X321114277Y-198523613D01*
X320661490Y-198711163D01*
X320253993Y-198983444D01*
X319907444Y-199329993D01*
X319635163Y-199737490D01*
X319447613Y-200190277D01*
X319352000Y-200670953D01*
X286228000Y-200670953D01*
X286132387Y-200190277D01*
X285944837Y-199737490D01*
X285672556Y-199329993D01*
X285326007Y-198983444D01*
X284918510Y-198711163D01*
X284465723Y-198523613D01*
X283985047Y-198428000D01*
X283494953Y-198428000D01*
X283014277Y-198523613D01*
X282561490Y-198711163D01*
X282153993Y-198983444D01*
X281807444Y-199329993D01*
X281535163Y-199737490D01*
X281347613Y-200190277D01*
X281252000Y-200670953D01*
X276555200Y-200670953D01*
X276555200Y-192392487D01*
X404495000Y-192430213D01*
G37*
G04 #@! TD.AperFunction*
M02*
